<?xml version="1.0" standalone="no"?>
<!DOCTYPE svg PUBLIC "-//W3C//DTD SVG 1.1//EN" "http://www.w3.org/Graphics/SVG/1.1/DTD/svg11.dtd" >
<svg xmlns="http://www.w3.org/2000/svg" xmlns:xlink="http://www.w3.org/1999/xlink" version="1.1">
<metadata>
Created by FontForge 20170910 at Fri Sep  4 15:01:57 2015
 By Jimmy Wärting
(URW)++,Copyright 2006 by (URW)++ Design &#38; Development
</metadata>
<defs>
<font id="EurostileExt-Bla" horiz-adv-x="1024" >
  <font-face 
    font-family="EurostileExtBla"
    font-weight="400"
    font-stretch="normal"
    units-per-em="2048"
    panose-1="0 0 0 0 0 0 0 0 0 0"
    ascent="1632"
    descent="-416"
    x-height="956"
    cap-height="1365"
    bbox="-440 -560 3392 1896"
    underline-thickness="221"
    underline-position="-322"
    unicode-range="U+0020-FB04"
  />
<missing-glyph horiz-adv-x="512" 
d="M51 0v1365h410v-1365h-410zM410 51v1263h-308v-1263h308z" />
    <glyph glyph-name=".notdef" horiz-adv-x="512" 
d="M51 0v1365h410v-1365h-410zM410 51v1263h-308v-1263h308z" />
    <glyph glyph-name="_" horiz-adv-x="0" 
 />
    <glyph glyph-name="_001" horiz-adv-x="512" 
 />
    <glyph glyph-name="space" unicode=" " horiz-adv-x="512" 
 />
    <glyph glyph-name="exclam" unicode="!" horiz-adv-x="657" 
d="M530 1365l-23 -807h-357l-18 807h398zM126 0v374h397v-374h-397z" />
    <glyph glyph-name="quotedbl" unicode="&#x22;" horiz-adv-x="790" 
d="M302 817h-189l-45 548h279zM676 817h-189l-44 548h279z" />
    <glyph glyph-name="numbersign" unicode="#" horiz-adv-x="1461" 
d="M1275 603l-34 -221h-210l-61 -382h-258l65 382h-192l-62 -382h-246l62 382h-211l33 221h211l30 187h-209l33 221h209l56 354h249l-60 -354h196l57 354h252l-58 -354h208l-33 -221h-208l-30 -187h211zM842 790h-192l-29 -187h191z" />
    <glyph glyph-name="dollar" unicode="$" horiz-adv-x="1947" 
d="M880 -144v144q-233 0 -365 8q-171 12 -254 43q-117 45 -161 149q-31 70 -31 183q0 33 5 90h339q-2 -28 -2 -40q0 -104 74 -128q68 -22 395 -21v292l-266 3q-104 1 -216 11q-180 16 -251 134q-54 89 -54 243q0 201 86 292q65 69 183 91q76 14 224 15h250h44v110h179v-110
q291 -2 375 -6q171 -8 248 -39q100 -41 135 -128q27 -64 27 -193v-36h-347q-2 54 -24 79q-24 28 -84 38q-34 5 -117 5q-107 0 -213 1v-244l286 -7q157 -3 248 -18q169 -28 234 -124q52 -77 52 -260q0 -200 -73 -293q-53 -68 -168 -103q-99 -30 -396 -35q-62 0 -183 -2v-144
h-179zM1059 283l61 1h186q111 -1 149 12q75 25 75 133q0 87 -60 115q-43 20 -134 22q-17 0 -88 1l-189 3v-287zM880 1087h-212q-147 1 -180 -19q-39 -24 -39 -92q0 -84 56 -110q31 -14 134 -16l241 -2v239z" />
    <glyph glyph-name="percent" unicode="%" horiz-adv-x="2224" 
d="M533 1368q173 0 246 -12q116 -20 149 -103q27 -66 27 -224q0 -165 -22 -229q-19 -57 -88 -89q-53 -25 -160 -30q-33 -2 -147 -2q-216 0 -273 7q-82 10 -132 57q-44 42 -53 144q-4 50 -4 145q0 160 28 222q36 82 158 102q79 12 271 12zM505 1200q-145 0 -177 -23
q-27 -18 -33 -68q-4 -35 -4 -92q0 -88 12 -114q16 -34 63 -43q37 -7 151 -7q102 0 149 8q55 10 66 55q5 19 8 100q-3 105 -6 119q-11 48 -68 58q-39 7 -161 7zM1586 1365h188l-1136 -1365h-188zM1726 686q173 0 246 -12q116 -20 149 -103q27 -66 27 -224q0 -165 -22 -229
q-19 -57 -88 -89q-42 -20 -99.5 -26t-207.5 -6q-216 0 -273 7q-82 10 -132 57q-44 42 -53 144q-4 50 -4 145q0 160 28 222q36 82 158 101q79 13 271 13zM1698 518q-145 0 -177 -23q-27 -18 -33 -68q-4 -34 -4 -92q0 -88 12 -114q16 -33 63 -43q37 -7 151 -7q103 0 149 8
q55 10 66 55q5 19 8 100q-3 105 -6 119q-11 48 -68 58q-39 7 -161 7z" />
    <glyph glyph-name="ampersand" unicode="&#x26;" horiz-adv-x="2091" 
d="M1384 733h347q-4 -229 -21 -335l306 -161l-126 -244l-284 142q-93 -87 -231 -116q-102 -21 -441 -21q-507 0 -647 51q-148 54 -187 175q-20 63 -20 201q0 155 33 219q50 99 172 119q39 6 125 8q-89 33 -124 79q-49 66 -49 201q0 161 61 228q69 75 240 85q126 8 410 8
q312 0 462 -32q108 -22 147 -81q50 -76 50 -286q0 -8 -1 -37h-355q2 27 2 44q0 101 -110 108q-117 8 -220 8q-140 0 -217 -8q-97 -11 -97 -79q0 -36 23 -58q24 -22 112 -67l640 -327q6 40 6 92q0 45 -6 84zM609 636q-28 5 -46 5q-115 0 -115 -184q0 -95 38 -126
q36 -28 91 -35q58 -7 307 -15q288 0 326 2q46 3 83 16z" />
    <glyph glyph-name="quotesingle" unicode="'" horiz-adv-x="525" 
d="M357 817h-189l-45 548h279z" />
    <glyph glyph-name="parenleft" unicode="(" horiz-adv-x="897" 
d="M815 -128v-305h-125q-180 1 -259 13q-135 22 -210 141q-40 64 -54 164q-10 79 -11 385v210v209q1 249 3 303t16 126q28 156 157 226q77 42 247 47q18 1 111 1h125v-305q-56 3 -89 3q-115 0 -157 -45q-29 -32 -35 -107q-2 -22 -3 -239v-238v-201q1 -146 1 -185
q-1 -106 25 -145q40 -61 168 -61q34 0 90 3z" />
    <glyph glyph-name="parenright" unicode=")" horiz-adv-x="897" 
d="M82 1087v305h125q180 -1 259 -14q136 -22 210 -140q58 -92 64 -299q0 -23 1 -250v-209v-210q-1 -249 -3 -303t-16 -126q-28 -156 -157 -227q-76 -41 -247 -46q-18 -1 -111 -1h-125v305q56 -3 89 -3q115 0 157 45q29 32 35 107q2 22 3 239v238v201q-1 146 -1 185
q1 106 -25 145q-26 40 -79 53q-32 8 -88 8q-35 0 -91 -3z" />
    <glyph glyph-name="asterisk" unicode="*" horiz-adv-x="1365" 
d="M580 1041v324h206v-324l308 100l64 -196l-309 -100l191 -262l-167 -121l-190 263l-191 -263l-166 121l190 263l-308 100l64 196z" />
    <glyph glyph-name="plus" unicode="+" horiz-adv-x="1884" 
d="M1065 825h518v-246h-518v-478h-246v478h-519v246h519v478h246v-478z" />
    <glyph glyph-name="comma" unicode="," horiz-adv-x="654" 
d="M533 380v-363q0 -128 -7 -177q-14 -95 -90 -153q-69 -53 -245 -53h-121v215q32 -3 46 -3q60 0 92 27q38 32 38 87q0 17 -2 40h-123v380h412z" />
    <glyph glyph-name="hyphen" unicode="-" horiz-adv-x="709" 
d="M709 668v-349h-709v349h709z" />
    <glyph glyph-name="period" unicode="." horiz-adv-x="707" 
d="M557 381v-381h-407v381h407z" />
    <glyph glyph-name="slash" unicode="/" horiz-adv-x="1553" 
d="M1196 1365h289l-1465 -1781h-296z" />
    <glyph glyph-name="zero" unicode="0" horiz-adv-x="1947" 
d="M987 1375q330 0 494 -26q250 -40 307 -254q35 -133 35 -406q0 -275 -30 -409q-50 -224 -283 -263q-158 -27 -507 -27q-372 0 -483 10q-176 17 -256 83q-103 84 -127 291q-12 104 -12 312q0 357 69 485q47 87 124 125q90 44 209 58q176 21 460 21zM973 1057
q-206 0 -295 -18q-102 -22 -133 -92q-28 -67 -28 -279q0 -132 11 -197q22 -122 148 -142q109 -16 309 -16q168 0 272 15q142 20 163 145q11 63 11 225q0 177 -18 232q-29 89 -141 111q-78 16 -299 16z" />
    <glyph glyph-name="one" unicode="1" horiz-adv-x="1947" 
d="M956 0v1047l-496 -346l-184 275l581 389h497v-1365h-398z" />
    <glyph glyph-name="two" unicode="2" horiz-adv-x="1947" 
d="M1771 276v-276h-1597v398q0 126 49 198q72 107 228 129q75 11 184 19l520 40q126 9 166 25q67 26 67 132q0 103 -55 129q-40 19 -155 21q-71 1 -203 1q-163 0 -222 -4q-140 -8 -177 -65q-25 -38 -25 -118v-36h-377v113q0 85 3.5 115.5t19.5 73.5q54 153 283 179
q183 20 513 20q300 0 462 -16q207 -19 274 -149q44 -86 44 -262q0 -168 -34 -247q-45 -103 -154 -148q-87 -36 -293 -49l-515 -34q-100 -8 -124 -12q-104 -17 -104 -125q0 -21 2 -52h1220z" />
    <glyph glyph-name="three" unicode="3" horiz-adv-x="1947" 
d="M557 906h-385q8 206 33 265q56 135 267 174q133 25 528 25q407 0 561 -44q134 -39 177 -152q25 -68 25 -182q0 -128 -37 -190q-43 -74 -171 -100q-36 -8 -111 -17q195 -26 254 -63q93 -57 93 -257q0 -174 -77 -256q-49 -52 -127.5 -77.5t-203.5 -30.5q-152 -6 -402 -6
q-332 0 -446 8q-181 13 -261 73q-118 89 -118 319q0 25 4 87h377q0 -65 4 -89q10 -67 58 -89q46 -21 159 -26q99 -4 206 -4q297 0 358 17q77 21 77 123q0 91 -63 121q-40 20 -196 20h-325v259h308q149 0 191 22q56 31 56 112q0 89 -71 115q-47 18 -166 22l-164 5
q-171 -3 -212 -4q-144 -5 -181 -54q-23 -31 -23 -74q0 -21 4 -52z" />
    <glyph glyph-name="four" unicode="4" horiz-adv-x="1947" 
d="M1221 0v260h-1085v482l980 623h484v-819h221v-278h-221v-268h-379zM1221 546v506l-805 -506h805z" />
    <glyph glyph-name="five" unicode="5" horiz-adv-x="1947" 
d="M165 413h378v-15q0 -52 25 -77q30 -29 76 -36q55 -9 371 -16q237 5 290 16t74 48q25 42 25 136t-37 132q-33 35 -86 42q-51 6 -126 5q-41 0 -142 2q-102 2 -172 2q-195 0 -240 -30q-30 -21 -41 -67h-344l12 810h1500v-276h-1168v-308q26 57 63 83q62 44 216 52
q74 4 205 4q231 0 355 -9q144 -10 214 -40q124 -54 162 -193q18 -63 18 -175q0 -170 -37 -271q-70 -189 -299 -218q-169 -21 -477 -21q-510 0 -655 69q-162 77 -162 306q0 11 2 45z" />
    <glyph glyph-name="six" unicode="6" horiz-adv-x="1947" 
d="M1748 983h-377q-7 58 -51 79t-146 24q-104 4 -214 4q-177 0 -269 -20q-78 -16 -103 -66q-29 -58 -29 -236q0 -25 1 -66q33 66 76 95q74 52 246 58q52 2 165 2q428 0 537 -39q130 -46 164 -158q24 -79 24 -213q0 -174 -36 -260q-41 -100 -166 -148q-73 -28 -260 -37
q-179 -9 -328 -9q-345 0 -513 32q-160 30 -236 154q-37 61 -48 157q-11 102 -11 406q0 256 30 370q49 186 303 230q176 31 437 31q292 0 470 -18q151 -16 214 -56q93 -60 113 -200q7 -45 7 -116zM995 583q-186 0 -277 -5q-91 -4 -127 -44q-32 -34 -32 -105q0 -84 45 -119
q29 -23 88 -31q39 -5 147 -5q268 0 340 4q150 7 186 50q29 34 29 102q0 104 -68 132q-46 18 -155 20q-146 1 -176 1z" />
    <glyph glyph-name="seven" unicode="7" horiz-adv-x="1947" 
d="M395 0l892 1036h-1126v329h1625v-311l-904 -1054h-487z" />
    <glyph glyph-name="eight" unicode="8" horiz-adv-x="1947" 
d="M498 695q-109 9 -154 23q-111 36 -145 147q-17 54 -17 140q0 122 27 189q55 133 274 162q103 14 494 14q331 0 465 -13q192 -17 268 -115q57 -75 57 -228q0 -112 -25 -175q-36 -89 -155 -120q-44 -12 -157 -26q104 -11 147 -21q125 -29 169 -122q33 -68 33 -198
q0 -157 -61 -235q-80 -104 -294 -115q-149 -8 -395 -8q-419 0 -526 6q-183 10 -270 112q-64 76 -64 232q0 119 27 190q33 84 156 128q49 17 146 33zM986 568q-177 0 -244 -2q-80 -3 -115.5 -13.5t-52.5 -37.5q-22 -35 -22 -95q0 -93 56 -118q48 -21 170 -27q63 -3 220 -3
q175 0 258 8q82 8 112 43q26 30 26 94q0 94 -54 122q-47 25 -161 28q-51 1 -193 1zM982 1101q-254 0 -302 -9q-63 -12 -89 -40q-31 -30 -31 -86q0 -58 35 -95q33 -35 116 -40q63 -3 279 -3l156 -1q129 0 180 26q60 32 60 113q0 106 -117 127q-44 8 -287 8z" />
    <glyph glyph-name="nine" unicode="9" horiz-adv-x="1947" 
d="M167 383h382q7 -59 40 -76q38 -19 175 -23q58 -1 192 -1q269 0 330 19q60 19 78 52q21 38 25 175q0 25 2 116q-45 -75 -109 -98q-77 -27 -258 -31q-103 -2 -198 -2q-203 0 -315 14q-207 24 -280 161q-43 82 -43 234q0 200 58 293q73 116 273 139q155 17 421 17
q395 0 546 -28q150 -28 227 -142q50 -73 62 -229q7 -97 7 -247q0 -280 -20 -411q-27 -175 -164 -251q-52 -29 -123 -42.5t-206 -20.5q-191 -9 -367 -9q-454 0 -577 53q-96 42 -133 126q-27 61 -27 153q0 17 2 59zM948 1092q-143 0 -210 -4q-89 -5 -126 -43q-35 -35 -35 -111
q0 -92 47 -121q37 -23 139 -25q48 -1 218 -1q83 0 242 4q108 2 141 43q29 36 29 103q0 87 -50 121q-38 25 -109 28q-115 6 -286 6z" />
    <glyph glyph-name="colon" unicode=":" horiz-adv-x="707" 
d="M557 956v-381h-407v381h407zM557 381v-381h-407v381h407z" />
    <glyph glyph-name="semicolon" unicode=";" horiz-adv-x="654" 
d="M533 956v-381h-407v381h407zM533 380v-363q0 -128 -7 -177q-14 -95 -90 -153q-69 -53 -245 -53h-121v215q32 -3 46 -3q60 0 92 27q38 32 38 87q0 17 -2 40h-123v380h412z" />
    <glyph glyph-name="less" unicode="&#x3c;" 
d="M955 1245v-243l-627 -307l627 -307v-242l-887 447v206z" />
    <glyph glyph-name="equal" unicode="=" horiz-adv-x="1884" 
d="M1583 1030v-246h-1283v246h1283zM1583 621v-246h-1283v246h1283z" />
    <glyph glyph-name="greater" unicode="&#x3e;" horiz-adv-x="1952" 
d="M533 145v244l627 306l-627 307v242l887 -446v-207z" />
    <glyph glyph-name="question" unicode="?" horiz-adv-x="1609" 
d="M490 0v342h397v-342h-397zM863 474h-347q0 106 7 157q16 114 120 153q67 25 243 52q135 21 179 47q49 28 49 102q0 92 -109 112q-75 14 -258 14q-182 0 -244 -24q-76 -29 -76 -155q0 -14 1 -42h-350q0 135 11 204q32 208 254 248q154 27 455 27q379 0 509 -61
q97 -46 129 -141q23 -65 23 -188q0 -157 -34 -232q-37 -80 -127 -116q-55 -22 -316 -64q-100 -16 -115 -56q-4 -11 -4 -37z" />
    <glyph glyph-name="at" unicode="@" horiz-adv-x="2262" 
d="M1905 230l232 -44q-32 -117 -102 -169q-43 -33 -122.5 -43.5t-272.5 -9.5q-176 0 -479 -2q-291 -2 -417 -2q-251 0 -344 13q-171 23 -225 112q-40 67 -47 202q-5 98 -5 386q0 370 17 495q21 152 136 194q63 23 167 29q117 7 769 7q581 0 702 -28q129 -30 173 -111
q39 -69 48 -205q5 -79 5 -307q0 -196 -12 -261q-21 -118 -92 -153q-69 -33 -278 -33q-144 0 -233 20q-63 15 -86 96q-7 26 -10 75q-21 -70 -56 -101q-57 -51 -132 -65q-93 -17 -228 -17q-219 0 -324 75q-55 40 -72 121q-12 55 -12 168q0 191 34 256q51 97 224 118
q84 10 246 10q128 0 212 -32q52 -20 79 -52q12 -14 29 -48v124h227v-431q0 -71 23 -99q27 -33 95 -33q67 0 91 37q25 37 29 141q3 92 3 192q0 189 -14 248q-13 51 -56 69q-56 24 -223 28q-197 6 -415 6q-609 0 -659 -6q-81 -9 -105 -36q-36 -38 -41 -116q-3 -44 -6 -156
l-6 -165l-3 -110q0 -262 22 -349q17 -67 70 -86q63 -23 250 -29q95 -3 414 -3q316 0 434 1q48 1 114 1l53 -1q106 0 149 34q22 16 30 45zM1145 902q-121 0 -183 -12q-73 -14 -99 -82q-13 -33 -13 -117q0 -97 13 -130q26 -64 121 -79q41 -6 110 -6q182 0 244 20q55 19 75 79
q13 40 13 116q0 87 -18 129q-24 53 -99 70q-56 12 -164 12z" />
    <glyph glyph-name="A" unicode="A" horiz-adv-x="2099" 
d="M14 0l768 1365h557l747 -1365h-454l-136 244h-881l-131 -244h-470zM765 528h587l-297 544z" />
    <glyph glyph-name="B" unicode="B" horiz-adv-x="2087" 
d="M177 0v1365h1234q218 0 314 -49q92 -47 128 -133q29 -68 29 -178q0 -179 -88 -251q-53 -42 -180 -62q162 -16 225 -61q97 -69 97 -257q0 -242 -157 -326q-89 -48 -312 -48h-1290zM583 821h698q102 0 135 17q54 26 54 101q0 88 -73 112q-31 10 -127 10h-687v-240zM583 304
h744q96 0 126 11q66 23 66 111q0 91 -70 116q-27 10 -133 10h-733v-248z" />
    <glyph glyph-name="C" unicode="C" horiz-adv-x="2038" 
d="M1486 514h402q0 -250 -36 -327q-43 -95 -157 -143q-63 -28 -153.5 -39t-267.5 -13q-158 -2 -319 -2q-278 0 -422 18q-266 35 -335 236q-34 100 -41 222q-7 118 -7 248q0 239 26 343q38 159 159 229q89 52 199 67q149 22 438 22q381 0 533 -13q201 -18 286 -123
q79 -96 79 -307v-45h-397q-3 54 -16 86q-20 51 -109 65q-61 10 -274 10q-298 0 -352 -10q-108 -21 -138 -97q-22 -58 -22 -267q0 -138 16 -208q26 -111 141 -131q85 -14 272 -14q256 0 332 7q91 8 128 53q34 41 35 133z" />
    <glyph glyph-name="D" unicode="D" horiz-adv-x="2156" 
d="M177 0v1365h1181q182 0 305 -22q189 -33 272 -181q39 -71 53 -178q17 -128 17 -302q0 -210 -19 -343q-20 -130 -110 -223q-73 -75 -179 -96q-98 -20 -285 -20h-1235zM593 325h697q118 0 169 16q100 31 118 154q10 68 10 184q0 148 -23 219q-27 87 -112 112
q-57 16 -155 16h-704v-701z" />
    <glyph glyph-name="E" unicode="E" horiz-adv-x="1834" 
d="M177 1365h1513v-310h-1103v-233h1041v-270h-1041v-242h1117v-310h-1527v1365z" />
    <glyph glyph-name="F" unicode="F" horiz-adv-x="1730" 
d="M177 0v1365h1450v-310h-1036v-270h983v-310h-983v-475h-414z" />
    <glyph glyph-name="G" unicode="G" horiz-adv-x="2078" 
d="M1927 904h-407q-2 70 -26 99q-42 51 -146 51h-105l-146 2l-153 -2q-149 0 -180 -1.5t-67 -10.5q-72 -17 -101 -70q-29 -52 -29 -324q0 -175 27 -234t88 -84q58 -24 203 -25h272q182 0 230 5.5t83 30.5q40 29 50 78q3 18 3 54q0 13 -1 41h-526v255h931v-189
q0 -286 -35 -378q-39 -104 -115 -147q-105 -58 -253 -63q-81 -2 -518 -2q-408 0 -521 25q-157 33 -231 121q-69 83 -92 233q-12 82 -12 296q0 235 14 323q28 174 115 259q102 100 378 118q147 10 416 10q331 0 447 -8q266 -20 354 -165q54 -87 53 -298z" />
    <glyph glyph-name="H" unicode="H" horiz-adv-x="2132" 
d="M177 0v1365h416v-504h945v504h416v-1365h-416v524h-945v-524h-416z" />
    <glyph glyph-name="I" unicode="I" horiz-adv-x="771" 
d="M177 0v1365h416v-1365h-416z" />
    <glyph glyph-name="J" unicode="J" horiz-adv-x="1652" 
d="M69 579h396v-43q0 -109 18 -148q17 -35 56 -49q70 -26 234 -26q204 0 252 56q27 31 30 96q2 28 3 114v786h416v-704q-1 -202 -7 -280q-13 -176 -125 -277q-104 -94 -321 -111q-59 -4 -296 -4q-205 0 -281 8q-224 24 -313 150q-64 92 -64 262l2 88v82z" />
    <glyph glyph-name="K" unicode="K" horiz-adv-x="2051" 
d="M177 0v1365h416v-509h218l564 509h571l-784 -674l861 -691h-604l-617 524h-209v-524h-416z" />
    <glyph glyph-name="L" unicode="L" horiz-adv-x="1575" 
d="M177 0v1365h416v-1028h940v-337h-1356z" />
    <glyph glyph-name="M" unicode="M" horiz-adv-x="2664" 
d="M177 0v1365h660l498 -906l496 906h655v-1365h-406l20 1054l-605 -1054h-332l-596 1054l11 -1054h-401z" />
    <glyph glyph-name="N" unicode="N" horiz-adv-x="2226" 
d="M177 0v1365h661l828 -1039l-11 1039h393v-1365h-667l-816 1028l12 -1028h-400z" />
    <glyph glyph-name="O" unicode="O" horiz-adv-x="2165" 
d="M1051 1379q491 0 609 -21q170 -31 249 -125q74 -88 94 -240q12 -84 12 -332q0 -305 -52 -422q-50 -115 -144 -168q-77 -42 -159.5 -59t-241.5 -22q-130 -4 -339 -4q-457 0 -573 21q-160 30 -236 110q-75 79 -103 224q-17 89 -17 350q0 173 5 241.5t24 136.5
q37 140 140 211q110 75 370 92q110 7 362 7zM1085 1046q-257 0 -333 -12q-119 -18 -152 -89q-29 -64 -29 -255q0 -204 28 -265q36 -78 163 -96q68 -10 313 -10q303 0 374 18q86 21 117 78q25 45 32 139q4 54 4 144q0 195 -28 254q-18 38 -47 53q-55 29 -137 34
q-104 7 -305 7z" />
    <glyph glyph-name="P" unicode="P" horiz-adv-x="1945" 
d="M177 0v1365h1046q161 0 221 -5q151 -13 231 -66q114 -77 139 -231q14 -87 14 -199q0 -221 -47 -327q-58 -133 -189 -172q-95 -29 -333 -29h-668v-336h-414zM591 668h604q137 0 177 38q42 41 42 127q0 102 -31 146q-27 37 -92 49q-23 4 -96 4h-604v-364z" />
    <glyph glyph-name="Q" unicode="Q" horiz-adv-x="2176" 
d="M1998 370l178 -102l-147 -279l-160 118q-81 -70 -226 -99q-110 -22 -568 -22q-448 0 -571 23q-160 31 -236 111q-75 78 -102 224q-16 85 -16 311q0 194 5.5 270t24.5 147q38 140 141 210q111 75 370 91q98 6 255 6q324 0 454 -4q216 -6 313 -30q153 -39 223 -150
q64 -101 73 -249q6 -100 6 -249q0 -217 -17 -327zM1600 603q2 66 2 110q0 190 -32 246q-27 47 -95 65q-79 22 -431 22q-220 0 -291 -11q-119 -17 -152 -89q-30 -64 -30 -263q0 -208 32 -267q30 -53 103 -74q69 -20 254 -22q95 -1 218 -1q224 0 309 17l-453 251l165 276z" />
    <glyph glyph-name="R" unicode="R" horiz-adv-x="2062" 
d="M177 0v1365h1179q263 0 369 -49q97 -45 138 -150q36 -93 36 -243q0 -215 -87 -307q-48 -51 -173 -77q-28 -7 -121 -20q45 -3 68 -4q136 -7 183 -31q66 -34 93 -116q18 -52 18 -152v-216h-421v170q0 112 -52 148q-31 22 -94 25q-31 2 -83 2h-639v-345h-414zM591 679h650
q153 0 202 35q38 28 38 123q0 57 -6 92q-12 71 -79 90q-39 11 -140 11h-665v-351z" />
    <glyph glyph-name="S" unicode="S" horiz-adv-x="1999" 
d="M155 435h408q4 -85 24 -109q30 -34 135 -40q93 -6 183 -6q303 0 392 10q85 10 117 36q30 25 30 80q0 90 -70 113q-42 14 -140 15q-19 0 -120 1h-376q-153 0 -265 10q-181 15 -257 115q-66 88 -66 280q0 189 63 278q45 63 127 96q120 47 368 57q106 4 278 4q291 0 432 -8
q196 -12 288 -92q93 -81 93 -283v-43h-405q-1 46 -12 70q-23 50 -124 59q-65 5 -175 5q-250 0 -377 -9q-97 -6 -124 -40q-23 -29 -23 -73q0 -86 88 -109q26 -7 168 -10h387q102 0 291 -10q218 -11 296 -123q67 -95 67 -280q0 -230 -102 -327q-76 -73 -259 -92
q-199 -20 -516 -20q-250 0 -408 7q-275 13 -357 123q-60 81 -60 247q0 20 1 68z" />
    <glyph glyph-name="T" unicode="T" horiz-adv-x="1742" 
d="M663 0v1028h-608v337h1632v-337h-608v-1028h-416z" />
    <glyph glyph-name="U" unicode="U" horiz-adv-x="2094" 
d="M171 1365h416v-592q-1 -97 -1 -141q0 -153 28 -214q27 -63 106 -82q88 -21 272 -21q238 0 340 10q91 9 126 53q40 49 46 135q4 46 4 109l-1 117v626h416v-715q0 -213 -14 -301q-25 -160 -132 -247q-94 -76 -251 -100q-73 -11 -485 -14q-319 2 -404.5 7t-157.5 25
q-222 62 -277 251q-31 105 -31 360v734z" />
    <glyph glyph-name="V" unicode="V" horiz-adv-x="2066" 
d="M755 0l-728 1365h458l539 -1031l551 1031h463l-756 -1365h-527z" />
    <glyph glyph-name="W" unicode="W" horiz-adv-x="2958" 
d="M56 1365h422l397 -1040l353 1040h502l341 -1040l409 1040h424l-566 -1365h-557l-303 982l-319 -982h-552z" />
    <glyph glyph-name="X" unicode="X" horiz-adv-x="2156" 
d="M55 0l679 681l-645 684h549l439 -488l445 488h536l-643 -677l687 -688h-566l-459 491l-461 -491h-561z" />
    <glyph glyph-name="Y" unicode="Y" horiz-adv-x="2023" 
d="M808 0v473l-781 892h531l461 -565l457 565h519l-769 -892v-473h-418z" />
    <glyph glyph-name="Z" unicode="Z" horiz-adv-x="1889" 
d="M116 0v314l1031 741h-1005v310h1614v-313l-1045 -742h1062v-310h-1657z" />
    <glyph glyph-name="bracketleft" unicode="[" horiz-adv-x="868" 
d="M841 -157v-273h-664v1809h664v-273h-314v-1263h314z" />
    <glyph glyph-name="backslash" unicode="\" horiz-adv-x="1553" 
d="M357 1365l1472 -1781h-296l-1465 1781h289z" />
    <glyph glyph-name="bracketright" unicode="]" horiz-adv-x="868" 
d="M27 -430v273h314v1263h-314v273h664v-1809h-664z" />
    <glyph glyph-name="asciicircum" unicode="^" 
d="M274 696h-257l334 677h322l335 -677h-258l-238 481z" />
    <glyph glyph-name="underscore" unicode="_" 
d="M0 -101h1024v-221h-1024v221z" />
    <glyph glyph-name="grave" unicode="`" 
d="M268 1470l458 -244l-51 -137l-487 164z" />
    <glyph glyph-name="a" unicode="a" horiz-adv-x="1552" 
d="M1050 0v169q-19 -62 -46 -96q-54 -67 -190 -85q-80 -10 -207 -10q-178 0 -276 16q-143 25 -192 122q-30 60 -30 172q0 146 56 214q55 66 157 86q104 20 376 20q151 0 219 -17q69 -18 99 -57q12 -16 24 -46v106q0 106 -40 132q-33 22 -125 27q-71 4 -129 4q-79 0 -140 -3
q-65 -2 -90 -30q-12 -15 -16 -45h-351q5 94 36 145q44 71 155 113q72 28 223 36q108 5 246 5q180 0 299 -14q200 -25 262 -163q32 -69 32 -139v-68v-594h-352zM736 412q-151 0 -209 -16q-70 -19 -70 -91q0 -84 108 -102q33 -6 199 -6q161 0 214 16q68 20 68 93q0 82 -105 98
q-55 8 -205 8z" />
    <glyph glyph-name="b" unicode="b" horiz-adv-x="1633" 
d="M150 0v1365h352v-585q47 106 134 150q95 48 328 48q167 0 290 -25q145 -30 210 -136q59 -96 59 -341q0 -212 -28 -295q-27 -78 -112 -130q-121 -73 -407 -73q-270 0 -353 49q-73 43 -121 163v-190h-352zM853 714q-206 0 -268 -34q-50 -28 -65 -84q-10 -36 -10 -116
q0 -100 14 -137q24 -60 86 -79q67 -20 250 -20q111 0 161.5 8t82.5 32q46 32 59 89q7 31 7 99q0 114 -21 157q-30 62 -126 76q-55 9 -170 9z" />
    <glyph glyph-name="c" unicode="c" horiz-adv-x="1550" 
d="M1430 591h-358q-8 90 -92 111q-63 16 -216 16q-160 0 -215 -28q-51 -27 -71 -85q-15 -47 -15 -127q0 -101 27 -150q38 -70 127 -82q59 -7 162 -7q207 0 254 39q41 33 47 95h361q-3 -213 -115 -296q-67 -51 -158 -69q-144 -29 -375 -29q-255 0 -403 32q-178 39 -239 190
q-42 104 -42 270q0 325 155 425q82 52 250 70q119 12 262 12q256 0 411 -34q121 -27 186 -116q54 -75 57 -237z" />
    <glyph glyph-name="d" unicode="d" horiz-adv-x="1627" 
d="M1136 0v209q-22 -68 -45 -101q-57 -83 -187 -114q-76 -17 -200 -17q-339 0 -465 80q-69 45 -97 116q-33 83 -33 288q0 234 44 331q84 186 517 186q192 0 300 -39q68 -25 117 -91q14 -18 38 -57v574h352v-1365h-341zM782 717q-113 0 -167 -8q-96 -13 -130 -90
q-20 -45 -20 -147t19 -147q29 -64 137 -77q64 -8 167 -8q232 0 284 41q37 28 49 82q9 40 9 110q0 115 -23 161q-29 59 -114 72q-69 11 -211 11z" />
    <glyph glyph-name="e" unicode="e" horiz-adv-x="1509" 
d="M1053 304h346q-2 -110 -39 -172q-71 -115 -259 -136q-121 -13 -311 -13q-251 0 -390 26q-120 22 -197 104q-67 74 -86 198q-9 58 -9 154q0 202 44 299q74 163 286 195q93 14 327 14q258 0 379 -24t191 -126q64 -92 64 -309v-105h-933v-33q0 -98 45 -137q31 -27 106 -36
q64 -7 173 -7q173 0 217 28q41 25 46 80zM1056 597q0 85 -38 119q-27 25 -89 35q-51 9 -169 9q-126 0 -177 -11q-116 -26 -116 -136v-16h589z" />
    <glyph glyph-name="f" unicode="f" horiz-adv-x="1053" 
d="M286 0v716h-190v240h190v31q0 158 38 233q61 125 226 154q74 13 227 13q75 0 193 -8v-231q-93 3 -137 3q-118 0 -161 -44q-34 -34 -34 -122v-29h354v-240h-354v-716h-352z" />
    <glyph glyph-name="g" unicode="g" horiz-adv-x="1628" 
d="M147 -105h356q7 -58 61 -82q55 -23 235 -23q223 0 290 63q33 31 41 100q4 32 4 109v142q-51 -113 -131 -155q-94 -49 -326 -49q-317 0 -440 90q-88 64 -112 196q-15 78 -15 212q0 203 41 295q59 130 250 164q115 20 291 20q160 0 235 -15q131 -26 177 -131
q14 -33 30 -103v229h344v-862q0 -182 -18 -257q-46 -193 -252 -251q-144 -41 -461 -41q-259 0 -386 39q-93 29 -154 106q-59 74 -60 204zM772 714q-188 0 -238 -28q-47 -26 -61 -84q-9 -34 -9 -104q0 -103 17 -147q25 -64 123 -79q57 -9 174 -9q142 0 193 6q105 13 138 92
q15 35 15 131q0 92 -14 126q-23 58 -70 75q-56 21 -268 21z" />
    <glyph glyph-name="h" unicode="h" horiz-adv-x="1599" 
d="M150 0v1365h352v-586q45 114 132 158q81 41 274 41q214 0 327 -47q97 -40 153 -128q61 -95 61 -292v-511h-352v461q0 93 -5 120q-16 81 -101 108q-53 18 -159 18q-212 0 -275 -62q-40 -40 -50 -104q-5 -29 -5 -88v-453h-352z" />
    <glyph glyph-name="i" unicode="i" horiz-adv-x="653" 
d="M150 0v956h352v-956h-352zM150 1109v256h352v-256h-352z" />
    <glyph glyph-name="j" unicode="j" horiz-adv-x="736" 
d="M233 956h352v-868l-2 -70q-1 -130 -4 -161t-18 -72q-51 -147 -351 -147q-55 0 -142 8v229q37 -7 57 -7q64 0 91 43q17 27 17 109v936zM233 1109v256h352v-256h-352z" />
    <glyph glyph-name="k" unicode="k" horiz-adv-x="1466" 
d="M150 0v1365h352v-729h83l334 320h472l-495 -446l569 -510h-476l-391 387h-96v-387h-352z" />
    <glyph glyph-name="l" unicode="l" horiz-adv-x="653" 
d="M150 0v1365h352v-1365h-352z" />
    <glyph glyph-name="m" unicode="m" horiz-adv-x="2431" 
d="M150 0v956h342v-195q21 68 48 102q89 115 356 115q366 0 449 -221q31 115 125 167q97 54 289 54q317 0 435 -143q86 -103 86 -306v-529h-352v502q0 125 -68 167q-53 33 -189 33q-164 0 -222 -52q-37 -33 -49 -88q-9 -38 -9 -107v-455h-352v484q0 77 -9 111q-21 74 -99 95
q-47 13 -150 13q-165 0 -225 -57q-38 -34 -48 -85q-6 -27 -6 -77v-484h-352z" />
    <glyph glyph-name="n" unicode="n" horiz-adv-x="1599" 
d="M150 0v956h343v-222q19 71 40 106q51 83 171 116q83 22 231 22q207 0 321 -54q89 -43 140 -129q53 -90 53 -287v-508h-352v493q0 122 -54 165q-56 45 -237 45q-120 0 -179 -22q-89 -34 -113 -124q-12 -49 -12 -125v-432h-352z" />
    <glyph glyph-name="o" unicode="o" horiz-adv-x="1583" 
d="M786 978q256 0 412 -27q117 -21 189 -89q64 -61 79 -177q7 -59 7 -181q0 -198 -18 -279q-37 -166 -228 -214q-130 -33 -457 -33q-264 0 -405 29q-116 23 -184 103q-55 66 -67 188q-5 54 -5 184q0 192 25 272q50 160 263 199q134 25 389 25zM784 718q-192 0 -248 -32
q-46 -27 -62 -84q-11 -41 -11 -121q0 -107 16 -147q27 -71 123 -87q62 -10 194 -10q145 0 209 13q53 12 81 51q25 35 30 82q3 39 3 89q0 118 -20 161q-30 65 -137 78q-55 7 -178 7z" />
    <glyph glyph-name="p" unicode="p" horiz-adv-x="1632" 
d="M502 956v-201q18 71 40 106q52 84 186 105q72 12 221 12q232 0 360 -45q141 -50 180 -160q33 -94 33 -289q0 -197 -33 -293q-46 -132 -204 -178q-119 -35 -345 -35q-216 0 -319 51q-68 33 -97 85q-12 22 -22 63v-593h-352v1372h352zM857 717q-146 0 -202 -6
q-101 -11 -132 -84q-19 -44 -19 -149q0 -98 15 -140q25 -68 130 -83q69 -10 200 -10q125 0 176 7.5t78 29.5q39 32 50 96q7 37 7 113q0 92 -19 132q-34 70 -123 84q-59 10 -161 10z" />
    <glyph glyph-name="q" unicode="q" horiz-adv-x="1617" 
d="M1114 -416v580q-27 -62 -62 -94q-69 -63 -179 -82q-62 -10 -198 -10q-200 0 -296 23q-188 45 -238 177q-32 85 -32 288q0 232 44 326q38 82 139 130q118 56 421 56q165 0 245 -24q104 -32 138 -112q11 -25 34 -98v212h336v-1372h-352zM789 717q-131 0 -196 -12
q-85 -16 -113 -92q-15 -40 -15 -149q0 -104 23 -147q20 -38 62 -53q72 -26 240 -26q130 0 193.5 11t92.5 39q31 29 38 88q3 28 3 113q0 91 -13 126q-27 70 -110 88q-67 14 -205 14z" />
    <glyph glyph-name="r" unicode="r" horiz-adv-x="1302" 
d="M150 0v956h338v-213q22 61 36 87q75 148 357 148q229 0 316 -106q64 -77 64 -276q0 -16 -2 -62h-330q1 11 1 15q0 68 -24 100q-40 52 -163 52q-149 0 -205 -84q-36 -53 -36 -177v-440h-352z" />
    <glyph glyph-name="s" unicode="s" horiz-adv-x="1535" 
d="M102 295h372q1 -53 46 -75q49 -25 277 -25q182 0 234 26q42 21 42 62q0 68 -102 76q-47 4 -184 4h-175q-228 0 -337 36q-163 54 -163 255q0 234 180 285q139 39 473 39q233 0 364 -16q185 -23 232 -143q19 -47 22 -127h-370q-6 41 -53 55q-42 13 -193 13q-205 0 -254 -26
q-37 -19 -37 -54q0 -41 46 -57q42 -14 186 -14h248q203 0 304 -30q102 -30 141 -104q32 -59 32 -168q0 -140 -63 -210q-77 -86 -271 -105q-151 -14 -381 -14q-216 0 -330 13q-185 20 -251 141q-34 62 -35 163z" />
    <glyph glyph-name="t" unicode="t" horiz-adv-x="1313" 
d="M927 410h270v-76q0 -112 -15 -171q-27 -110 -157 -154q-91 -31 -253 -31q-217 0 -311 26q-85 24 -140 91q-46 57 -55 149q-3 30 -3 83v389h-181v240h181v226h358v-226h576v-240h-576v-314q0 -109 34 -141q34 -31 121 -31q94 0 127 35q24 25 24 106v39z" />
    <glyph glyph-name="u" unicode="u" horiz-adv-x="1599" 
d="M1449 956v-956h-343v222q-19 -72 -40 -106q-51 -83 -171 -116q-83 -22 -231 -22q-208 0 -321 54q-89 43 -140 129q-53 90 -53 287v508h352v-493q0 -88 22 -129t73 -58q68 -23 201 -23q192 0 255 76q44 53 44 195v432h352z" />
    <glyph glyph-name="v" unicode="v" horiz-adv-x="1503" 
d="M520 0l-472 956h399l306 -690l306 690h396l-470 -956h-465z" />
    <glyph glyph-name="w" unicode="w" horiz-adv-x="2204" 
d="M420 0l-352 956h375l222 -713l266 713h337l261 -713l231 713h376l-355 -956h-491l-191 568l-196 -568h-483z" />
    <glyph glyph-name="x" unicode="x" horiz-adv-x="1507" 
d="M61 0l420 501l-393 455h465l195 -267l205 267h453l-385 -439l424 -517h-450l-247 343l-247 -343h-440z" />
    <glyph glyph-name="y" unicode="y" horiz-adv-x="1470" 
d="M479 0l-431 956h391l280 -708l308 708h395l-547 -1155q-33 -70 -53 -103q-55 -89 -154 -114q-66 -17 -189 -17q-71 0 -148 7v238q76 -2 122 2q75 7 106 49q24 33 37 62l35 75h-152z" />
    <glyph glyph-name="z" unicode="z" horiz-adv-x="1352" 
d="M96 0v240l630 478h-589v238h1100v-267l-615 -452h635v-237h-1161z" />
    <glyph glyph-name="braceleft" unicode="{" horiz-adv-x="890" 
d="M475 474q62 -39 85 -75q41 -64 41 -184v-227q0 -79 10 -98q16 -32 65 -39q31 -5 81 -5q11 0 40 1v-273q-164 -4 -230 -4q-165 0 -240 67q-76 66 -76 238v302q0 91 -27 127q-28 37 -85 49v263q62 13 86 48q26 38 26 118v301q0 136 51 203q44 57 131 81q45 12 145 12
q69 0 219 -5v-273h-41q-91 0 -120 -17q-30 -17 -34 -66q-1 -17 -1 -69v-216q0 -126 -43 -188q-21 -29 -83 -71z" />
    <glyph glyph-name="bar" unicode="|" 
d="M317 1365h391v-1706h-391v1706z" />
    <glyph glyph-name="braceright" unicode="}" horiz-adv-x="890" 
d="M416 474q-68 46 -90 82q-36 61 -36 177v216q0 89 -10 109q-16 30 -65 38q-32 5 -81 5h-41v273q151 5 223 5q109 0 163 -19q109 -38 141 -135q20 -59 20 -142v-301q0 -79 26 -118q24 -35 85 -48v-263q-56 -12 -84 -49q-27 -36 -27 -127v-302q0 -184 -90 -250
q-75 -55 -228 -55q-64 0 -229 4v273q29 -1 40 -1q94 0 122 17q30 17 34 67q1 16 1 58v227q0 85 19 139q15 42 42 71q20 20 65 49z" />
    <glyph glyph-name="asciitilde" unicode="~" horiz-adv-x="1365" 
d="M321 1155l-136 89q10 22 15 34q46 101 86 149q78 94 204 94q70 0 215 -56q98 -37 122 -43q33 -8 60 -8q63 0 103 41q20 20 49 69l141 -81q-74 -154 -145 -206q-81 -60 -177 -60q-41 0 -114 24q-52 17 -185 66q-46 17 -84 17q-67 0 -108 -52q-18 -23 -46 -77z" />
    <glyph glyph-name="Adieresis" unicode="&#xc4;" horiz-adv-x="2099" 
d="M14 0l768 1365h557l747 -1365h-454l-136 244h-881l-131 -244h-470zM765 528h587l-297 544zM951 1757v-239h-357v239h357zM1506 1757v-239h-357v239h357z" />
    <glyph glyph-name="Aring" unicode="&#xc5;" horiz-adv-x="2099" 
d="M14 0l768 1365h557l747 -1365h-454l-136 244h-881l-131 -244h-470zM765 528h587l-297 544zM1059 1862q137 0 220 -50q76 -45 76 -139q0 -108 -94 -163q-75 -44 -224 -44q-117 0 -195 42q-97 53 -97 155q0 61 39 109q71 90 275 90zM1048 1742q-136 0 -136 -82
q0 -45 37 -60q36 -14 95 -14q70 0 108 18q36 16 36 61q0 77 -140 77z" />
    <glyph glyph-name="Ccedilla" unicode="&#xc7;" horiz-adv-x="2038" 
d="M1486 514h402q0 -250 -36 -327q-43 -95 -157 -143q-63 -28 -153.5 -39t-267.5 -13q-158 -2 -319 -2q-278 0 -422 18q-266 35 -335 236q-34 100 -41 222q-7 118 -7 248q0 239 26 343q38 159 159 229q89 52 199 67q149 22 438 22q381 0 533 -13q201 -18 286 -123
q79 -96 79 -307v-45h-397q-3 54 -16 86q-20 51 -109 65q-61 10 -274 10q-298 0 -352 -10q-108 -21 -138 -97q-22 -58 -22 -267q0 -138 16 -208q26 -111 141 -131q85 -14 272 -14q256 0 332 7q91 8 128 53q34 41 35 133zM982 -75l245 -135l-224 -278l-164 74z" />
    <glyph glyph-name="Eacute" unicode="&#xc9;" horiz-adv-x="1834" 
d="M177 1365h1513v-310h-1103v-233h1041v-270h-1041v-242h1117v-310h-1527v1365zM1254 1860l85 -257l-571 -131l-62 149z" />
    <glyph glyph-name="Ntilde" unicode="&#xd1;" horiz-adv-x="2226" 
d="M177 0v1365h661l828 -1039l-11 1039h393v-1365h-667l-816 1028l12 -1028h-400zM1438 1811l183 -71q-29 -76 -74 -133q-43 -55 -83 -81q-52 -34 -124 -34q-78 0 -214 53q-134 52 -183 52q-76 0 -115 -98l-183 71q36 83 72 133q81 114 208 114q66 0 161 -29q25 -8 161 -57
q46 -17 88 -17q71 0 103 97z" />
    <glyph glyph-name="Odieresis" unicode="&#xd6;" horiz-adv-x="2165" 
d="M1051 1379q491 0 609 -21q170 -31 249 -125q74 -88 94 -240q12 -84 12 -332q0 -305 -52 -422q-50 -115 -144 -168q-77 -42 -159.5 -59t-241.5 -22q-130 -4 -339 -4q-457 0 -573 21q-160 30 -236 110q-75 79 -103 224q-17 89 -17 350q0 173 5 241.5t24 136.5
q37 140 140 211q110 75 370 92q110 7 362 7zM1085 1046q-257 0 -333 -12q-119 -18 -152 -89q-29 -64 -29 -255q0 -204 28 -265q36 -78 163 -96q68 -10 313 -10q303 0 374 18q86 21 117 78q25 45 32 139q4 54 4 144q0 195 -28 254q-18 38 -47 53q-55 29 -137 34
q-104 7 -305 7zM983 1757v-239h-357v239h357zM1539 1757v-239h-357v239h357z" />
    <glyph glyph-name="Udieresis" unicode="&#xdc;" horiz-adv-x="2094" 
d="M171 1365h416v-592q-1 -97 -1 -141q0 -153 28 -214q27 -63 106 -82q88 -21 272 -21q238 0 340 10q91 9 126 53q40 49 46 135q4 46 4 109l-1 117v626h416v-715q0 -213 -14 -301q-25 -160 -132 -247q-94 -76 -251 -100q-73 -11 -485 -14q-319 2 -404.5 7t-157.5 25
q-222 62 -277 251q-31 105 -31 360v734zM948 1757v-239h-357v239h357zM1504 1757v-239h-357v239h357z" />
    <glyph glyph-name="aacute" unicode="&#xe1;" horiz-adv-x="1552" 
d="M1050 0v169q-19 -62 -46 -96q-54 -67 -190 -85q-80 -10 -207 -10q-178 0 -276 16q-143 25 -192 122q-30 60 -30 172q0 146 56 214q55 66 157 86q104 20 376 20q151 0 219 -17q69 -18 99 -57q12 -16 24 -46v106q0 106 -40 132q-33 22 -125 27q-71 4 -129 4q-79 0 -140 -3
q-65 -2 -90 -30q-12 -15 -16 -45h-351q5 94 36 145q44 71 155 113q72 28 223 36q108 5 246 5q180 0 299 -14q200 -25 262 -163q32 -69 32 -139v-68v-594h-352zM736 412q-151 0 -209 -16q-70 -19 -70 -91q0 -84 108 -102q33 -6 199 -6q161 0 214 16q68 20 68 93q0 82 -105 98
q-55 8 -205 8zM1033 1470l80 -217l-486 -164l-52 137z" />
    <glyph glyph-name="agrave" unicode="&#xe0;" horiz-adv-x="1552" 
d="M1050 0v169q-19 -62 -46 -96q-54 -67 -190 -85q-80 -10 -207 -10q-178 0 -276 16q-143 25 -192 122q-30 60 -30 172q0 146 56 214q55 66 157 86q104 20 376 20q151 0 219 -17q69 -18 99 -57q12 -16 24 -46v106q0 106 -40 132q-33 22 -125 27q-71 4 -129 4q-79 0 -140 -3
q-65 -2 -90 -30q-12 -15 -16 -45h-351q5 94 36 145q44 71 155 113q72 28 223 36q108 5 246 5q180 0 299 -14q200 -25 262 -163q32 -69 32 -139v-68v-594h-352zM736 412q-151 0 -209 -16q-70 -19 -70 -91q0 -84 108 -102q33 -6 199 -6q161 0 214 16q68 20 68 93q0 82 -105 98
q-55 8 -205 8zM512 1470l458 -244l-51 -137l-487 164z" />
    <glyph glyph-name="acircumflex" unicode="&#xe2;" horiz-adv-x="1552" 
d="M1050 0v169q-19 -62 -46 -96q-54 -67 -190 -85q-80 -10 -207 -10q-178 0 -276 16q-143 25 -192 122q-30 60 -30 172q0 146 56 214q55 66 157 86q104 20 376 20q151 0 219 -17q69 -18 99 -57q12 -16 24 -46v106q0 106 -40 132q-33 22 -125 27q-71 4 -129 4q-79 0 -140 -3
q-65 -2 -90 -30q-12 -15 -16 -45h-351q5 94 36 145q44 71 155 113q72 28 223 36q108 5 246 5q180 0 299 -14q200 -25 262 -163q32 -69 32 -139v-68v-594h-352zM736 412q-151 0 -209 -16q-70 -19 -70 -91q0 -84 108 -102q33 -6 199 -6q161 0 214 16q68 20 68 93q0 82 -105 98
q-55 8 -205 8zM776 1458l411 -247l-56 -122l-355 143l-355 -143l-56 122z" />
    <glyph glyph-name="adieresis" unicode="&#xe4;" horiz-adv-x="1552" 
d="M1050 0v169q-19 -62 -46 -96q-54 -67 -190 -85q-80 -10 -207 -10q-178 0 -276 16q-143 25 -192 122q-30 60 -30 172q0 146 56 214q55 66 157 86q104 20 376 20q151 0 219 -17q69 -18 99 -57q12 -16 24 -46v106q0 106 -40 132q-33 22 -125 27q-71 4 -129 4q-79 0 -140 -3
q-65 -2 -90 -30q-12 -15 -16 -45h-351q5 94 36 145q44 71 155 113q72 28 223 36q108 5 246 5q180 0 299 -14q200 -25 262 -163q32 -69 32 -139v-68v-594h-352zM736 412q-151 0 -209 -16q-70 -19 -70 -91q0 -84 108 -102q33 -6 199 -6q161 0 214 16q68 20 68 93q0 82 -105 98
q-55 8 -205 8zM701 1346v-213h-285v213h285zM1136 1346v-213h-285v213h285z" />
    <glyph glyph-name="atilde" unicode="&#xe3;" horiz-adv-x="1552" 
d="M1050 0v169q-19 -62 -46 -96q-54 -67 -190 -85q-80 -10 -207 -10q-178 0 -276 16q-143 25 -192 122q-30 60 -30 172q0 146 56 214q55 66 157 86q104 20 376 20q151 0 219 -17q69 -18 99 -57q12 -16 24 -46v106q0 106 -40 132q-33 22 -125 27q-71 4 -129 4q-79 0 -140 -3
q-65 -2 -90 -30q-12 -15 -16 -45h-351q5 94 36 145q44 71 155 113q72 28 223 36q108 5 246 5q180 0 299 -14q200 -25 262 -163q32 -69 32 -139v-68v-594h-352zM736 412q-151 0 -209 -16q-70 -19 -70 -91q0 -84 108 -102q33 -6 199 -6q161 0 214 16q68 20 68 93q0 82 -105 98
q-55 8 -205 8zM1037 1416l166 -69q-28 -72 -55 -113q-38 -58 -104 -90q-46 -23 -95 -23q-53 0 -168 45q-114 44 -153 44q-75 0 -100 -93l-166 68q61 129 111 171q59 50 147 50q64 0 167 -47q87 -40 136 -40q51 0 87 43q20 23 27 54z" />
    <glyph glyph-name="aring" unicode="&#xe5;" horiz-adv-x="1552" 
d="M1050 0v169q-19 -62 -46 -96q-54 -67 -190 -85q-80 -10 -207 -10q-178 0 -276 16q-143 25 -192 122q-30 60 -30 172q0 146 56 214q55 66 157 86q104 20 376 20q151 0 219 -17q69 -18 99 -57q12 -16 24 -46v106q0 106 -40 132q-33 22 -125 27q-71 4 -129 4q-79 0 -140 -3
q-65 -2 -90 -30q-12 -15 -16 -45h-351q5 94 36 145q44 71 155 113q72 28 223 36q108 5 246 5q180 0 299 -14q200 -25 262 -163q32 -69 32 -139v-68v-594h-352zM736 412q-151 0 -209 -16q-70 -19 -70 -91q0 -84 108 -102q33 -6 199 -6q161 0 214 16q68 20 68 93q0 82 -105 98
q-55 8 -205 8zM785 1452q127 0 203 -48q70 -44 70 -134q0 -104 -87 -157q-70 -42 -207 -42q-107 0 -179 40q-90 51 -90 149q0 59 36 106q65 86 254 86zM774 1339q-134 0 -134 -79q0 -47 37 -62q34 -14 94 -14q142 0 142 76q0 79 -139 79z" />
    <glyph glyph-name="ccedilla" unicode="&#xe7;" horiz-adv-x="1550" 
d="M1430 591h-358q-8 90 -92 111q-63 16 -216 16q-160 0 -215 -28q-51 -27 -71 -85q-15 -47 -15 -127q0 -101 27 -150q38 -70 127 -82q59 -7 162 -7q207 0 254 39q41 33 47 95h361q-3 -213 -115 -296q-67 -51 -158 -69q-144 -29 -375 -29q-255 0 -403 32q-178 39 -239 190
q-42 104 -42 270q0 325 155 425q82 52 250 70q119 12 262 12q256 0 411 -34q121 -27 186 -116q54 -75 57 -237zM748 -75l224 -128l-231 -272l-136 75z" />
    <glyph glyph-name="eacute" unicode="&#xe9;" horiz-adv-x="1509" 
d="M1053 304h346q-2 -110 -39 -172q-71 -115 -259 -136q-121 -13 -311 -13q-251 0 -390 26q-120 22 -197 104q-67 74 -86 198q-9 58 -9 154q0 202 44 299q74 163 286 195q93 14 327 14q258 0 379 -24t191 -126q64 -92 64 -309v-105h-933v-33q0 -98 45 -137q31 -27 106 -36
q64 -7 173 -7q173 0 217 28q41 25 46 80zM1056 597q0 85 -38 119q-27 25 -89 35q-51 9 -169 9q-126 0 -177 -11q-116 -26 -116 -136v-16h589zM1025 1470l80 -217l-487 -164l-51 137z" />
    <glyph glyph-name="egrave" unicode="&#xe8;" horiz-adv-x="1509" 
d="M1053 304h346q-2 -110 -39 -172q-71 -115 -259 -136q-121 -13 -311 -13q-251 0 -390 26q-120 22 -197 104q-67 74 -86 198q-9 58 -9 154q0 202 44 299q74 163 286 195q93 14 327 14q258 0 379 -24t191 -126q64 -92 64 -309v-105h-933v-33q0 -98 45 -137q31 -27 106 -36
q64 -7 173 -7q173 0 217 28q41 25 46 80zM1056 597q0 85 -38 119q-27 25 -89 35q-51 9 -169 9q-126 0 -177 -11q-116 -26 -116 -136v-16h589zM504 1470l458 -244l-52 -137l-486 164z" />
    <glyph glyph-name="ecircumflex" unicode="&#xea;" horiz-adv-x="1509" 
d="M1053 304h346q-2 -110 -39 -172q-71 -115 -259 -136q-121 -13 -311 -13q-251 0 -390 26q-120 22 -197 104q-67 74 -86 198q-9 58 -9 154q0 202 44 299q74 163 286 195q93 14 327 14q258 0 379 -24t191 -126q64 -92 64 -309v-105h-933v-33q0 -98 45 -137q31 -27 106 -36
q64 -7 173 -7q173 0 217 28q41 25 46 80zM1056 597q0 85 -38 119q-27 25 -89 35q-51 9 -169 9q-126 0 -177 -11q-116 -26 -116 -136v-16h589zM768 1458l411 -247l-57 -122l-354 143l-355 -143l-56 122z" />
    <glyph glyph-name="edieresis" unicode="&#xeb;" horiz-adv-x="1509" 
d="M1053 304h346q-2 -110 -39 -172q-71 -115 -259 -136q-121 -13 -311 -13q-251 0 -390 26q-120 22 -197 104q-67 74 -86 198q-9 58 -9 154q0 202 44 299q74 163 286 195q93 14 327 14q258 0 379 -24t191 -126q64 -92 64 -309v-105h-933v-33q0 -98 45 -137q31 -27 106 -36
q64 -7 173 -7q173 0 217 28q41 25 46 80zM1056 597q0 85 -38 119q-27 25 -89 35q-51 9 -169 9q-126 0 -177 -11q-116 -26 -116 -136v-16h589zM693 1346v-213h-285v213h285zM1128 1346v-213h-285v213h285z" />
    <glyph glyph-name="iacute" unicode="&#xed;" horiz-adv-x="653" 
d="M150 0v956h352v-956h-352zM543 1470l80 -217l-446 -164l-51 137z" />
    <glyph glyph-name="igrave" unicode="&#xec;" horiz-adv-x="653" 
d="M150 0v956h352v-956h-352zM110 1470l417 -244l-51 -137l-446 164z" />
    <glyph glyph-name="icircumflex" unicode="&#xee;" horiz-adv-x="653" 
d="M150 0v956h352v-956h-352zM326 1458l329 -247l-56 -122l-273 143l-273 -143l-56 122z" />
    <glyph glyph-name="idieresis" unicode="&#xef;" horiz-adv-x="653" 
d="M151 0v956h352v-956h-352zM279 1346v-213h-257v213h257zM631 1346v-213h-257v213h257z" />
    <glyph glyph-name="ntilde" unicode="&#xf1;" horiz-adv-x="1599" 
d="M150 0v956h343v-222q19 71 40 106q51 83 171 116q83 22 231 22q207 0 321 -54q89 -43 140 -129q53 -90 53 -287v-508h-352v493q0 122 -54 165q-56 45 -237 45q-120 0 -179 -22q-89 -34 -113 -124q-12 -49 -12 -125v-432h-352zM1040 1416l167 -69q-29 -72 -56 -113
q-38 -58 -103 -90q-47 -23 -96 -23q-53 0 -168 45q-114 44 -152 44q-76 0 -101 -93l-166 68q61 129 112 171q59 50 146 50q64 0 167 -47q88 -40 136 -40q51 0 87 43q20 23 27 54z" />
    <glyph glyph-name="oacute" unicode="&#xf3;" horiz-adv-x="1583" 
d="M786 978q256 0 412 -27q117 -21 189 -89q64 -61 79 -177q7 -59 7 -181q0 -198 -18 -279q-37 -166 -228 -214q-130 -33 -457 -33q-264 0 -405 29q-116 23 -184 103q-55 66 -67 188q-5 54 -5 184q0 192 25 272q50 160 263 199q134 25 389 25zM784 718q-192 0 -248 -32
q-46 -27 -62 -84q-11 -41 -11 -121q0 -107 16 -147q27 -71 123 -87q62 -10 194 -10q145 0 209 13q53 12 81 51q25 35 30 82q3 39 3 89q0 118 -20 161q-30 65 -137 78q-55 7 -178 7zM1048 1470l80 -217l-486 -164l-51 137z" />
    <glyph glyph-name="ograve" unicode="&#xf2;" horiz-adv-x="1583" 
d="M786 978q256 0 412 -27q117 -21 189 -89q64 -61 79 -177q7 -59 7 -181q0 -198 -18 -279q-37 -166 -228 -214q-130 -33 -457 -33q-264 0 -405 29q-116 23 -184 103q-55 66 -67 188q-5 54 -5 184q0 192 25 272q50 160 263 199q134 25 389 25zM784 718q-192 0 -248 -32
q-46 -27 -62 -84q-11 -41 -11 -121q0 -107 16 -147q27 -71 123 -87q62 -10 194 -10q145 0 209 13q53 12 81 51q25 35 30 82q3 39 3 89q0 118 -20 161q-30 65 -137 78q-55 7 -178 7zM541 1470l458 -244l-52 -137l-486 164z" />
    <glyph glyph-name="ocircumflex" unicode="&#xf4;" horiz-adv-x="1583" 
d="M786 978q256 0 412 -27q117 -21 189 -89q64 -61 79 -177q7 -59 7 -181q0 -198 -18 -279q-37 -166 -228 -214q-130 -33 -457 -33q-264 0 -405 29q-116 23 -184 103q-55 66 -67 188q-5 54 -5 184q0 192 25 272q50 160 263 199q134 25 389 25zM784 718q-192 0 -248 -32
q-46 -27 -62 -84q-11 -41 -11 -121q0 -107 16 -147q27 -71 123 -87q62 -10 194 -10q145 0 209 13q53 12 81 51q25 35 30 82q3 39 3 89q0 118 -20 161q-30 65 -137 78q-55 7 -178 7zM791 1458l411 -247l-56 -122l-355 143l-355 -143l-56 122z" />
    <glyph glyph-name="odieresis" unicode="&#xf6;" horiz-adv-x="1583" 
d="M786 978q256 0 412 -27q117 -21 189 -89q64 -61 79 -177q7 -59 7 -181q0 -198 -18 -279q-37 -166 -228 -214q-130 -33 -457 -33q-264 0 -405 29q-116 23 -184 103q-55 66 -67 188q-5 54 -5 184q0 192 25 272q50 160 263 199q134 25 389 25zM784 718q-192 0 -248 -32
q-46 -27 -62 -84q-11 -41 -11 -121q0 -107 16 -147q27 -71 123 -87q62 -10 194 -10q145 0 209 13q53 12 81 51q25 35 30 82q3 39 3 89q0 118 -20 161q-30 65 -137 78q-55 7 -178 7zM716 1346v-213h-285v213h285zM1151 1346v-213h-285v213h285z" />
    <glyph glyph-name="otilde" unicode="&#xf5;" horiz-adv-x="1583" 
d="M786 978q256 0 412 -27q117 -21 189 -89q64 -61 79 -177q7 -59 7 -181q0 -198 -18 -279q-37 -166 -228 -214q-130 -33 -457 -33q-264 0 -405 29q-116 23 -184 103q-55 66 -67 188q-5 54 -5 184q0 192 25 272q50 160 263 199q134 25 389 25zM784 718q-192 0 -248 -32
q-46 -27 -62 -84q-11 -41 -11 -121q0 -107 16 -147q27 -71 123 -87q62 -10 194 -10q145 0 209 13q53 12 81 51q25 35 30 82q3 39 3 89q0 118 -20 161q-30 65 -137 78q-55 7 -178 7zM1052 1416l167 -69q-29 -72 -56 -113q-38 -58 -103 -90q-47 -23 -96 -23q-53 0 -168 45
q-114 44 -152 44q-76 0 -101 -93l-166 68q61 129 112 171q59 50 146 50q64 0 167 -47q88 -40 136 -40q51 0 87 43q20 23 27 54z" />
    <glyph glyph-name="uacute" unicode="&#xfa;" horiz-adv-x="1599" 
d="M1449 956v-956h-343v222q-19 -72 -40 -106q-51 -83 -171 -116q-83 -22 -231 -22q-208 0 -321 54q-89 43 -140 129q-53 90 -53 287v508h352v-493q0 -88 22 -129t73 -58q68 -23 201 -23q192 0 255 76q44 53 44 195v432h352zM1057 1470l80 -217l-487 -164l-51 137z" />
    <glyph glyph-name="ugrave" unicode="&#xf9;" horiz-adv-x="1599" 
d="M1449 956v-956h-343v222q-19 -72 -40 -106q-51 -83 -171 -116q-83 -22 -231 -22q-208 0 -321 54q-89 43 -140 129q-53 90 -53 287v508h352v-493q0 -88 22 -129t73 -58q68 -23 201 -23q192 0 255 76q44 53 44 195v432h352zM542 1470l458 -244l-51 -137l-487 164z" />
    <glyph glyph-name="ucircumflex" unicode="&#xfb;" horiz-adv-x="1599" 
d="M1449 956v-956h-343v222q-19 -72 -40 -106q-51 -83 -171 -116q-83 -22 -231 -22q-208 0 -321 54q-89 43 -140 129q-53 90 -53 287v508h352v-493q0 -88 22 -129t73 -58q68 -23 201 -23q192 0 255 76q44 53 44 195v432h352zM800 1458l411 -247l-57 -122l-354 143l-355 -143
l-56 122z" />
    <glyph glyph-name="udieresis" unicode="&#xfc;" horiz-adv-x="1599" 
d="M1449 956v-956h-343v222q-19 -72 -40 -106q-51 -83 -171 -116q-83 -22 -231 -22q-208 0 -321 54q-89 43 -140 129q-53 90 -53 287v508h352v-493q0 -88 22 -129t73 -58q68 -23 201 -23q192 0 255 76q44 53 44 195v432h352zM725 1346v-213h-285v213h285zM1160 1346v-213
h-285v213h285z" />
    <glyph glyph-name="dagger" unicode="&#x2020;" horiz-adv-x="1947" 
d="M1159 1365v-403h596v-261h-596v-1144h-370v1144h-597v261h597v403h370z" />
    <glyph glyph-name="degree" unicode="&#xb0;" horiz-adv-x="869" 
d="M435 1365q128 0 220 -89q91 -89 91 -216t-90 -216q-92 -91 -221 -91t-221 91q-90 89 -90 219q0 125 91 212q93 90 220 90zM435 1212q-64 0 -110 -45q-45 -44 -45 -105q0 -67 45 -111q46 -45 110 -45t110 46q45 44 45 107q0 65 -45 108q-47 45 -110 45z" />
    <glyph glyph-name="cent" unicode="&#xa2;" horiz-adv-x="1947" 
d="M1069 1234q136 -6 213 -16q130 -15 195 -51q123 -68 144 -215q6 -41 7 -103h-357q-7 71 -64 100q-39 20 -138 24v-474q127 7 163 36q41 33 46 96h362q-2 -149 -52 -229q-66 -105 -221 -136q-106 -22 -298 -28v-159h-186v160q-281 9 -385 61q-128 65 -169 219
q-22 84 -22 210q0 254 89 365q71 88 210 114q99 19 277 26v146h186v-146zM883 499v475q-95 -6 -136 -27q-51 -25 -71 -84q-15 -47 -15 -127q0 -102 27 -151q38 -70 127 -81q26 -4 68 -5z" />
    <glyph glyph-name="sterling" unicode="&#xa3;" horiz-adv-x="1947" 
d="M98 745h208q1 245 15.5 331.5t65.5 151.5q61 80 173 106q137 31 521 31q269 0 399 -14q153 -16 227 -68q88 -60 109 -173q11 -56 11 -131q0 -19 -2 -78h-382v27q0 114 -122 130q-84 11 -220 11q-143 0 -236 -7q-86 -6 -122 -34q-42 -31 -46 -137q-1 -40 -1 -146h567v-230
h-557q-6 -103 -46 -144q-39 -39 -158 -74h1346v-297h-1689v297q12 -1 21 -1q72 0 110 78q21 42 21 114q0 9 -1 27h-212v230z" />
    <glyph glyph-name="section" unicode="&#xa7;" horiz-adv-x="1947" 
d="M1708 995h-366v12q0 64 -57 91q-36 16 -114 19q-19 0 -208 2q-189 -3 -214 -4q-92 -4 -129 -39q-27 -25 -27 -87q0 -69 62 -94q28 -11 121 -20l661 -76q151 -18 229 -72q52 -37 74 -85q20 -47 20 -130q0 -122 -42 -196q-30 -54 -98 -85q75 -26 102 -71q36 -60 36 -198
q0 -176 -44 -255q-47 -86 -162 -121q-139 -43 -704 -43q-194 0 -307 9q-162 13 -241 56q-80 44 -100 116q-13 44 -13 107v71l-1 45h371q-1 -24 -1 -31q0 -53 26 -72q36 -25 117 -29q16 -1 264 -7q294 7 310 8q115 10 115 137q0 60 -29 86t-98 35l-797 103q-74 9 -103 22
q-155 66 -155 284q0 100 37 152q30 43 117 82q-67 27 -97 70q-27 38 -35 75q-10 49 -10 119q0 171 51 252q50 79 157 110q126 36 539 36q412 0 491 -11q108 -15 183 -97q39 -42 53 -101q10 -44 16 -175zM1339 299q75 89 75 160q0 35 -26 70q-30 40 -148 55l-592 73
q-41 -40 -56 -63q-31 -45 -31 -93q0 -68 69 -98q42 -18 148 -32z" />
    <glyph glyph-name="bullet" unicode="&#x2022;" horiz-adv-x="1365" 
d="M689 978q113 0 196 -83q84 -83 84 -201t-84 -201q-82 -83 -200 -83t-200 83q-84 83 -84 200q0 121 84 202q85 83 204 83z" />
    <glyph glyph-name="paragraph" unicode="&#xb6;" horiz-adv-x="1952" 
d="M747 340h-42q-116 0 -200 7q-170 13 -248 69q-102 73 -126 236q-15 98 -15 210q0 229 63 334q68 114 201 147q88 22 285 22h1171v-273h-195v-1529h-355v1529h-184v-1529h-355v777z" />
    <glyph glyph-name="germandbls" unicode="&#xdf;" horiz-adv-x="1631" 
d="M660 706v239h167q140 0 183 13q65 20 65 79q0 56 -62 83q-51 22 -192 22q-210 0 -271 -51q-36 -29 -45 -100q-3 -30 -3 -101v-890h-352v955q0 143 37 225q45 98 156 151q123 59 517 59q312 0 424 -57q144 -75 144 -256q0 -88 -35 -153q-37 -68 -125 -87q-28 -6 -119 -17
q98 -6 137 -13q235 -43 235 -369q0 -222 -110 -334q-119 -121 -388 -121q-306 0 -393 155q-38 68 -39 232h296q4 -56 22 -82q30 -41 101 -41q89 0 120 56q27 48 27 180q0 143 -58 187q-49 36 -192 36h-247z" />
    <glyph glyph-name="registered" unicode="&#xae;" horiz-adv-x="1952" 
d="M469 300v779h703q157 0 220 -28q61 -28 85 -87q22 -54 22 -143q0 -127 -62 -178q-34 -27 -103 -43q88 -8 120 -44q34 -38 34 -129v-127h-262v102q0 59 -27 77q-22 14 -102 14h-370v-193h-258zM727 694h377q74 0 100 11q38 17 38 82q0 62 -37 81q-20 10 -92 10h-386v-184z
M976 1379q343 0 485 -16q180 -20 265 -148q58 -89 71 -269q5 -78 5 -275q0 -252 -16 -347q-27 -167 -122 -242q-58 -46 -126 -64.5t-208 -24.5q-48 -2 -354 -7q-391 6 -471 14q-158 16 -255 119q-55 58 -76 149q-24 100 -24 442q0 236 17 336q29 171 131 245q82 60 193 72
q151 16 485 16zM971 1227q-368 0 -455 -22q-124 -30 -162 -121q-37 -90 -37 -383q0 -236 12 -314q20 -129 96 -182q64 -44 157 -54q122 -13 421 -13q350 0 432 21q136 36 172 144q28 84 28 392q0 300 -34 381q-28 67 -81 96q-66 37 -156 44q-135 11 -393 11z" />
    <glyph glyph-name="copyright" unicode="&#xa9;" horiz-adv-x="1952" 
d="M1245 599h251q-1 -149 -22 -193q-47 -96 -229 -109q-72 -5 -308 -5q-162 0 -248 10q-161 20 -203 136q-29 79 -29 267q0 169 31 238q47 105 201 126q90 12 258 12q318 0 391 -21q80 -23 114 -78q33 -52 33 -160v-28h-248q-1 33 -9 51q-13 33 -102 37q-50 2 -114 2
q-191 0 -224 -9q-59 -15 -70 -75q-5 -31 -5 -122q0 -123 32 -154q25 -25 103 -30q41 -3 111 -3q149 0 195 4q52 4 72 27q19 22 19 77zM976 1379q343 0 485 -16q180 -20 265 -148q58 -89 71 -269q5 -78 5 -275q0 -252 -16 -347q-27 -167 -122 -242q-58 -46 -126 -64.5
t-208 -24.5q-48 -2 -354 -7q-391 6 -471 14q-158 16 -255 119q-55 58 -76 149q-24 100 -24 442q0 236 17 336q29 171 131 245q82 60 193 72q151 16 485 16zM971 1227q-368 0 -455 -22q-124 -30 -162 -121q-37 -90 -37 -383q0 -236 12 -314q20 -129 96 -182q64 -44 157 -54
q122 -13 421 -13q350 0 432 21q136 36 172 144q28 84 28 392q0 300 -34 381q-28 67 -81 96q-66 37 -156 44q-135 11 -393 11z" />
    <glyph glyph-name="trademark" unicode="&#x2122;" horiz-adv-x="2737" 
d="M434 587v576h-367v202h998v-202h-366v-576h-265zM1191 587v778h409l296 -501l295 501h405v-778h-258l12 572l-354 -572h-208l-348 572l6 -572h-255z" />
    <glyph glyph-name="acute" unicode="&#xb4;" 
d="M756 1470l80 -217l-487 -164l-51 137z" />
    <glyph glyph-name="dieresis" unicode="&#xa8;" 
d="M437 1346v-213h-285v213h285zM872 1346v-213h-285v213h285z" />
    <glyph glyph-name="notequal" unicode="&#x2260;" horiz-adv-x="1952" 
d="M1340 1030h278v-246h-437l-107 -163h544v-246h-703l-166 -256l-206 134l79 122h-287v246h446l107 163h-553v246h712l157 242l206 -134z" />
    <glyph glyph-name="AE" unicode="&#xc6;" horiz-adv-x="3027" 
d="M14 0l920 1365h1964v-310h-1105v-233h1035v-270h-1035v-242h1105v-310h-1491v247h-745l-162 -247h-486zM841 523h566v532h-216z" />
    <glyph glyph-name="Oslash" unicode="&#xd8;" horiz-adv-x="2199" 
d="M197 280q-13 56 -19 100q-11 81 -11 306q0 177 5 245t24 138q37 139 140 210q110 75 370 92q107 7 329 7q329 0 433 -4q270 -9 380 -75q23 -13 50 -37l232 134v-236l-130 -75q20 -71 24 -136q7 -98 7 -292q0 -301 -51 -418q-51 -115 -145 -167q-76 -42 -158.5 -58.5
t-242.5 -22.5q-130 -4 -336 -4q-235 0 -374 5q-261 8 -372 74q-23 13 -51 37l-233 -134v236zM596 511l894 518q-78 9 -84 9q-68 7 -324 7q-237 0 -313 -12q-120 -18 -152 -89q-29 -63 -29 -269q0 -76 8 -164zM1612 861l-897 -518q79 -23 343 -23q336 0 407 18q86 21 117 77
q25 46 32 140q4 51 4 148q0 88 -6 158z" />
    <glyph glyph-name="infinity" unicode="&#x221e;" horiz-adv-x="1365" 
d="M689 537q-146 -171 -324 -171q-156 0 -252 108q-78 88 -78 223q0 159 110 251q93 78 220 78q171 0 313 -168q135 168 322 168q168 0 264 -120q67 -85 67 -209q0 -157 -105 -249q-93 -82 -223 -82q-178 0 -314 171zM804 697q81 -123 164 -123q52 0 88 37q33 35 33 85
q0 58 -44 94q-35 28 -78 28q-66 0 -124 -68q-15 -18 -29 -39zM562 696q-79 122 -163 122q-53 0 -89 -37q-33 -35 -33 -85q0 -58 44 -93q36 -29 79 -29q65 0 123 68q8 10 23.5 31.5t15.5 22.5z" />
    <glyph glyph-name="plusminus" unicode="&#xb1;" horiz-adv-x="1884" 
d="M1065 956h518v-246h-518v-410h-246v410h-519v246h519v409h246v-409zM1583 246v-246h-1283v246h1283z" />
    <glyph glyph-name="lessequal" unicode="&#x2264;" horiz-adv-x="1952" 
d="M1419 1349v-232l-627 -289l627 -287v-232l-887 412v207zM1419 250v-229h-887v229h887z" />
    <glyph glyph-name="greaterequal" unicode="&#x2265;" horiz-adv-x="1952" 
d="M532 309v232l627 288l-627 288v232l887 -421v-207zM532 21v229h887v-229h-887z" />
    <glyph glyph-name="yen" unicode="&#xa5;" horiz-adv-x="1947" 
d="M1550 983h174v-232h-346l-142 -191h467v-232h-529v-328h-390v328h-541v232h477l-144 191h-353v232h178l-288 382h470l395 -561l389 561h467z" />
    <glyph glyph-name="mu" unicode="&#xb5;" horiz-adv-x="1599" 
d="M150 -425v1381h352v-419q0 -95 9 -140q14 -78 91 -120q65 -36 198 -36q132 0 197 36q76 42 91 120q9 45 9 140v419h352v-956h-352v196q-17 -97 -74 -145q-80 -65 -224 -65q-143 0 -223 65q-57 48 -74 145v-621h-352z" />
    <glyph glyph-name="partialdiff" unicode="&#x2202;" 
d="M136 1149l31 213q193 -22 334 -76q181 -70 307 -221q177 -214 177 -524q0 -218 -94 -359q-63 -96 -162 -148q-100 -53 -221 -53q-142 0 -259 76q-78 51 -130 128q-82 121 -82 264q0 186 124 313q121 124 300 124q155 0 259 -103q-50 110 -116 173q-165 160 -468 193z
M513 706q-85 0 -147 -60q-79 -77 -79 -206q0 -126 77 -210q60 -65 146 -65q104 0 168 89q56 80 56 187q0 133 -81 209q-61 56 -140 56z" />
    <glyph glyph-name="summation" unicode="&#x2211;" horiz-adv-x="1365" 
d="M1262 1536v-507h-220l-26 277h-694l512 -759l-512 -830h713l15 275h231v-504h-1236v254l501 805l-501 734v255h1217z" />
    <glyph glyph-name="product" unicode="&#x220f;" horiz-adv-x="1490" 
d="M81 1536h1328v-229h-170v-1590h170v-229h-580v229h164v1590h-497v-1590h163v-229h-578v229h169v1590h-169v229z" />
    <glyph glyph-name="_002" horiz-adv-x="512" 
 />
    <glyph glyph-name="integral" unicode="&#x222b;" 
d="M115 -491l46 219q68 -19 111 -19q104 0 115 112q2 25 2 155v1024q0 118 2 195q11 341 339 341q70 0 179 -21l-46 -219q-66 19 -110 19q-105 0 -116 -112q-1 -17 -2 -280v-899q0 -212 -9 -270q-19 -125 -100 -193q-84 -72 -232 -72q-90 0 -179 20z" />
    <glyph glyph-name="ordfeminine" unicode="&#xaa;" horiz-adv-x="1033" 
d="M689 546v71q-35 -48 -67 -60q-59 -24 -211 -24q-210 0 -268 38q-66 42 -66 151q0 113 65 155q56 36 178 40q56 2 148 2q54 0 101 -4q46 -4 69 -15q16 -7 45 -32v36q0 58 -23 72q-28 17 -160 17q-111 0 -134 -9q-19 -8 -21 -37h-242q4 65 25 96q31 44 104 70q69 24 309 24
q117 0 193 -8q132 -15 176 -100q21 -41 21 -85v-40v-358h-242zM486 789q-73 0 -110 -5q-59 -9 -59 -51q0 -44 64 -54q21 -3 127 -3q90 0 122 5q56 10 56 54q0 47 -81 51q-54 3 -119 3z" />
    <glyph glyph-name="ordmasculine" unicode="&#xba;" horiz-adv-x="1054" 
d="M524 1137q166 0 268 -16q121 -19 161 -98q24 -46 24 -172q0 -153 -26 -205q-40 -78 -159 -96q-102 -16 -279 -16q-172 0 -264 17q-116 21 -152 108q-20 49 -20 181q0 143 34 197q47 73 179 88q101 12 234 12zM521 970q-121 0 -156 -18q-28 -14 -37 -45q-7 -24 -7 -70
q0 -61 10 -83q16 -39 75 -47q39 -6 121 -6q137 0 169 20q27 17 33 50q4 18 4 61q0 68 -12 92q-18 34 -84 42q-33 4 -116 4z" />
    <glyph glyph-name="uni2126" unicode="&#x2126;" horiz-adv-x="1365" 
d="M59 0v221h295q-124 77 -186 160q-109 147 -109 369q0 273 174 458q180 190 451 190t450 -191q173 -184 173 -457q0 -233 -117 -381q-62 -77 -176 -148h293v-221h-548v196q122 69 183 150q113 148 113 375q0 182 -90 304q-111 152 -280 152q-149 0 -258 -119
q-116 -126 -116 -337q0 -240 127 -389q64 -76 172 -136v-196h-551z" />
    <glyph glyph-name="ae" unicode="&#xe6;" horiz-adv-x="2450" 
d="M1974 307h353q-4 -188 -145 -265q-85 -46 -234 -57q-97 -7 -222 -7q-333 0 -423 36q-105 43 -127 138q-17 -56 -50 -88q-92 -87 -393 -87q-299 0 -405 20q-75 14 -135 67q-84 75 -84 230q0 221 148 275q92 34 328 34q206 0 293 -5q89 -5 133 -50q19 -19 39 -58v85
q0 113 -38 146q-35 31 -134 36q-63 3 -199 3q-119 0 -147 -24q-20 -16 -25 -53h-358q3 157 112 226q78 50 222 62q83 7 287 7q265 0 357 -45q85 -41 101 -133q21 99 132 144q83 34 346 34q232 0 325 -17q206 -37 267 -208q29 -83 29 -234v-114h-939q1 -110 30 -149
q28 -38 94 -52q54 -11 214 -11q97 0 129 4q118 13 119 110zM1974 600q1 14 1 20q0 79 -61 111q-53 27 -226 27q-101 0 -155 -5q-150 -16 -148 -153h589zM823 409q-214 0 -265 -7q-101 -15 -101 -97q0 -80 88 -98q48 -10 191 -10q192 0 240 16q70 24 70 90q0 78 -87 97
q-42 9 -136 9z" />
    <glyph glyph-name="oslash" unicode="&#xf8;" horiz-adv-x="1620" 
d="M153 188q-24 113 -24 264q0 197 15 267q31 144 147 197q136 62 509 62q259 0 413 -27q87 -16 171 -69l182 106v-169l-96 -57q23 -94 23 -243q0 -272 -40 -359q-37 -81 -154 -130q-123 -52 -516 -52q-261 0 -403 29q-73 15 -139 62l-186 -106v170zM488 378l561 316
q-42 15 -91 20q-54 4 -161 4q-133 0 -197 -14q-97 -20 -110 -116q-9 -69 -9 -162q0 -19 7 -48zM1132 574l-559 -316q77 -21 224 -21q128 0 184 7q107 12 139 87q19 45 19 148q0 54 -7 95z" />
    <glyph glyph-name="questiondown" unicode="&#xbf;" horiz-adv-x="1609" 
d="M1118 956v-342h-397v342h397zM745 481h347q0 -106 -7 -156q-15 -114 -119 -153q-67 -25 -244 -52q-133 -21 -178 -47q-49 -28 -49 -102q0 -92 109 -112q75 -14 258 -14t244 24q76 29 76 155q0 12 -1 42h350q0 -135 -11 -204q-33 -208 -254 -248q-154 -27 -456 -27
q-378 0 -508 61q-97 46 -129 141q-23 65 -23 188q0 157 34 232q37 80 127 116q54 21 316 63q99 16 114 56q4 11 4 37z" />
    <glyph glyph-name="exclamdown" unicode="&#xa1;" horiz-adv-x="657" 
d="M126 -410l23 808h357l18 -808h-398zM530 956v-374h-397v374h397z" />
    <glyph glyph-name="logicalnot" unicode="&#xac;" horiz-adv-x="1952" 
d="M1173 0v317h-641v229h887v-546h-246z" />
    <glyph glyph-name="radical" unicode="&#x221a;" horiz-adv-x="1365" 
d="M1365 1702v-229h-371l-356 -1473h-324l-125 565h-189v229h392l43 -194q22 -95 33 -299h20q25 287 104 616l188 785h585z" />
    <glyph glyph-name="florin" unicode="&#x192;" horiz-adv-x="1612" 
d="M1011 766l-115 -652q-20 -114 -32 -153.5t-40 -85.5q-61 -99 -208 -134q-91 -21 -232 -21q-69 0 -247 9l41 232q62 -4 100 -4q160 0 208 38q34 27 52 112q6 27 11 55l107 604h-228l40 225h228l21 123q21 116 33 156.5t39 84.5q59 99 209 133q92 21 232 21q71 0 246 -9
l-41 -232q-58 4 -100 4q-70 0 -117 -6q-111 -12 -136 -101q-2 -9 -17 -94l-14 -80h335l-39 -225h-336z" />
    <glyph glyph-name="approxequal" unicode="&#x2248;" horiz-adv-x="1952" 
d="M615 712l-136 89q49 119 101 182q75 94 205 94q68 0 214 -56q99 -37 122 -43q31 -7 59 -7q64 0 104 41q21 21 49 69l141 -81q-74 -154 -145 -206q-81 -60 -176 -60q-42 0 -115 24q-50 16 -185 65q-46 17 -84 17q-67 0 -108 -52q-19 -23 -46 -76zM615 309l-136 89
q50 120 101 183q75 94 205 94q69 0 214 -56q98 -37 122 -43q32 -8 60 -8q63 0 103 41q21 21 49 69l141 -81q-74 -154 -145 -206q-81 -60 -177 -60q-55 0 -202 54q-107 40 -127 45q-32 8 -54 8q-67 0 -108 -52q-18 -23 -46 -77z" />
    <glyph glyph-name="Delta" unicode="&#x2206;" horiz-adv-x="1365" 
d="M37 0l508 1365h266l516 -1365h-1290zM388 230h583l-292 836z" />
    <glyph glyph-name="guillemotleft" unicode="&#xab;" horiz-adv-x="1297" 
d="M616 861l-213 -362l213 -355l-252 -139l-296 494l296 506zM1174 861l-213 -362l213 -355l-252 -139l-296 494l296 506z" />
    <glyph glyph-name="guillemotright" unicode="&#xbb;" horiz-adv-x="1297" 
d="M681 861l253 144l295 -506l-295 -494l-252 139l212 355zM123 861l252 144l296 -506l-296 -494l-252 139l213 355z" />
    <glyph glyph-name="ellipsis" unicode="&#x2026;" horiz-adv-x="2122" 
d="M557 381v-381h-407v381h407zM1264 381v-381h-407v381h407zM1972 381v-381h-407v381h407z" />
    <glyph glyph-name="_003" horiz-adv-x="1947" 
 />
    <glyph glyph-name="Agrave" unicode="&#xc0;" horiz-adv-x="2099" 
d="M14 0l768 1365h557l747 -1365h-454l-136 244h-881l-131 -244h-470zM765 528h587l-297 544zM757 1860l548 -239l-62 -149l-570 131z" />
    <glyph glyph-name="Atilde" unicode="&#xc3;" horiz-adv-x="2099" 
d="M14 0l768 1365h557l747 -1365h-454l-136 244h-881l-131 -244h-470zM765 528h587l-297 544zM1362 1811l183 -71q-29 -76 -74 -133q-43 -55 -84 -81q-51 -34 -124 -34q-77 0 -213 53q-135 52 -183 52q-77 0 -115 -98l-183 71q36 83 71 133q81 114 209 114q66 0 160 -29
q26 -8 162 -57q46 -17 88 -17q71 0 103 97z" />
    <glyph glyph-name="Otilde" unicode="&#xd5;" horiz-adv-x="2165" 
d="M1051 1379q491 0 609 -21q170 -31 249 -125q74 -88 94 -240q12 -84 12 -332q0 -305 -52 -422q-50 -115 -144 -168q-77 -42 -159.5 -59t-241.5 -22q-130 -4 -339 -4q-457 0 -573 21q-160 30 -236 110q-75 79 -103 224q-17 89 -17 350q0 173 5 241.5t24 136.5
q37 140 140 211q110 75 370 92q110 7 362 7zM1085 1046q-257 0 -333 -12q-119 -18 -152 -89q-29 -64 -29 -255q0 -204 28 -265q36 -78 163 -96q68 -10 313 -10q303 0 374 18q86 21 117 78q25 45 32 139q4 54 4 144q0 195 -28 254q-18 38 -47 53q-55 29 -137 34
q-104 7 -305 7zM1394 1811l183 -71q-29 -76 -74 -133q-43 -55 -84 -81q-51 -34 -123 -34q-78 0 -214 53q-134 52 -183 52q-76 0 -115 -98l-183 71q36 83 72 133q81 114 208 114q66 0 161 -29q25 -8 161 -57q46 -17 88 -17q71 0 103 97z" />
    <glyph glyph-name="OE" unicode="&#x152;" horiz-adv-x="3198" 
d="M1582 0v170q-24 -56 -59 -86q-78 -68 -212 -80q-41 -4 -222 -4l-153 -1q-359 0 -476 32q-219 61 -277 247q-33 107 -33 378q0 337 44 455q73 197 296 239q90 17 453 17q338 0 454 -28q88 -22 144 -86q22 -26 41 -79v191h1486v-310h-1103v-233h1034v-270h-1034v-242h1103
v-310h-1486zM1076 1039q-234 0 -304 -3q-164 -8 -195 -102q-24 -73 -24 -267q0 -131 15 -199q22 -96 108 -124q71 -22 205 -27q14 0 173 -1l159 -3q214 0 294 51q51 32 63 113q12 73 12 235q0 191 -42 249q-41 59 -167 70q-92 8 -297 8z" />
    <glyph glyph-name="oe" unicode="&#x153;" horiz-adv-x="2500" 
d="M2042 297h348q0 -144 -91 -221q-89 -74 -248 -91q-70 -7 -252 -7q-202 0 -276 9q-143 17 -203 80q-26 29 -42 73q-40 -97 -136 -134q-72 -28 -310 -28t-334 8q-134 11 -206 45q-138 67 -167 205q-16 78 -16 280q0 165 23 236q54 163 261 203q117 23 406 23q290 0 377 -45
q74 -39 102 -114q36 92 152 129q93 30 309 30q203 0 304 -12q127 -15 196 -57q117 -73 144 -237q7 -45 7 -153v-115h-938q-1 -14 -1 -19q0 -95 44 -143q33 -35 114 -46q55 -8 166 -8q185 0 226 29q33 24 41 80zM2039 591v34q-2 77 -57 107q-58 31 -231 31q-156 0 -225 -27
q-80 -30 -80 -145h593zM794 718q-142 0 -199 -10q-85 -15 -117 -74q-24 -43 -24 -154q0 -101 16 -143q31 -82 130 -96q55 -8 196 -8q171 0 230 20q42 13 64 54q28 55 28 171q0 113 -28 159q-37 59 -124 73q-50 8 -172 8z" />
    <glyph glyph-name="endash" unicode="&#x2013;" horiz-adv-x="1947" 
d="M1627 668v-349h-1307v349h1307z" />
    <glyph glyph-name="emdash" unicode="&#x2014;" horiz-adv-x="2125" 
d="M2125 668v-349h-2125v349h2125z" />
    <glyph glyph-name="quotedblleft" unicode="&#x201c;" horiz-adv-x="1195" 
d="M1066 999v-366h-396v349q0 120 9 176q15 99 87 154q69 53 246 53h113v-209q-101 -1 -132 -28q-37 -33 -37 -115v-14h110zM507 999v-366h-396v349q0 120 9 176q15 99 87 154q69 53 246 53h113v-209q-101 -1 -132 -28q-37 -33 -37 -115v-14h110z" />
    <glyph glyph-name="quotedblright" unicode="&#x201d;" horiz-adv-x="1205" 
d="M129 999v366h396v-349q0 -120 -9 -176q-15 -99 -87 -154q-69 -53 -246 -53h-113v209q101 1 132 28q37 32 37 115v14h-110zM688 999v366h396v-349q0 -120 -9 -176q-15 -99 -87 -154q-69 -53 -246 -53h-113v209q101 1 132 28q37 33 37 115v14h-110z" />
    <glyph glyph-name="quoteleft" unicode="&#x2018;" horiz-adv-x="637" 
d="M507 999v-366h-396v349q0 120 9 176q15 99 87 154q69 53 246 53h113v-209q-101 -1 -132 -28q-37 -33 -37 -115v-14h110z" />
    <glyph glyph-name="quoteright" unicode="&#x2019;" horiz-adv-x="646" 
d="M129 999v366h396v-349q0 -120 -9 -176q-15 -99 -87 -154q-69 -53 -246 -53h-113v209q101 1 132 28q37 32 37 115v14h-110z" />
    <glyph glyph-name="divide" unicode="&#xf7;" horiz-adv-x="1884" 
d="M1583 825v-246h-1283v246h1283zM1118 1277v-330h-353v330h353zM1118 458v-330h-353v330h353z" />
    <glyph glyph-name="lozenge" unicode="&#x25ca;" horiz-adv-x="1365" 
d="M683 1419l532 -736l-532 -736l-532 736zM683 1237l-404 -554l404 -555l403 555z" />
    <glyph glyph-name="ydieresis" unicode="&#xff;" horiz-adv-x="1470" 
d="M479 0l-431 956h391l280 -708l308 708h395l-547 -1155q-33 -70 -53 -103q-55 -89 -154 -114q-66 -17 -189 -17q-71 0 -148 7v238q76 -2 122 2q75 7 106 49q24 33 37 62l35 75h-152zM660 1346v-213h-285v213h285zM1095 1346v-213h-285v213h285z" />
    <glyph glyph-name="Ydieresis" unicode="&#x178;" horiz-adv-x="2023" 
d="M808 0v473l-781 892h531l461 -565l457 565h519l-769 -892v-473h-418zM912 1757v-239h-357v239h357zM1467 1757v-239h-357v239h357z" />
    <glyph glyph-name="fraction" unicode="&#x2044;" horiz-adv-x="462" 
d="M696 1365h206l-1135 -1365h-207z" />
    <glyph glyph-name="Euro" unicode="&#x20ac;" horiz-adv-x="1947" 
d="M178 913q14 224 115 323q80 79 222 110q137 30 546 30q185 0 437 -4q144 -2 220 -10q46 -6 140 -22l-137 -328q-155 30 -260 33q-78 3 -170 3l-176 -2q-327 -2 -345 -5q-123 -16 -158 -90q-8 -16 -13 -38h896l-85 -205h-825l-1 -9v-45v-7h801l-86 -205h-692
q34 -95 135 -107q124 -15 530 -15q225 0 410 24v-345q-175 -9 -602 -9q-321 0 -423 8q-209 16 -311 81q-143 93 -165 363h-162l85 205h69v61h-154l85 205h74z" />
    <glyph glyph-name="guilsinglleft" unicode="&#x2039;" horiz-adv-x="739" 
d="M616 861l-213 -362l213 -355l-252 -139l-296 494l296 506z" />
    <glyph glyph-name="guilsinglright" unicode="&#x203a;" horiz-adv-x="739" 
d="M123 861l252 144l296 -506l-296 -494l-252 139l213 355z" />
    <glyph glyph-name="fi" unicode="&#xfb01;" horiz-adv-x="1674" 
d="M1172 0v956h352v-956h-352zM1172 1109v256h352v-256h-352zM286 0v716h-190v240h190v31q0 158 38 233q61 125 226 154q74 13 227 13q75 0 193 -8v-231q-93 3 -137 3q-118 0 -161 -44q-34 -34 -34 -122v-29h354v-240h-354v-716h-352z" />
    <glyph glyph-name="fl" unicode="&#xfb02;" horiz-adv-x="1674" 
d="M1172 0v1365h352v-1365h-352zM286 0v716h-190v240h190v31q0 158 38 233q61 125 226 154q74 13 227 13q75 0 193 -8v-231q-93 3 -137 3q-118 0 -161 -44q-34 -34 -34 -122v-29h354v-240h-354v-716h-352z" />
    <glyph glyph-name="daggerdbl" unicode="&#x2021;" horiz-adv-x="1947" 
d="M1159 1365v-403h596v-261h-596v-459h596v-261h-596v-424h-370v424h-597v261h597v459h-597v261h597v403h370z" />
    <glyph glyph-name="periodcentered" unicode="&#xb7;" horiz-adv-x="707" 
d="M557 669v-381h-407v381h407z" />
    <glyph glyph-name="quotesinglbase" unicode="&#x201a;" horiz-adv-x="646" 
d="M129 0v366h396v-349q0 -120 -9 -176q-15 -99 -87 -154q-69 -53 -246 -53h-113v209q101 1 132 28q37 32 37 115v14h-110z" />
    <glyph glyph-name="quotedblbase" unicode="&#x201e;" horiz-adv-x="1205" 
d="M129 0v366h396v-349q0 -120 -9 -176q-15 -99 -87 -154q-69 -53 -246 -53h-113v209q101 1 132 28q37 32 37 115v14h-110zM688 0v366h396v-349q0 -120 -9 -176q-15 -99 -87 -154q-69 -53 -246 -53h-113v209q101 1 132 28q37 33 37 115v14h-110z" />
    <glyph glyph-name="perthousand" unicode="&#x2030;" horiz-adv-x="3221" 
d="M533 1368q173 0 246 -12q116 -20 149 -103q27 -66 27 -224q0 -165 -22 -229q-19 -57 -88 -89q-53 -25 -160 -30q-33 -2 -147 -2q-216 0 -273 7q-82 10 -132 57q-44 42 -53 144q-4 50 -4 145q0 160 28 222q36 82 158 102q79 12 271 12zM505 1200q-145 0 -177 -23
q-27 -18 -33 -68q-4 -35 -4 -92q0 -88 12 -114q16 -34 63 -43q37 -7 151 -7q102 0 149 8q55 10 66 55q5 19 8 100q-3 105 -6 119q-11 48 -68 58q-39 7 -161 7zM1586 1365h188l-1136 -1365h-188zM1726 686q173 0 246 -12q116 -20 149 -103q27 -66 27 -224q0 -165 -22 -229
q-19 -57 -88 -89q-42 -20 -99.5 -26t-207.5 -6q-216 0 -273 7q-82 10 -132 57q-44 42 -53 144q-4 50 -4 145q0 160 28 222q36 82 158 101q79 13 271 13zM1698 518q-145 0 -177 -23q-27 -18 -33 -68q-4 -34 -4 -92q0 -88 12 -114q16 -33 63 -43q37 -7 151 -7q103 0 149 8
q55 10 66 55q5 19 8 100q-3 105 -6 119q-11 48 -68 58q-39 7 -161 7zM2723 686q173 0 246 -12q116 -20 149 -103q27 -66 27 -224q0 -165 -22 -229q-19 -57 -88 -89q-42 -20 -99.5 -26t-207.5 -6q-216 0 -273 7q-82 10 -132 57q-44 42 -53 144q-4 50 -4 145q0 160 28 222
q36 82 158 101q79 13 271 13zM2695 518q-145 0 -177 -23q-27 -18 -33 -68q-4 -35 -4 -92q0 -88 12 -114q16 -34 63 -43q37 -7 151 -7q101 0 149 8q55 10 66 55q5 19 8 100q-3 105 -6 119q-11 48 -68 58q-39 7 -161 7z" />
    <glyph glyph-name="Acircumflex" unicode="&#xc2;" horiz-adv-x="2099" 
d="M14 0l768 1365h557l747 -1365h-454l-136 244h-881l-131 -244h-470zM765 528h587l-297 544zM1051 1849l487 -247l-72 -130l-415 114l-417 -114l-73 130z" />
    <glyph glyph-name="Ecircumflex" unicode="&#xca;" horiz-adv-x="1834" 
d="M177 1365h1513v-310h-1103v-233h1041v-270h-1041v-242h1117v-310h-1527v1365zM934 1849l488 -247l-72 -130l-416 114l-416 -114l-73 130z" />
    <glyph glyph-name="Aacute" unicode="&#xc1;" horiz-adv-x="2099" 
d="M14 0l768 1365h557l747 -1365h-454l-136 244h-881l-131 -244h-470zM765 528h587l-297 544zM1363 1860l85 -257l-571 -131l-62 149z" />
    <glyph glyph-name="Edieresis" unicode="&#xcb;" horiz-adv-x="1834" 
d="M177 1365h1513v-310h-1103v-233h1041v-270h-1041v-242h1117v-310h-1527v1365zM834 1757v-239h-357v239h357zM1390 1757v-239h-357v239h357z" />
    <glyph glyph-name="Egrave" unicode="&#xc8;" horiz-adv-x="1834" 
d="M177 1365h1513v-310h-1103v-233h1041v-270h-1041v-242h1117v-310h-1527v1365zM627 1860l548 -239l-62 -149l-571 131z" />
    <glyph glyph-name="Iacute" unicode="&#xcd;" horiz-adv-x="771" 
d="M177 0v1365h416v-1365h-416zM644 1860l85 -257l-516 -131l-62 149z" />
    <glyph glyph-name="Icircumflex" unicode="&#xce;" horiz-adv-x="771" 
d="M177 0v1365h416v-1365h-416zM386 1849l399 -247l-72 -130l-327 114l-328 -114l-72 130z" />
    <glyph glyph-name="Idieresis" unicode="&#xcf;" horiz-adv-x="771" 
d="M177 0v1365h416v-1365h-416zM338 1757v-239h-316v239h316zM749 1757v-239h-316v239h316z" />
    <glyph glyph-name="Igrave" unicode="&#xcc;" horiz-adv-x="771" 
d="M177 0v1365h416v-1365h-416zM127 1860l493 -239l-48 -149l-530 131z" />
    <glyph glyph-name="Oacute" unicode="&#xd3;" horiz-adv-x="2165" 
d="M1051 1379q491 0 609 -21q170 -31 249 -125q74 -88 94 -240q12 -84 12 -332q0 -305 -52 -422q-50 -115 -144 -168q-77 -42 -159.5 -59t-241.5 -22q-130 -4 -339 -4q-457 0 -573 21q-160 30 -236 110q-75 79 -103 224q-17 89 -17 350q0 173 5 241.5t24 136.5
q37 140 140 211q110 75 370 92q110 7 362 7zM1085 1046q-257 0 -333 -12q-119 -18 -152 -89q-29 -64 -29 -255q0 -204 28 -265q36 -78 163 -96q68 -10 313 -10q303 0 374 18q86 21 117 78q25 45 32 139q4 54 4 144q0 195 -28 254q-18 38 -47 53q-55 29 -137 34
q-104 7 -305 7zM1396 1860l85 -257l-571 -131l-62 149z" />
    <glyph glyph-name="Ocircumflex" unicode="&#xd4;" horiz-adv-x="2165" 
d="M1051 1379q491 0 609 -21q170 -31 249 -125q74 -88 94 -240q12 -84 12 -332q0 -305 -52 -422q-50 -115 -144 -168q-77 -42 -159.5 -59t-241.5 -22q-130 -4 -339 -4q-457 0 -573 21q-160 30 -236 110q-75 79 -103 224q-17 89 -17 350q0 173 5 241.5t24 136.5
q37 140 140 211q110 75 370 92q110 7 362 7zM1085 1046q-257 0 -333 -12q-119 -18 -152 -89q-29 -64 -29 -255q0 -204 28 -265q36 -78 163 -96q68 -10 313 -10q303 0 374 18q86 21 117 78q25 45 32 139q4 54 4 144q0 195 -28 254q-18 38 -47 53q-55 29 -137 34
q-104 7 -305 7zM1083 1849l488 -247l-73 -130l-415 114l-417 -114l-72 130z" />
    <glyph glyph-name="_004" horiz-adv-x="512" 
 />
    <glyph glyph-name="Ograve" unicode="&#xd2;" horiz-adv-x="2165" 
d="M1051 1379q491 0 609 -21q170 -31 249 -125q74 -88 94 -240q12 -84 12 -332q0 -305 -52 -422q-50 -115 -144 -168q-77 -42 -159.5 -59t-241.5 -22q-130 -4 -339 -4q-457 0 -573 21q-160 30 -236 110q-75 79 -103 224q-17 89 -17 350q0 173 5 241.5t24 136.5
q37 140 140 211q110 75 370 92q110 7 362 7zM1085 1046q-257 0 -333 -12q-119 -18 -152 -89q-29 -64 -29 -255q0 -204 28 -265q36 -78 163 -96q68 -10 313 -10q303 0 374 18q86 21 117 78q25 45 32 139q4 54 4 144q0 195 -28 254q-18 38 -47 53q-55 29 -137 34
q-104 7 -305 7zM769 1860l548 -239l-62 -149l-571 131z" />
    <glyph glyph-name="Uacute" unicode="&#xda;" horiz-adv-x="2094" 
d="M171 1365h416v-592q-1 -97 -1 -141q0 -153 28 -214q27 -63 106 -82q88 -21 272 -21q238 0 340 10q91 9 126 53q40 49 46 135q4 46 4 109l-1 117v626h416v-715q0 -213 -14 -301q-25 -160 -132 -247q-94 -76 -251 -100q-73 -11 -485 -14q-319 2 -404.5 7t-157.5 25
q-222 62 -277 251q-31 105 -31 360v734zM1361 1860l85 -257l-571 -131l-62 149z" />
    <glyph glyph-name="Ucircumflex" unicode="&#xdb;" horiz-adv-x="2094" 
d="M171 1365h416v-592q-1 -97 -1 -141q0 -153 28 -214q27 -63 106 -82q88 -21 272 -21q238 0 340 10q91 9 126 53q40 49 46 135q4 46 4 109l-1 117v626h416v-715q0 -213 -14 -301q-25 -160 -132 -247q-94 -76 -251 -100q-73 -11 -485 -14q-319 2 -404.5 7t-157.5 25
q-222 62 -277 251q-31 105 -31 360v734zM1048 1849l488 -247l-73 -130l-415 114l-417 -114l-72 130z" />
    <glyph glyph-name="Ugrave" unicode="&#xd9;" horiz-adv-x="2094" 
d="M171 1365h416v-592q-1 -97 -1 -141q0 -153 28 -214q27 -63 106 -82q88 -21 272 -21q238 0 340 10q91 9 126 53q40 49 46 135q4 46 4 109l-1 117v626h416v-715q0 -213 -14 -301q-25 -160 -132 -247q-94 -76 -251 -100q-73 -11 -485 -14q-319 2 -404.5 7t-157.5 25
q-222 62 -277 251q-31 105 -31 360v734zM734 1860l548 -239l-62 -149l-571 131z" />
    <glyph glyph-name="dotlessi" unicode="&#x131;" horiz-adv-x="653" 
d="M150 0v956h352v-956h-352z" />
    <glyph glyph-name="circumflex" unicode="&#x2c6;" 
d="M512 1458l411 -247l-56 -122l-355 143l-355 -143l-56 122z" />
    <glyph glyph-name="tilde" unicode="&#x2dc;" 
d="M766 1416l166 -69q-28 -72 -55 -113q-39 -58 -104 -90q-46 -23 -95 -23q-53 0 -168 45q-114 44 -153 44q-75 0 -100 -93l-166 68q61 129 111 171q59 50 147 50q64 0 167 -47q87 -40 136 -40q50 0 86 43q21 23 28 54z" />
    <glyph glyph-name="macron" unicode="&#xaf;" 
d="M892 1340v-199h-761v199h761z" />
    <glyph glyph-name="breve" unicode="&#x2d8;" horiz-adv-x="955" 
d="M68 1403h221q5 -65 24 -100q28 -50 164 -50q78 0 123 16q49 18 61 94q3 16 4 40h222q-16 -143 -66 -213q-48 -68 -164 -90q-62 -12 -179 -12q-169 0 -250 32q-108 43 -143 176q-10 36 -17 107z" />
    <glyph glyph-name="dotaccent" unicode="&#x2d9;" 
d="M659 1350v-221h-293v221h293z" />
    <glyph glyph-name="ring" unicode="&#x2da;" 
d="M521 1452q127 0 203 -48q70 -44 70 -134q0 -104 -87 -157q-70 -42 -206 -42q-108 0 -180 40q-90 51 -90 149q0 59 36 106q66 86 254 86zM510 1339q-134 0 -134 -79q0 -47 37 -62q34 -14 94 -14q142 0 142 76q0 79 -139 79z" />
    <glyph glyph-name="cedilla" unicode="&#xb8;" 
d="M471 -75l225 -128l-231 -272l-137 75z" />
    <glyph glyph-name="hungarumlaut" unicode="&#x2dd;" 
d="M489 1495l153 -201l-431 -228l-102 130zM976 1495l152 -201l-430 -228l-102 130z" />
    <glyph glyph-name="ogonek" unicode="&#x2db;" 
d="M744 0h211q-187 -112 -187 -199q0 -35 31 -57q26 -19 71 -19q32 0 85 14v-161q-60 -13 -107 -13q-104 0 -177 45q-51 32 -78 87q-19 39 -19 83q0 119 170 220z" />
    <glyph glyph-name="caron" unicode="&#x2c7;" 
d="M512 1089l-411 247l56 122l355 -143l355 143l56 -122z" />
    <glyph glyph-name="uni00A0" unicode="&#xa0;" horiz-adv-x="512" 
 />
    <glyph glyph-name="currency" unicode="&#xa4;" horiz-adv-x="1527" 
d="M127 190l209 209q-90 132 -90 282q0 148 92 282l-213 212l141 141l212 -211q138 90 287 90t282 -88l210 208l140 -140l-208 -208q94 -146 94 -286q0 -145 -90 -280l210 -210l-139 -142l-210 210q-137 -93 -291 -93q-140 0 -287 92l-209 -208zM768 962q-120 0 -203 -82
q-82 -82 -82 -200q0 -116 83 -198q83 -83 198 -83q117 0 200 83q82 82 82 199q0 119 -82 199q-85 82 -196 82z" />
    <glyph glyph-name="brokenbar" unicode="&#xa6;" 
d="M317 1365h391v-740h-391v740zM317 314h391v-655h-391v655z" />
    <glyph glyph-name="uni00AD" unicode="&#xad;" horiz-adv-x="709" 
d="M709 668v-349h-709v349h709z" />
    <glyph glyph-name="twosuperior" unicode="&#xb2;" horiz-adv-x="1240" 
d="M1119 722v-176h-999v241q0 130 94 176q46 22 130 30q35 3 67 6l321 23q91 7 114 21q24 16 24 66q0 55 -30 69q-23 10 -93 11q-46 1 -121 1q-130 0 -176 -5q-54 -6 -71 -35q-13 -20 -13 -64v-27h-246v73q0 76 14 114q36 95 181 110q114 12 317 12q185 0 287 -9
q130 -12 174 -92q28 -51 28 -158q0 -100 -22 -149q-39 -86 -167 -108q-43 -7 -115 -12l-318 -20q-92 -7 -107 -17q-27 -16 -27 -57q0 -10 1 -24h753z" />
    <glyph glyph-name="threesuperior" unicode="&#xb3;" horiz-adv-x="1240" 
d="M370 1081h-252q5 129 21 166q36 82 170 106q83 15 324 15q255 0 351 -26q86 -24 114 -94q16 -41 16 -109q0 -101 -44 -141q-31 -27 -108 -41q101 -15 132 -50q37 -41 37 -139q0 -173 -143 -207q-77 -18 -365 -18q-204 0 -274 5q-113 8 -164 44q-76 55 -76 195q0 17 2 57
h246q0 -69 13 -90q15 -23 67 -28q63 -5 177 -5q183 0 219 10q43 11 43 66q0 49 -35 66q-23 11 -119 11h-207v166h197q90 0 115 13q31 16 31 58q0 50 -39 64q-44 15 -205 15q-167 0 -202 -12q-45 -15 -45 -60q0 -15 3 -37z" />
    <glyph glyph-name="onesuperior" unicode="&#xb9;" horiz-adv-x="1233" 
d="M601 546v612l-301 -201l-121 174l366 234h315v-819h-259z" />
    <glyph glyph-name="onequarter" unicode="&#xbc;" horiz-adv-x="2935" 
d="M601 546v612l-301 -201l-121 174l366 234h315v-819h-259zM1929 1365h206l-1136 -1365h-206zM2462 0v153h-670v295l610 371h307v-484h136v-177h-136v-158h-247zM2462 335v280l-466 -280h466z" />
    <glyph glyph-name="onehalf" unicode="&#xbd;" horiz-adv-x="2935" 
d="M601 546v612l-301 -201l-121 174l366 234h315v-819h-259zM1929 1365h206l-1136 -1365h-206zM2814 176v-176h-999v241q0 130 94 176q46 22 130 30q35 3 67 6l320 23q92 7 115 22q24 15 24 65q0 56 -30 70q-23 10 -93 11q-46 1 -121 1q-131 0 -176 -5q-54 -6 -71 -35
q-13 -21 -13 -65v-27h-246v73q0 77 14 115q36 95 181 110q114 12 317 12q186 0 287 -9q130 -12 174 -92q28 -52 28 -159q0 -100 -22 -149q-39 -86 -167 -108q-43 -7 -115 -12l-318 -20q-92 -7 -107 -17q-27 -16 -27 -57q0 -10 1 -24h753z" />
    <glyph glyph-name="threequarters" unicode="&#xbe;" horiz-adv-x="2942" 
d="M370 1081h-252q5 129 21 166q36 82 170 106q83 15 324 15q255 0 351 -26q86 -24 114 -94q16 -41 16 -109q0 -101 -44 -141q-31 -27 -108 -41q101 -15 132 -50q37 -41 37 -139q0 -173 -143 -207q-77 -18 -365 -18q-204 0 -274 5q-113 8 -164 44q-76 55 -76 195q0 17 2 57
h246q0 -69 13 -90q15 -23 67 -28q63 -5 177 -5q183 0 219 10q43 11 43 66q0 49 -35 66q-23 11 -119 11h-207v166h197q90 0 115 13q31 16 31 58q0 50 -39 64q-44 15 -205 15q-167 0 -202 -12q-45 -15 -45 -60q0 -15 3 -37zM1935 1365h207l-1136 -1365h-206zM2469 0v153h-671
v295l611 371h307v-484h136v-177h-136v-158h-247zM2469 335v280l-466 -280h466z" />
    <glyph glyph-name="Eth" unicode="&#xd0;" horiz-adv-x="2156" 
d="M178 812v553h1181q183 0 306 -22q189 -33 272 -181q39 -71 53 -178q17 -128 17 -302q0 -210 -20 -343q-19 -130 -109 -223q-73 -75 -179 -96q-98 -20 -285 -20h-1236v566h-164v246h164zM594 812h383v-246h-383v-241h697q119 0 170 16q100 31 118 153q10 68 10 185
q0 148 -23 219q-27 87 -113 112q-56 16 -154 16h-705v-214z" />
    <glyph glyph-name="multiply" unicode="&#xd7;" horiz-adv-x="1884" 
d="M942 876l367 367l173 -174l-367 -367l338 -338l-173 -174l-338 338l-367 -366l-174 173l367 367l-338 338l174 174z" />
    <glyph glyph-name="Yacute" unicode="&#xdd;" horiz-adv-x="2023" 
d="M808 0v473l-781 892h531l461 -565l457 565h519l-769 -892v-473h-418zM1324 1860l85 -257l-571 -131l-62 149z" />
    <glyph glyph-name="Thorn" unicode="&#xde;" horiz-adv-x="1921" 
d="M177 0v1365h416v-177h662q263 0 361 -47q120 -57 161 -184q27 -82 27 -233q0 -211 -56 -316q-56 -107 -202 -141q-98 -23 -331 -23h-622v-244h-416zM593 576h577q112 0 147 14q44 17 58 55q10 25 10 69q0 85 -46 114q-39 23 -109 27q-26 1 -67 1h-570v-280z" />
    <glyph glyph-name="eth" unicode="&#xf0;" horiz-adv-x="1583" 
d="M985 935l-139 169l-132 -52l-105 131l128 53l-167 198h352l85 -89l133 53l115 -131l-128 -54l75 -82q180 -197 231 -320q29 -70 36 -160q4 -54 4 -157q0 -188 -18 -269q-37 -166 -228 -214q-131 -33 -458 -33q-263 0 -404 29q-116 23 -184 103q-55 66 -67 188
q-5 54 -5 180q0 196 25 276q36 115 141 162q133 59 413 59q114 0 188 -14q37 -6 109 -26zM784 719q-192 0 -248 -32q-46 -27 -62 -84q-11 -41 -11 -122q0 -106 16 -146q27 -72 123 -88q62 -10 194 -10q146 0 209 13q53 12 81 51q25 35 30 82q3 39 3 90q0 118 -20 161
q-30 65 -137 78q-55 7 -178 7z" />
    <glyph glyph-name="yacute" unicode="&#xfd;" horiz-adv-x="1470" 
d="M479 0l-431 956h391l280 -708l308 708h395l-547 -1155q-33 -70 -53 -103q-55 -89 -154 -114q-66 -17 -189 -17q-71 0 -148 7v238q76 -2 122 2q75 7 106 49q24 33 37 62l35 75h-152zM985 1470l80 -217l-487 -164l-51 137z" />
    <glyph glyph-name="thorn" unicode="&#xfe;" horiz-adv-x="1632" 
d="M502 1365v-610q18 71 40 106q52 84 186 105q72 12 221 12q232 0 360 -45q141 -50 180 -160q33 -94 33 -289q0 -197 -33 -293q-46 -132 -204 -178q-119 -35 -345 -35q-216 0 -319 51q-68 33 -97 85q-12 22 -22 63v-593h-352v1781h352zM857 717q-146 0 -202 -6
q-101 -11 -132 -84q-19 -44 -19 -149q0 -98 15 -140q25 -68 130 -83q69 -10 200 -10q125 0 176 7.5t78 29.5q39 32 50 96q7 37 7 113q0 92 -19 132q-34 70 -123 84q-59 10 -161 10z" />
    <glyph glyph-name="Amacron" unicode="&#x100;" horiz-adv-x="2099" 
d="M14 0l768 1365h557l747 -1365h-454l-136 244h-881l-131 -244h-470zM765 528h587l-297 544zM1516 1753v-221h-932v221h932z" />
    <glyph glyph-name="amacron" unicode="&#x101;" horiz-adv-x="1552" 
d="M1050 0v169q-19 -62 -46 -96q-54 -67 -190 -85q-80 -10 -207 -10q-178 0 -276 16q-143 25 -192 122q-30 60 -30 172q0 146 56 214q55 66 157 86q104 20 376 20q151 0 219 -17q69 -18 99 -57q12 -16 24 -46v106q0 106 -40 132q-33 22 -125 27q-71 4 -129 4q-79 0 -140 -3
q-65 -2 -90 -30q-12 -15 -16 -45h-351q5 94 36 145q44 71 155 113q72 28 223 36q108 5 246 5q180 0 299 -14q200 -25 262 -163q32 -69 32 -139v-68v-594h-352zM736 412q-151 0 -209 -16q-70 -19 -70 -91q0 -84 108 -102q33 -6 199 -6q161 0 214 16q68 20 68 93q0 82 -105 98
q-55 8 -205 8zM1156 1340v-199h-760v199h760z" />
    <glyph glyph-name="Abreve" unicode="&#x102;" horiz-adv-x="2099" 
d="M14 0l768 1365h557l747 -1365h-454l-136 244h-881l-131 -244h-470zM765 528h587l-297 544zM569 1810h260q4 -69 28 -109q32 -54 192 -54q92 0 144 17q59 19 73 103q3 17 5 43h260q-19 -156 -78 -232q-57 -74 -193 -98q-72 -13 -210 -13q-198 0 -292 35q-128 47 -169 191
q-11 40 -20 117z" />
    <glyph glyph-name="abreve" unicode="&#x103;" horiz-adv-x="1552" 
d="M1050 0v169q-19 -62 -46 -96q-54 -67 -190 -85q-80 -10 -207 -10q-178 0 -276 16q-143 25 -192 122q-30 60 -30 172q0 146 56 214q55 66 157 86q104 20 376 20q151 0 219 -17q69 -18 99 -57q12 -16 24 -46v106q0 106 -40 132q-33 22 -125 27q-71 4 -129 4q-79 0 -140 -3
q-65 -2 -90 -30q-12 -15 -16 -45h-351q5 94 36 145q44 71 155 113q72 28 223 36q108 5 246 5q180 0 299 -14q200 -25 262 -163q32 -69 32 -139v-68v-594h-352zM736 412q-151 0 -209 -16q-70 -19 -70 -91q0 -84 108 -102q33 -6 199 -6q161 0 214 16q68 20 68 93q0 82 -105 98
q-55 8 -205 8zM388 1403h221q5 -65 24 -100q28 -50 165 -50q77 0 122 16q50 18 62 94q2 16 4 40h221q-15 -143 -66 -213q-48 -68 -164 -90q-62 -12 -179 -12q-169 0 -250 32q-108 43 -143 176q-9 36 -17 107z" />
    <glyph glyph-name="Aogonek" unicode="&#x104;" horiz-adv-x="2099" 
d="M2086 0q-223 -131 -223 -229q0 -39 35 -67q27 -22 85 -22q42 0 103 16v-186q-68 -15 -123 -15q-121 0 -203 52q-58 37 -90 100q-23 47 -23 96q0 154 199 255h-214l-136 244h-881l-131 -244h-470l768 1365h557zM765 528h587l-297 544z" />
    <glyph glyph-name="aogonek" unicode="&#x105;" horiz-adv-x="1552" 
d="M1402 0q-187 -112 -187 -199q0 -34 31 -57q26 -19 71 -19q32 0 85 14v-161q-59 -13 -107 -13q-103 0 -176 45q-98 60 -98 170q0 119 170 220h-141v169q-19 -62 -46 -96q-54 -67 -190 -85q-80 -10 -207 -10q-178 0 -276 16q-143 25 -192 122q-30 60 -30 172q0 146 56 214
q55 66 157 86q104 20 376 20q151 0 219 -17q69 -18 99 -57q12 -16 24 -46v106q0 106 -40 132q-33 22 -125 27q-71 4 -129 4q-79 0 -140 -3q-65 -2 -90 -30q-12 -15 -16 -45h-351q5 94 36 145q44 71 155 113q72 28 223 36q108 5 246 5q180 0 299 -14q200 -25 262 -163
q32 -69 32 -139v-68v-594zM736 412q-151 0 -209 -16q-70 -19 -70 -91q0 -84 108 -102q33 -6 199 -6q161 0 214 16q68 20 68 93q0 82 -105 98q-55 8 -205 8z" />
    <glyph glyph-name="Cacute" unicode="&#x106;" horiz-adv-x="2038" 
d="M1486 514h402q0 -250 -36 -327q-43 -95 -157 -143q-63 -28 -153.5 -39t-267.5 -13q-158 -2 -319 -2q-278 0 -422 18q-266 35 -335 236q-34 100 -41 222q-7 118 -7 248q0 239 26 343q38 159 159 229q89 52 199 67q149 22 438 22q381 0 533 -13q201 -18 286 -123
q79 -96 79 -307v-45h-397q-3 54 -16 86q-20 51 -109 65q-61 10 -274 10q-298 0 -352 -10q-108 -21 -138 -97q-22 -58 -22 -267q0 -138 16 -208q26 -111 141 -131q85 -14 272 -14q256 0 332 7q91 8 128 53q34 41 35 133zM1333 1860l84 -257l-570 -131l-62 149z" />
    <glyph glyph-name="cacute" unicode="&#x107;" horiz-adv-x="1550" 
d="M1430 591h-358q-8 90 -92 111q-63 16 -216 16q-160 0 -215 -28q-51 -27 -71 -85q-15 -47 -15 -127q0 -101 27 -150q38 -70 127 -82q59 -7 162 -7q207 0 254 39q41 33 47 95h361q-3 -213 -115 -296q-67 -51 -158 -69q-144 -29 -375 -29q-255 0 -403 32q-178 39 -239 190
q-42 104 -42 270q0 325 155 425q82 52 250 70q119 12 262 12q256 0 411 -34q121 -27 186 -116q54 -75 57 -237zM1039 1470l80 -217l-487 -164l-51 137z" />
    <glyph glyph-name="Ccircumflex" unicode="&#x108;" horiz-adv-x="2038" 
d="M1486 514h402q0 -250 -36 -327q-43 -95 -157 -143q-63 -28 -153.5 -39t-267.5 -13q-158 -2 -319 -2q-278 0 -422 18q-266 35 -335 236q-34 100 -41 222q-7 118 -7 248q0 239 26 343q38 159 159 229q89 52 199 67q149 22 438 22q381 0 533 -13q201 -18 286 -123
q79 -96 79 -307v-45h-397q-3 54 -16 86q-20 51 -109 65q-61 10 -274 10q-298 0 -352 -10q-108 -21 -138 -97q-22 -58 -22 -267q0 -138 16 -208q26 -111 141 -131q85 -14 272 -14q256 0 332 7q91 8 128 53q34 41 35 133zM1020 1849l488 -247l-73 -130l-415 114l-417 -114
l-72 130z" />
    <glyph glyph-name="Cdotaccent" unicode="&#x10a;" horiz-adv-x="2038" 
d="M1486 514h402q0 -250 -36 -327q-43 -95 -157 -143q-63 -28 -153.5 -39t-267.5 -13q-158 -2 -319 -2q-278 0 -422 18q-266 35 -335 236q-34 100 -41 222q-7 118 -7 248q0 239 26 343q38 159 159 229q89 52 199 67q149 22 438 22q381 0 533 -13q201 -18 286 -123
q79 -96 79 -307v-45h-397q-3 54 -16 86q-20 51 -109 65q-61 10 -274 10q-298 0 -352 -10q-108 -21 -138 -97q-22 -58 -22 -267q0 -138 16 -208q26 -111 141 -131q85 -14 272 -14q256 0 332 7q91 8 128 53q34 41 35 133zM1206 1760v-246h-375v246h375z" />
    <glyph glyph-name="cdotaccent" unicode="&#x10b;" horiz-adv-x="1550" 
d="M1430 591h-358q-8 90 -92 111q-63 16 -216 16q-160 0 -215 -28q-51 -27 -71 -85q-15 -47 -15 -127q0 -101 27 -150q38 -70 127 -82q59 -7 162 -7q207 0 254 39q41 33 47 95h361q-3 -213 -115 -296q-67 -51 -158 -69q-144 -29 -375 -29q-255 0 -403 32q-178 39 -239 190
q-42 104 -42 270q0 325 155 425q82 52 250 70q119 12 262 12q256 0 411 -34q121 -27 186 -116q54 -75 57 -237zM928 1350v-221h-293v221h293z" />
    <glyph glyph-name="Ccaron" unicode="&#x10c;" horiz-adv-x="2038" 
d="M1486 514h402q0 -250 -36 -327q-43 -95 -157 -143q-63 -28 -153.5 -39t-267.5 -13q-158 -2 -319 -2q-278 0 -422 18q-266 35 -335 236q-34 100 -41 222q-7 118 -7 248q0 239 26 343q38 159 159 229q89 52 199 67q149 22 438 22q381 0 533 -13q201 -18 286 -123
q79 -96 79 -307v-45h-397q-3 54 -16 86q-20 51 -109 65q-61 10 -274 10q-298 0 -352 -10q-108 -21 -138 -97q-22 -58 -22 -267q0 -138 16 -208q26 -111 141 -131q85 -14 272 -14q256 0 332 7q91 8 128 53q34 41 35 133zM1020 1472l-489 247l72 130l417 -115l415 115l73 -130
z" />
    <glyph glyph-name="ccaron" unicode="&#x10d;" horiz-adv-x="1550" 
d="M1430 591h-358q-8 90 -92 111q-63 16 -216 16q-160 0 -215 -28q-51 -27 -71 -85q-15 -47 -15 -127q0 -101 27 -150q38 -70 127 -82q59 -7 162 -7q207 0 254 39q41 33 47 95h361q-3 -213 -115 -296q-67 -51 -158 -69q-144 -29 -375 -29q-255 0 -403 32q-178 39 -239 190
q-42 104 -42 270q0 325 155 425q82 52 250 70q119 12 262 12q256 0 411 -34q121 -27 186 -116q54 -75 57 -237zM782 1089l-411 247l56 122l355 -143l354 143l57 -122z" />
    <glyph glyph-name="Dcaron" unicode="&#x10e;" horiz-adv-x="2156" 
d="M177 0v1365h1181q182 0 305 -22q189 -33 272 -181q39 -71 53 -178q17 -128 17 -302q0 -210 -19 -343q-20 -130 -110 -223q-73 -75 -179 -96q-98 -20 -285 -20h-1235zM593 325h697q118 0 169 16q100 31 118 154q10 68 10 184q0 148 -23 219q-27 87 -112 112
q-57 16 -155 16h-704v-701zM1037 1472l-489 247l73 130l416 -115l415 115l73 -130z" />
    <glyph glyph-name="dcaron" unicode="&#x10f;" horiz-adv-x="1886" 
d="M1136 0v209q-22 -68 -45 -101q-57 -83 -187 -114q-76 -17 -200 -17q-339 0 -465 80q-69 45 -97 116q-33 83 -33 288q0 234 44 331q84 186 517 186q192 0 300 -39q68 -25 117 -91q14 -18 38 -57v574h352v-1365h-341zM782 717q-113 0 -167 -8q-96 -13 -130 -90
q-20 -45 -20 -147t19 -147q29 -64 137 -77q64 -8 167 -8q232 0 284 41q37 28 49 82q9 40 9 110q0 115 -23 161q-29 59 -114 72q-69 11 -211 11zM1927 1365v-205q0 -75 -5 -101q-11 -54 -66 -87q-51 -30 -176 -30h-74v123q18 -1 26 -1q88 0 88 64q0 9 -2 22h-112v215h321z
" />
    <glyph glyph-name="Dcroat" unicode="&#x110;" horiz-adv-x="2156" 
d="M178 812v553h1181q183 0 306 -22q189 -33 272 -181q39 -71 53 -178q17 -128 17 -302q0 -210 -20 -343q-19 -130 -109 -223q-73 -75 -179 -96q-98 -20 -285 -20h-1236v566h-164v246h164zM594 812h383v-246h-383v-241h697q119 0 170 16q100 31 118 153q10 68 10 185
q0 148 -23 219q-27 87 -113 112q-56 16 -154 16h-705v-214z" />
    <glyph glyph-name="dcroat" unicode="&#x111;" horiz-adv-x="1627" 
d="M1477 1085v-1085h-341v209q-22 -68 -45 -101q-57 -83 -187 -114q-76 -17 -200 -17q-339 0 -465 80q-69 45 -97 116q-33 83 -33 288q0 233 44 331q84 186 517 186q192 0 300 -39q68 -25 117 -91q14 -18 38 -57v294h-314v171h314v109h352v-109h150v-171h-150zM782 717
q-113 0 -167 -8q-96 -13 -130 -90q-20 -45 -20 -147t19 -147q29 -64 137 -77q64 -8 167 -8q232 0 284 41q37 28 49 82q9 40 9 110q0 115 -23 161q-29 59 -114 72q-69 11 -211 11z" />
    <glyph glyph-name="Emacron" unicode="&#x112;" horiz-adv-x="1834" 
d="M177 1365h1513v-310h-1103v-233h1041v-270h-1041v-242h1117v-310h-1527v1365zM1400 1753v-221h-932v221h932z" />
    <glyph glyph-name="emacron" unicode="&#x113;" horiz-adv-x="1509" 
d="M1053 304h346q-2 -110 -39 -172q-71 -115 -259 -136q-121 -13 -311 -13q-251 0 -390 26q-120 22 -197 104q-67 74 -86 198q-9 58 -9 154q0 202 44 299q74 163 286 195q93 14 327 14q258 0 379 -24t191 -126q64 -92 64 -309v-105h-933v-33q0 -98 45 -137q31 -27 106 -36
q64 -7 173 -7q173 0 217 28q41 25 46 80zM1056 597q0 85 -38 119q-27 25 -89 35q-51 9 -169 9q-126 0 -177 -11q-116 -26 -116 -136v-16h589zM1148 1340v-199h-761v199h761z" />
    <glyph glyph-name="Ebreve" unicode="&#x114;" horiz-adv-x="1834" 
d="M177 1365h1513v-310h-1103v-233h1041v-270h-1041v-242h1117v-310h-1527v1365zM436 1810h260q4 -69 28 -109q32 -54 192 -54q92 0 144 17q59 19 73 103q2 17 5 43h260q-19 -156 -78 -232q-57 -74 -193 -98q-72 -13 -210 -13q-198 0 -293 35q-127 47 -168 191
q-11 40 -20 117z" />
    <glyph glyph-name="ebreve" unicode="&#x115;" horiz-adv-x="1509" 
d="M1053 304h346q-2 -110 -39 -172q-71 -115 -259 -136q-121 -13 -311 -13q-251 0 -390 26q-120 22 -197 104q-67 74 -86 198q-9 58 -9 154q0 202 44 299q74 163 286 195q93 14 327 14q258 0 379 -24t191 -126q64 -92 64 -309v-105h-933v-33q0 -98 45 -137q31 -27 106 -36
q64 -7 173 -7q173 0 217 28q41 25 46 80zM1056 597q0 85 -38 119q-27 25 -89 35q-51 9 -169 9q-126 0 -177 -11q-116 -26 -116 -136v-16h589zM366 1403h222q4 -65 23 -100q28 -50 165 -50q77 0 122 16q50 18 62 94q2 16 4 40h221q-15 -143 -65 -213q-49 -68 -165 -90
q-62 -12 -179 -12q-168 0 -250 32q-108 43 -143 176q-9 36 -17 107z" />
    <glyph glyph-name="Edotaccent" unicode="&#x116;" horiz-adv-x="1834" 
d="M177 1365h1513v-310h-1103v-233h1041v-270h-1041v-242h1117v-310h-1527v1365zM1121 1760v-246h-375v246h375z" />
    <glyph glyph-name="edotaccent" unicode="&#x117;" horiz-adv-x="1509" 
d="M1053 304h346q-2 -110 -39 -172q-71 -115 -259 -136q-121 -13 -311 -13q-251 0 -390 26q-120 22 -197 104q-67 74 -86 198q-9 58 -9 154q0 202 44 299q74 163 286 195q93 14 327 14q258 0 379 -24t191 -126q64 -92 64 -309v-105h-933v-33q0 -98 45 -137q31 -27 106 -36
q64 -7 173 -7q173 0 217 28q41 25 46 80zM1056 597q0 85 -38 119q-27 25 -89 35q-51 9 -169 9q-126 0 -177 -11q-116 -26 -116 -136v-16h589zM914 1350v-221h-293v221h293z" />
    <glyph glyph-name="Eogonek" unicode="&#x118;" horiz-adv-x="1834" 
d="M1704 0q-223 -132 -223 -229q0 -38 35 -67q27 -22 85 -22q43 0 103 16v-186q-67 -15 -123 -15q-121 0 -203 52q-58 37 -89 100q-24 47 -24 96q0 100 92 185q39 35 108 70h-1288v1365h1513v-310h-1103v-233h1041v-270h-1041v-242h1117v-310z" />
    <glyph glyph-name="eogonek" unicode="&#x119;" horiz-adv-x="1509" 
d="M1190 -247v-162q-59 -12 -107 -12q-104 0 -177 45q-51 32 -78 87q-19 39 -19 83q0 69 49 124q24 27 85 68q-165 -3 -179 -3q-224 0 -364 25q-119 22 -196 105q-67 74 -86 198q-9 58 -9 154q0 202 44 299q74 163 285 195q94 14 328 14q257 0 378 -24q122 -24 191 -126
q64 -93 64 -309v-105h-933q1 -22 1 -33q1 -99 45 -137q31 -27 105 -36q65 -7 174 -7q173 0 216 28q41 25 46 80h346q-2 -146 -73 -215q-27 -27 -132 -77q-76 -36 -129 -87q-62 -58 -62 -111q0 -34 31 -56q26 -19 71 -19q31 0 85 14zM1056 597q0 85 -38 119q-27 25 -88 35
q-51 9 -170 9q-126 0 -177 -11q-116 -26 -116 -136q0 -5 1 -16h588z" />
    <glyph glyph-name="Ecaron" unicode="&#x11a;" horiz-adv-x="1834" 
d="M177 1365h1513v-310h-1103v-233h1041v-270h-1041v-242h1117v-310h-1527v1365zM934 1472l-489 247l73 130l416 -115l416 115l72 -130z" />
    <glyph glyph-name="ecaron" unicode="&#x11b;" horiz-adv-x="1509" 
d="M1053 304h346q-2 -110 -39 -172q-71 -115 -259 -136q-121 -13 -311 -13q-251 0 -390 26q-120 22 -197 104q-67 74 -86 198q-9 58 -9 154q0 202 44 299q74 163 286 195q93 14 327 14q258 0 379 -24t191 -126q64 -92 64 -309v-105h-933v-33q0 -98 45 -137q31 -27 106 -36
q64 -7 173 -7q173 0 217 28q41 25 46 80zM1056 597q0 85 -38 119q-27 25 -89 35q-51 9 -169 9q-126 0 -177 -11q-116 -26 -116 -136v-16h589zM768 1089l-411 247l56 122l355 -143l354 143l57 -122z" />
    <glyph glyph-name="Gcircumflex" unicode="&#x11c;" horiz-adv-x="2078" 
d="M1927 904h-407q-2 70 -26 99q-42 51 -146 51h-105l-146 2l-153 -2q-149 0 -180 -1.5t-67 -10.5q-72 -17 -101 -70q-29 -52 -29 -324q0 -175 27 -234t88 -84q58 -24 203 -25h272q182 0 230 5.5t83 30.5q40 29 50 78q3 18 3 54q0 13 -1 41h-526v255h931v-189
q0 -286 -35 -378q-39 -104 -115 -147q-105 -58 -253 -63q-81 -2 -518 -2q-408 0 -521 25q-157 33 -231 121q-69 83 -92 233q-12 82 -12 296q0 235 14 323q28 174 115 259q102 100 378 118q147 10 416 10q331 0 447 -8q266 -20 354 -165q54 -87 53 -298zM1039 1849l488 -247
l-72 -130l-416 114l-416 -114l-73 130z" />
    <glyph glyph-name="gcircumflex" unicode="&#x11d;" horiz-adv-x="1628" 
d="M147 -105h356q7 -58 61 -82q55 -23 235 -23q223 0 290 63q33 31 41 100q4 32 4 109v142q-51 -113 -131 -155q-94 -49 -326 -49q-317 0 -440 90q-88 64 -112 196q-15 78 -15 212q0 203 41 295q59 130 250 164q115 20 291 20q160 0 235 -15q131 -26 177 -131
q14 -33 30 -103v229h344v-862q0 -182 -18 -257q-46 -193 -252 -251q-144 -41 -461 -41q-259 0 -386 39q-93 29 -154 106q-59 74 -60 204zM772 714q-188 0 -238 -28q-47 -26 -61 -84q-9 -34 -9 -104q0 -103 17 -147q25 -64 123 -79q57 -9 174 -9q142 0 193 6q105 13 138 92
q15 35 15 131q0 92 -14 126q-23 58 -70 75q-56 21 -268 21zM800 1458l411 -247l-56 -122l-355 143l-354 -143l-57 122z" />
    <glyph glyph-name="Gbreve" unicode="&#x11e;" horiz-adv-x="2078" 
d="M1927 904h-407q-2 70 -26 99q-42 51 -146 51h-105l-146 2l-153 -2q-149 0 -180 -1.5t-67 -10.5q-72 -17 -101 -70q-29 -52 -29 -324q0 -175 27 -234t88 -84q58 -24 203 -25h272q182 0 230 5.5t83 30.5q40 29 50 78q3 18 3 54q0 13 -1 41h-526v255h931v-189
q0 -286 -35 -378q-39 -104 -115 -147q-105 -58 -253 -63q-81 -2 -518 -2q-408 0 -521 25q-157 33 -231 121q-69 83 -92 233q-12 82 -12 296q0 235 14 323q28 174 115 259q102 100 378 118q147 10 416 10q331 0 447 -8q266 -20 354 -165q54 -87 53 -298zM573 1810h260
q5 -69 28 -109q33 -54 193 -54q92 0 144 17q58 19 72 103q3 17 5 43h260q-18 -156 -77 -232q-57 -74 -194 -98q-72 -13 -209 -13q-198 0 -293 35q-127 47 -168 191q-12 40 -21 117z" />
    <glyph glyph-name="gbreve" unicode="&#x11f;" horiz-adv-x="1628" 
d="M147 -105h356q7 -58 61 -82q55 -23 235 -23q223 0 290 63q33 31 41 100q4 32 4 109v142q-51 -113 -131 -155q-94 -49 -326 -49q-317 0 -440 90q-88 64 -112 196q-15 78 -15 212q0 203 41 295q59 130 250 164q115 20 291 20q160 0 235 -15q131 -26 177 -131
q14 -33 30 -103v229h344v-862q0 -182 -18 -257q-46 -193 -252 -251q-144 -41 -461 -41q-259 0 -386 39q-93 29 -154 106q-59 74 -60 204zM772 714q-188 0 -238 -28q-47 -26 -61 -84q-9 -34 -9 -104q0 -103 17 -147q25 -64 123 -79q57 -9 174 -9q142 0 193 6q105 13 138 92
q15 35 15 131q0 92 -14 126q-23 58 -70 75q-56 21 -268 21zM405 1403h221q4 -65 24 -100q27 -50 164 -50q77 0 122 16q50 18 62 94q2 16 4 40h221q-15 -143 -65 -213q-49 -68 -165 -90q-62 -12 -179 -12q-168 0 -250 32q-107 43 -142 176q-10 36 -17 107z" />
    <glyph glyph-name="Gdotaccent" unicode="&#x120;" horiz-adv-x="2078" 
d="M1927 904h-407q-2 70 -26 99q-42 51 -146 51h-105l-146 2l-153 -2q-149 0 -180 -1.5t-67 -10.5q-72 -17 -101 -70q-29 -52 -29 -324q0 -175 27 -234t88 -84q58 -24 203 -25h272q182 0 230 5.5t83 30.5q40 29 50 78q3 18 3 54q0 13 -1 41h-526v255h931v-189
q0 -286 -35 -378q-39 -104 -115 -147q-105 -58 -253 -63q-81 -2 -518 -2q-408 0 -521 25q-157 33 -231 121q-69 83 -92 233q-12 82 -12 296q0 235 14 323q28 174 115 259q102 100 378 118q147 10 416 10q331 0 447 -8q266 -20 354 -165q54 -87 53 -298zM1226 1760v-246h-375
v246h375z" />
    <glyph glyph-name="gdotaccent" unicode="&#x121;" horiz-adv-x="1628" 
d="M147 -105h356q7 -58 61 -82q55 -23 235 -23q223 0 290 63q33 31 41 100q4 32 4 109v142q-51 -113 -131 -155q-94 -49 -326 -49q-317 0 -440 90q-88 64 -112 196q-15 78 -15 212q0 203 41 295q59 130 250 164q115 20 291 20q160 0 235 -15q131 -26 177 -131
q14 -33 30 -103v229h344v-862q0 -182 -18 -257q-46 -193 -252 -251q-144 -41 -461 -41q-259 0 -386 39q-93 29 -154 106q-59 74 -60 204zM772 714q-188 0 -238 -28q-47 -26 -61 -84q-9 -34 -9 -104q0 -103 17 -147q25 -64 123 -79q57 -9 174 -9q142 0 193 6q105 13 138 92
q15 35 15 131q0 92 -14 126q-23 58 -70 75q-56 21 -268 21zM954 1350v-221h-293v221h293z" />
    <glyph glyph-name="Gcommaaccent" unicode="&#x122;" horiz-adv-x="2078" 
d="M1927 904h-407q-2 70 -26 99q-42 51 -146 51h-105l-146 2l-153 -2q-149 0 -180 -1.5t-67 -10.5q-72 -17 -101 -70q-29 -52 -29 -324q0 -175 27 -234t88 -84q58 -24 203 -25h272q182 0 230 5.5t83 30.5q40 29 50 78q3 18 3 54q0 13 -1 41h-526v255h931v-189
q0 -286 -35 -378q-39 -104 -115 -147q-105 -58 -253 -63q-81 -2 -518 -2q-408 0 -521 25q-157 33 -231 121q-69 83 -92 233q-12 82 -12 296q0 235 14 323q28 174 115 259q102 100 378 118q147 10 416 10q331 0 447 -8q266 -20 354 -165q54 -87 53 -298zM1208 -108v-220
q0 -79 -6 -107q-11 -58 -70 -93q-53 -32 -188 -32h-79v131q20 -1 28 -1q42 0 65 16q29 20 29 52q0 9 -2 24h-120v230h343z" />
    <glyph glyph-name="gcommaaccent" unicode="&#x123;" horiz-adv-x="1628" 
d="M147 -105h356q7 -58 61 -82q55 -23 235 -23q223 0 290 63q33 31 41 100q4 32 4 109v142q-51 -113 -131 -155q-94 -49 -326 -49q-317 0 -440 90q-88 64 -112 196q-15 78 -15 212q0 203 41 295q59 130 250 164q115 20 291 20q160 0 235 -15q131 -26 177 -131
q14 -33 30 -103v229h344v-862q0 -182 -18 -257q-46 -193 -252 -251q-144 -41 -461 -41q-259 0 -386 39q-93 29 -154 106q-59 74 -60 204zM772 714q-188 0 -238 -28q-47 -26 -61 -84q-9 -34 -9 -104q0 -103 17 -147q25 -64 123 -79q57 -9 174 -9q142 0 193 6q105 13 138 92
q15 35 15 131q0 92 -14 126q-23 58 -70 75q-56 21 -268 21zM633 1054v205q0 75 5 101q11 54 66 87q50 30 176 30h74v-123q-18 1 -26 1q-39 0 -61 -14q-27 -18 -27 -50q0 -9 2 -22h112v-215h-321z" />
    <glyph glyph-name="Hcircumflex" unicode="&#x124;" horiz-adv-x="2132" 
d="M177 0v1365h416v-504h945v504h416v-1365h-416v524h-945v-524h-416zM1066 1849l488 -247l-73 -130l-415 114l-417 -114l-72 130z" />
    <glyph glyph-name="Hbar" unicode="&#x126;" horiz-adv-x="2132" 
d="M1955 969v-969h-417v469h-943v-469h-417v969h-164v246h164v150h417v-164h943v164h417v-150h163v-246h-163zM1538 983h-943v-184h943v184z" />
    <glyph glyph-name="hbar" unicode="&#x127;" horiz-adv-x="1599" 
d="M502 1085v-306q46 114 131 158q82 41 275 41q214 0 327 -47q96 -40 153 -128q61 -95 61 -292v-511h-352v461q0 93 -5 120q-15 81 -101 108q-53 18 -159 18q-212 0 -275 -62q-40 -40 -50 -104q-5 -29 -5 -88v-453h-352v1085h-150v171h150v109h352v-109h314v-171h-314z" />
    <glyph glyph-name="Imacron" unicode="&#x12a;" horiz-adv-x="771" 
d="M177 0v1365h416v-1365h-416zM749 1753v-221h-727v221h727z" />
    <glyph glyph-name="imacron" unicode="&#x12b;" horiz-adv-x="653" 
d="M150 0v956h352v-956h-352zM632 1340v-195h-611v195h611z" />
    <glyph glyph-name="ibreve" unicode="&#x12d;" horiz-adv-x="653" 
d="M-46 1403h221q4 -65 19 -100q22 -50 132 -50q63 0 99 16q45 21 52 134h222q-14 -142 -60 -213q-44 -67 -149 -90q-57 -12 -163 -12q-154 0 -228 33q-97 42 -129 175q-9 37 -16 107zM150 0v956h352v-956h-352z" />
    <glyph glyph-name="Iogonek" unicode="&#x12e;" horiz-adv-x="771" 
d="M594 0q-55 -33 -96 -72q-99 -95 -99 -159q0 -38 34 -65q29 -22 68 -22q30 0 93 16v-186q-68 -15 -110 -15q-104 0 -189 52q-58 36 -89 100q-23 46 -23 96q0 145 192 255h-198v1365h417v-1365z" />
    <glyph glyph-name="iogonek" unicode="&#x12f;" horiz-adv-x="653" 
d="M502 0q-61 -39 -107 -92q-52 -61 -52 -107q0 -34 29 -57q25 -19 63 -19q27 0 67 14v-161q-60 -13 -94 -13q-87 0 -162 45q-51 31 -78 87q-18 39 -18 82q0 83 66 149q33 33 95 72h-161v956h352v-956zM150 1109v256h352v-256h-352z" />
    <glyph glyph-name="Idotaccent" unicode="&#x130;" horiz-adv-x="771" 
d="M177 0v1365h416v-1365h-416zM572 1760v-246h-375v246h375z" />
    <glyph glyph-name="IJ" unicode="&#x132;" horiz-adv-x="2389" 
d="M177 0v1365h416v-1365h-416zM806 579h396v-43q0 -109 18 -148q17 -35 56 -49q70 -26 234 -26q204 0 252 56q27 32 31 96q1 28 2 114v786h416v-704q-1 -202 -7 -280q-13 -176 -125 -277q-104 -94 -321 -111q-59 -4 -296 -4q-205 0 -281 8q-224 24 -313 150q-64 92 -64 262
l2 88v82z" />
    <glyph glyph-name="ij" unicode="&#x133;" horiz-adv-x="1361" 
d="M150 0v956h352v-956h-352zM150 1109v256h352v-256h-352zM859 956h352v-868l-2 -70q-1 -130 -4 -161t-18 -72q-51 -147 -351 -147q-56 0 -143 8v229q37 -7 57 -7q65 0 92 43q17 28 17 109v936zM859 1109v256h352v-256h-352z" />
    <glyph glyph-name="Kcommaaccent" unicode="&#x136;" horiz-adv-x="2051" 
d="M177 0v1365h416v-509h218l564 509h571l-784 -674l861 -691h-604l-617 524h-209v-524h-416zM1104 -108v-220q0 -79 -6 -107q-11 -58 -70 -93q-53 -32 -188 -32h-79v131q20 -1 28 -1q42 0 65 16q29 20 29 52q0 9 -2 24h-120v230h343z" />
    <glyph glyph-name="kcommaaccent" unicode="&#x137;" horiz-adv-x="1466" 
d="M150 0v1365h352v-729h83l334 320h472l-495 -446l569 -510h-476l-391 387h-96v-387h-352zM852 -108v-205q0 -75 -5 -101q-11 -54 -66 -87q-49 -30 -176 -30h-74v122h26q39 0 60 14q28 18 28 50q0 9 -2 22h-112v215h321z" />
    <glyph glyph-name="kgreenlandic" unicode="&#x138;" horiz-adv-x="1466" 
d="M150 0v956h352v-320h83l334 320h472l-495 -446l569 -510h-476l-391 387h-96v-387h-352z" />
    <glyph glyph-name="Lacute" unicode="&#x139;" horiz-adv-x="1575" 
d="M177 0v1365h416v-1028h941v-337h-1357zM704 1860l85 -257l-571 -131l-62 149z" />
    <glyph glyph-name="lacute" unicode="&#x13a;" horiz-adv-x="653" 
d="M150 0v1365h352v-1365h-352zM577 1860l80 -217l-487 -171l-51 137z" />
    <glyph glyph-name="Lcommaaccent" unicode="&#x13b;" horiz-adv-x="1575" 
d="M177 0v1365h416v-1028h940v-337h-1356zM956 -108v-220q0 -79 -6 -107q-11 -58 -70 -93q-53 -32 -188 -32h-79v131q20 -1 28 -1q42 0 65 16q29 20 29 52q0 9 -2 24h-120v230h343z" />
    <glyph glyph-name="lcommaaccent" unicode="&#x13c;" horiz-adv-x="653" 
d="M150 0v1365h352v-1365h-352zM495 -108v-205q0 -75 -5 -101q-11 -54 -66 -87q-49 -30 -176 -30h-74v122h26q39 0 60 14q28 18 28 50q0 8 -2 22h-112v215h321z" />
    <glyph glyph-name="Lcaron" unicode="&#x13d;" horiz-adv-x="1575" 
d="M177 0v1365h416v-1028h940v-337h-1356zM1126 1365v-220q0 -78 -6 -106q-11 -59 -70 -94q-53 -31 -188 -31h-79v130h28q42 0 65 15q29 19 29 53q0 9 -2 23h-120v230h343z" />
    <glyph glyph-name="lcaron" unicode="&#x13e;" horiz-adv-x="879" 
d="M150 0v1365h352v-1365h-352zM920 1365v-205q0 -84 -7.5 -112t-34.5 -54q-43 -40 -130 -48q-39 -4 -75 -4h-74v123q18 -1 26 -1q39 0 60 14q28 18 28 50q0 9 -2 22h-112v215h321z" />
    <glyph glyph-name="Ldot" unicode="&#x13f;" horiz-adv-x="1575" 
d="M177 0v1365h416v-1028h940v-337h-1356zM869 1005h246v-375h-246v375z" />
    <glyph glyph-name="ldot" unicode="&#x140;" horiz-adv-x="855" 
d="M150 0v1365h352v-1365h-352zM628 866h246v-375h-246v375z" />
    <glyph glyph-name="Lslash" unicode="&#x141;" horiz-adv-x="1575" 
d="M178 483l-164 -100v253l164 100v629h416v-440l383 220v-253l-383 -220v-335h940v-337h-1356v483z" />
    <glyph glyph-name="lslash" unicode="&#x142;" horiz-adv-x="666" 
d="M157 567l-150 -85v193l150 85v605h352v-465l151 85v-193l-151 -85v-707h-352v567z" />
    <glyph glyph-name="Nacute" unicode="&#x143;" horiz-adv-x="2226" 
d="M177 0v1365h661l828 -1039l-11 1039h393v-1365h-667l-816 1028l12 -1028h-400zM1440 1860l85 -257l-571 -131l-62 149z" />
    <glyph glyph-name="nacute" unicode="&#x144;" horiz-adv-x="1599" 
d="M150 0v956h343v-222q19 71 40 106q51 83 171 116q83 22 231 22q207 0 321 -54q89 -43 140 -129q53 -90 53 -287v-508h-352v493q0 122 -54 165q-56 45 -237 45q-120 0 -179 -22q-89 -34 -113 -124q-12 -49 -12 -125v-432h-352zM1043 1470l80 -217l-487 -164l-51 137z" />
    <glyph glyph-name="Ncommaaccent" unicode="&#x145;" horiz-adv-x="2226" 
d="M177 0v1365h661l828 -1039l-11 1039h393v-1365h-667l-816 1028l12 -1028h-400zM1282 -108v-220q0 -79 -6 -107q-11 -58 -70 -93q-53 -32 -188 -32h-79v131q20 -1 28 -1q42 0 65 16q29 20 29 52q0 9 -2 24h-120v230h343z" />
    <glyph glyph-name="ncommaaccent" unicode="&#x146;" horiz-adv-x="1599" 
d="M150 0v956h343v-222q19 71 40 106q51 83 171 116q83 22 231 22q207 0 321 -54q89 -43 140 -129q53 -90 53 -287v-508h-352v493q0 122 -54 165q-56 45 -237 45q-120 0 -179 -22q-89 -34 -113 -124q-12 -49 -12 -125v-432h-352zM969 -108v-205q0 -75 -5 -101
q-11 -54 -66 -87q-49 -30 -176 -30h-74v122h26q39 0 60 14q28 18 28 50q0 9 -2 22h-112v215h321z" />
    <glyph glyph-name="Ncaron" unicode="&#x147;" horiz-adv-x="2226" 
d="M177 0v1365h661l828 -1039l-11 1039h393v-1365h-667l-816 1028l12 -1028h-400zM1127 1472l-489 247l72 130l417 -115l415 115l73 -130z" />
    <glyph glyph-name="ncaron" unicode="&#x148;" horiz-adv-x="1599" 
d="M150 0v956h343v-222q19 71 40 106q51 83 171 116q83 22 231 22q207 0 321 -54q89 -43 140 -129q53 -90 53 -287v-508h-352v493q0 122 -54 165q-56 45 -237 45q-120 0 -179 -22q-89 -34 -113 -124q-12 -49 -12 -125v-432h-352zM779 1089l-411 247l56 122l355 -143l355 143
l56 -122z" />
    <glyph glyph-name="napostrophe" unicode="&#x149;" horiz-adv-x="1835" 
d="M386 0v956h343v-222q20 75 45 114.5t72 68.5q98 61 325 61q207 0 321 -54q89 -43 140 -129q53 -90 53 -287v-508h-352v493q0 122 -54 165q-56 45 -237 45q-120 0 -179 -22q-89 -34 -113 -124q-12 -49 -12 -125v-432h-352zM321 1285v-205q0 -76 -5 -101q-11 -55 -66 -88
q-50 -30 -176 -30h-74v123q18 -1 26 -1q39 0 60 14q28 19 28 50q0 9 -2 23h-112v215h321z" />
    <glyph glyph-name="Eng" unicode="&#x14a;" horiz-adv-x="2109" 
d="M177 1365h416v-235q45 94 99 133q143 103 571 103q263 0 401 -57q211 -88 254 -296q13 -63 13 -186v-706q-3 -181 -7 -226.5t-23 -87.5q-42 -98 -172 -141q-96 -33 -226 -33q-68 0 -183 11v272q31 -8 58 -8q73 0 103 31q34 37 34 125v763q0 111 -42 150q-41 38 -138 54
q-78 14 -249 14q-216 0 -319 -33q-128 -41 -156 -118q-18 -46 -18 -153v-741h-416v1365z" />
    <glyph glyph-name="eng" unicode="&#x14b;" horiz-adv-x="1604" 
d="M150 0v956h343v-222q19 71 40 106q51 83 171 116q83 22 232 22q212 0 324 -54q89 -44 140 -129q53 -89 53 -287v-459q-2 -156 -6 -194t-20 -74q-64 -148 -342 -148q-61 0 -159 9v232q27 -7 49 -7q64 0 89 27q29 31 29 106v493q0 122 -54 165q-57 45 -235 45
q-196 0 -257 -77q-45 -56 -45 -194v-432h-352z" />
    <glyph glyph-name="Omacron" unicode="&#x14c;" horiz-adv-x="2165" 
d="M1051 1379q491 0 609 -21q170 -31 249 -125q74 -88 94 -240q12 -84 12 -332q0 -305 -52 -422q-50 -115 -144 -168q-77 -42 -159.5 -59t-241.5 -22q-130 -4 -339 -4q-457 0 -573 21q-160 30 -236 110q-75 79 -103 224q-17 89 -17 350q0 173 5 241.5t24 136.5
q37 140 140 211q110 75 370 92q110 7 362 7zM1085 1046q-257 0 -333 -12q-119 -18 -152 -89q-29 -64 -29 -255q0 -204 28 -265q36 -78 163 -96q68 -10 313 -10q303 0 374 18q86 21 117 78q25 45 32 139q4 54 4 144q0 195 -28 254q-18 38 -47 53q-55 29 -137 34
q-104 7 -305 7zM1548 1753v-221h-932v221h932z" />
    <glyph glyph-name="omacron" unicode="&#x14d;" horiz-adv-x="1583" 
d="M786 978q256 0 412 -27q117 -21 189 -89q64 -61 79 -177q7 -59 7 -181q0 -198 -18 -279q-37 -166 -228 -214q-130 -33 -457 -33q-264 0 -405 29q-116 23 -184 103q-55 66 -67 188q-5 54 -5 184q0 192 25 272q50 160 263 199q134 25 389 25zM784 718q-192 0 -248 -32
q-46 -27 -62 -84q-11 -41 -11 -121q0 -107 16 -147q27 -71 123 -87q62 -10 194 -10q145 0 209 13q53 12 81 51q25 35 30 82q3 39 3 89q0 118 -20 161q-30 65 -137 78q-55 7 -178 7zM1172 1340v-199h-761v199h761z" />
    <glyph glyph-name="Ohungarumlaut" unicode="&#x150;" horiz-adv-x="2165" 
d="M1051 1379q491 0 609 -21q170 -31 249 -125q74 -88 94 -240q12 -84 12 -332q0 -305 -52 -422q-50 -115 -144 -168q-77 -42 -159.5 -59t-241.5 -22q-130 -4 -339 -4q-457 0 -573 21q-160 30 -236 110q-75 79 -103 224q-17 89 -17 350q0 173 5 241.5t24 136.5
q37 140 140 211q110 75 370 92q110 7 362 7zM1085 1046q-257 0 -333 -12q-119 -18 -152 -89q-29 -64 -29 -255q0 -204 28 -265q36 -78 163 -96q68 -10 313 -10q303 0 374 18q86 21 117 78q25 45 32 139q4 54 4 144q0 195 -28 254q-18 38 -47 53q-55 29 -137 34
q-104 7 -305 7zM1033 1896l160 -211l-451 -239l-107 137zM1575 1896l160 -211l-451 -239l-107 137z" />
    <glyph glyph-name="ohungarumlaut" unicode="&#x151;" horiz-adv-x="1583" 
d="M786 978q256 0 412 -27q117 -21 189 -89q64 -61 79 -177q7 -59 7 -181q0 -198 -18 -279q-37 -166 -228 -214q-130 -33 -457 -33q-264 0 -405 29q-116 23 -184 103q-55 66 -67 188q-5 54 -5 184q0 192 25 272q50 160 263 199q134 25 389 25zM784 718q-192 0 -248 -32
q-46 -27 -62 -84q-11 -41 -11 -121q0 -107 16 -147q27 -71 123 -87q62 -10 194 -10q145 0 209 13q53 12 81 51q25 35 30 82q3 39 3 89q0 118 -20 161q-30 65 -137 78q-55 7 -178 7zM736 1477l141 -163l-336 -225l-92 103zM1129 1477l141 -163l-336 -225l-92 103z" />
    <glyph glyph-name="Racute" unicode="&#x154;" horiz-adv-x="2062" 
d="M177 0v1365h1179q263 0 369 -49q97 -45 138 -150q36 -93 36 -243q0 -215 -87 -307q-48 -51 -173 -77q-28 -7 -121 -20q45 -3 68 -4q136 -7 183 -31q66 -34 93 -116q18 -52 18 -152v-216h-421v170q0 112 -52 148q-31 22 -94 25q-31 2 -83 2h-639v-345h-414zM591 679h650
q153 0 202 35q38 28 38 123q0 57 -6 92q-12 71 -79 90q-39 11 -140 11h-665v-351zM1310 1860l85 -257l-571 -131l-62 149z" />
    <glyph glyph-name="racute" unicode="&#x155;" horiz-adv-x="1302" 
d="M150 0v956h338v-213q22 61 36 87q75 148 357 148q229 0 316 -106q64 -77 64 -276q0 -16 -2 -62h-330q1 11 1 15q0 68 -24 100q-40 52 -163 52q-149 0 -205 -84q-36 -53 -36 -177v-440h-352zM908 1470l80 -217l-487 -164l-51 137z" />
    <glyph glyph-name="Rcommaaccent" unicode="&#x156;" horiz-adv-x="2062" 
d="M177 0v1365h1179q263 0 369 -49q97 -45 138 -150q36 -93 36 -243q0 -215 -87 -307q-48 -51 -173 -77q-28 -7 -121 -20q45 -3 68 -4q136 -7 183 -31q66 -34 93 -116q18 -52 18 -152v-216h-421v170q0 112 -52 148q-31 22 -94 25q-31 2 -83 2h-639v-345h-414zM591 679h650
q153 0 202 35q38 28 38 123q0 57 -6 92q-12 71 -79 90q-39 11 -140 11h-665v-351zM1200 -108v-220q0 -79 -6 -107q-11 -58 -70 -93q-53 -32 -188 -32h-79v131q20 -1 28 -1q42 0 65 16q29 20 29 52q0 9 -2 24h-120v230h343z" />
    <glyph glyph-name="rcommaaccent" unicode="&#x157;" horiz-adv-x="1302" 
d="M150 0v956h338v-213q22 61 36 87q75 148 357 148q229 0 316 -106q64 -77 64 -276q0 -16 -2 -62h-330q1 11 1 15q0 68 -24 100q-40 52 -163 52q-149 0 -205 -84q-36 -53 -36 -177v-440h-352zM516 -108v-205q0 -75 -5 -101q-11 -54 -66 -87q-49 -30 -176 -30h-74v122h26
q39 0 60 14q28 19 28 50q0 9 -2 22h-112v215h321z" />
    <glyph glyph-name="Rcaron" unicode="&#x158;" horiz-adv-x="2062" 
d="M177 0v1365h1179q263 0 369 -49q97 -45 138 -150q36 -93 36 -243q0 -215 -87 -307q-48 -51 -173 -77q-28 -7 -121 -20q45 -3 68 -4q136 -7 183 -31q66 -34 93 -116q18 -52 18 -152v-216h-421v170q0 112 -52 148q-31 22 -94 25q-31 2 -83 2h-639v-345h-414zM591 679h650
q153 0 202 35q38 28 38 123q0 57 -6 92q-12 71 -79 90q-39 11 -140 11h-665v-351zM997 1472l-489 247l73 130l416 -115l415 115l73 -130z" />
    <glyph glyph-name="rcaron" unicode="&#x159;" horiz-adv-x="1302" 
d="M150 0v956h338v-213q22 61 36 87q75 148 357 148q229 0 316 -106q64 -77 64 -276q0 -16 -2 -62h-330q1 11 1 15q0 68 -24 100q-40 52 -163 52q-149 0 -205 -84q-36 -53 -36 -177v-440h-352zM651 1089l-411 247l56 122l355 -143l355 143l56 -122z" />
    <glyph glyph-name="Sacute" unicode="&#x15a;" horiz-adv-x="1999" 
d="M155 435h408q4 -85 24 -109q30 -34 135 -40q93 -6 183 -6q303 0 392 10q85 10 117 36q30 25 30 80q0 90 -70 113q-42 14 -140 15q-19 0 -120 1h-376q-153 0 -265 10q-181 15 -257 115q-66 88 -66 280q0 189 63 278q45 63 127 96q120 47 368 57q106 4 278 4q291 0 432 -8
q196 -12 288 -92q93 -81 93 -283v-43h-405q-1 46 -12 70q-23 50 -124 59q-65 5 -175 5q-250 0 -377 -9q-97 -6 -124 -40q-23 -29 -23 -73q0 -86 88 -109q26 -7 168 -10h387q102 0 291 -10q218 -11 296 -123q67 -95 67 -280q0 -230 -102 -327q-76 -73 -259 -92
q-199 -20 -516 -20q-250 0 -408 7q-275 13 -357 123q-60 81 -60 247q0 20 1 68zM1282 1860l85 -257l-571 -131l-62 149z" />
    <glyph glyph-name="sacute" unicode="&#x15b;" horiz-adv-x="1535" 
d="M102 295h372q1 -53 46 -75q49 -25 277 -25q182 0 234 26q42 21 42 62q0 68 -102 76q-47 4 -184 4h-175q-228 0 -337 36q-163 54 -163 255q0 234 180 285q139 39 473 39q233 0 364 -16q185 -23 232 -143q19 -47 22 -127h-370q-6 41 -53 55q-42 13 -193 13q-205 0 -254 -26
q-37 -19 -37 -54q0 -41 46 -57q42 -14 186 -14h248q203 0 304 -30q102 -30 141 -104q32 -59 32 -168q0 -140 -63 -210q-77 -86 -271 -105q-151 -14 -381 -14q-216 0 -330 13q-185 20 -251 141q-34 62 -35 163zM1024 1470l80 -217l-486 -164l-51 137z" />
    <glyph glyph-name="Scircumflex" unicode="&#x15c;" horiz-adv-x="1999" 
d="M155 435h408q4 -85 24 -109q30 -34 135 -40q93 -6 183 -6q303 0 392 10q85 10 117 36q30 25 30 80q0 90 -70 113q-42 14 -140 15q-19 0 -120 1h-376q-153 0 -265 10q-181 15 -257 115q-66 88 -66 280q0 189 63 278q45 63 127 96q120 47 368 57q106 4 278 4q291 0 432 -8
q196 -12 288 -92q93 -81 93 -283v-43h-405q-1 46 -12 70q-23 50 -124 59q-65 5 -175 5q-250 0 -377 -9q-97 -6 -124 -40q-23 -29 -23 -73q0 -86 88 -109q26 -7 168 -10h387q102 0 291 -10q218 -11 296 -123q67 -95 67 -280q0 -230 -102 -327q-76 -73 -259 -92
q-199 -20 -516 -20q-250 0 -408 7q-275 13 -357 123q-60 81 -60 247q0 20 1 68zM969 1849l488 -247l-72 -130l-416 114l-416 -114l-73 130z" />
    <glyph glyph-name="scircumflex" unicode="&#x15d;" horiz-adv-x="1535" 
d="M102 295h372q1 -53 46 -75q49 -25 277 -25q182 0 234 26q42 21 42 62q0 68 -102 76q-47 4 -184 4h-175q-228 0 -337 36q-163 54 -163 255q0 234 180 285q139 39 473 39q233 0 364 -16q185 -23 232 -143q19 -47 22 -127h-370q-6 41 -53 55q-42 13 -193 13q-205 0 -254 -26
q-37 -19 -37 -54q0 -41 46 -57q42 -14 186 -14h248q203 0 304 -30q102 -30 141 -104q32 -59 32 -168q0 -140 -63 -210q-77 -86 -271 -105q-151 -14 -381 -14q-216 0 -330 13q-185 20 -251 141q-34 62 -35 163zM767 1458l411 -247l-56 -122l-355 143l-355 -143l-56 122z" />
    <glyph glyph-name="Scedilla" unicode="&#x15e;" horiz-adv-x="1999" 
d="M155 435h408q4 -85 24 -109q30 -34 135 -40q93 -6 183 -6q303 0 392 10q85 10 117 36q30 25 30 80q0 90 -70 113q-42 14 -140 15q-19 0 -120 1h-376q-153 0 -265 10q-181 15 -257 115q-66 88 -66 280q0 189 63 278q45 63 127 96q120 47 368 57q106 4 278 4q291 0 432 -8
q196 -12 288 -92q93 -81 93 -283v-43h-405q-1 46 -12 70q-23 50 -124 59q-65 5 -175 5q-250 0 -377 -9q-97 -6 -124 -40q-23 -29 -23 -73q0 -86 88 -109q26 -7 168 -10h387q102 0 291 -10q218 -11 296 -123q67 -95 67 -280q0 -230 -102 -327q-76 -73 -259 -92
q-199 -20 -516 -20q-250 0 -408 7q-275 13 -357 123q-60 81 -60 247q0 20 1 68zM966 -75l245 -135l-225 -278l-164 74z" />
    <glyph glyph-name="scedilla" unicode="&#x15f;" horiz-adv-x="1535" 
d="M102 295h372q1 -53 46 -75q49 -25 277 -25q182 0 234 26q42 21 42 62q0 68 -102 76q-47 4 -184 4h-175q-228 0 -337 36q-163 54 -163 255q0 234 180 285q139 39 473 39q233 0 364 -16q185 -23 232 -143q19 -47 22 -127h-370q-6 41 -53 55q-42 13 -193 13q-205 0 -254 -26
q-37 -19 -37 -54q0 -41 46 -57q42 -14 186 -14h248q203 0 304 -30q102 -30 141 -104q32 -59 32 -168q0 -140 -63 -210q-77 -86 -271 -105q-151 -14 -381 -14q-216 0 -330 13q-185 20 -251 141q-34 62 -35 163zM740 -75l225 -128l-231 -272l-137 75z" />
    <glyph glyph-name="Scaron" unicode="&#x160;" horiz-adv-x="1999" 
d="M155 435h408q4 -85 24 -109q30 -34 135 -40q93 -6 183 -6q303 0 392 10q85 10 117 36q30 25 30 80q0 90 -70 113q-42 14 -140 15q-19 0 -120 1h-376q-153 0 -265 10q-181 15 -257 115q-66 88 -66 280q0 189 63 278q45 63 127 96q120 47 368 57q106 4 278 4q291 0 432 -8
q196 -12 288 -92q93 -81 93 -283v-43h-405q-1 46 -12 70q-23 50 -124 59q-65 5 -175 5q-250 0 -377 -9q-97 -6 -124 -40q-23 -29 -23 -73q0 -86 88 -109q26 -7 168 -10h387q102 0 291 -10q218 -11 296 -123q67 -95 67 -280q0 -230 -102 -327q-76 -73 -259 -92
q-199 -20 -516 -20q-250 0 -408 7q-275 13 -357 123q-60 81 -60 247q0 20 1 68zM969 1472l-489 247l73 130l416 -115l416 115l72 -130z" />
    <glyph glyph-name="scaron" unicode="&#x161;" horiz-adv-x="1535" 
d="M102 295h372q1 -53 46 -75q49 -25 277 -25q182 0 234 26q42 21 42 62q0 68 -102 76q-47 4 -184 4h-175q-228 0 -337 36q-163 54 -163 255q0 234 180 285q139 39 473 39q233 0 364 -16q185 -23 232 -143q19 -47 22 -127h-370q-6 41 -53 55q-42 13 -193 13q-205 0 -254 -26
q-37 -19 -37 -54q0 -41 46 -57q42 -14 186 -14h248q203 0 304 -30q102 -30 141 -104q32 -59 32 -168q0 -140 -63 -210q-77 -86 -271 -105q-151 -14 -381 -14q-216 0 -330 13q-185 20 -251 141q-34 62 -35 163zM767 1089l-411 247l56 122l355 -143l355 143l56 -122z" />
    <glyph glyph-name="Tcommaaccent" unicode="&#x162;" horiz-adv-x="1742" 
d="M663 0v1028h-608v337h1632v-337h-608v-1028h-416zM1041 -108v-220q0 -79 -6 -107q-11 -58 -70 -93q-53 -32 -188 -32h-79v131q20 -1 28 -1q42 0 65 16q29 20 29 52q0 9 -2 24h-120v230h343z" />
    <glyph glyph-name="tcommaaccent" unicode="&#x163;" horiz-adv-x="1313" 
d="M927 410h270v-76q0 -112 -15 -171q-27 -110 -157 -154q-91 -31 -253 -31q-217 0 -311 26q-85 24 -140 91q-46 57 -55 149q-3 30 -3 83v389h-181v240h181v226h358v-226h576v-240h-576v-314q0 -109 34 -141q34 -31 121 -31q94 0 127 35q24 25 24 106v39zM826 -108v-205
q0 -75 -5 -101q-11 -54 -66 -87q-50 -30 -176 -30h-74v122h26q39 0 61 14q27 18 27 50q0 9 -2 22h-112v215h321z" />
    <glyph glyph-name="Tcaron" unicode="&#x164;" horiz-adv-x="1742" 
d="M663 0v1028h-608v337h1632v-337h-608v-1028h-416zM872 1472l-489 247l72 130l417 -115l415 115l73 -130z" />
    <glyph glyph-name="tcaron" unicode="&#x165;" horiz-adv-x="1313" 
d="M927 410h270v-76q0 -112 -15 -171q-27 -110 -157 -154q-91 -31 -253 -31q-217 0 -311 26q-85 24 -140 91q-46 57 -55 149q-3 30 -3 83v389h-181v240h181v226h358v-226h576v-240h-576v-314q0 -109 34 -141q34 -31 121 -31q94 0 127 35q24 25 24 106v39zM1101 1493v-205
q0 -84 -7.5 -112t-34.5 -54q-43 -41 -130 -49q-38 -3 -75 -3h-74v122h26q39 0 61 14q27 18 27 50q0 8 -2 22h-112v215h321z" />
    <glyph glyph-name="Tbar" unicode="&#x166;" horiz-adv-x="1742" 
d="M663 0v546h-410v246h410v236h-608v337h1632v-337h-608v-236h410v-246h-410v-546h-416z" />
    <glyph glyph-name="tbar" unicode="&#x167;" horiz-adv-x="1313" 
d="M263 613v111h-181v232h181v226h358v-226h576v-232h-576v-111h396v-171h-396v-41q0 -108 34 -140q34 -31 131 -31q80 0 112 31q20 19 23 60h276q-1 -105 -15 -158q-27 -110 -157 -154q-91 -31 -253 -31q-217 0 -311 26q-85 24 -140 91q-51 62 -57 170q-1 13 -1 89v88h-150
v171h150z" />
    <glyph glyph-name="utilde" unicode="&#x169;" horiz-adv-x="1599" 
d="M1449 956v-956h-343v222q-19 -72 -40 -106q-51 -83 -171 -116q-83 -22 -231 -22q-208 0 -321 54q-89 43 -140 129q-53 90 -53 287v508h352v-493q0 -88 22 -129t73 -58q68 -23 201 -23q192 0 255 76q44 53 44 195v432h352zM1054 1416l166 -69q-28 -72 -55 -113
q-39 -58 -104 -90q-46 -23 -95 -23q-54 0 -168 45q-114 44 -153 44q-75 0 -100 -93l-166 68q61 129 111 171q59 50 147 50q64 0 167 -47q87 -40 136 -40q50 0 86 43q21 23 28 54z" />
    <glyph glyph-name="Umacron" unicode="&#x16a;" horiz-adv-x="2094" 
d="M171 1365h416v-592q-1 -97 -1 -141q0 -153 28 -214q27 -63 106 -82q88 -21 272 -21q238 0 340 10q91 9 126 53q40 49 46 135q4 46 4 109l-1 117v626h416v-715q0 -213 -14 -301q-25 -160 -132 -247q-94 -76 -251 -100q-73 -11 -485 -14q-319 2 -404.5 7t-157.5 25
q-222 62 -277 251q-31 105 -31 360v734zM1513 1753v-221h-932v221h932z" />
    <glyph glyph-name="umacron" unicode="&#x16b;" horiz-adv-x="1599" 
d="M1449 956v-956h-343v222q-19 -72 -40 -106q-51 -83 -171 -116q-83 -22 -231 -22q-208 0 -321 54q-89 43 -140 129q-53 90 -53 287v508h352v-493q0 -88 22 -129t73 -58q68 -23 201 -23q192 0 255 76q44 53 44 195v432h352zM1180 1340v-199h-761v199h761z" />
    <glyph glyph-name="ubreve" unicode="&#x16d;" horiz-adv-x="1599" 
d="M1449 956v-956h-343v222q-19 -72 -40 -106q-51 -83 -171 -116q-83 -22 -231 -22q-208 0 -321 54q-89 43 -140 129q-53 90 -53 287v508h352v-493q0 -88 22 -129t73 -58q68 -23 201 -23q192 0 255 76q44 53 44 195v432h352zM418 1403h221q5 -65 24 -100q28 -50 164 -50
q78 0 123 16q50 18 62 94q2 16 4 40h221q-15 -143 -66 -213q-48 -68 -164 -90q-62 -12 -179 -12q-169 0 -250 32q-108 43 -143 176q-9 36 -17 107z" />
    <glyph glyph-name="Uring" unicode="&#x16e;" horiz-adv-x="2094" 
d="M171 1365h416v-592q-1 -97 -1 -141q0 -153 28 -214q27 -63 106 -82q88 -21 272 -21q238 0 340 10q91 9 126 53q40 49 46 135q4 46 4 109l-1 117v626h416v-715q0 -213 -14 -301q-25 -160 -132 -247q-94 -76 -251 -100q-73 -11 -485 -14q-319 2 -404.5 7t-157.5 25
q-222 62 -277 251q-31 105 -31 360v734zM1057 1862q137 0 220 -50q76 -45 76 -139q0 -108 -94 -163q-76 -44 -224 -44q-117 0 -196 42q-97 53 -97 155q0 61 39 109q71 90 276 90zM1045 1742q-136 0 -136 -82q0 -45 37 -60q37 -14 95 -14q71 0 109 18q36 16 36 61
q0 77 -141 77z" />
    <glyph glyph-name="uring" unicode="&#x16f;" horiz-adv-x="1599" 
d="M1449 956v-956h-343v222q-19 -72 -40 -106q-51 -83 -171 -116q-83 -22 -231 -22q-208 0 -321 54q-89 43 -140 129q-53 90 -53 287v508h352v-493q0 -88 22 -129t73 -58q68 -23 201 -23q192 0 255 76q44 53 44 195v432h352zM808 1452q127 0 203 -48q70 -44 70 -134
q0 -104 -87 -157q-70 -42 -207 -42q-107 0 -179 40q-90 51 -90 149q0 59 36 106q65 86 254 86zM797 1339q-60 0 -98 -21q-36 -19 -36 -58q0 -47 37 -62q34 -14 94 -14q142 0 142 76q0 79 -139 79z" />
    <glyph glyph-name="Uhungarumlaut" unicode="&#x170;" horiz-adv-x="2094" 
d="M171 1365h416v-592q-1 -97 -1 -141q0 -153 28 -214q27 -63 106 -82q88 -21 272 -21q238 0 340 10q91 9 126 53q40 49 46 135q4 46 4 109l-1 117v626h416v-715q0 -213 -14 -301q-25 -160 -132 -247q-94 -76 -251 -100q-73 -11 -485 -14q-319 2 -404.5 7t-157.5 25
q-222 62 -277 251q-31 105 -31 360v734zM1005 1896l160 -211l-452 -239l-106 137zM1547 1896l160 -211l-451 -239l-107 137z" />
    <glyph glyph-name="uhungarumlaut" unicode="&#x171;" horiz-adv-x="1599" 
d="M1449 956v-956h-343v222q-19 -72 -40 -106q-51 -83 -171 -116q-83 -22 -231 -22q-208 0 -321 54q-89 43 -140 129q-53 90 -53 287v508h352v-493q0 -88 22 -129t73 -58q68 -23 201 -23q192 0 255 76q44 53 44 195v432h352zM795 1495l153 -201l-431 -228l-102 130z
M1282 1495l152 -201l-430 -228l-102 130z" />
    <glyph glyph-name="Uogonek" unicode="&#x172;" horiz-adv-x="2094" 
d="M1622 -289v-185q-68 -15 -123 -15q-121 0 -203 52q-58 37 -89 100q-24 47 -24 96q0 78 57 146q32 37 116 87q-154 -4 -267 -4q-332 0 -451 8q-258 18 -364 141q-76 88 -94 257q-9 78 -9 237v734h416v-592q-1 -97 -1 -141q0 -153 28 -214q27 -63 106 -82q88 -21 272 -21
q238 0 340 10q91 9 126 53q40 49 46 135q4 46 4 109l-1 117v626h416v-715q0 -177 -7 -251q-9 -85 -27.5 -139t-54.5 -100q-49 -62 -122 -98l-96 -47q-63 -32 -134 -97q-83 -76 -83 -133q0 -39 35 -67q27 -22 85 -22q43 0 103 15z" />
    <glyph glyph-name="uogonek" unicode="&#x173;" horiz-adv-x="1599" 
d="M1449 0q-70 -40 -123 -91q-63 -59 -63 -106q0 -35 31 -57q26 -19 70 -19q31 0 85 14v-162q-58 -12 -107 -12q-103 0 -176 45q-51 32 -78 87q-19 39 -19 83q0 118 167 218h-130v222q-19 -72 -40 -106q-51 -83 -171 -115q-83 -23 -231 -23q-208 0 -321 54q-89 43 -140 129
q-53 90 -53 287v508h352v-493q0 -88 22 -129t73 -58q68 -23 201 -23q192 0 255 76q44 53 44 195v432h352v-956z" />
    <glyph glyph-name="Wcircumflex" unicode="&#x174;" horiz-adv-x="2958" 
d="M56 1365h422l397 -1040l353 1040h502l341 -1040l409 1040h424l-566 -1365h-557l-303 982l-319 -982h-552zM1480 1849l488 -247l-72 -130l-416 114l-416 -114l-73 130z" />
    <glyph glyph-name="Ycircumflex" unicode="&#x176;" horiz-adv-x="2023" 
d="M808 0v473l-781 892h531l461 -565l457 565h519l-769 -892v-473h-418zM1011 1849l488 -247l-72 -130l-416 114l-416 -114l-73 130z" />
    <glyph glyph-name="ycircumflex" unicode="&#x177;" horiz-adv-x="1470" 
d="M479 0l-431 956h391l280 -708l308 708h395l-547 -1155q-33 -70 -53 -103q-55 -89 -154 -114q-66 -17 -189 -17q-71 0 -148 7v238q76 -2 122 2q75 7 106 49q24 33 37 62l35 75h-152zM735 1458l411 -247l-57 -122l-354 143l-355 -143l-56 122z" />
    <glyph glyph-name="Zacute" unicode="&#x179;" horiz-adv-x="1889" 
d="M116 0v314l1031 741h-1005v310h1614v-313l-1045 -742h1062v-310h-1657zM1258 1860l85 -257l-571 -131l-62 149z" />
    <glyph glyph-name="zacute" unicode="&#x17a;" horiz-adv-x="1352" 
d="M96 0v240l630 478h-589v238h1100v-267l-615 -452h635v-237h-1161zM933 1470l81 -217l-487 -164l-51 137z" />
    <glyph glyph-name="Zdotaccent" unicode="&#x17b;" horiz-adv-x="1889" 
d="M116 0v314l1031 741h-1005v310h1614v-313l-1045 -742h1062v-310h-1657zM1132 1760v-246h-375v246h375z" />
    <glyph glyph-name="zdotaccent" unicode="&#x17c;" horiz-adv-x="1352" 
d="M96 0v240l630 478h-589v238h1100v-267l-615 -452h635v-237h-1161zM823 1350v-221h-293v221h293z" />
    <glyph glyph-name="Zcaron" unicode="&#x17d;" horiz-adv-x="1889" 
d="M116 0v314l1031 741h-1005v310h1614v-313l-1045 -742h1062v-310h-1657zM945 1472l-489 247l72 130l417 -115l415 115l73 -130z" />
    <glyph glyph-name="zcaron" unicode="&#x17e;" horiz-adv-x="1352" 
d="M96 0v240l630 478h-589v238h1100v-267l-615 -452h635v-237h-1161zM676 1089l-411 247l57 122l354 -143l355 143l56 -122z" />
    <glyph glyph-name="uni018F" unicode="&#x18f;" horiz-adv-x="2165" 
d="M1600 763q-3 163 -42 214q-42 54 -169 62q-102 7 -308 7q-253 0 -330 -12q-85 -12 -122 -49q-39 -39 -46 -100h-431q7 181 64 281q55 97 148 139q100 46 225 59q147 15 421 15q532 0 649 -21q170 -31 249 -125q74 -88 95 -240q11 -83 11 -316q0 -226 -21 -334
q-31 -157 -130 -240q-62 -52 -154.5 -78t-240.5 -33q-138 -6 -389 -6q-458 0 -573 22q-162 30 -238 110q-70 72 -100 227q-25 125 -25 259q0 55 7 159h1450zM575 542q10 -125 63 -169q52 -43 209 -51q65 -3 192 -3q337 0 410 18q86 22 116 78q23 42 31 127h-1021z" />
    <glyph glyph-name="uni01CD" unicode="&#x1cd;" horiz-adv-x="2099" 
d="M14 0l768 1365h557l747 -1365h-454l-136 244h-881l-131 -244h-470zM765 528h587l-297 544zM1051 1472l-490 247l73 130l417 -115l415 115l72 -130z" />
    <glyph glyph-name="uni01CE" unicode="&#x1ce;" horiz-adv-x="1552" 
d="M1050 0v169q-19 -62 -46 -96q-54 -67 -190 -85q-80 -10 -207 -10q-178 0 -276 16q-143 25 -192 122q-30 60 -30 172q0 146 56 214q55 66 157 86q104 20 376 20q151 0 219 -17q69 -18 99 -57q12 -16 24 -46v106q0 106 -40 132q-33 22 -125 27q-71 4 -129 4q-79 0 -140 -3
q-65 -2 -90 -30q-12 -15 -16 -45h-351q5 94 36 145q44 71 155 113q72 28 223 36q108 5 246 5q180 0 299 -14q200 -25 262 -163q32 -69 32 -139v-68v-594h-352zM736 412q-151 0 -209 -16q-70 -19 -70 -91q0 -84 108 -102q33 -6 199 -6q161 0 214 16q68 20 68 93q0 82 -105 98
q-55 8 -205 8zM776 1089l-411 247l56 122l355 -143l355 143l56 -122z" />
    <glyph glyph-name="uni01D1" unicode="&#x1d1;" horiz-adv-x="657" 
d="M126 0l23 807h357l18 -807h-398zM530 1365v-374h-397v374h397z" />
    <glyph glyph-name="uni01D3" unicode="&#x1d3;" horiz-adv-x="2094" 
d="M171 1365h416v-592q-1 -97 -1 -141q0 -153 28 -214q27 -63 106 -82q88 -21 272 -21q238 0 340 10q91 9 126 53q40 49 46 135q4 46 4 109l-1 117v626h416v-715q0 -213 -14 -301q-25 -160 -132 -247q-94 -76 -251 -100q-73 -11 -485 -14q-319 2 -404.5 7t-157.5 25
q-222 62 -277 251q-31 105 -31 360v734zM1048 1472l-489 247l72 130l417 -115l415 115l73 -130z" />
    <glyph glyph-name="uni01D4" unicode="&#x1d4;" horiz-adv-x="1599" 
d="M1449 956v-956h-343v222q-19 -72 -40 -106q-51 -83 -171 -116q-83 -22 -231 -22q-208 0 -321 54q-89 43 -140 129q-53 90 -53 287v508h352v-493q0 -88 22 -129t73 -58q68 -23 201 -23q192 0 255 76q44 53 44 195v432h352zM800 1089l-411 247l56 122l355 -143l354 143
l57 -122z" />
    <glyph glyph-name="uni01DD" unicode="&#x1dd;" horiz-adv-x="1509" 
d="M455 651h-346q2 111 39 172q71 115 259 137q120 13 311 13q253 0 390 -26q120 -22 196 -105q68 -74 87 -198q9 -57 9 -153q0 -203 -44 -299q-74 -163 -286 -195q-93 -14 -327 -14q-257 0 -379 24t-191 126q-64 93 -64 309v105h933v32q0 98 -45 137q-30 27 -106 36
q-64 7 -173 7q-173 0 -217 -28q-41 -25 -46 -80zM452 359q0 -85 38 -119q27 -25 89 -35q51 -9 169 -9q126 0 177 11q116 26 116 136v16h-589z" />
    <glyph glyph-name="Gcaron" unicode="&#x1e6;" horiz-adv-x="2078" 
d="M1927 904h-407q-2 70 -26 99q-42 51 -146 51h-105l-146 2l-153 -2q-149 0 -180 -1.5t-67 -10.5q-72 -17 -101 -70q-29 -52 -29 -324q0 -175 27 -234t88 -84q58 -24 203 -25h272q182 0 230 5.5t83 30.5q40 29 50 78q3 18 3 54q0 13 -1 41h-526v255h931v-189
q0 -286 -35 -378q-39 -104 -115 -147q-105 -58 -253 -63q-81 -2 -518 -2q-408 0 -521 25q-157 33 -231 121q-69 83 -92 233q-12 82 -12 296q0 235 14 323q28 174 115 259q102 100 378 118q147 10 416 10q331 0 447 -8q266 -20 354 -165q54 -87 53 -298zM1039 1472l-489 247
l73 130l416 -115l416 115l72 -130z" />
    <glyph glyph-name="gcaron" unicode="&#x1e7;" horiz-adv-x="1628" 
d="M147 -105h356q7 -58 61 -82q55 -23 235 -23q223 0 290 63q33 31 41 100q4 32 4 109v142q-51 -113 -131 -155q-94 -49 -326 -49q-317 0 -440 90q-88 64 -112 196q-15 78 -15 212q0 203 41 295q59 130 250 164q115 20 291 20q160 0 235 -15q131 -26 177 -131
q14 -33 30 -103v229h344v-862q0 -182 -18 -257q-46 -193 -252 -251q-144 -41 -461 -41q-259 0 -386 39q-93 29 -154 106q-59 74 -60 204zM772 714q-188 0 -238 -28q-47 -26 -61 -84q-9 -34 -9 -104q0 -103 17 -147q25 -64 123 -79q57 -9 174 -9q142 0 193 6q105 13 138 92
q15 35 15 131q0 92 -14 126q-23 58 -70 75q-56 21 -268 21zM807 1089l-411 247l56 122l355 -143l355 143l56 -122z" />
    <glyph glyph-name="uni01F4" unicode="&#x1f4;" horiz-adv-x="2078" 
d="M1927 904h-407q-2 70 -26 99q-42 51 -146 51h-105l-146 2l-153 -2q-149 0 -180 -1.5t-67 -10.5q-72 -17 -101 -70q-29 -52 -29 -324q0 -175 27 -234t88 -84q58 -24 203 -25h272q182 0 230 5.5t83 30.5q40 29 50 78q3 18 3 54q0 13 -1 41h-526v255h931v-189
q0 -286 -35 -378q-39 -104 -115 -147q-105 -58 -253 -63q-81 -2 -518 -2q-408 0 -521 25q-157 33 -231 121q-69 83 -92 233q-12 82 -12 296q0 235 14 323q28 174 115 259q102 100 378 118q147 10 416 10q331 0 447 -8q266 -20 354 -165q54 -87 53 -298zM1352 1860l85 -257
l-571 -131l-62 149z" />
    <glyph glyph-name="Scommaaccent" unicode="&#x218;" horiz-adv-x="1999" 
d="M155 435h408q4 -85 24 -109q30 -34 135 -40q93 -6 183 -6q303 0 392 10q85 10 117 36q30 25 30 80q0 90 -70 113q-42 14 -140 15q-19 0 -120 1h-376q-153 0 -265 10q-181 15 -257 115q-66 88 -66 280q0 189 63 278q45 63 127 96q120 47 368 57q106 4 278 4q291 0 432 -8
q196 -12 288 -92q93 -81 93 -283v-43h-405q-1 46 -12 70q-23 50 -124 59q-65 5 -175 5q-250 0 -377 -9q-97 -6 -124 -40q-23 -29 -23 -73q0 -86 88 -109q26 -7 168 -10h387q102 0 291 -10q218 -11 296 -123q67 -95 67 -280q0 -230 -102 -327q-76 -73 -259 -92
q-199 -20 -516 -20q-250 0 -408 7q-275 13 -357 123q-60 81 -60 247q0 20 1 68zM1169 -108v-220q0 -79 -6 -107q-11 -58 -70 -93q-53 -32 -188 -32h-79v131q20 -1 28 -1q42 0 65 16q29 20 29 52q0 9 -2 24h-120v230h343z" />
    <glyph glyph-name="scommaaccent" unicode="&#x219;" horiz-adv-x="1535" 
d="M102 295h372q1 -53 46 -75q49 -25 277 -25q182 0 234 26q42 21 42 62q0 68 -102 76q-47 4 -184 4h-175q-228 0 -337 36q-163 54 -163 255q0 234 180 285q139 39 473 39q233 0 364 -16q185 -23 232 -143q19 -47 22 -127h-370q-6 41 -53 55q-42 13 -193 13q-205 0 -254 -26
q-37 -19 -37 -54q0 -41 46 -57q42 -14 186 -14h248q203 0 304 -30q102 -30 141 -104q32 -59 32 -168q0 -140 -63 -210q-77 -86 -271 -105q-151 -14 -381 -14q-216 0 -330 13q-185 20 -251 141q-34 62 -35 163zM936 -108v-205q0 -75 -5 -101q-11 -54 -66 -87
q-50 -30 -176 -30h-74v122h26q39 0 61 14q27 18 27 50q0 9 -2 22h-112v215h321z" />
    <glyph glyph-name="uni021A" unicode="&#x21a;" horiz-adv-x="1742" 
d="M663 0v1028h-608v337h1632v-337h-608v-1028h-416zM1041 -108v-220q0 -79 -6 -107q-11 -58 -70 -93q-53 -32 -188 -32h-79v131q20 -1 28 -1q42 0 65 16q29 20 29 52q0 9 -2 24h-120v230h343z" />
    <glyph glyph-name="uni021B" unicode="&#x21b;" horiz-adv-x="1313" 
d="M927 410h270v-76q0 -112 -15 -171q-27 -110 -157 -154q-91 -31 -253 -31q-217 0 -311 26q-85 24 -140 91q-46 57 -55 149q-3 30 -3 83v389h-181v240h181v226h358v-226h576v-240h-576v-314q0 -109 34 -141q34 -31 121 -31q94 0 127 35q24 25 24 106v39zM826 -108v-205
q0 -75 -5 -101q-11 -54 -66 -87q-50 -30 -176 -30h-74v122h26q39 0 61 14q27 18 27 50q0 9 -2 22h-112v215h321z" />
    <glyph glyph-name="Adotaccent" unicode="&#x226;" horiz-adv-x="2099" 
d="M14 0l768 1365h557l747 -1365h-454l-136 244h-881l-131 -244h-470zM765 528h587l-297 544zM1237 1760v-246h-375v246h375z" />
    <glyph glyph-name="adotaccent" unicode="&#x227;" horiz-adv-x="1552" 
d="M1050 0v169q-19 -62 -46 -96q-54 -67 -190 -85q-80 -10 -207 -10q-178 0 -276 16q-143 25 -192 122q-30 60 -30 172q0 146 56 214q55 66 157 86q104 20 376 20q151 0 219 -17q69 -18 99 -57q12 -16 24 -46v106q0 106 -40 132q-33 22 -125 27q-71 4 -129 4q-79 0 -140 -3
q-65 -2 -90 -30q-12 -15 -16 -45h-351q5 94 36 145q44 71 155 113q72 28 223 36q108 5 246 5q180 0 299 -14q200 -25 262 -163q32 -69 32 -139v-68v-594h-352zM736 412q-151 0 -209 -16q-70 -19 -70 -91q0 -84 108 -102q33 -6 199 -6q161 0 214 16q68 20 68 93q0 82 -105 98
q-55 8 -205 8zM923 1350v-221h-293v221h293z" />
    <glyph glyph-name="dotlessj" unicode="&#x237;" horiz-adv-x="736" 
d="M233 956h352v-868l-2 -70q-1 -130 -4 -161t-18 -72q-51 -147 -351 -147q-55 0 -142 8v229q37 -7 57 -7q64 0 91 43q17 27 17 109v936z" />
    <glyph glyph-name="uni0259" unicode="&#x259;" horiz-adv-x="1509" 
d="M455 651h-346q2 111 39 172q71 115 259 137q120 13 311 13q253 0 390 -26q120 -22 196 -105q68 -74 87 -198q9 -57 9 -153q0 -203 -44 -299q-74 -163 -286 -195q-93 -14 -327 -14q-257 0 -379 24t-191 126q-64 93 -64 309v105h933v32q0 98 -45 137q-30 27 -106 36
q-64 7 -173 7q-173 0 -217 -28q-41 -25 -46 -80zM452 359q0 -85 38 -119q27 -25 89 -35q51 -9 169 -9q126 0 177 11q116 26 116 136v16h-589z" />
    <glyph glyph-name="afii57929" unicode="&#x2bc;" horiz-adv-x="646" 
d="M129 999v366h396v-349q0 -120 -9 -176q-15 -99 -87 -154q-69 -53 -246 -53h-113v209q101 1 132 28q37 32 37 115v14h-110z" />
    <glyph glyph-name="uni02C9" unicode="&#x2c9;" 
d="M892 1340v-199h-761v199h761z" />
    <glyph glyph-name="uni0387" unicode="&#x387;" horiz-adv-x="707" 
d="M557 669v-381h-407v381h407z" />
    <glyph glyph-name="uni04D8" unicode="&#x4d8;" horiz-adv-x="2165" 
d="M1600 763q-3 163 -42 214q-42 54 -169 62q-102 7 -308 7q-253 0 -330 -12q-85 -12 -122 -49q-39 -39 -46 -100h-431q7 181 64 281q55 97 148 139q100 46 225 59q147 15 421 15q532 0 649 -21q170 -31 249 -125q74 -88 95 -240q11 -83 11 -316q0 -226 -21 -334
q-31 -157 -130 -240q-62 -52 -154.5 -78t-240.5 -33q-138 -6 -389 -6q-458 0 -573 22q-162 30 -238 110q-70 72 -100 227q-25 125 -25 259q0 55 7 159h1450zM575 542q10 -125 63 -169q52 -43 209 -51q65 -3 192 -3q337 0 410 18q86 22 116 78q23 42 31 127h-1021z" />
    <glyph glyph-name="afii10846" unicode="&#x4d9;" horiz-adv-x="1509" 
d="M455 651h-346q2 111 39 172q71 115 259 137q120 13 311 13q253 0 390 -26q120 -22 196 -105q68 -74 87 -198q9 -57 9 -153q0 -203 -44 -299q-74 -163 -286 -195q-93 -14 -327 -14q-257 0 -379 24t-191 126q-64 93 -64 309v105h933v32q0 98 -45 137q-30 27 -106 36
q-64 7 -173 7q-173 0 -217 -28q-41 -25 -46 -80zM452 359q0 -85 38 -119q27 -25 89 -35q51 -9 169 -9q126 0 177 11q116 26 116 136v16h-589z" />
    <glyph glyph-name="Fdotaccent" unicode="&#x1e1e;" horiz-adv-x="1730" 
d="M177 0v1365h1450v-310h-1036v-270h983v-310h-983v-475h-414zM1089 1760v-246h-375v246h375z" />
    <glyph glyph-name="Wacute" unicode="&#x1e82;" horiz-adv-x="955" 
d="M832 668v-349h-709v349h709z" />
    <glyph glyph-name="Wdieresis" unicode="&#x1e84;" horiz-adv-x="2958" 
d="M56 1365h422l397 -1040l353 1040h502l341 -1040l409 1040h424l-566 -1365h-557l-303 982l-319 -982h-552zM1380 1757v-239h-357v239h357zM1936 1757v-239h-357v239h357z" />
    <glyph glyph-name="uni2002" unicode="&#x2002;" 
 />
    <glyph glyph-name="uni2003" unicode="&#x2003;" horiz-adv-x="2048" 
 />
    <glyph glyph-name="uni2004" unicode="&#x2004;" horiz-adv-x="683" 
 />
    <glyph glyph-name="uni2005" unicode="&#x2005;" horiz-adv-x="512" 
 />
    <glyph glyph-name="uni2006" unicode="&#x2006;" horiz-adv-x="137" 
 />
    <glyph glyph-name="uni2007" unicode="&#x2007;" horiz-adv-x="1952" 
 />
    <glyph glyph-name="uni2009" unicode="&#x2009;" horiz-adv-x="256" 
 />
    <glyph glyph-name="uni200A" unicode="&#x200a;" horiz-adv-x="68" 
 />
    <glyph glyph-name="uni2011" unicode="&#x2011;" horiz-adv-x="709" 
d="M709 668v-349h-709v349h709z" />
    <glyph glyph-name="figuredash" unicode="&#x2012;" horiz-adv-x="1947" 
d="M1627 668v-349h-1307v349h1307z" />
    <glyph glyph-name="afii00208" unicode="&#x2015;" horiz-adv-x="2125" 
d="M2125 668v-349h-2125v349h2125z" />
    <glyph glyph-name="underscoredbl" unicode="&#x2017;" 
d="M0 -97h1024v-155h-1024v155zM0 -337h1024v-155h-1024v155z" />
    <glyph glyph-name="minute" unicode="&#x2032;" horiz-adv-x="646" 
d="M129 999v366h396v-349q0 -120 -9 -176q-15 -99 -87 -154q-69 -53 -246 -53h-113v209q101 1 132 28q37 32 37 115v14h-110z" />
    <glyph glyph-name="second" unicode="&#x2033;" horiz-adv-x="1205" 
d="M129 999v366h396v-349q0 -120 -9 -176q-15 -99 -87 -154q-69 -53 -246 -53h-113v209q101 1 132 28q37 32 37 115v14h-110zM688 999v366h396v-349q0 -120 -9 -176q-15 -99 -87 -154q-69 -53 -246 -53h-113v209q101 1 132 28q37 33 37 115v14h-110z" />
    <glyph glyph-name="exclamdbl" unicode="&#x203c;" horiz-adv-x="1002" 
d="M431 1365v-361l-105 -551h-172l-104 545v367h381zM439 353v-353h-396v353h396zM953 1365v-361l-105 -551h-172l-104 545v367h381zM960 353v-353h-396v353h396z" />
    <glyph glyph-name="uni203E" unicode="&#x203e;" 
d="M0 1821h1024v-225h-1024v225z" />
    <glyph glyph-name="zerosuperior" unicode="&#x2070;" horiz-adv-x="1238" 
d="M625 1371q203 0 307 -15q159 -24 195 -155q22 -80 22 -241q0 -163 -19 -243q-32 -138 -180 -161q-99 -16 -313 -16q-282 0 -365 15q-140 25 -169 170q-15 76 -15 233q0 212 44 289q48 85 183 108q96 16 310 16zM618 1170q-196 0 -235 -32q-24 -20 -33 -63q-7 -36 -7 -127
q0 -137 32 -167q26 -26 114 -32q61 -4 137 -4q146 0 194 15q54 16 66 67q8 33 8 135q0 106 -11 137q-17 50 -82 62q-49 9 -183 9z" />
    <glyph glyph-name="foursuperior" unicode="&#x2074;" horiz-adv-x="1240" 
d="M767 546v154h-670v295l610 370h307v-483h136v-177h-136v-159h-247zM767 882v279l-466 -279h466z" />
    <glyph glyph-name="fivesuperior" unicode="&#x2075;" horiz-adv-x="1241" 
d="M115 803h247q0 -37 9 -51q16 -24 81 -29q24 -2 175 -5q163 2 197 9q29 6 41 26q14 23 14 77q0 52 -21 73q-27 27 -126 26q-24 0 -88 1q-61 1 -105 1q-118 0 -145 -17q-17 -11 -23 -40h-225l7 491h940v-176h-721v-148q45 41 81 49q54 12 200 12q292 0 364 -30
q80 -33 105 -118q11 -38 11 -105q0 -187 -88 -250q-61 -44 -208 -53q-93 -5 -215 -5q-313 0 -404 42q-104 47 -104 187q0 12 1 33z" />
    <glyph glyph-name="sixsuperior" unicode="&#x2076;" horiz-adv-x="1238" 
d="M1104 1126h-246q-3 46 -56 57q-33 7 -194 7q-158 0 -201 -27q-24 -16 -31 -60q-6 -36 -6 -94v-18q24 37 64 52q57 22 187 22q308 0 377 -23q83 -28 106 -98q15 -47 15 -127q0 -105 -23 -157q-38 -90 -167 -105q-105 -13 -303 -13q-215 0 -319 19q-101 18 -150 93
q-32 50 -36 170q-2 74 -2 168q0 151 19 219q32 114 192 141q110 18 269 18q354 0 427 -45q60 -37 73 -123q5 -28 5 -76zM632 890q-114 0 -170 -3q-53 -2 -74 -24q-18 -18 -18 -57q0 -46 25 -65q26 -20 142 -20q248 0 286 11q49 15 49 75q0 56 -38 71q-27 10 -93 11
q-92 1 -109 1z" />
    <glyph glyph-name="sevensuperior" unicode="&#x2077;" horiz-adv-x="1239" 
d="M248 546l550 611h-686v208h1016v-193l-561 -626h-319z" />
    <glyph glyph-name="eightsuperior" unicode="&#x2078;" horiz-adv-x="1237" 
d="M274 961q-151 13 -151 185q0 74 18 114q35 82 173 100q65 8 324 8q187 0 270 -7q121 -11 170 -71q37 -45 37 -139q0 -90 -31 -132q-31 -41 -126 -57q94 -15 128 -58q36 -46 36 -143q0 -162 -122 -197q-56 -17 -174 -20q-77 -2 -172 -2q-257 0 -326 4q-116 5 -172 68
q-41 47 -41 142q0 97 32 140q29 40 127 65zM618 881q-181 0 -211 -9q-42 -12 -42 -72q0 -50 30 -63q42 -17 243 -17q165 0 203 16q30 13 30 62q0 51 -30 67q-27 14 -96 15q-36 1 -127 1zM623 1196q-154 0 -185 -6q-68 -12 -68 -68q0 -46 35 -61q25 -11 100 -13h123h95
q80 0 109 15q34 17 34 60q0 57 -67 68q-29 5 -176 5z" />
    <glyph glyph-name="ninesuperior" unicode="&#x2079;" horiz-adv-x="1237" 
d="M115 786h248q4 -36 21 -45q20 -11 106 -13q44 -1 129 -1q127 0 173 7q48 7 62 32q12 20 15 126v19q-39 -50 -137 -56q-67 -5 -204 -5q-125 0 -196 8q-130 15 -177 99q-28 50 -28 140q0 120 37 177q47 72 174 85q95 10 261 10q242 0 337 -17q95 -16 144 -86
q32 -45 39 -138q5 -59 5 -147q0 -165 -13 -243q-25 -155 -186 -179q-111 -17 -350 -17q-283 0 -359 32q-103 43 -103 170q0 13 2 42zM603 1190q-151 0 -186 -14q-36 -15 -36 -71q0 -51 26 -66q21 -12 82 -13q34 -1 134 -1q185 0 215 13q32 13 32 68q0 57 -40 71
q-36 13 -227 13z" />
    <glyph glyph-name="zeroinferior" unicode="&#x2080;" horiz-adv-x="1238" 
d="M625 825q204 0 307 -15q159 -24 195 -155q22 -80 22 -241q0 -163 -19 -243q-32 -138 -180 -161q-99 -16 -313 -16q-282 0 -365 15q-140 25 -169 170q-15 76 -15 233q0 212 44 289q48 85 183 108q95 16 310 16zM618 624q-196 0 -235 -32q-24 -20 -33 -63q-7 -36 -7 -127
q0 -137 32 -167q26 -26 114 -32q61 -4 137 -4q146 0 194 15q54 16 66 67q8 33 8 135q0 106 -11 137q-17 50 -82 62q-49 9 -183 9z" />
    <glyph glyph-name="oneinferior" unicode="&#x2081;" horiz-adv-x="1233" 
d="M601 0v612l-301 -201l-121 174l366 234h315v-819h-259z" />
    <glyph glyph-name="twoinferior" unicode="&#x2082;" horiz-adv-x="1240" 
d="M1119 176v-176h-999v241q0 130 94 176q46 22 130 30q35 3 67 6l321 23q91 7 114 22q24 15 24 65q0 56 -30 70q-23 10 -93 11q-46 1 -121 1q-131 0 -176 -5q-54 -6 -71 -35q-13 -21 -13 -65v-27h-246v73q0 77 14 115q36 95 181 110q113 12 317 12q185 0 287 -9
q130 -12 174 -92q28 -52 28 -159q0 -100 -22 -149q-39 -86 -167 -108q-43 -7 -115 -12l-318 -20q-92 -7 -107 -17q-27 -16 -27 -57q0 -10 1 -24h753z" />
    <glyph glyph-name="threeinferior" unicode="&#x2083;" horiz-adv-x="1240" 
d="M370 535h-252q5 130 21 166q36 83 170 107q83 15 324 15q255 0 351 -26q86 -24 114 -94q16 -42 16 -110q0 -101 -44 -141q-31 -27 -108 -41q101 -15 132 -50q37 -41 37 -139q0 -173 -143 -207q-77 -18 -365 -18q-204 0 -274 5q-113 8 -164 44q-76 55 -76 195q0 17 2 57
h246q0 -69 13 -90q15 -23 67 -28q63 -5 177 -5q183 0 219 10q43 11 43 66q0 49 -35 66q-23 11 -119 11h-207v166h197q90 0 115 13q31 16 31 58q0 50 -39 64q-44 15 -205 15q-167 0 -202 -12q-45 -15 -45 -60q0 -15 3 -37z" />
    <glyph glyph-name="fourinferior" unicode="&#x2084;" horiz-adv-x="1240" 
d="M767 0v153h-670v295l610 371h307v-484h136v-177h-136v-158h-247zM767 335v280l-466 -280h466z" />
    <glyph glyph-name="fiveinferior" unicode="&#x2085;" horiz-adv-x="1241" 
d="M115 257h247q0 -37 9 -51q16 -24 81 -29q24 -2 175 -5q163 2 197 9q29 6 41 25q14 23 14 78q0 51 -21 72q-27 27 -126 26q-25 -1 -88 1q-65 1 -105 1q-118 0 -145 -17q-17 -11 -23 -40h-225l7 492h940v-176h-721v-149q45 42 81 50q55 12 200 12q293 0 364 -30
q80 -33 105 -118q11 -38 11 -105q0 -186 -88 -249q-61 -44 -208 -53q-93 -5 -215 -5q-314 0 -404 41q-104 48 -104 187q0 12 1 33z" />
    <glyph glyph-name="sixinferior" unicode="&#x2086;" horiz-adv-x="1238" 
d="M1104 580h-246q-3 46 -56 57q-34 7 -194 7q-158 0 -201 -27q-24 -16 -31 -60q-6 -36 -6 -94v-18q24 37 64 52q57 22 187 22q308 0 377 -23q83 -28 106 -98q15 -47 15 -127q0 -105 -23 -157q-38 -90 -167 -105q-105 -13 -303 -13q-215 0 -319 19q-101 18 -150 93
q-32 50 -36 170q-2 74 -2 167q0 152 19 220q32 114 192 141q110 18 269 18q354 0 427 -45q60 -37 73 -123q5 -28 5 -76zM632 344q-114 0 -170 -3q-53 -2 -74 -24q-18 -18 -18 -57q0 -46 25 -65q26 -20 142 -20q248 0 286 11q49 15 49 75q0 56 -38 71q-27 10 -93 11
q-92 1 -109 1z" />
    <glyph glyph-name="seveninferior" unicode="&#x2087;" horiz-adv-x="1239" 
d="M248 0l550 611h-686v208h1016v-193l-561 -626h-319z" />
    <glyph glyph-name="eightinferior" unicode="&#x2088;" horiz-adv-x="1237" 
d="M274 415q-151 13 -151 185q0 74 18 114q35 82 173 100q65 8 324 8q187 0 270 -7q121 -11 170 -71q37 -45 37 -139q0 -90 -31 -131q-31 -42 -126 -58q94 -15 128 -58q36 -45 36 -142q0 -162 -122 -197q-56 -17 -174 -20q-77 -2 -172 -2q-256 0 -326 4q-116 5 -172 68
q-41 47 -41 142q0 96 32 139q29 40 127 65zM618 335q-181 0 -211 -9q-42 -12 -42 -72q0 -50 30 -62q41 -17 243 -17q165 0 203 16q30 13 30 62q0 51 -30 66q-27 14 -96 15q-36 1 -127 1zM623 650q-155 0 -185 -5q-68 -13 -68 -69q0 -46 35 -61q26 -11 100 -13h123h95
q81 0 109 15q34 17 34 60q0 57 -67 68q-28 5 -176 5z" />
    <glyph glyph-name="nineinferior" unicode="&#x2089;" horiz-adv-x="1237" 
d="M115 239h248q4 -36 21 -45q21 -11 106 -13q38 -1 129 -1q127 0 173 7q48 7 62 32q12 20 15 126v19q-40 -50 -137 -56q-71 -5 -204 -5q-125 0 -196 8q-130 15 -177 99q-28 50 -28 141q0 120 37 177q47 71 174 85q95 10 261 10q243 0 337 -17q95 -16 144 -86
q32 -45 39 -139q5 -58 5 -147q0 -166 -13 -243q-25 -155 -186 -179q-111 -17 -350 -17q-283 0 -359 32q-103 43 -103 170q0 13 2 42zM603 644q-151 0 -186 -14q-36 -15 -36 -72q0 -51 26 -66q21 -12 82 -13q35 -1 134 -1q184 0 215 13q32 13 32 69t-40 71q-36 13 -227 13z
" />
    <glyph glyph-name="franc" unicode="&#x20a3;" horiz-adv-x="2424" 
d="M177 0v1365h1442v-302h-1034v-283h597v-302h-597v-478h-408zM1264 780h355v-190q34 106 96 146q98 64 287 64q154 0 242 -42q87 -41 117 -136q20 -63 21 -256h-330q-1 15 -2 23q-4 61 -14 80q-34 68 -174 68q-156 0 -214 -91q-25 -40 -28 -115l-1 -71v-260h-355v780z" />
    <glyph glyph-name="lira" unicode="&#x20a4;" horiz-adv-x="1947" 
d="M302 410h-208v198h213q-1 75 -2 116h-211v198h211q4 114 22 178q32 119 100 173q81 65 202 81q140 18 470 18q280 0 428 -20q176 -23 246 -126q57 -83 57 -243q0 -21 -3 -83h-385q1 15 1 24q0 100 -82 129q-55 20 -326 20q-227 0 -291 -41q-34 -21 -44 -65q-4 -16 -6 -45
h569v-198h-565q1 -31 2 -96v-20h563v-198h-583q-12 -26 -30 -45q-23 -25 -109 -65h1312v-300h-1695v296q122 1 144 114z" />
    <glyph glyph-name="peseta" unicode="&#x20a7;" horiz-adv-x="3465" 
d="M177 0v1365h1002q76 0 174 -7q145 -11 223 -66q110 -77 136 -223q16 -92 16 -207q0 -229 -55 -343q-57 -117 -202 -154q-99 -25 -332 -25h-554v-340h-408zM585 664h509q81 1 105.5 4t47.5 15q45 24 60 75q10 34 10 96q0 86 -26 125q-35 52 -122 60q-28 2 -82 2h-502v-377
zM2438 577v-152h-352v-173q1 -55 8 -68q18 -27 80 -27q67 0 78 34q3 11 4 68h182v-46q0 -81 -12 -116q-24 -68 -98 -93q-50 -16 -150 -16q-139 0 -200 18q-128 37 -128 185v234h-111v152h111v139h236v-139h352zM3363 411h-241q-1 22 -14 28q-25 12 -134 12q-105 0 -133 -5
q-40 -7 -40 -39q0 -16 14 -23q17 -8 84 -8q278 0 356 -11q137 -18 137 -173q0 -66 -21 -106q-37 -70 -193 -89q-77 -9 -225 -9q-198 0 -274 21q-112 32 -114 179h240q0 -30 14 -40q20 -14 91 -15q70 -2 94 -2q105 0 134 12q22 8 22 38q0 18 -12 25q-16 10 -86 10l-97 -1
q-198 0 -256 9q-140 21 -140 170q0 137 119 173q77 23 308 23q254 0 313 -45q49 -37 54 -134z" />
    <glyph glyph-name="uni2101" unicode="&#x2101;" horiz-adv-x="3027" 
d="M35 546l461 819h336l448 -819h-281l-80 145h-515l-78 -145h-291zM498 870h329l-166 305zM2072 1365h206l-1136 -1365h-206zM1923 269h252q2 -54 13 -67q17 -18 76 -22q56 -3 113 -3q173 0 226 6q48 5 66 20q16 13 16 43q0 48 -38 61q-24 8 -151 9h-223q-91 0 -157 6
q-110 10 -156 71q-40 54 -40 164q0 145 63 202q57 50 232 62q69 5 202 5q177 0 260 -5q117 -7 173 -56q57 -50 57 -171v-32h-251q0 42 -14 56q-18 18 -72 21q-38 3 -91 3q-147 0 -224 -5q-55 -4 -70 -22q-12 -16 -12 -40q0 -47 48 -60q14 -4 98 -6h229q62 0 172 -6
q132 -7 179 -75q41 -58 41 -168q0 -139 -62 -198q-54 -52 -249 -63q-87 -5 -214 -5q-149 0 -241 4q-166 8 -215 75q-37 49 -37 150q0 13 1 46z" />
    <glyph glyph-name="afii61248" unicode="&#x2105;" horiz-adv-x="942" 
d="M665 864v-363h-388v363h388z" />
    <glyph glyph-name="afii61289" unicode="&#x2113;" 
d="M536 521l-2 -12q-36 -251 -36 -324q0 -51 25 -51q11 0 20 11q7 9 31 55q24 43 34.5 53.5t30.5 10.5q48 0 48 -58q0 -81 -64 -164q-73 -94 -174 -94q-116 0 -170 116q-41 88 -41 236q-55 -69 -73 -69q-13 0 -28 23q-15 25 -15 61q0 24 9 42q8 16 61 77q23 27 62 82
q57 352 157 581q117 266 300 266q104 0 156 -77q40 -61 40 -143q0 -174 -163 -404q-26 -36 -159 -168q-30 -29 -49 -50zM558 697q65 74 123 184q79 150 79 235q0 66 -40 66q-46 0 -73 -80q-53 -151 -89 -405z" />
    <glyph glyph-name="uni2117" unicode="&#x2117;" horiz-adv-x="435" 
d="M102 546v578h231v-578h-231zM102 1196v165h231v-165h-231z" />
    <glyph glyph-name="onethird" unicode="&#x2153;" horiz-adv-x="2935" 
d="M601 546v612l-301 -201l-121 174l366 234h315v-819h-259zM1929 1365h206l-1136 -1365h-206zM2065 535h-252q5 130 21 166q36 83 170 107q83 15 324 15q255 0 351 -26q86 -24 114 -94q16 -42 16 -110q0 -101 -44 -141q-31 -27 -108 -41q101 -15 132 -50q37 -41 37 -139
q0 -173 -143 -207q-77 -18 -365 -18q-204 0 -274 5q-113 8 -164 44q-76 55 -76 195q0 18 2 57h246q0 -69 13 -90q16 -23 67 -28q63 -5 177 -5q183 0 219 10q43 11 43 66q0 49 -35 66q-23 11 -119 11h-207v166h197q91 0 115 13q31 16 31 58q0 50 -39 64q-43 15 -205 15
q-167 0 -202 -12q-45 -15 -45 -60q0 -15 3 -37z" />
    <glyph glyph-name="twothirds" unicode="&#x2154;" horiz-adv-x="2942" 
d="M1119 722v-176h-999v241q0 130 94 176q46 22 130 30q35 3 67 6l321 23q91 7 114 21q24 16 24 66q0 55 -30 69q-23 10 -93 11q-46 1 -121 1q-130 0 -176 -5q-54 -6 -71 -35q-13 -20 -13 -64v-27h-246v73q0 76 14 114q36 95 181 110q114 12 317 12q185 0 287 -9
q130 -12 174 -92q28 -51 28 -158q0 -100 -22 -149q-39 -86 -167 -108q-43 -7 -115 -12l-318 -20q-92 -7 -107 -17q-27 -16 -27 -57q0 -10 1 -24h753zM1936 1365h207l-1136 -1365h-207zM2072 535h-252q5 130 21 166q36 83 170 107q83 15 324 15q255 0 351 -26q86 -24 114 -94
q16 -42 16 -110q0 -101 -44 -141q-31 -27 -108 -41q101 -15 132 -50q37 -41 37 -139q0 -173 -143 -207q-77 -18 -365 -18q-204 0 -274 5q-113 8 -164 44q-76 55 -76 195q0 17 2 57h246q0 -69 13 -90q15 -23 67 -28q63 -5 177 -5q183 0 219 10q43 11 43 66q0 49 -35 66
q-23 11 -119 11h-207v166h197q90 0 115 13q31 16 31 58q0 50 -39 64q-43 15 -205 15q-167 0 -203 -12q-44 -15 -44 -60q0 -15 3 -37z" />
    <glyph glyph-name="onefifth" unicode="&#x2155;" horiz-adv-x="2935" 
d="M601 546v612l-301 -201l-121 174l366 234h315v-819h-259zM1929 1365h206l-1136 -1365h-206zM1809 257h248q0 -38 9 -51q16 -24 81 -29q24 -2 175 -5q163 2 197 9q29 6 41 25q14 23 14 78q0 51 -21 72q-27 27 -126 26q-26 -1 -88 1q-65 1 -105 1q-118 0 -145 -17
q-17 -11 -24 -40h-224l7 492h940v-176h-721v-149q34 32 58 42.5t70 14.5q63 5 153 5q293 0 364 -30q80 -33 105 -118q11 -38 11 -105q0 -186 -88 -249q-61 -44 -208 -53q-93 -5 -215 -5q-314 0 -404 42q-104 47 -104 186v33z" />
    <glyph glyph-name="twofifth" unicode="&#x2156;" horiz-adv-x="2943" 
d="M1119 722v-176h-999v241q0 130 94 176q46 22 130 30q35 3 67 6l321 23q91 7 114 21q24 16 24 66q0 55 -30 69q-23 10 -93 11q-46 1 -121 1q-130 0 -176 -5q-54 -6 -71 -35q-13 -20 -13 -64v-27h-246v73q0 76 14 114q36 95 181 110q114 12 317 12q185 0 287 -9
q130 -12 174 -92q28 -51 28 -158q0 -100 -22 -149q-39 -86 -167 -108q-43 -7 -115 -12l-318 -20q-92 -7 -107 -17q-27 -16 -27 -57q0 -10 1 -24h753zM1936 1365h207l-1136 -1365h-207zM1818 257h247q0 -38 9 -51q16 -24 81 -29q25 -2 175 -5q163 2 197 9q29 6 41 25
q14 23 14 78q0 51 -21 72q-27 27 -126 26q-25 -1 -88 1q-65 1 -105 1q-118 0 -145 -17q-17 -11 -23 -40h-225l7 492h939v-176h-720v-149q34 32 58 42.5t70 14.5q62 5 153 5q292 0 363 -30q80 -33 105 -118q11 -38 11 -105q0 -186 -88 -249q-46 -34 -135.5 -46t-287.5 -12
q-313 0 -403 42q-104 47 -104 186q0 12 1 33z" />
    <glyph glyph-name="threefifth" unicode="&#x2157;" horiz-adv-x="2942" 
d="M370 1081h-252q5 129 21 166q36 82 170 106q83 15 324 15q255 0 351 -26q86 -24 114 -94q16 -41 16 -109q0 -101 -44 -141q-31 -27 -108 -41q101 -15 132 -50q37 -41 37 -139q0 -173 -143 -207q-77 -18 -365 -18q-204 0 -274 5q-113 8 -164 44q-76 55 -76 195q0 17 2 57
h246q0 -69 13 -90q15 -23 67 -28q63 -5 177 -5q183 0 219 10q43 11 43 66q0 49 -35 66q-23 11 -119 11h-207v166h197q90 0 115 13q31 16 31 58q0 50 -39 64q-44 15 -205 15q-167 0 -202 -12q-45 -15 -45 -60q0 -15 3 -37zM1935 1365h207l-1136 -1365h-206zM1816 257h248
q0 -38 9 -51q16 -24 81 -29q24 -2 175 -5q163 2 197 9q29 6 41 25q14 23 14 78q0 51 -21 72q-27 27 -126 26q-26 -1 -88 1q-65 1 -105 1q-118 0 -145 -17q-17 -11 -24 -40h-224l7 492h939v-176h-720v-149q34 32 58 42.5t70 14.5q62 5 153 5q292 0 363 -30q80 -33 105 -118
q11 -38 11 -105q0 -186 -88 -249q-46 -34 -135.5 -46t-287.5 -12q-313 0 -403 42q-104 47 -104 186v33z" />
    <glyph glyph-name="fourfifth" unicode="&#x2158;" horiz-adv-x="2942" 
d="M767 546v154h-670v295l610 370h307v-483h136v-177h-136v-159h-247zM767 882v279l-466 -279h466zM1936 1365h206l-1135 -1365h-207zM1817 257h247q0 -38 9 -51q16 -24 81 -29q24 -2 175 -5q163 2 197 9q29 6 41 25q14 23 14 78q0 51 -21 72q-27 27 -126 26q-26 -1 -88 1
q-65 1 -105 1q-118 0 -145 -17q-17 -11 -23 -40h-225l7 492h940v-176h-721v-149q34 32 58 42.5t70 14.5q62 5 153 5q293 0 364 -30q80 -33 105 -118q11 -38 11 -105q0 -186 -88 -249q-46 -34 -135.5 -46t-287.5 -12q-314 0 -404 42q-104 47 -104 186q0 12 1 33z" />
    <glyph glyph-name="onesixth" unicode="&#x2159;" horiz-adv-x="2932" 
d="M601 546v612l-301 -201l-121 174l366 234h315v-819h-259zM1929 1365h206l-1136 -1365h-206zM2799 580h-246q-3 46 -56 57q-34 7 -194 7q-158 0 -201 -27q-24 -16 -31 -60q-6 -36 -6 -94v-18q24 37 64 52q57 22 187 22q309 0 377 -23q83 -28 106 -98q15 -47 15 -127
q0 -105 -23 -157q-38 -90 -167 -105q-105 -13 -303 -13q-215 0 -319 19q-101 18 -150 93q-32 50 -36 170q-2 74 -2 167q0 152 19 220q32 114 192 141q110 18 269 18q354 0 427 -45q60 -37 73 -123q5 -28 5 -76zM2327 344q-120 0 -163 -3t-65 -12q-34 -15 -34 -69
q0 -46 25 -65q26 -20 142 -20q248 0 286 11q49 15 49 75q0 56 -38 71q-27 10 -93 11q-92 1 -109 1z" />
    <glyph glyph-name="fivesixth" unicode="&#x215a;" horiz-adv-x="2940" 
d="M115 803h247q0 -37 9 -51q16 -24 81 -29q24 -2 175 -5q163 2 197 9q29 6 41 26q14 23 14 77q0 52 -21 73q-27 27 -126 26q-24 0 -88 1q-61 1 -105 1q-118 0 -145 -17q-17 -11 -23 -40h-225l7 491h940v-176h-721v-148q45 41 81 49q54 12 200 12q292 0 364 -30
q80 -33 105 -118q11 -38 11 -105q0 -187 -88 -250q-61 -44 -208 -53q-93 -5 -215 -5q-313 0 -404 42q-104 47 -104 187q0 12 1 33zM1936 1365h207l-1136 -1365h-207zM2806 580h-246q-3 46 -55 57q-35 7 -195 7q-158 0 -201 -27q-24 -16 -31 -60q-6 -36 -6 -94q0 -4 1 -18
q24 37 64 52q57 22 187 22q308 0 377 -23q83 -28 105 -98q15 -47 15 -127q0 -105 -22 -157q-39 -90 -168 -105q-105 -13 -303 -13q-215 0 -319 19q-101 18 -150 93q-32 50 -36 170q-2 74 -2 167q0 152 19 220q32 114 193 141q109 18 269 18q354 0 427 -45q60 -37 73 -123
q4 -28 4 -76zM2335 344q-120 0 -163 -3t-65 -12q-34 -15 -34 -69q0 -46 25 -65q26 -20 141 -20q248 0 286 11q49 15 49 75q0 56 -38 71q-27 10 -93 11q-91 1 -108 1z" />
    <glyph glyph-name="oneeighth" unicode="&#x215b;" horiz-adv-x="2931" 
d="M601 546v612l-301 -201l-121 174l366 234h315v-819h-259zM1929 1365h206l-1136 -1365h-206zM1969 415q-151 13 -151 185q0 74 17 114q36 82 175 100q64 8 323 8q187 0 270 -7q121 -11 170 -71q37 -45 37 -139q0 -90 -31 -131q-31 -42 -126 -58q94 -15 128 -58
q36 -45 36 -142q0 -162 -122 -197q-43 -13 -114.5 -17.5t-231.5 -4.5q-256 0 -326 4q-116 5 -172 68q-41 47 -41 142q0 96 32 139q29 40 127 65zM2313 335q-180 0 -211 -9q-42 -12 -42 -72q0 -50 30 -62q41 -17 243 -17q165 0 203 16q30 13 30 62q0 51 -29 66q-28 14 -97 15
q-36 1 -127 1zM2318 650q-155 0 -185 -5q-68 -13 -68 -69q0 -46 34 -61q27 -11 101 -13h123h95q81 0 109 15q34 17 34 60q0 57 -67 68q-28 5 -176 5z" />
    <glyph glyph-name="threeeighths" unicode="&#x215c;" horiz-adv-x="2938" 
d="M370 1081h-252q5 129 21 166q36 82 170 106q83 15 324 15q255 0 351 -26q86 -24 114 -94q16 -41 16 -109q0 -101 -44 -141q-31 -27 -108 -41q101 -15 132 -50q37 -41 37 -139q0 -173 -143 -207q-77 -18 -365 -18q-204 0 -274 5q-113 8 -164 44q-76 55 -76 195q0 17 2 57
h246q0 -69 13 -90q15 -23 67 -28q63 -5 177 -5q183 0 219 10q43 11 43 66q0 49 -35 66q-23 11 -119 11h-207v166h197q90 0 115 13q31 16 31 58q0 50 -39 64q-44 15 -205 15q-167 0 -202 -12q-45 -15 -45 -60q0 -15 3 -37zM1935 1365h207l-1136 -1365h-206zM1976 415
q-151 13 -151 185q0 74 17 114q36 82 174 100q65 8 323 8q187 0 270 -7q121 -11 170 -71q37 -45 37 -139q0 -90 -31 -131q-31 -42 -126 -58q94 -15 129 -58q36 -45 36 -142q0 -162 -122 -197q-43 -13 -114.5 -17.5t-231.5 -4.5q-256 0 -326 4q-116 5 -172 68q-41 47 -41 142
q0 96 32 139q29 40 127 65zM2320 335q-180 0 -211 -9q-42 -12 -42 -72q0 -50 30 -62q41 -17 243 -17q165 0 203 16q30 13 30 62q0 51 -29 66q-28 14 -97 15q-36 1 -127 1zM2325 650q-155 0 -185 -5q-68 -13 -68 -69q0 -46 34 -61q26 -11 101 -13h123h95q80 0 109 15
q33 16 33 60q0 57 -66 68q-28 5 -176 5z" />
    <glyph glyph-name="fiveeighths" unicode="&#x215d;" horiz-adv-x="2939" 
d="M115 803h247q0 -37 9 -51q16 -24 81 -29q24 -2 175 -5q163 2 197 9q29 6 41 26q14 23 14 77q0 52 -21 73q-27 27 -126 26q-24 0 -88 1q-61 1 -105 1q-118 0 -145 -17q-17 -11 -23 -40h-225l7 491h940v-176h-721v-148q45 41 81 49q54 12 200 12q292 0 364 -30
q80 -33 105 -118q11 -38 11 -105q0 -187 -88 -250q-61 -44 -208 -53q-93 -5 -215 -5q-313 0 -404 42q-104 47 -104 187q0 12 1 33zM1936 1365h207l-1136 -1365h-207zM1977 415q-151 13 -151 185q0 74 17 114q36 82 174 100q65 8 323 8q187 0 270 -7q121 -11 170 -71
q37 -45 37 -139q0 -90 -31 -131q-31 -42 -126 -58q94 -15 128 -58q36 -45 36 -142q0 -162 -122 -197q-43 -13 -114.5 -17.5t-231.5 -4.5q-256 0 -326 4q-116 5 -172 68q-41 47 -41 142q0 96 32 139q30 40 128 65zM2320 335q-181 0 -211 -9q-42 -12 -42 -72q0 -50 30 -62
q41 -17 243 -17q165 0 203 16q30 13 30 62q0 51 -30 66q-27 14 -96 15q-36 1 -127 1zM2326 650q-156 0 -185 -5q-68 -13 -68 -69q0 -47 34 -61q26 -11 101 -13h123h94q81 0 110 15q33 16 33 60q0 57 -66 68q-28 5 -176 5z" />
    <glyph glyph-name="seveneighths" unicode="&#x215e;" horiz-adv-x="2938" 
d="M248 546l550 611h-686v208h1016v-193l-561 -626h-319zM1935 1365h207l-1136 -1365h-207zM1976 415q-151 13 -151 185q0 74 17 114q36 82 174 100q65 8 323 8q187 0 270 -7q121 -11 170 -71q37 -45 37 -139q0 -90 -31 -131q-31 -42 -126 -58q94 -15 128 -58
q36 -45 36 -142q0 -162 -122 -197q-43 -13 -114.5 -17.5t-231.5 -4.5q-257 0 -326 4q-116 5 -172 68q-41 47 -41 142q0 96 32 139q29 40 128 65zM2319 335q-180 0 -211 -9q-42 -12 -42 -72q0 -50 30 -62q41 -17 243 -17q166 0 203 16q30 13 30 62q0 51 -29 66q-28 14 -97 15
q-36 1 -127 1zM2325 650q-155 0 -185 -5q-68 -13 -68 -69q0 -46 34 -61q26 -11 101 -13h123h94q81 0 110 15q33 16 33 60q0 57 -66 68q-28 5 -176 5z" />
    <glyph glyph-name="arrowleft" unicode="&#x2190;" horiz-adv-x="1365" 
d="M1338 636h-1024q107 -159 107 -212q0 -29 -30 -29q-16 0 -32 17q-8 9 -41 47q-79 91 -245 181q-26 15 -33 21q-13 10 -13 28q0 12 7 20q7 9 39 26q165 91 271 212q30 34 47 34q30 0 30 -29q0 -51 -107 -212h1024v-104z" />
    <glyph glyph-name="arrowup" unicode="&#x2191;" horiz-adv-x="1365" 
d="M631 27v1024q-159 -106 -212 -106q-29 0 -29 30q0 15 17 32q9 8 47 41q91 79 182 244q14 26 20 33q11 13 28 13q12 0 21 -7q8 -7 26 -39q90 -165 211 -270q34 -30 34 -47q0 -30 -29 -30q-52 0 -212 106v-1024h-104z" />
    <glyph glyph-name="arrowright" unicode="&#x2192;" horiz-adv-x="1365" 
d="M27 740h1024q-107 159 -107 212q0 29 30 29q16 0 32 -17q8 -9 41 -47q80 -91 245 -182q26 -14 33 -21q13 -10 13 -27q0 -13 -7 -21t-39 -26q-166 -91 -271 -211q-30 -34 -47 -34q-30 0 -30 29q0 51 107 212h-1024v104z" />
    <glyph glyph-name="arrowdown" unicode="&#x2193;" horiz-adv-x="1365" 
d="M735 1338v-1024q159 107 212 107q29 0 29 -30q0 -16 -17 -32q-9 -8 -47 -41q-91 -80 -182 -245q-16 -30 -24.5 -38t-23.5 -8q-12 0 -21 7q-8 8 -26 39q-90 165 -211 271q-34 30 -34 47q0 30 29 30q51 0 212 -107v1024h104z" />
    <glyph glyph-name="arrowboth" unicode="&#x2194;" horiz-adv-x="1365" 
d="M1051 636h-737q107 -160 107 -212q0 -29 -30 -29q-16 0 -32 17q-8 9 -41 47q-79 91 -245 181q-26 15 -33 21q-13 10 -13 28q0 12 7 20q7 9 39 26q165 91 271 212q30 34 47 34q30 0 30 -29q0 -51 -107 -212h737q-107 159 -107 212q0 29 30 29q16 0 32 -17q8 -9 41 -47
q80 -91 245 -182q26 -14 33 -21q13 -10 13 -27q0 -13 -7 -21t-39 -26q-166 -91 -271 -211q-30 -34 -47 -34q-30 0 -30 29q0 51 107 212z" />
    <glyph glyph-name="arrowupdn" unicode="&#x2195;" horiz-adv-x="1365" 
d="M631 314v737q-159 -106 -212 -106q-29 0 -29 30q0 15 17 32q9 8 47 41q91 79 182 244q14 26 20 33q11 13 28 13q12 0 21 -7q8 -7 26 -39q90 -165 211 -270q34 -30 34 -47q0 -30 -29 -30q-52 0 -212 106v-737q159 107 212 107q29 0 29 -30q0 -16 -17 -32q-9 -8 -47 -41
q-91 -80 -182 -245q-16 -30 -24.5 -38t-23.5 -8q-12 0 -21 7q-8 8 -26 39q-90 165 -211 271q-34 30 -34 47q0 30 29 30q51 0 212 -107z" />
    <glyph glyph-name="arrowupdnbse" unicode="&#x21a8;" horiz-adv-x="1365" 
d="M410 -139h545v-88h-545v88zM631 314v737q-159 -106 -212 -106q-29 0 -29 30q0 15 17 32q9 8 47 41q91 79 182 244q14 26 20 33q11 13 28 13q12 0 21 -7q8 -7 26 -39q90 -165 211 -270q34 -30 34 -47q0 -30 -29 -30q-52 0 -212 106v-737q159 107 212 107q29 0 29 -30
q0 -16 -17 -32q-9 -8 -47 -41q-91 -80 -182 -245q-16 -30 -24.5 -38t-23.5 -8q-12 0 -21 7q-8 8 -26 39q-90 165 -211 271q-34 30 -34 47q0 30 29 30q51 0 212 -107z" />
    <glyph glyph-name="emptyset" unicode="&#x2205;" horiz-adv-x="1266" 
d="M907 1125q45 -31 77 -64q146 -147 146 -351q0 -205 -146 -352q-144 -145 -351 -145q-87 0 -172 31l-110 -217l-100 52l110 215q-45 31 -78 64q-146 148 -146 352q0 205 146 351q144 145 351 145q85 0 174 -31l110 217l98 -51zM854 1022l-341 -675q62 -20 119 -20
q160 0 271 112q113 113 113 271q0 156 -113 270q-20 21 -49 42zM413 397l343 675q-62 20 -121 20q-160 0 -271 -112q-113 -113 -113 -270q0 -191 162 -313z" />
    <glyph glyph-name="minus" unicode="&#x2212;" horiz-adv-x="1884" 
d="M1583 825v-246h-1283v246h1283z" />
    <glyph glyph-name="uni2218" unicode="&#x2218;" 
d="M515 983q113 0 195 -83q83 -84 83 -204q0 -118 -83 -203q-82 -83 -198 -83q-117 0 -199 83q-83 85 -83 203q0 121 83 204q84 83 202 83zM514 886q-79 0 -133 -55q-55 -55 -55 -135q0 -79 55 -134q54 -55 131 -55q75 0 130 55t55 134q0 81 -55 135q-56 55 -128 55z" />
    <glyph glyph-name="orthogonal" unicode="&#x221f;" horiz-adv-x="1225" 
d="M1011 1047v-159h-797v159h797z" />
    <glyph glyph-name="intersection" unicode="&#x2229;" horiz-adv-x="1342" 
d="M1273 0h-369v607q-3 143 -5 185q-7 100 -45 154q-63 89 -183 89q-81 0 -143 -45q-54 -41 -73 -111q-14 -49 -17 -272v-607h-369v601q0 214 13 311q30 232 228 358q149 95 361 95t360 -95q199 -126 229 -358q13 -103 13 -311v-601z" />
    <glyph glyph-name="union" unicode="&#x222a;" horiz-adv-x="1342" 
d="M69 1365h369v-607q3 -144 5 -185q7 -100 45 -154q63 -89 183 -89q82 0 143 45q55 41 74 111q13 49 17 272v607h368v-601q0 -214 -13 -311q-29 -232 -228 -358q-148 -95 -360 -95q-213 0 -361 95q-199 126 -228 358q-14 105 -14 311v601z" />
    <glyph glyph-name="uni222E" unicode="&#x222e;" 
d="M38 -491l59 347q74 -20 118 -20q48 0 82 30q30 26 34 85q2 23 2 81v53q-83 27 -153 87q-69 61 -111 148q-48 101 -48 212q0 151 84 275q86 128 228 172v63q0 212 81 330q112 165 353 165q83 0 217 -21l-58 -348q-73 21 -121 21q-80 0 -105 -71q-9 -25 -10 -91v-48
q87 -28 147 -80q75 -64 119 -155q47 -100 47 -212q0 -151 -82 -273q-86 -129 -231 -174v-75q0 -131 -17 -207q-31 -149 -146 -236q-103 -79 -276 -79q-102 0 -213 21zM690 816v-562q43 23 74 57q81 91 81 223q0 137 -86 228q-34 36 -69 54zM333 254v562q-40 -22 -70 -55
q-84 -94 -84 -226q0 -138 88 -230q29 -31 66 -51z" />
    <glyph glyph-name="uni2236" unicode="&#x2236;" horiz-adv-x="976" 
d="M665 1277v-330h-353v330h353zM665 458v-330h-353v330h353z" />
    <glyph glyph-name="similar" unicode="&#x223c;" 
d="M199 453l-185 156q40 102 84 168q95 138 236 138q47 0 113 -22q54 -19 114 -42q111 -42 140 -42q65 0 123 112l185 -155q-44 -109 -74 -156q-99 -151 -248 -151q-63 0 -229 66q-102 40 -139 40q-38 0 -68 -32q-23 -25 -52 -80z" />
    <glyph glyph-name="uni2243" unicode="&#x2243;" horiz-adv-x="1952" 
d="M615 712l-136 89q49 119 101 182q75 94 205 94q68 0 214 -56q99 -37 122 -43q31 -7 59 -7q64 0 104 41q21 21 49 69l141 -81q-74 -154 -145 -206q-81 -60 -176 -60q-42 0 -115 24q-50 16 -185 65q-46 17 -84 17q-67 0 -108 -52q-19 -23 -46 -76zM1474 602v-211h-995v211
h995z" />
    <glyph glyph-name="equivalence" unicode="&#x2261;" 
d="M68 1307h887v-340h-887v340zM68 852h887v-339h-887v339zM68 399h887v-340h-887v340z" />
    <glyph glyph-name="dotmath" unicode="&#x22c5;" horiz-adv-x="707" 
d="M557 669v-381h-407v381h407z" />
    <glyph glyph-name="house" unicode="&#x2302;" horiz-adv-x="1538" 
d="M172 0v821l597 672l597 -672v-821h-1194zM276 104h986v672l-493 553l-493 -553v-672z" />
    <glyph glyph-name="revlogicalnot" unicode="&#x2310;" 
d="M446 0h-378v610h887v-340h-509v-270z" />
    <glyph glyph-name="uni2319" unicode="&#x2319;" 
d="M446 610v-270h509v-340h-887v610h378z" />
    <glyph glyph-name="integraltp" unicode="&#x2320;" 
d="M709 -512h-395v1322v192q0 148 23 238q38 143 171 228q107 68 276 68q80 0 199 -20l-59 -348q-53 20 -93 20q-83 0 -111 -71q-11 -26 -11 -115v-1514z" />
    <glyph glyph-name="integralbt" unicode="&#x2321;" 
d="M315 1536h395v-1322v-240q-2 -209 -91 -324q-125 -162 -380 -162q-79 0 -198 20l58 348q54 -20 93 -20q84 0 112 70q11 26 11 116v1514z" />
    <glyph glyph-name="filledbox" unicode="&#x25a0;" horiz-adv-x="1365" 
d="M1365 0h-1365v1365h1365v-1365z" />
    <glyph glyph-name="uni25A1" unicode="&#x25a1;" horiz-adv-x="1365" 
d="M1365 0h-1365v1365h1365v-1365zM1269 96v1173h-1173v-1173h1173z" />
    <glyph glyph-name="H18551" unicode="&#x25ab;" horiz-adv-x="1225" 
d="M694 1047h317v-159h-317v-282h-164v282h-316v159h316v281h164v-281z" />
    <glyph glyph-name="filledrect" unicode="&#x25ac;" horiz-adv-x="1365" 
d="M1365 1024v-683h-1365v683h1365z" />
    <glyph glyph-name="uni25AE" unicode="&#x25ae;" horiz-adv-x="1365" 
d="M1024 0h-683v1365h683v-1365z" />
    <glyph glyph-name="uni25AF" unicode="&#x25af;" horiz-adv-x="1365" 
d="M1024 0h-683v1365h683v-1365zM928 96v1173h-491v-1173h491z" />
    <glyph glyph-name="triagup" unicode="&#x25b2;" horiz-adv-x="1365" 
d="M1297 137h-1229l614 1150z" />
    <glyph glyph-name="uni25B3" unicode="&#x25b3;" horiz-adv-x="1365" 
d="M1297 137h-1229l615 1150zM189 208h987l-493 923z" />
    <glyph glyph-name="uni25B4" unicode="&#x25b4;" 
d="M955 300h-887l444 830z" />
    <glyph glyph-name="uni25B5" unicode="&#x25b5;" 
d="M19 300l443 830l445 -830h-888zM819 351l-357 667l-356 -667h713z" />
    <glyph glyph-name="uni25B8" unicode="&#x25b8;" 
d="M146 243v887l830 -443z" />
    <glyph glyph-name="uni25B9" unicode="&#x25b9;" 
d="M146 1130l830 -442l-830 -445v887zM197 330l667 358l-667 355v-713z" />
    <glyph glyph-name="triagrt" unicode="&#x25ba;" horiz-adv-x="1365" 
d="M1301 689l-1158 -409v819z" />
    <glyph glyph-name="uni25BB" unicode="&#x25bb;" horiz-adv-x="1365" 
d="M1302 689l-1159 -409v819zM1015 689l-776 275v-549z" />
    <glyph glyph-name="triagdn" unicode="&#x25bc;" horiz-adv-x="1365" 
d="M68 1229h1229l-615 -1150z" />
    <glyph glyph-name="uni25BE" unicode="&#x25be;" 
d="M68 1065h887l-443 -830z" />
    <glyph glyph-name="uni25BF" unicode="&#x25bf;" 
d="M19 1066h888l-445 -830zM819 1015h-713l356 -667z" />
    <glyph glyph-name="uni25C2" unicode="&#x25c2;" 
d="M878 243l-830 444l830 443v-887z" />
    <glyph glyph-name="uni25C3" unicode="&#x25c3;" 
d="M878 1130l-1 -887l-829 445zM827 330v713l-667 -355z" />
    <glyph glyph-name="triaglf" unicode="&#x25c4;" horiz-adv-x="1365" 
d="M63 689l1158 410v-819z" />
    <glyph glyph-name="uni25C5" unicode="&#x25c5;" horiz-adv-x="1365" 
d="M63 689l1159 410v-819zM350 689l776 -274v549z" />
    <glyph glyph-name="circle" unicode="&#x25cb;" horiz-adv-x="1365" 
d="M682 1207q222 0 380 -156q154 -153 154 -375q0 -139 -77 -265q-79 -127 -213 -195q-115 -58 -243 -58q-222 0 -379 156q-154 154 -154 369q0 144 77 271q76 125 213 195q114 58 242 58zM682 1113q-180 0 -309 -127q-127 -124 -127 -303t127 -304q129 -127 310 -127
t310 127q127 125 127 298q0 188 -127 309q-132 127 -311 127z" />
    <glyph glyph-name="H18533" unicode="&#x25cf;" horiz-adv-x="1365" 
d="M682 1207q222 0 380 -156q154 -153 154 -375q0 -139 -77 -265q-79 -127 -213 -195q-115 -58 -243 -58q-222 0 -379 156q-154 154 -154 369q0 144 77 271q76 125 213 195q114 58 242 58z" />
    <glyph glyph-name="invbullet" unicode="&#x25d8;" horiz-adv-x="1365" 
d="M0 0v1365h1365v-1365h-1365zM686 969q-120 0 -202 -83q-83 -84 -83 -204q0 -119 83 -203q82 -83 199 -83q116 0 198 83q83 85 83 204q0 121 -83 203q-84 83 -195 83z" />
    <glyph glyph-name="invcircle" unicode="&#x25d9;" horiz-adv-x="1365" 
d="M682 1113q181 0 311 -127q127 -124 127 -309q0 -173 -127 -297q-129 -127 -311 -127q-181 0 -310 127q-127 125 -127 303q0 182 127 303q133 127 310 127zM1365 0h-1365v1365h1365v-1365zM681 1207q-220 0 -377 -156q-154 -153 -154 -368t154 -369q157 -156 378 -156
q222 0 379 156q74 74 114 171q40 95 40 191q0 225 -154 375q-161 156 -380 156z" />
    <glyph glyph-name="openbullet" unicode="&#x25e6;" 
d="M515 983q113 0 195 -83q83 -84 83 -204q0 -118 -83 -203q-82 -83 -198 -83q-117 0 -199 83q-83 85 -83 203q0 121 83 204q84 83 202 83zM514 886q-79 0 -133 -55q-55 -55 -55 -135q0 -79 55 -134q54 -55 131 -55q75 0 130 55t55 134q0 81 -55 135q-56 55 -128 55z" />
    <glyph glyph-name="uni2605" unicode="&#x2605;" horiz-adv-x="1605" 
d="M1537 968l-453 -329l173 -534l-455 330l-454 -330l174 534l-454 329h561l175 534l173 -534h560z" />
    <glyph glyph-name="smileface" unicode="&#x263a;" horiz-adv-x="1365" 
d="M491 954q36 0 63 -26q26 -27 26 -64t-26 -64q-27 -26 -64 -26t-63 26q-27 27 -27 64q0 38 27 64t64 26zM876 954q36 0 63 -26q26 -27 26 -64t-26 -64q-27 -26 -64 -26t-63 26q-27 27 -27 64q0 38 27 64t64 26zM262 762q25 -109 85 -182q120 -144 337 -144t337 144
q59 73 85 182q-17 -225 -103 -331q-117 -143 -319 -143q-223 0 -338 169q-69 101 -84 305zM691 1331q260 0 449 -189q92 -92 142 -212q49 -120 49 -248q0 -181 -96 -338q-97 -159 -260 -241q-136 -69 -292 -69q-270 0 -458 189q-92 92 -141 212q-50 120 -50 246
q0 183 96 340q94 157 260 241q135 69 301 69zM690 1246q-241 0 -405 -164q-166 -166 -166 -401q0 -231 166 -398q163 -164 398 -164q234 0 397 164q166 167 166 399q0 158 -83 295q-82 135 -226 209q-118 60 -247 60z" />
    <glyph glyph-name="invsmileface" unicode="&#x263b;" horiz-adv-x="1365" 
d="M691 1331q260 0 449 -189q92 -91 142 -212q49 -120 49 -247q0 -182 -96 -339q-97 -159 -260 -241q-135 -69 -292 -69q-270 0 -458 189q-92 92 -141 212q-50 120 -50 246q0 183 96 341q94 156 260 240q135 69 301 69zM491 954q-38 0 -64 -26q-27 -27 -27 -64t27 -64
q26 -26 63 -26t64 26q26 27 26 64q0 38 -26 64q-28 26 -63 26zM876 954q-38 0 -64 -27q-27 -26 -27 -64q0 -37 27 -64q26 -26 63 -26t64 26q26 27 26 64q0 39 -26 64q-28 27 -63 27zM262 762q16 -224 103 -331q116 -143 319 -143q223 0 338 169q69 101 84 305
q-25 -109 -85 -181q-120 -145 -337 -145t-337 145q-60 72 -85 181z" />
    <glyph glyph-name="sun" unicode="&#x263c;" horiz-adv-x="1365" 
d="M326 968l-153 152l72 72l154 -153q104 81 232 98v215h103v-216q133 -18 233 -96l153 152l72 -72l-153 -152q78 -101 96 -232h216v-105h-216q-17 -132 -96 -233l153 -153l-72 -72l-153 153q-103 -79 -233 -97v-215h-103v216q-119 13 -233 95l-153 -152l-72 72l152 152
q-79 102 -94 234h-216v105h215q18 129 96 232zM688 1010q-150 0 -248 -108q-84 -93 -84 -216q0 -148 108 -246q93 -84 219 -84q145 0 242 108q84 94 84 220q0 143 -108 242q-92 84 -213 84z" />
    <glyph glyph-name="female" unicode="&#x2640;" horiz-adv-x="1365" 
d="M732 0h-98v341h-332v88h332v216q-93 14 -166 67q-73 52 -113 133q-41 80 -41 170q0 156 110 266q108 108 259 108t259 -108q110 -110 110 -266q0 -122 -71 -221q-91 -125 -249 -149v-216h332v-88h-332v-341zM683 1293q-112 0 -192 -80q-81 -81 -81 -195q0 -119 81 -201
q80 -80 193 -80q111 0 191 80q81 82 81 198q0 118 -81 198q-82 80 -192 80z" />
    <glyph glyph-name="uni2641" unicode="&#x2641;" horiz-adv-x="1365" 
d="M692 1229q140 0 264 -73q127 -75 200 -200q73 -126 73 -273q0 -146 -73 -273t-200 -200t-273 -73t-273 73q-127 74 -200 200q-73 128 -73 277q0 236 181 401q154 141 374 141zM717 717h442q-14 193 -156 321q-121 109 -286 121v-442zM649 717v442q-193 -15 -321 -156
q-109 -121 -122 -286h443zM717 649v-443q193 15 321 157q109 121 121 286h-442zM649 649h-443q15 -193 157 -321q121 -109 286 -122v443z" />
    <glyph glyph-name="male" unicode="&#x2642;" horiz-adv-x="1365" 
d="M789 781l310 310q-108 25 -217 82q-44 23 -44 48q0 24 27 24q12 0 41 -6q87 -17 170 -17q113 0 216 27q11 3 20 3q21 0 21 -22q0 -8 -7 -32q-24 -90 -24 -192q0 -85 19 -173q6 -29 6 -40q0 -28 -26 -28q-20 0 -40 31q-67 100 -94 227l-311 -311q72 -103 72 -223
q0 -156 -109 -266q-108 -108 -259 -108q-152 0 -260 108q-109 110 -109 266t109 266q108 108 259 108q123 0 230 -82zM560 767q-112 0 -192 -80q-81 -81 -81 -195q0 -119 81 -201q80 -80 192 -80q111 0 191 80q81 82 81 198q0 118 -81 198q-82 80 -191 80z" />
    <glyph glyph-name="spade" unicode="&#x2660;" horiz-adv-x="1365" 
d="M1148 0h-932v38q183 33 258 85q186 128 195 399q-30 -70 -70 -112q-91 -97 -217 -97q-102 0 -175 71q-77 76 -77 187q0 120 103 238q42 48 155 142q136 113 214 242q53 88 80 211q29 -134 94 -232q77 -118 201 -221q128 -108 175 -166q83 -105 83 -214q0 -111 -77 -187
q-73 -71 -175 -71q-82 0 -158 48q-82 51 -129 161q5 -161 72 -268q87 -143 254 -189q50 -13 126 -27v-38z" />
    <glyph glyph-name="club" unicode="&#x2663;" horiz-adv-x="1365" 
d="M1149 0h-932v38q126 23 192 50q113 46 188 165q67 108 72 308q-147 -261 -363 -261q-126 0 -213 91q-87 90 -87 220q0 124 76 211q79 90 193 90q56 0 122 -31q12 -5 55 -27q-72 108 -72 203q0 123 90 209q89 85 213 85t213 -85q90 -86 90 -209q0 -95 -73 -203
q50 25 68 33q55 25 109 25q115 0 194 -90q76 -87 76 -211q0 -130 -87 -220q-88 -91 -213 -91q-216 0 -363 261q3 -129 27 -211q36 -119 139 -205q77 -64 228 -96q17 -4 58 -11v-38z" />
    <glyph glyph-name="heart" unicode="&#x2665;" horiz-adv-x="1365" 
d="M683 -22q-35 135 -98 245q-73 126 -166 251l-118 160q-91 123 -126 186q-60 110 -60 211q0 120 79 200q75 77 186 77q123 0 211 -93q55 -59 92 -172q36 129 109 194q82 74 188 74q119 0 198 -85q73 -80 73 -195q0 -125 -99 -285q-34 -57 -180 -246q-108 -139 -163 -232
q-91 -155 -126 -290z" />
    <glyph glyph-name="diamond" unicode="&#x2666;" horiz-adv-x="1365" 
d="M163 683q269 304 520 736q250 -432 519 -736q-269 -305 -519 -736q-251 431 -520 736z" />
    <glyph glyph-name="musicalnote" unicode="&#x266a;" horiz-adv-x="1365" 
d="M626 1365h93v-124q25 -33 137 -167q186 -222 186 -459q0 -192 -116 -333h-58q67 158 67 296q0 198 -116 310q-48 46 -100 54v-609q0 -138 -58 -221q-51 -73 -135 -107q-56 -23 -113 -23q-79 0 -117 44q-28 32 -28 80q0 74 53 141q74 95 196 95q57 0 109 -23v1046z" />
    <glyph glyph-name="musicalnotedbl" unicode="&#x266b;" horiz-adv-x="1365" 
d="M440 1320l780 -115v-912q0 -139 -58 -222q-51 -72 -135 -107q-56 -23 -114 -23q-79 0 -117 44q-28 32 -28 80q0 75 53 142q75 95 197 95q56 0 109 -23v751l-594 90v-713q0 -138 -58 -221q-51 -73 -135 -107q-56 -23 -113 -23q-79 0 -117 44q-28 32 -28 80q0 75 53 142
q74 95 196 95q56 0 109 -23v926z" />
    <glyph glyph-name="uni266C" unicode="&#x266c;" horiz-adv-x="1365" 
d="M399 1202l862 220v-1015q0 -138 -58 -221q-51 -73 -135 -107q-56 -23 -114 -23q-78 0 -117 44q-28 32 -28 80q0 74 53 141q75 95 197 95q56 0 109 -23v554l-676 -185v-470q0 -138 -58 -221q-51 -73 -135 -107q-56 -23 -113 -23q-79 0 -117 43q-28 33 -28 81q0 74 53 141
q74 95 196 95q55 0 109 -22v923zM492 918l676 185v142l-676 -185v-142z" />
    <glyph glyph-name="ff" unicode="&#xfb00;" horiz-adv-x="1939" 
d="M1172 956v31q0 157 38 233q61 125 226 154q74 13 227 13q75 0 194 -8v-231q-93 3 -137 3q-119 0 -162 -44q-34 -34 -34 -122v-29h354v-240h-354v-716h-352v716h-534v-716h-352v716h-190v240h190v31q0 158 38 233q61 125 226 154q74 13 227 13q75 0 193 -8v-231
q-93 3 -137 3q-118 0 -161 -44q-34 -34 -34 -122v-29h534z" />
    <glyph glyph-name="ffi" unicode="&#xfb03;" horiz-adv-x="2560" 
d="M1172 956v31q0 157 38 233q61 125 226 154q74 13 227 13q75 0 194 -8v-231q-93 3 -137 3q-119 0 -162 -44q-34 -34 -34 -122v-29h354v-240h-354v-716h-352v716h-534v-716h-352v716h-190v240h190v31q0 158 38 233q61 125 226 154q74 13 227 13q75 0 193 -8v-231
q-93 3 -137 3q-118 0 -161 -44q-34 -34 -34 -122v-29h534zM2058 0v956h352v-956h-352zM2058 1102v263h352v-263h-352z" />
    <glyph glyph-name="ffl" unicode="&#xfb04;" horiz-adv-x="2560" 
d="M1172 956v31q0 157 38 233q61 125 226 154q74 13 227 13q75 0 194 -8v-231q-93 3 -137 3q-119 0 -162 -44q-34 -34 -34 -122v-29h354v-240h-354v-716h-352v716h-534v-716h-352v716h-190v240h190v31q0 158 38 233q61 125 226 154q74 13 227 13q75 0 193 -8v-231
q-93 3 -137 3q-118 0 -161 -44q-34 -34 -34 -122v-29h534zM2058 0v1365h352v-1365h-352z" />
    <glyph glyph-name="eight.numerator" horiz-adv-x="860" 
d="M175 1088q-55 14 -73 50q-15 29 -15 76q0 96 59 127q38 20 124 24q38 2 176 2q196 0 252 -19q77 -26 77 -131q0 -62 -22 -91q-19 -24 -69 -36q49 -11 70 -37q26 -31 26 -98q0 -112 -86 -136q-52 -15 -242 -15q-179 0 -221 2q-150 8 -150 146q0 66 23 96q18 24 71 40z
M435 1032q-95 0 -127 -2q-31 -2 -41 -17q-7 -10 -7 -32q0 -31 19 -39q27 -11 156 -11q122 0 146 10q19 8 19 39q0 32 -18 41q-21 11 -147 11zM434 1244q-106 0 -127 -4q-43 -8 -43 -43q0 -36 41 -43q19 -3 132 -3h66q53 0 73 10q21 10 21 37q0 36 -43 43q-19 3 -120 3z" />
    <glyph glyph-name="nine.numerator" horiz-adv-x="860" 
d="M80 974h177q2 -25 14 -30q16 -9 159 -9q120 0 146 13q16 9 20 34q1 6 2 63q-40 -29 -90 -32q-49 -3 -118 -3q-109 0 -157 5q-92 11 -125 69q-19 34 -19 97q0 129 75 162q59 25 254 25q165 0 231 -11q66 -12 101 -60q31 -42 31 -193q0 -121 -10 -170.5t-40 -77.5
q-35 -34 -90 -42q-76 -11 -241 -11q-195 0 -248 22q-73 29 -73 118q0 10 1 31zM418 1240q-102 0 -125 -9q-23 -10 -23 -46q0 -32 16 -41t147 -9q126 0 147 8q20 9 20 44q0 43 -46 49q-23 4 -136 4z" />
    <glyph glyph-name="zerozero.afrac" horiz-adv-x="854" 
d="M854 740v-115h-854v115h854zM431 1369q142 0 212 -10q111 -17 137 -107q15 -54 15 -165q0 -109 -13 -163q-22 -95 -126 -111q-68 -11 -217 -11q-192 0 -251 10q-98 17 -119 118q-10 52 -10 158q0 143 31 196q34 58 128 74q65 11 213 11zM427 1226q-133 0 -159 -21
q-26 -20 -26 -122q0 -94 20 -113q24 -23 170 -23q100 0 132 10q36 10 44 42q5 22 5 90q0 92 -19 113q-23 24 -167 24zM431 564q142 0 212 -10q111 -17 137 -108q15 -53 15 -164q0 -110 -13 -164q-22 -95 -126 -111q-68 -11 -217 -11q-192 0 -251 10q-98 17 -119 118
q-10 52 -10 158q0 144 31 197q34 58 128 74q65 11 213 11zM427 421q-133 0 -159 -21q-26 -20 -26 -123q0 -93 20 -113q24 -23 170 -23q100 0 132 10q36 10 44 42q5 23 5 90q0 93 -19 113q-24 25 -167 25z" />
    <glyph glyph-name="four.numerator" horiz-adv-x="862" 
d="M528 806v103h-460v204l421 252h216v-326h94v-127h-94v-106h-177zM528 1039v179l-303 -179h303z" />
    <glyph glyph-name="zero.denominator" horiz-adv-x="860" 
d="M434 564q142 0 212 -10q111 -17 137 -108q15 -53 15 -164q0 -110 -13 -164q-22 -95 -126 -111q-68 -11 -217 -11q-192 0 -251 10q-98 17 -118 118q-11 52 -11 158q0 144 31 197q34 58 128 74q65 11 213 11zM430 421q-133 0 -159 -21q-26 -20 -26 -123q0 -93 20 -113
q24 -23 170 -23q100 0 132 10q36 10 44 42q5 23 5 90q0 93 -19 113q-24 25 -167 25z" />
    <glyph glyph-name="three.numerator" horiz-adv-x="862" 
d="M263 1166h-181q4 92 15 117q25 57 119 74q57 10 228 10q170 0 237 -18q61 -16 81 -65q11 -28 11 -76q0 -69 -31 -96q-19 -17 -56 -25q53 -11 73 -32q26 -28 26 -95q0 -121 -101 -144q-54 -12 -249 -12q-143 0 -191 3q-115 8 -147 67q-21 39 -21 97q0 14 2 43h175
q1 -12 1 -27q1 -32 16 -42q22 -14 157 -14q125 0 149 6q27 7 27 41q0 31 -22 42q-15 7 -80 7h-146v119h139q61 0 77 8q19 9 19 36q0 30 -24 39q-30 10 -142 10q-111 0 -135 -8q-29 -9 -29 -36q0 -12 3 -29z" />
    <glyph glyph-name="two.numerator" horiz-adv-x="862" 
d="M778 932v-126h-694v166q0 89 67 121q36 18 136 25l221 15q61 5 76 14q15 10 15 42q0 35 -19 43q-17 8 -149 8q-116 0 -140 -9q-31 -11 -31 -57v-23h-176v53q0 98 51 128q43 26 152 32q63 3 153 3q127 0 197 -6q91 -9 122 -64q20 -35 20 -108q0 -69 -15 -102
q-28 -59 -118 -75q-29 -5 -79 -8l-219 -13q-61 -5 -75 -12t-14 -34q0 -5 1 -13h518z" />
    <glyph glyph-name="one.numerator" horiz-adv-x="857" 
d="M415 806v409l-204 -133l-88 123l256 160h221v-559h-185z" />
    <glyph glyph-name="commareversed" 
d="M552 1089l-224 128l231 271l137 -74z" />
    <glyph glyph-name="nine.denominator" horiz-adv-x="860" 
d="M80 169h177q2 -25 14 -31q16 -9 159 -9q120 0 146 14q16 8 20 34q1 6 2 63q-40 -29 -90 -32q-49 -3 -118 -3q-109 0 -157 5q-92 11 -125 69q-19 34 -19 97q0 129 75 162q59 25 254 25q166 0 231 -11q66 -12 101 -60q31 -42 31 -193q0 -114 -9 -167q-17 -107 -131 -124
q-76 -11 -241 -11q-195 0 -248 22q-73 30 -73 118q0 10 1 32zM418 435q-102 0 -125 -9q-23 -10 -23 -46q0 -32 16 -41t147 -9q126 0 147 8q20 9 20 44q0 43 -46 49q-23 4 -136 4z" />
    <glyph glyph-name="eight.denominator" horiz-adv-x="860" 
d="M175 283q-55 14 -73 49q-15 29 -15 76q0 97 59 128q38 20 124 24q38 2 176 2q197 0 252 -19q77 -26 77 -131q0 -62 -22 -91q-19 -25 -69 -36q49 -12 70 -37q26 -32 26 -99q0 -112 -86 -136q-51 -15 -242 -15q-179 0 -221 2q-150 8 -150 146q0 66 23 96q18 24 71 41z
M435 226q-95 0 -127 -2q-31 -2 -41 -17q-7 -10 -7 -32q0 -31 19 -39q26 -11 156 -11q122 0 146 10q19 8 19 39q0 32 -18 41q-21 11 -147 11zM434 439l-52 -1q-71 -1 -92 -7q-26 -9 -26 -39q0 -37 41 -43q22 -4 132 -3h66q54 0 73 9q21 11 21 38q0 35 -43 42q-21 4 -120 4z
" />
    <glyph glyph-name="dieresis.alt" 
d="M464 1346v-213h-257v213h257zM816 1346v-213h-257v213h257z" />
    <glyph glyph-name="comma.high" 
d="M681 1365v-205q0 -75 -5 -101q-11 -54 -66 -87q-51 -30 -176 -30h-74v123q18 -1 26 -1q39 0 60 14q28 18 28 50q0 9 -2 22h-112v215h321z" />
    <glyph glyph-name="commaaccent" 
d="M681 -108v-205q0 -75 -5 -101q-11 -54 -66 -87q-50 -30 -176 -30h-74v122h26q39 0 60 14q28 18 28 50q0 8 -2 22h-112v215h321z" />
    <glyph glyph-name="periodsuperior" horiz-adv-x="468" 
d="M367 785v-238h-265v238h265z" />
    <glyph glyph-name="commasuperior" horiz-adv-x="436" 
d="M353 784v-221q0 -76 -5 -105q-9 -60 -58 -96q-44 -32 -155 -32h-82v141q24 -2 36 -2q73 0 73 60v17h-77v238h268z" />
    <glyph glyph-name="seven.denominator" horiz-adv-x="862" 
d="M167 0l378 413h-467v147h705v-135l-388 -425h-228z" />
    <glyph glyph-name="ahungarumlaut" horiz-adv-x="1552" 
d="M1050 0v169q-19 -62 -46 -96q-54 -67 -190 -85q-80 -10 -207 -10q-178 0 -276 16q-143 25 -192 122q-30 60 -30 172q0 146 56 214q55 66 157 86q104 20 376 20q151 0 219 -17q69 -18 99 -57q12 -16 24 -46v106q0 106 -40 132q-33 22 -125 27q-71 4 -129 4q-79 0 -140 -3
q-65 -2 -90 -30q-12 -15 -16 -45h-351q5 94 36 145q44 71 155 113q72 28 223 36q108 5 246 5q180 0 299 -14q200 -25 262 -163q32 -69 32 -139v-68v-594h-352zM736 412q-151 0 -209 -16q-70 -19 -70 -91q0 -84 108 -102q33 -6 199 -6q161 0 214 16q68 20 68 93q0 82 -105 98
q-55 8 -205 8zM784 1495l153 -201l-431 -228l-102 130zM1270 1495l153 -201l-431 -228l-102 130z" />
    <glyph glyph-name="Dieresis.alt" 
d="M464 1757v-239h-316v239h316zM875 1757v-239h-316v239h316z" />
    <glyph glyph-name="Comma.high" 
d="M958 1365v-220q0 -78 -6 -106q-11 -59 -70 -94q-53 -31 -188 -31h-79v130h28q42 0 65 15q29 19 29 53q0 8 -2 23h-120v230h343z" />
    <glyph glyph-name="commaaccent.sc" 
d="M681 -108v-220q0 -79 -6 -107q-11 -58 -70 -93q-53 -32 -188 -32h-79v131q20 -1 28 -1q42 0 65 16q29 20 29 52q0 9 -2 24h-120v230h343z" />
    <glyph glyph-name="Macron" 
d="M978 1753v-221h-932v221h932z" />
    <glyph glyph-name="Ogonek" 
d="M717 0h239q-87 -54 -111 -71q-46 -33 -80 -80q-32 -42 -32 -78q0 -38 35 -67q27 -22 85 -22q43 0 103 16v-186q-68 -15 -123 -15q-121 0 -203 52q-58 37 -89 100q-24 47 -24 96q0 100 92 185q39 36 108 70z" />
    <glyph glyph-name="Cedilla" 
d="M461 -75l245 -135l-224 -278l-164 74z" />
    <glyph glyph-name="Hungarumlaut" horiz-adv-x="1300" 
d="M564 1896l160 -211l-451 -239l-107 137zM1106 1896l160 -211l-451 -239l-107 137z" />
    <glyph glyph-name="six.denominator" horiz-adv-x="861" 
d="M766 391h-175q-1 25 -17 32q-24 11 -149 11q-109 0 -138 -18q-17 -10 -21 -38q-1 -9 -4 -64q37 30 64 36q35 7 135 7q183 0 231 -16q59 -20 74 -68q11 -32 11 -87q0 -72 -16 -107q-28 -63 -118 -73q-72 -9 -211 -9q-145 0 -217 13q-71 12 -105 64q-23 34 -25 117
q-2 49 -2 113q0 102 13 149q22 79 135 98q75 12 186 12q244 0 295 -31q55 -33 55 -127q0 -4 -1 -14zM439 232q-132 0 -155 -10q-21 -8 -21 -43q0 -49 56 -52q126 -7 228 2q33 3 45 17q8 11 8 33q0 36 -23 45q-20 8 -138 8z" />
    <glyph glyph-name="Tilde" 
d="M817 1811l183 -71q-29 -76 -74 -133q-43 -55 -84 -81q-51 -34 -124 -34q-77 0 -213 53q-134 52 -183 52q-77 0 -115 -98l-183 71q36 83 72 133q81 114 208 114q66 0 160 -29q26 -8 162 -57q46 -17 88 -17q71 0 103 97z" />
    <glyph glyph-name="Breve" horiz-adv-x="1098" 
d="M68 1810h260q4 -69 28 -109q32 -54 192 -54q92 0 144 17q59 19 73 103q3 17 5 43h260q-19 -156 -78 -232q-57 -74 -193 -98q-72 -13 -210 -13q-198 0 -292 35q-128 47 -169 191q-11 40 -20 117z" />
    <glyph glyph-name="Caron" 
d="M512 1472l-489 247l72 130l417 -115l415 115l73 -130z" />
    <glyph glyph-name="five.denominator" horiz-adv-x="862" 
d="M80 181h177v-13q0 -18 8 -26q14 -13 62 -16q11 -1 123 -3q119 2 137 13q19 11 19 60q0 33 -13 46q-18 17 -84 16q-17 0 -61 1q-41 1 -71 1q-82 0 -99 -11q-12 -8 -16 -28h-160l5 339h653v-126h-496v-87q37 29 84 33q43 3 110 3q197 0 247 -20q82 -34 82 -155
q0 -127 -62 -171q-43 -31 -145 -36q-65 -4 -147 -4q-218 0 -280 28q-73 34 -73 130v26z" />
    <glyph glyph-name="Circumflex" 
d="M512 1849l488 -247l-73 -130l-415 114l-417 -114l-72 130z" />
    <glyph glyph-name="Grave" 
d="M223 1860l548 -239l-62 -149l-571 131z" />
    <glyph glyph-name="Dbreve" horiz-adv-x="2156" 
d="M177 0v1365h1181q182 0 305 -22q189 -33 272 -181q39 -71 53 -178q17 -128 17 -302q0 -210 -19 -343q-20 -130 -110 -223q-73 -75 -179 -96q-98 -20 -285 -20h-1235zM593 325h697q118 0 169 16q100 31 118 154q10 68 10 184q0 148 -23 219q-27 87 -112 112
q-57 16 -155 16h-704v-701zM597 1810h260q4 -69 28 -109q32 -54 192 -54q92 0 144 17q58 19 73 103q2 17 4 43h260q-18 -156 -77 -232q-57 -74 -193 -98q-73 -13 -210 -13q-198 0 -293 35q-127 47 -168 191q-11 40 -20 117z" />
    <glyph glyph-name="four.denominator" horiz-adv-x="862" 
d="M528 0v103h-460v205l421 252h216v-327h94v-126h-94v-107h-177zM528 233v179l-303 -179h303z" />
    <glyph glyph-name="zero.numerator" horiz-adv-x="860" 
d="M434 1369q142 0 212 -10q111 -17 137 -107q15 -54 15 -165q0 -108 -12 -158.5t-43 -78.5q-43 -38 -151 -44q-56 -4 -150 -4q-192 0 -251 10q-98 17 -118 118q-11 52 -11 158q0 143 31 196q34 58 128 74q65 11 213 11zM430 1226q-133 0 -159 -21q-26 -20 -26 -122
q0 -94 20 -113q25 -23 170 -23q100 0 132 10q36 10 44 42q5 22 5 90q0 92 -19 113q-23 24 -167 24z" />
    <glyph glyph-name="three.denominator" horiz-adv-x="862" 
d="M263 361h-181q4 92 15 117q25 57 119 74q57 10 228 10q170 0 237 -18q61 -16 81 -65q11 -28 11 -76q0 -70 -31 -97q-19 -17 -56 -25q53 -11 73 -32q26 -28 26 -95q0 -121 -101 -144q-54 -12 -249 -12q-143 0 -191 3q-115 8 -147 67q-21 39 -21 97q0 14 2 43h175
q1 -12 1 -27q1 -32 16 -42q22 -14 157 -14q125 0 149 6q27 7 27 41q0 31 -22 42q-13 6 -80 7h-146v119h139q67 3 77 8q19 11 19 37q0 30 -24 39q-30 10 -142 10q-111 0 -135 -8q-29 -9 -29 -36q0 -12 3 -29z" />
    <glyph glyph-name="one.denominator" horiz-adv-x="857" 
d="M415 0v410l-204 -134l-88 123l256 161h221v-560h-185z" />
    <glyph glyph-name="two.denominator" horiz-adv-x="862" 
d="M778 126v-126h-694v166q0 90 67 122q36 17 136 25l221 15q61 5 76 14q15 10 15 42q0 35 -19 43q-17 8 -149 8q-116 0 -140 -9q-31 -11 -31 -57v-23h-176v53q0 98 51 128q43 26 152 32q63 3 153 3q127 0 197 -6q91 -9 122 -64q20 -35 20 -108q0 -70 -15 -103
q-28 -59 -118 -75q-29 -5 -79 -8l-219 -13q-62 -5 -72 -11q-17 -10 -17 -35q0 -5 1 -13h518z" />
    <glyph glyph-name="Acute" 
d="M802 1860l85 -257l-571 -131l-62 149z" />
    <glyph glyph-name="Ring" 
d="M522 1862q137 0 220 -50q76 -45 76 -139q0 -108 -94 -163q-76 -44 -224 -44q-118 0 -196 42q-97 53 -97 155q0 61 39 109q71 90 276 90zM511 1742q-137 0 -137 -82q0 -45 37 -60q37 -14 95 -14q71 0 109 18q36 16 36 61q0 77 -140 77z" />
    <glyph glyph-name="Dotaccent" 
d="M699 1760v-246h-375v246h375z" />
    <glyph glyph-name="Dieresis" 
d="M413 1757v-239h-357v239h357zM969 1757v-239h-357v239h357z" />
    <glyph glyph-name="seven.numerator" horiz-adv-x="862" 
d="M167 806l378 412h-467v147h705v-135l-388 -424h-228z" />
    <glyph glyph-name="oneone" horiz-adv-x="2928" 
d="M601 546v612l-301 -201l-121 174l366 234h315v-819h-259zM1929 1365h206l-1136 -1365h-206zM2296 0v612l-301 -201l-121 174l366 234h315v-819h-259z" />
    <glyph glyph-name="six.numerator" horiz-adv-x="861" 
d="M766 1197h-175q-1 25 -17 32q-24 11 -149 11q-109 0 -138 -18q-17 -10 -21 -38q-1 -9 -4 -64q37 30 64 36q35 7 135 7q183 0 231 -16q59 -20 74 -68q11 -32 11 -87q0 -72 -16 -107q-28 -63 -118 -73q-72 -9 -211 -9q-145 0 -217 13q-71 12 -105 64q-23 34 -25 116
q-2 50 -2 113q0 103 13 150q22 78 135 97q75 12 186 12q244 0 295 -31q55 -33 55 -126q0 -4 -1 -14zM439 1038q-131 0 -155 -10q-21 -9 -21 -43q0 -50 56 -53q126 -6 228 3q33 2 45 17q8 11 8 33q0 36 -23 45q-21 8 -138 8z" />
    <glyph glyph-name="five.numerator" horiz-adv-x="862" 
d="M80 986h177v-13q0 -17 8 -25q14 -13 62 -16q11 -1 123 -3q120 2 137 13q19 11 19 59q0 33 -13 46q-18 17 -84 16q-17 0 -61 1q-41 1 -71 1q-82 0 -99 -11q-12 -8 -16 -28h-160l5 339h653v-126h-496v-87q37 29 84 33q43 3 110 3q197 0 247 -20q82 -34 82 -155
q0 -127 -62 -170q-43 -31 -145 -36q-65 -4 -147 -4q-218 0 -280 28q-73 34 -73 130v25z" />
  </font>
</defs>
</svg>
