<?xml version="1.0" standalone="no"?>
<!DOCTYPE svg PUBLIC "-//W3C//DTD SVG 1.1//EN" "http://www.w3.org/Graphics/SVG/1.1/DTD/svg11.dtd" >
<svg xmlns="http://www.w3.org/2000/svg" xmlns:xlink="http://www.w3.org/1999/xlink" version="1.1">
<metadata>
Created by FontForge 20170910 at Tue Jul  5 08:50:00 2016
 By Jimmy Wärting
</metadata>
<defs>
<font id="icomoon" horiz-adv-x="1024" >
  <font-face 
    font-family="icomoon"
    font-weight="400"
    font-stretch="normal"
    units-per-em="1024"
    panose-1="0 0 0 0 0 0 0 0 0 0"
    ascent="960"
    descent="-64"
    bbox="-1 -74 1910 961"
    underline-thickness="0"
    underline-position="0"
    unicode-range="U+0001-FFFD"
  />
<missing-glyph 
 />
    <glyph glyph-name=".notdef" unicode="&#xfffd;" 
 />
    <glyph glyph-name="glyph1" horiz-adv-x="0" 
d="M0 0v0v0v0z" />
    <glyph glyph-name="glyph1" horiz-adv-x="0" 
d="M0 0v0v0v0z" />
    <glyph glyph-name="uni0001" horiz-adv-x="0" 
d="M0 0v0v0v0z" />
    <glyph glyph-name="space" unicode=" " horiz-adv-x="512" 
d="M0 0v0v0v0z" />
    <glyph glyph-name="uniE600" unicode="&#xe600;" horiz-adv-x="1807" 
d="M670 241q-63 0 -107 -44.5t-44 -108.5q0 -63 44 -107.5t107 -44.5q62 0 106 44.5t44 107.5q0 64 -44 108.5t-106 44.5zM670 12q-32 0 -54 22.5t-22 53.5q0 32 22 54.5t54 22.5q31 0 53 -22.5t22 -54.5q0 -31 -22 -53.5t-53 -22.5zM1807 354v-25.5v-56v-56v-25.5
q0 -30 -21.5 -51.5t-51.5 -21.5h-39h-39q-10 73 -66 122.5t-131 49.5t-131 -49.5t-67 -122.5h-61.5h-135.5h-135.5h-61.5q-11 73 -66.5 122.5t-130.5 49.5q-76 0 -131.5 -49.5t-66.5 -122.5h-48.5h-48.5q-30 0 -51.5 21.5t-21.5 51.5v25.5v56v56v25.5h235h517.5h517.5h235v0
v0v0zM1459 241q-63 0 -107 -44.5t-44 -108.5q0 -63 44 -107.5t107 -44.5q62 0 106.5 44.5t44.5 107.5q0 64 -44.5 108.5t-106.5 44.5zM1459 12q-31 0 -53 22.5t-22 53.5q0 32 22 54.5t53 22.5t53 -22.5t22 -54.5q0 -31 -22 -53.5t-53 -22.5zM1778 518l-44.5 44.5l-98 98
l-98.5 98.5l-45 45q-13 13 -31 20.5t-37 7.5h-72h-72v27.5v27.5q0 30 -21 51.5t-52 21.5h-130h-286h-286h-130q-30 0 -51.5 -21.5t-21.5 -51.5v-6v-6l-46 -5.5t-101.5 -12t-101.5 -11.5l-46 -5l81.5 -11t179.5 -24t180 -23.5l82 -10.5l-83 -8.5t-182 -18.5t-182 -18l-83 -8
l82.5 -12t181.5 -26t181.5 -26l82.5 -12l-82.5 -7.5t-181.5 -16t-181.5 -15.5l-82.5 -7l47 -9t104 -20t104 -20l47 -9v-72.5v-72.5h235h517.5h517.5h235v27v27q0 20 -7.5 38t-21.5 32v0zM1654 508h-43.5h-95h-95h-43.5q-5 0 -8 3.5t-3 8.5v33.5v74v74.5v34q0 4 3 7.5t8 3.5
h26.5h26.5q2 0 4 -1l4 -2l35 -33.5t77 -74t76.5 -74.5l34.5 -34q6 -5 3 -12.5t-10 -7.5v0z" />
    <glyph glyph-name="uniE601" unicode="&#xe601;" horiz-adv-x="1164" 
d="M1124 496q-19 19 -42 28t-50 9h-22h-22v27v59v58.5v26.5q0 13 -3.5 28t-10.5 31t-15 28.5t-18 21.5l-52 51l-52 51q-10 9 -23 17t-29 15q-16 6 -31.5 9.5t-28.5 3.5h-72h-158.5h-158h-71.5q-14 0 -25.5 -4.5t-21.5 -14.5q-9 -9 -14 -20.5t-5 -24.5v-56.5v-124.5v-125v-57
h-22h-22q-27 0 -50 -9t-43 -28q-19 -19 -28.5 -41.5t-9.5 -49.5v-43v-95v-95.5v-43.5q0 -4 1.5 -8t4.5 -7t7 -4.5t9 -1.5h76.5h76.5v-53.5v-53.5q0 -13 5 -24.5t14 -20.5q10 -10 21.5 -14.5t25.5 -4.5h102.5h226h226h102.5q14 0 25.5 4.5t21.5 14.5q9 9 14 20.5t5 24.5v53.5
v53.5h76.5h76.5q5 0 8.5 1.5t6.5 4.5q4 3 5.5 7t1.5 8v43.5v95.5v95v43q0 27 -9.5 49.5t-29.5 41.5v0zM900 21h-96h-211h-210.5h-95.5v27v59v58.5v26.5h95.5h210.5h211h96v-26.5v-58.5v-59v-27zM900 448h-96h-211h-210.5h-95.5v66.5v146.5v147v67h68.5h150.5h150.5h68.5
v-53.5v-53.5q0 -13 4.5 -24.5t14.5 -20.5q10 -10 21.5 -14.5t25.5 -4.5h54.5h54.5v-40v-88v-88v-40v0zM1062 375q-6 -6 -14 -9t-16 -3q-9 0 -17 3t-14 9q-7 7 -10 14.5t-3 15.5q0 9 3 16.5t10 13.5q6 7 14 10t17 3q8 0 16 -3t14 -10q7 -6 10 -13.5t3 -16.5q0 -8 -3 -15.5
t-10 -14.5z" />
    <glyph glyph-name="uniE602" unicode="&#xe602;" horiz-adv-x="1152" 
d="M1103 960h-164.5h-362.5h-362.5h-164.5q-21 0 -35 -14.5t-14 -34.5v-116.5v-256.5v-256.5v-116.5q0 -20 14 -34.5t35 -14.5h91h201h201h91l35 -26.5t77.5 -58t77.5 -58l35 -26.5q22 -17 38.5 -8.5t16.5 36.5v70.5v70.5h29.5h65.5h65.5h29.5q20 0 34.5 14.5t14.5 34.5
v116.5v256.5v256.5v116.5q0 20 -14.5 34.5t-34.5 14.5v0zM310 468q-31 0 -53 22t-22 54q0 31 22 53.5t53 22.5t53.5 -22.5t22.5 -53.5q0 -32 -22.5 -54t-53.5 -22zM501 544q0 31 22 53.5t53 22.5t53 -22.5t22 -53.5q0 -32 -22 -54t-53 -22t-53 22t-22 54v0zM842 468
q-31 0 -53.5 22t-22.5 54q0 31 22.5 53.5t53.5 22.5t53 -22.5t22 -53.5q0 -32 -22 -54t-53 -22z" />
    <glyph glyph-name="uniE603" unicode="&#xe603;" horiz-adv-x="1126" 
d="M1056 209h-99h-218h-218h-99v68.5v68.5h99h218h218h99v85v187.5v188v85.5h-99h-218h-218h-99h-33h-72.5h-72.5h-33h-35h-35q0 28 20.5 48t49.5 20h132h290.5h290.5h132q29 0 49.5 -20t20.5 -48v-96v-211.5v-211.5v-96q0 -28 -20.5 -48t-49.5 -20zM634 312
q-15 0 -25.5 -10t-10.5 -25q0 -14 10.5 -24t25.5 -10q14 0 24.5 10t10.5 24q0 15 -10.5 25t-24.5 10zM352 755v-117v-258v-258.5v-117.5q0 -28 -20.5 -48t-49.5 -20h-33h-73h-73h-33q-29 0 -49.5 20t-20.5 48v117.5v258.5v258v117q0 29 20.5 49t49.5 20h33h73h73h33
q29 0 49.5 -20t20.5 -49v0zM106 141q14 0 24.5 10t10.5 24t-10.5 24t-24.5 10q-15 0 -25.5 -10t-10.5 -24t10.5 -24t25.5 -10zM70 550h33h73h73h33v34.5v34.5h-33h-73h-73h-33v-34.5v-34.5v0zM70 687h33h73h73h33v34v34h-33h-73h-73h-33v-34v-34v0zM528 73v34v34h33h72.5
h72.5h33v-34v-34q29 0 50 -20t21 -49h-55h-121h-121h-55q0 29 20.5 49t49.5 20z" />
    <glyph glyph-name="uniE604" unicode="&#xe604;" 
d="M755 656q21 -16 46.5 -25.5t54.5 -9.5q70 0 119 50t49 120t-49 119.5t-119 49.5t-119 -49.5t-49 -119.5v0v0l-65 -32t-143 -69.5t-142.5 -69.5l-64.5 -32q-22 18 -48.5 28t-56.5 10q-70 0 -119 -50t-49 -120t49 -119.5t119 -49.5q25 0 48 7t43 20l67 -32.5t147.5 -71.5
t147.5 -72l67 -33v0v0q0 -70 49 -119.5t119 -49.5t119 49.5t49 119.5t-49 120t-119 50q-29 0 -54.5 -9.5t-46.5 -25.5l-65.5 32t-144 70t-144 70l-65.5 32v4v4l65.5 32t144 70t144 70l65.5 32v0z" />
    <glyph glyph-name="uniE605" unicode="&#xe605;" horiz-adv-x="1650" 
d="M411 175v69.5v153v153v69.5h26h57h57h26l-45 53.5t-99 117t-99 116.5l-45 53l-45.5 -53t-99.5 -116.5t-99 -117l-45 -53.5h26h57h57.5h26.5v-80v-176.5v-176.5v-80q0 -71 48 -121t117 -50h115.5h254.5h254.5h115.5l-33 37.5t-72.5 82t-72.5 82l-33 37.5h-70.5h-155
h-154.5h-70v0zM1483 276v80v176.5v176.5v80q0 71 -48 121t-117 50h-115.5h-254.5h-255h-116l33 -37.5t73 -82t73 -82l33 -37.5h70h154.5h155h70.5v-69.5v-153v-153v-69.5h-26h-57.5h-57.5h-26l45.5 -53.5t99.5 -117t99 -116.5l45 -53l45 53t99.5 116.5t99.5 117l45 53.5h-26
h-57.5h-57.5h-26v0z" />
    <glyph glyph-name="uniE606" unicode="&#xe606;" horiz-adv-x="1365" 
d="M1280 -65h-186.5h-410.5h-411h-187q-35 0 -60 25t-25 60v124.5v274v274v124.5l61.5 -56.5t135 -124.5t134.5 -124.5l61 -56.5l-50 -69t-111 -151.5t-111.5 -151l-50.5 -68.5l68.5 52.5t150 115.5t149.5 115.5l68 52.5l19.5 -18t43 -40t43.5 -40l20 -18q19 -14 35.5 -15
t15.5 -1q17 0 31.5 6.5t21.5 10.5l-0.5 -0.5l-0.5 -0.5q1 1 2 1.5t2 1.5l-1.5 -1.5t-1.5 -0.5l20.5 19t45.5 42t45.5 42l20.5 19l67 -53.5t148 -118t148 -118l67 -53.5l-51.5 68t-113 150t-113 150l-51.5 68l62 57.5t136.5 126.5t136.5 126.5l62 57.5v-125v-274.5v-274.5
v-125q0 -35 -25 -60t-60 -25v0zM0 873q0 36 25 61t60 25h187h411h410.5h186.5q35 0 60 -25t25 -61l-106.5 -76t-234.5 -168t-235 -168l-107 -76l-106.5 76t-234.5 168t-234.5 168l-106.5 76v0z" />
    <glyph glyph-name="uniE607" unicode="&#xe607;" 
d="M1013 740l-48.5 -48.5t-107 -106.5t-107 -106.5l-48.5 -48.5l-13 13l-13 13v0.5v0.5v0v0v0.5v0.5v-0.5v-0.5l-24.5 24.5l-54 54t-54 53.5l-24.5 24v0v0l-13.5 13.5l-13.5 13.5l48.5 48t106.5 106t107 106.5l49 48.5q11 11 26.5 11t26.5 -11l24.5 -24.5t54 -53.5t54 -53.5
l24.5 -24.5q11 -11 11 -26.5t-11 -26.5v0zM635 584q0 -5 2 -9.5t6 -7.5l32 -32.5l32 -32.5l18 17.5l18 17.5l-32.5 32.5l-32.5 32.5q-7 7 -17.5 7t-17.5 -7q-4 -4 -6 -8.5t-2 -9.5v0zM660 709q-7 -7 -7 -17.5t7 -17.5l55 -55l55 -55l17.5 17.5l17.5 17.5l-54.5 55l-54.5 55
q-8 7 -18.5 7t-17.5 -7v0zM796 719q-7 7 -17.5 7t-17.5 -7q-8 -7 -8 -17.5t8 -17.5l32.5 -32l32.5 -32l17.5 17.5l17.5 17.5l-32.5 32l-32.5 32v0zM853 776q-7 7 -17.5 7t-17.5 -7q-4 -3 -5.5 -7.5t-1.5 -9.5t1.5 -10t5.5 -8l32.5 -32.5l32.5 -32.5l17.5 18l17.5 18
l-32.5 32l-32.5 32v0zM905 828q-7 7 -17.5 7t-17.5 -7t-7 -17.5t7 -17.5l32.5 -32.5l32.5 -32.5l17.5 17.5l17.5 17.5l-32.5 32.5l-32.5 32.5v0zM676 420l37.5 -37.5t83 -82.5t83 -82.5l37.5 -37.5q3 -3 19 -32.5t85 -180.5q3 -6 2 -12.5t-6 -11.5q-4 -5 -10.5 -6.5
t-12.5 1.5q-158 63 -189 78.5t-34 17.5l-40.5 40.5t-89.5 89t-89.5 89l-40.5 40.5v0v0l-78 78t-171.5 171t-171 170.5l-77.5 77.5q-13 13 -13 30.5t13 30.5l42 42l42 42q13 13 31 13t30 -13l81 -80.5t178 -177t178 -177l81 -80.5v0v0v0zM959 -2q-18 40 -35 74.5t-27 55.5
l-37 -36.5l-37 -36.5q22 -9 58.5 -24.5t77.5 -32.5v0zM128 905l-42.5 -42.5l-42.5 -42.5l47.5 -47l47.5 -47l42.5 42l42.5 42l-47.5 47.5l-47.5 47.5v0zM300 448l13.5 -13l13.5 -13v0v0l24.5 -24.5t54 -53.5t53.5 -53.5l24 -24.5v0v0l13.5 -13.5l13.5 -13.5l-42.5 -42
t-93.5 -93l-93 -93l-42 -42q-12 -11 -27.5 -11t-26.5 11l-24.5 24t-54 53.5l-54 54l-24.5 24.5q-11 11 -11 26.5t11 26.5l42.5 42.5t93.5 93t93.5 92.5l42.5 42v0zM483 266v0v0v-0.5v-0.5v0.5v0.5v0zM441 241l-30.5 30l-30.5 30q-7 7 -17.5 7t-17.5 -7t-7 -17.5t7 -17.5
l30 -30l30 -30l18 17.5l18 17.5v0zM389 189l-30.5 30l-30.5 30q-7 7 -17.5 7t-17.5 -7q-4 -3 -5.5 -7.5t-1.5 -9.5t1.5 -9.5t5.5 -8.5l30 -30l30 -30l18 17.5l18 17.5v0zM332 133l-6 5.5l-6 5.5l-24.5 24.5l-24.5 24.5q-7 7 -17.5 7t-17.5 -7q-8 -8 -7.5 -18t7.5 -18l30 -30
l30 -30l18 18l18 18v0zM122 143l55 -54.5l55 -54.5l17.5 17.5l17.5 17.5l-54.5 54.5l-54.5 54.5q-7 7 -18 7t-18 -7t-7 -17.5t7 -17.5v0z" />
    <glyph glyph-name="uniE608" unicode="&#xe608;" horiz-adv-x="1182" 
d="M1181 153l-38.5 -34t-85 -74.5t-85.5 -74.5l-39 -34v72.5v72.5h-20.5h-20.5q-50 0 -93 10.5t-81 29.5t-71.5 44.5t-64.5 55.5q24 28 45 55.5t41 53.5q4 6 8.5 12t8.5 12q45 -47 94.5 -75.5t112.5 -28.5h20.5h20.5v60v60l39 -34t85.5 -74.5t85 -74.5l38.5 -34v0zM0 635h62
h62q58 0 105.5 -25.5t90.5 -68.5q7 9 14 18.5t14 19.5q17 23 35.5 47t38.5 49q-30 28 -62.5 51.5t-69 41t-78 27t-88.5 9.5h-62h-62v-26.5v-58v-58v-26.5v0zM933 960v-72v-72h-20.5h-20.5q-82 0 -147.5 -28t-119 -72.5t-98 -100t-85.5 -110.5q-37 -49 -72 -93t-73 -77.5
t-80 -53t-93 -19.5h-62h-62v-26.5v-58v-58v-26.5h62h62q81 0 146.5 28t119 72.5t98.5 100t85 109.5q37 50 72 94t73 77.5t80 53t94 19.5h20.5h20.5v-60.5v-60.5l39 34t85.5 74.5t85 74.5l38.5 34l-38.5 34t-85 74.5t-85.5 74.5l-39 34v0z" />
    <glyph glyph-name="uniE609" unicode="&#xe609;" 
d="M979 -64h-121.5h-267h-266.5h-121q-19 0 -41 10t-34 24l-49 54.5l-49 54.5q-13 14 -21.5 36.5t-8.5 41.5v118.5v261v261v118.5q0 18 13 31t32 13h50.5h50.5q19 0 32 -13t13 -31v-43v-94.5v-94.5v-43q0 -19 13.5 -31.5t31.5 -12.5h83h182h181.5h82.5q19 0 32 12.5t13 31.5
v43v94.5v94.5v43q0 18 13.5 31t31.5 13h62h62q19 0 32 -13t13 -31v-146v-321.5v-322v-146.5q0 -18 -13 -31t-32 -13v0zM670 690h-41.5h-41.5q-19 0 -32 13t-13 31v26.5v58.5v59v27q0 18 13 31t32 13h41.5h41.5q18 0 31.5 -13t13.5 -31v-27v-59v-58.5v-26.5q0 -18 -13.5 -31
t-31.5 -13z" />
    <glyph glyph-name="uniE60A" unicode="&#xe60a;" 
d="M967 904q-28 28 -61.5 42.5t-73.5 14.5h-100h-220h-220h-100q-39 0 -73 -14.5t-62 -42.5t-42 -62t-14 -73v-100.5v-220.5v-220v-100q0 -39 14 -73t42 -62q28 -29 62 -43t73 -14h100h220h220h100q40 0 73.5 14t61.5 43q29 28 43 62t14 73v100v220v220.5v100.5q0 39 -14 73
t-43 62zM866 589l-64 -64l-140.5 -140.5l-140.5 -140.5l-64 -64q-6 -7 -13.5 -10t-16.5 -3t-16.5 3t-13.5 10l-37.5 37t-82 82t-82 82l-37.5 37q-6 7 -9 14.5t-3 15.5q0 9 3 16.5t9 13.5l34 34l34 34q7 7 14.5 10t15.5 3q9 0 16.5 -3t13.5 -10l22 -22t48.5 -48t48.5 -48
l22 -22l48.5 48.5l107 107l107 107l48.5 48.5q6 7 13.5 10t16.5 3t16.5 -3t13.5 -10l34 -34l34 -34q6 -6 9.5 -13.5t3.5 -16.5t-3.5 -16.5t-9.5 -13.5v0z" />
    <glyph glyph-name="uniE60B" unicode="&#xe60b;" horiz-adv-x="559" 
d="M517 -64q7 0 14.5 3t12.5 9q12 11 12 27.5t-12 27.5l-69 69.5t-152.5 152.5t-153 152l-69.5 69l69.5 69.5t153 152.5t152.5 152.5l69 69.5q12 11 12 27t-12 28q-11 11 -27.5 11t-27.5 -11l-74 -73.5t-162.5 -162l-162 -162l-73.5 -73.5q-12 -11 -12 -27.5t12 -27.5
l73.5 -73.5l162 -162t162.5 -162l74 -73.5q6 -6 13 -9t15 -3v0z" />
    <glyph glyph-name="uniE60C" unicode="&#xe60c;" horiz-adv-x="559" 
d="M42 -64q-8 0 -15 3t-13 9q-11 11 -11 27.5t11 27.5l69.5 69.5t153 152.5t152.5 152l69 69l-69 69.5t-152.5 152.5t-153 152.5l-69.5 69.5q-11 11 -11 27t11 28q12 11 28 11t28 -11l73.5 -73.5l162 -162t162.5 -162l74 -73.5q11 -11 11 -27.5t-11 -27.5l-74 -73.5
t-162.5 -162l-162 -162l-73.5 -73.5q-6 -6 -13.5 -9t-14.5 -3v0z" />
    <glyph glyph-name="uniE60D" unicode="&#xe60d;" horiz-adv-x="1152" 
d="M33 950q-13 -5 -23 -20t-10 -28q0 -7 3 -16.5t7 -16.5q7 -11 20 -17.5t61 -21.5l70 -22l44 -444l-16 -89q-11 -64 -12 -78.5t5 -28.5q13 -25 55 -28.5t332 -3.5h349l17 17q22 22 17 49t-33 39q-11 4 -73 5.5t-247 1.5h-303l4 24q1 11 3 21.5t3 15.5l2 11h327
q241 0 285.5 1.5t53.5 8.5q13 11 19 35t26 140q15 88 17.5 111.5t-2.5 33.5q-12 24 -56 32t-320 40q-71 8 -135 15t-113.5 13t-80.5 9.5t-35 3.5l-21 3l-5 51q-5 55 -19.5 68.5t-95.5 39.5q-68 23 -87 27t-33 -2v0zM271 94q-7 -5 -15.5 -14t-13.5 -16q-8 -11 -10 -20t-1 -28
q3 -37 24 -57t56 -20q80 0 82.5 79t-77.5 86q-16 1 -25 -1t-20 -9zM763 96q-43 -21 -43 -73t43 -76q35 -19 71 -2.5t47 57.5q13 51 -28.5 84.5t-89.5 9.5z" />
    <glyph glyph-name="uniE60E" unicode="&#xe60e;" horiz-adv-x="1149" 
d="M627 909q-21 38 -52.5 38t-53.5 -38l-79 -137.5t-174 -302.5t-174 -302.5l-79 -137.5q-22 -38 -6 -65.5t60 -27.5h158h347.5h347.5h158q44 0 59.5 27.5t-6.5 65.5l-79 137.5t-174 302.5t-174 302.5l-79 137.5v0zM514 674q11 11 25.5 16.5t31.5 5.5q16 0 30 -5.5t27 -16.5
q12 -12 18 -25.5t6 -29.5q0 -9 -1.5 -20.5t-4.5 -25.5t-7 -30.5t-9 -35.5l-9 -40.5t-10 -49.5l-4 -18l-4 -18q-7 -39 -16.5 -67.5t-15.5 -28.5q-7 0 -16.5 28.5t-15.5 68.5l-4 18l-4 18q-6 26 -11 48.5l-9 40.5q-4 16 -7.5 32t-6.5 32q-4 16 -5.5 28t-1.5 20q0 16 6 29.5
t18 25.5v0zM627 102q-12 -11 -26 -17t-30 -6t-30 6t-26 17t-18 25t-6 30t6 29.5t18 25.5q12 11 26 17t30 6t30 -6t26 -17q12 -12 18 -25.5t6 -29.5t-6 -30t-18 -25z" />
    <glyph glyph-name="uniE60F" unicode="&#xe60f;" horiz-adv-x="1047" 
d="M534 -64q-106 0 -199.5 40.5t-163 110t-110 162.5t-40.5 199t40.5 199.5t110 163t163 110t199.5 40.5t199 -40.5t162.5 -110t110 -163t40.5 -199.5t-40.5 -199t-110 -162.5t-162.5 -110t-199 -40.5v0zM534 885q-91 0 -170.5 -34t-139 -93.5t-93.5 -139t-34 -170.5
q0 -90 34 -169.5t93.5 -139t139 -94t170.5 -34.5q90 0 169.5 34.5t139 94t94 139t34.5 169.5q0 91 -34.5 170.5t-94 139t-139 93.5t-169.5 34zM574 626q-15 0 -28 5t-23 14q-11 10 -16.5 22t-5.5 26t5.5 26t16.5 22q10 10 23 15t28 5t28 -5t23 -15q11 -10 16 -22t5 -26
t-5 -26t-16 -22q-10 -9 -23 -14t-28 -5zM574 543q12 -11 18 -24.5t6 -30.5q0 -4 -0.5 -10t-0.5 -15q-1 -9 -2.5 -17t-3.5 -15l-15.5 -54l-15.5 -54q-2 -6 -3.5 -13.5t-3.5 -16.5q-1 -8 -2 -14t-1 -11q0 -10 2.5 -17.5t7.5 -11.5t13 -6t20 -2q6 0 12 1t13 3t12.5 4t8.5 3
l-4 -16.5l-4 -16.5q-19 -7 -33.5 -12.5t-25.5 -9.5t-23.5 -6t-26.5 -2q-23 0 -40 5.5t-29 16.5q-13 11 -19 24.5t-6 30.5q0 6 0.5 12.5t1.5 13.5t2.5 14.5t3.5 16.5l15 54l15 54q2 7 4 14.5t3 14.5q2 7 2.5 13.5t0.5 11.5q0 11 -2 18t-7 11q-4 4 -12 6t-20 2q-6 0 -12 -1
l-12 -2q-7 -2 -12 -4t-10 -3l4 16.5l4 16.5q15 6 29.5 11t28.5 10q13 4 26 6t26 2q22 0 38.5 -5t28.5 -16v0z" />
    <glyph glyph-name="uniE610" unicode="&#xe610;" horiz-adv-x="1057" 
d="M542 961q-106 0 -199.5 -40.5t-162.5 -109.5t-109.5 -162.5t-40.5 -199.5t40.5 -199t109.5 -162.5t162.5 -109.5t199.5 -40t199 40t162.5 109.5t109.5 162.5t40 199t-40 199.5t-109.5 162.5t-162.5 109.5t-199 40.5v0zM488 191l-36 38t-79.5 84t-80 84.5l-36.5 38.5
l50.5 48l50.5 48l20.5 -21.5t44.5 -47.5t44.5 -47l20.5 -21l37.5 40t82 88.5t82 89l37.5 40.5l51 -47l51 -47l-53 -57.5t-117 -126.5t-117 -126.5l-53 -57.5v0z" />
    <glyph glyph-name="uniE611" unicode="&#xe611;" horiz-adv-x="1001" 
d="M977 39l-46.5 47t-102.5 102.5t-102.5 102.5l-46.5 47q-11 11 -26 14.5t-29 0.5q45 48 71.5 111.5t26.5 134.5q0 75 -28.5 140.5t-77.5 114.5t-114.5 77.5t-140.5 28.5t-140.5 -28.5t-114.5 -77.5t-77.5 -114.5t-28.5 -140.5q0 -74 28.5 -140t77.5 -115t114.5 -77.5
t140.5 -28.5q61 0 116.5 20t101.5 54q-5 -15 -1.5 -31.5t15.5 -28.5l46.5 -46.5l102.5 -102.5l102.5 -102.5l46.5 -46.5q9 -9 20.5 -13.5t22.5 -4.5q12 0 23 4.5t20 13.5q18 18 18 43t-18 42v0zM361 311q-60 0 -112.5 22.5t-91.5 62t-61.5 92t-22.5 111.5q0 60 22.5 112.5
t61.5 91.5t91.5 61.5t112.5 22.5q59 0 111.5 -22.5t92 -61.5t62 -91.5t22.5 -112.5q0 -59 -22.5 -111.5t-62 -92t-92 -62t-111.5 -22.5z" />
    <glyph glyph-name="uniE612" unicode="&#xe612;" horiz-adv-x="1056" 
d="M1021 77l-46.5 45.5t-102.5 100.5t-102 100.5l-46 45.5q-11 11 -24.5 16t-27.5 7q36 45 56.5 100t20.5 116q0 73 -28 137.5t-77 112.5t-114.5 75.5t-139.5 27.5q-75 0 -140.5 -27.5t-114 -75.5t-77 -112.5t-28.5 -137.5t28.5 -137t77 -112t114 -75.5t140.5 -27.5
q52 0 100.5 14.5t89.5 39.5q0 -16 6 -31t18 -27l46.5 -45.5t102.5 -100t102.5 -100l46.5 -45.5q12 -12 27.5 -18.5t31.5 -6.5t31.5 6.5t28.5 18.5q24 24 24 58t-24 58v0zM390 388q-47 0 -88 17t-71.5 47t-48 70.5t-17.5 85.5q0 46 17.5 86t48 70t71.5 47.5t88 17.5
q46 0 87 -17.5t71.5 -47.5t48.5 -70t18 -86q0 -45 -18 -85.5t-48.5 -70.5t-71.5 -47t-87 -17v0z" />
    <glyph glyph-name="uniE613" unicode="&#xe613;" 
d="M1024 563l-354 51l-158 321l-158 -321l-354 -51l256 -250l-60 -352l316 166l316 -166l-60 352l256 250v0z" />
    <glyph glyph-name="uniE614" unicode="&#xe614;" 
d="M256 480h224v224h-224v-224zM544 704v-224h224v224h-224zM544 192h224v224h-224v-224zM256 192h224v224h-224v-224z" />
    <glyph glyph-name="uniE615" unicode="&#xe615;" horiz-adv-x="1069" 
d="M988 960l-82.5 -109t-182 -240t-182.5 -240l-83 -109l-71.5 29t-157.5 64t-157.5 64l-71.5 29l16 -67.5l16 -67.5l78.5 -53t172 -116t172 -116l78.5 -53l78.5 133.5t172.5 293.5t172.5 293.5l78.5 133.5l-23.5 65.5l-23.5 65.5v0z" />
    <glyph glyph-name="uniE616" unicode="&#xe616;" 
d="M799 674l-61 61l-226 -227l-226 227l-61 -61l227 -226l-227 -226l61 -61l226 227l226 -227l61 61l-227 226z" />
    <glyph glyph-name="uniE617" unicode="&#xe617;" 
d="M768 448h-384v-128q0 -53 37.5 -90.5t90.5 -37.5h256q53 0 90.5 -37.5t37.5 -90.5t-37.5 -90.5t-90.5 -37.5h-256q-80 0 -149.5 30t-122 82.5t-82.5 122t-30 149.5v512q0 53 37.5 90.5t90.5 37.5t90.5 -37.5t37.5 -90.5v-128h384q53 0 90.5 -37.5t37.5 -90.5t-37.5 -90.5
t-90.5 -37.5z" />
    <glyph glyph-name="uniE618" unicode="&#xe618;" 
d="M576 -64h-192v512h-128v176l128 1v103q0 108 40.5 170t167.5 62h142v-176h-89q-49 0 -59 -18.5t-10 -52.5v-88h159l-19 -177h-140v-512z" />
    <glyph glyph-name="uniE619" unicode="&#xe619;" horiz-adv-x="787" 
d="M347 948q-29 -9 -53.5 -30.5t-36.5 -47.5q-6 -11 -13 -16.5t-28 -14.5q-24 -11 -35.5 -13.5t-45.5 -2.5q-45 -1 -62.5 -5.5t-36.5 -20.5q-27 -25 -30.5 -66.5t-3.5 -352.5v-364l10 -18q7 -17 18.5 -28t29.5 -20l18 -10h312q258 0 299.5 3t62.5 23q6 5 13 14.5t10 16.5
l10 19v366q0 270 -1 320t-8 63q-6 15 -17.5 27.5t-25.5 20.5q-13 7 -23.5 8.5t-52.5 2.5q-38 1 -50 3.5t-36 13.5q-21 10 -28 15t-13 16q-24 50 -77.5 72.5t-105.5 5.5v0zM429 874q13 -7 27 -24t18 -33q4 -15 11.5 -20.5t32.5 -14.5q19 -7 41.5 -20.5t26.5 -21.5t1 -16.5
t-12 -11.5q-3 -1 -57.5 -1.5t-120 -1t-122 0t-64.5 1.5q-7 0 -10 9t0 17q3 10 25 24t47 22q24 9 30 14.5t12 24.5q4 12 10 20.5t17 18.5q8 8 16.5 13.5t12.5 6.5q11 2 29.5 0t28.5 -7v0zM126 727q0 -28 17.5 -52t43.5 -33q9 -4 71.5 -5.5t135 -1.5t135 1.5t71.5 5.5
q25 8 42.5 31.5t18.5 49.5q0 7 0.5 14t0.5 9q0 6 19 3.5t24 -9.5q5 -6 5.5 -54.5t0.5 -375.5q0 -209 -1 -247t-7 -44t-46.5 -7t-262.5 -1q-224 0 -264 1t-46 7t-7 48t-1 275q0 326 0.5 360t7.5 40q4 4 10.5 6t14.5 2h17v-23v0zM376 841q-30 -16 -15 -46.5t47 -17.5q5 2 10 6
t7 8q13 23 -6 42.5t-43 7.5zM561 487q-4 -3 -40.5 -38.5t-82.5 -82.5q-84 -83 -100 -97t-22 -9l-16 16l-29 29q-29 29 -42.5 39t-25.5 10q-11 0 -22.5 -12.5t-10.5 -23.5q2 -13 13 -26.5t61 -63.5q43 -43 55.5 -53t22.5 -10q5 0 11 1t8 3q5 3 48.5 46t93.5 93.5t91 92.5
t41 45q0 2 0.5 6t0.5 6q1 7 -4.5 17.5t-11.5 12.5q-10 4 -20.5 4t-18.5 -5v0z" />
    <glyph glyph-name="uniE61A" unicode="&#xe61a;" horiz-adv-x="1206" 
d="M18 954q-3 -1 -7 -4t-6 -6q-1 -2 -2 -35t-1.5 -89t-1 -130t-0.5 -158q0 -114 0.5 -192.5t1.5 -126.5t2.5 -69.5t3.5 -24.5q5 -4 58 -6t181 -2h230l31 37l32 37l-4 179h-59q-24 0 -43 -2t-21 -4t-3.5 -30t-1.5 -64l-1 -89l-170 -2l-170 -1v727h499v-44q0 -28 2 -35.5
t9 -5.5q4 2 14.5 3.5t21.5 1.5h26v59q0 35 -2 49.5t-8 19.5t-70 7t-236 2h-115.5t-96 -0.5t-66.5 -1t-27 -0.5v0zM568 777q-1 -2 -2 -35.5t-2 -90t-1.5 -131t-0.5 -158.5q-1 -283 1 -346t10 -69q6 -4 59.5 -5.5t178.5 -1.5q94 0 160.5 1t67.5 2q2 1 19 21t41 46
q23 26 46.5 52.5t32.5 37.5l21 25v320q0 65 -0.5 124t-1 104t-1 72t-1.5 29q-2 7 -54 9t-258 2q-180 0 -246 -2t-69 -6v0zM1126 724q1 -4 1.5 -86t0 -179t-1 -177.5t-1.5 -82.5t-23 -3t-50 -1q-41 0 -57 -2.5t-21 -8.5q-3 -5 -5 -30t-2 -66q1 -35 0 -60t-3 -25
q-5 -1 -57.5 -1.5t-113 -0.5t-110.5 0.5t-50 1.5q-2 6 -2.5 119t-0.5 246.5t1 244t3 111.5q2 2 79.5 3t169 1t167 -1t76.5 -3v0zM763 433q-31 -26 -53 -47.5t-22 -25.5t22.5 -24t51 -43.5t54.5 -43t34 -22.5q4 -2 6 13t0 42q-1 10 1.5 14t9.5 4q5 0 37 0.5t73 1.5l98 1v57
l2 58l-225 6l2 36q1 19 -0.5 27t-6.5 8q-3 0 -27.5 -18.5t-56.5 -43.5v0zM343 679q-1 -11 -1 -21.5t1 -15.5q1 -8 -16.5 -10t-92.5 -3l-109 -2v-115l107 -2q49 -1 79.5 -3.5t32.5 -5.5t2.5 -14t-0.5 -23q-1 -18 0.5 -24t7.5 -4q6 1 31.5 20.5t53.5 43.5t50 45t22 25
q1 3 -21.5 23.5t-51 44t-54.5 43t-34 22.5q-3 1 -5 -6t-2 -18v0z" />
    <glyph glyph-name="uniE61B" unicode="&#xe61b;" 
d="M69 421q0 22 16 38l78 78q16 16 39 16t39 -16l168 -168l374 375q16 16 39 16t39 -16l78 -78q16 -16 16 -39q0 -22 -16 -38l-492 -492q-16 -16 -38 -16q-23 0 -39 16l-285 285q-16 16 -16 39v0z" />
    <glyph glyph-name="uniE61C" unicode="&#xe61c;" 
d="M635 286q10 -11 10 -25.5t-10 -24.5q-10 -11 -24.5 -11t-25.5 11l-196 200q-10 10 -10 24.5t10 25.5l196 200q11 10 25.5 10t24.5 -10t10 -25t-10 -25l-161 -175l161 -175v0z" />
    <glyph glyph-name="uniE61D" unicode="&#xe61d;" 
d="M687 584q10 10 25 10t25 -10q11 -11 11 -25.5t-11 -24.5l-200 -196q-10 -10 -25 -10t-25 10l-200 196q-10 10 -10 24.5t10 25.5q10 10 25 10t25 -10l175 -161l175 161v0z" />
    <glyph glyph-name="uniE61E" unicode="&#xe61e;" 
d="M337 338q-10 -10 -25 -10t-25 10q-11 10 -11 24.5t11 25.5l200 196q10 10 25 10t25 -10l200 -196q11 -11 11 -25.5t-11 -24.5q-10 -10 -25 -10t-25 10l-175 161l-175 -161v0z" />
    <glyph glyph-name="uniE61F" unicode="&#xe61f;" 
d="M389 286q-10 -11 -10 -25.5t10 -24.5q10 -11 24.5 -11t25.5 11l196 200q10 10 10 24.5t-10 25.5l-196 200q-11 10 -25.5 10t-24.5 -10t-10 -25t10 -25l161 -175l-161 -175v0z" />
    <glyph glyph-name="uniE620" unicode="&#xe620;" horiz-adv-x="1030" 
d="M353 950q-67 -14 -129.5 -49.5t-105.5 -82.5q-38 -42 -67.5 -103t-40.5 -121q-3 -15 -3.5 -67t1.5 -63q1 -4 3.5 -14.5t4.5 -20.5q6 -31 25 -73t40 -73q39 -58 96 -100.5t128 -67.5q32 -11 54 -13.5t77 -2.5t77 3t56 15q21 7 45 17.5t37 17.5l30 19l115 -114
q93 -92 120 -109t60 -3t44.5 49t-7.5 62q-4 7 -37.5 42t-76.5 78t-73.5 75t-29.5 34q1 1 8.5 16.5t17.5 35.5q23 46 33.5 88.5t10.5 94.5q1 48 -3 74.5t-18 68.5q-16 50 -42 91t-65 80q-30 30 -51.5 45t-57.5 32q-25 12 -52 22.5t-41 13.5q-36 8 -93 9.5t-90 -6.5v0z
M527 786q62 -23 111.5 -77t64.5 -115q16 -64 -0.5 -131t-60.5 -116q-39 -43 -88 -66.5t-101 -27t-103 13t-94 54.5q-50 44 -75.5 110.5t-15.5 129.5q7 42 11.5 58t14.5 30q5 7 9 14t4 10q0 2 11 15t27 29q28 28 53 44t64 30q25 8 82.5 6.5t85.5 -11.5v0zM407 718
q-5 -3 -7 -19t-2 -58v-72l-75 -3q-30 -2 -53 -4t-25 -3q-6 -7 -4 -34t8 -32q5 -3 26.5 -4.5t50.5 -1.5q36 1 52 -0.5t17 -5.5q0 -3 0.5 -24t1.5 -47q0 -26 2 -47.5t4 -24.5q5 -7 32 -7.5t34 7.5q4 4 6 23.5t2 54.5v71h71q30 1 52 3t25 5q7 7 8 28t-5 32q-3 7 -17 9t-61 2
h-73v73q0 49 -2 62t-10 17q-12 6 -30 6.5t-28 -6.5v0z" />
    <glyph glyph-name="uniE621" unicode="&#xe621;" horiz-adv-x="1079" 
d="M737 928q-47 -13 -107 -29t-97 -25q-60 -16 -112 -29.5t-93 -24.5t-70 -18.5t-45 -12.5q-18 -4 -32 -8t-17 -4q-2 -1 -23 -6.5t-48 -12.5q-53 -14 -68.5 -23t-20.5 -28q-4 -13 8 -64t77 -294q4 -13 11 -40.5t14 -53.5q13 -50 18 -63t14 -20q16 -13 39.5 -11t109.5 25
q3 1 29 8t61 16q34 9 60.5 16t28.5 8q3 1 5 -0.5t2 -5.5v-30t1 -62q1 -69 5 -86.5t24 -37.5q26 -26 77 -45t111 -26q45 -5 109.5 -2.5t101.5 10.5q58 13 97 33.5t57 47.5l13 18l1 142q0 119 -3 143.5t-24 45.5q-6 6 -9.5 11t-2.5 6t2.5 6.5t3.5 11.5q3 11 -8.5 58t-60.5 233
q-5 16 -11 39.5t-11 40.5q-31 119 -38 137.5t-24 29.5q-6 3 -13.5 5t-12.5 2t-43 -9.5l-86 -21.5v0zM859 841q4 -14 8 -27.5t5 -18.5q3 -8 1.5 -10.5t-10.5 -5.5q-9 -2 -47.5 -12.5t-81.5 -21.5t-77.5 -20l-34.5 -9q-3 3 -13.5 48t-9.5 46t38 11.5t82 22t83 21.5t41 10
q4 1 7.5 -6.5t8.5 -27.5v0zM948 542q2 -8 4 -15t3 -10q2 -6 -6.5 -9t-77.5 -22q-30 -8 -51.5 -13t-23.5 -4q-4 3 -8.5 24.5t-1.5 23.5q2 1 24 7.5t52 13.5q29 8 50.5 13.5t22.5 6.5q4 4 7 0t6 -16v0zM743 480l6 -26h-18q-8 0 -14.5 -0.5t-7.5 -0.5q-1 -1 -9.5 -2t-18.5 -3
q-18 -2 -48.5 -9t-42.5 -12q-4 -1 -6.5 2.5t-4.5 13.5l-5 19l32 9q14 3 37 9.5t42 11.5t33.5 8.5t15.5 3.5q1 1 3.5 -6.5t5.5 -17.5v0zM534 427q4 -13 4 -17.5t-4 -7.5q-4 -4 -78 -24.5t-76 -18.5t-7.5 24.5t-3.5 23.5q2 2 77 22t79 19q1 0 4 -6.5t5 -14.5v0zM860 408
q54 -8 90 -21.5t57 -33.5q45 -45 -23 -85.5t-193 -42.5q-88 -2 -156 17.5t-91 53.5q-26 38 29 72.5t152 42.5q13 1 22.5 2t10.5 1q1 2 42 -0.5t60 -5.5v0zM323 386q1 -4 2.5 -8t1.5 -6q0 -1 1.5 -6t2.5 -9q2 -8 0 -10.5t-14 -5.5q-87 -23 -116 -29.5t-30 -3.5
q-4 12 -7.5 27.5t-2.5 16.5q2 1 76 21.5t80 21.5q1 0 3 -2.5t3 -6.5v0zM566 221q17 -13 49.5 -25t65.5 -17q5 -1 14 -2.5t17 -2.5q17 -3 67 -3t72 3q25 3 64 13.5t54 18.5q16 8 31.5 21.5t19.5 22.5q2 4 3 -3.5t1 -26.5q0 -25 -1.5 -34t-7.5 -17q-9 -12 -17 -17.5t-27 -14.5
q-34 -18 -80.5 -27t-96.5 -10t-99 6t-88 23q-43 16 -57.5 35t-14.5 59v35l8 -13q4 -5 10.5 -12t12.5 -12v0zM585 93q32 -17 74 -26.5t97 -11.5q67 -2 119.5 6.5t91.5 27.5q22 10 31.5 17.5t17.5 21.5l8 12v-38q0 -27 -2 -34.5t-11 -18.5q-16 -19 -52 -34.5t-87 -25.5
q-18 -4 -80 -4.5t-84 2.5q-65 9 -109.5 28t-57.5 44q-3 5 -4.5 17.5t-1.5 28.5v35l12 -17q6 -7 16 -15.5t22 -14.5v0z" />
    <glyph glyph-name="uniE622" unicode="&#xe622;" horiz-adv-x="758" 
d="M363 946q-22 -27 -53.5 -47t-74 -34t-95.5 -21t-117 -8q-19 0 -21 -26.5t-1 -259.5q1 -180 1.5 -230t4.5 -60q10 -35 32.5 -69.5t55.5 -68t76.5 -66.5t97.5 -65q24 -14 63 -34t45 -20q8 -2 62.5 27t97.5 57t78 57.5t61.5 59t45.5 60t29 61.5q3 11 4 55t2 236
q1 235 -1.5 260.5t-22.5 25.5q-23 0 -49 1.5t-34 2.5q-5 1 -13.5 2t-14.5 1q-19 2 -53 10t-53 14q-42 14 -70 32.5t-54 49.5q-4 4 -8 7.5t-6 3.5t-6.5 -4t-8.5 -10v0zM392 837q18 -24 50.5 -42t74.5 -28q11 -2 21.5 -4.5t14.5 -2.5q5 -1 9.5 -1.5t7.5 -0.5q4 -2 33 -3.5
t50 -2.5q7 -1 12.5 -2t6.5 -2q2 -2 2.5 -50t0.5 -165q0 -150 -1 -183t-5 -47q-14 -51 -55 -96.5t-114 -93.5q-30 -20 -72 -42.5t-49 -22.5q-9 0 -54.5 25t-83.5 50q-48 33 -84.5 71t-55.5 75q-14 28 -16.5 60.5t-2.5 205.5q0 110 0.5 160.5t2.5 52.5q3 2 11.5 3t52.5 3
q15 1 25.5 2t11.5 1t6 1t11 2q22 2 51.5 11t50.5 19q17 9 26.5 15.5t22.5 20.5q8 9 15.5 15t9.5 6t6 -3t7 -7v0zM581 637q-23 -16 -43.5 -30t-22.5 -17q-1 -1 -8 -6.5t-16 -12.5q-36 -29 -79 -69.5t-71 -73.5q-7 -8 -12.5 -13t-6.5 -5t-17 12t-38 29q-21 17 -37 29t-17 12
q-2 0 -24 -18.5t-29 -26.5l-6 -7l39 -40q75 -77 118 -119.5t46 -42.5q2 0 6.5 7t9.5 17q18 40 44.5 84t57.5 87t65 83.5t69 75.5q11 11 19 20t8 11q0 3 -7 15t-13 18q-1 1 -11 -5t-24 -14v0z" />
    <glyph glyph-name="uniE623" unicode="&#xe623;" horiz-adv-x="1040" 
d="M637 260q-27 -24 -52 -49.5t-51 -49.5q-30 -29 -68.5 1t-62.5 51q-32 32 -66.5 69t-63.5 69q-27 30 -55 71t-5 79q18 30 51 54t56 45q12 12 -8.5 61t-26.5 58q-21 38 -62.5 90.5t-92.5 20.5q-56 -36 -91.5 -87t-38.5 -119q-3 -96 35.5 -191t101.5 -179t143.5 -153
t162.5 -114q47 -25 97.5 -38t99 -11t94.5 21.5t84 59.5q51 50 36.5 91t-67.5 83q-24 18 -50 30.5t-53 24.5q-6 0 -31 7.5t-16 4.5v0zM1040 774l-166 186l-269 -245l-111 122l-39 -419l427 -12l-115 127z" />
    <glyph glyph-name="uniE624" unicode="&#xe624;" horiz-adv-x="1169" 
d="M533 840q113 0 213 -27t177.5 -73.5t127 -110t60.5 -136.5q28 34 43 71.5t15 77.5q0 67 -39.5 125t-107 101t-158.5 67.5t-195 24.5q-73 0 -140.5 -13.5t-125.5 -37.5t-104.5 -57t-75.5 -74q68 31 145.5 46.5t164.5 15.5v0zM1065 452q0 71 -42 134.5t-114 110.5
t-169 74.5t-207 27.5t-207 -27.5t-169.5 -74.5t-114.5 -110.5t-42 -134.5q0 -60 29.5 -114t81.5 -98t124 -75.5t157 -46.5v-182l198 149l29 29q95 9 176.5 39t141.5 75.5t94 103t34 120.5zM520 522q34 0 56.5 -23.5t22.5 -54.5q0 -34 -24 -56.5t-55 -22.5t-54.5 24t-23.5 55
q0 34 22 56t56 22zM289 365q-34 0 -56 24t-22 55q0 34 23.5 56t54.5 22q34 0 56 -23.5t22 -54.5q4 -31 -20 -55t-58 -24zM751 365q-34 0 -56 24t-22 55q0 34 24 56t54 22q31 0 55 -23.5t24 -54.5t-24 -55t-55 -24z" />
    <glyph glyph-name="uniE625" unicode="&#xe625;" horiz-adv-x="1288" 
d="M1197 741h-788q-37 0 -64 -27t-27 -64v-491q0 -37 27 -64t64 -27h788q38 0 64.5 27t26.5 64v491q0 37 -26.5 64t-64.5 27v0zM1202 155h-793v499h788v-499h5zM1045 -64h-479q-19 0 -30.5 11.5t-11.5 29.5q0 19 11.5 30.5t30.5 11.5h479q18 0 29.5 -11.5t11.5 -30.5
q0 -18 -13 -29.5t-28 -11.5zM273 374h-186v499h788v-91h87v87q0 37 -27 64t-64 27h-780q-37 0 -64 -27t-27 -64v-487q0 -37 27 -64t64 -27h182v83v0zM273 237h-29q-19 0 -30.5 -11t-11.5 -30q0 -18 11.5 -29.5t30.5 -11.5h29v82v0z" />
    <glyph glyph-name="uniE626" unicode="&#xe626;" horiz-adv-x="1391" 
d="M1254 960h-1117l558 -559zM1385 7q5 8 5.5 17t0.5 22v804q0 25 -11.5 48.5t-32.5 39.5l-449 -449l487 -482v0zM60 -53q13 -4 25 -7.5t25 -3.5h1171q13 0 25 3.5t25 7.5l-488 487l-148 -148l-147 148l-488 -487v0zM493 489l-449 449q-21 -16 -32.5 -39.5t-11.5 -48.5v-804
q0 -9 0.5 -20t4.5 -19l488 482v0z" />
    <glyph glyph-name="uniE627" unicode="&#xe627;" horiz-adv-x="1552" 
d="M437 954q-13 -3 -26.5 -9t-21.5 -10q-21 -13 -43.5 -40.5t-30.5 -49.5q-8 -24 -8.5 -60.5t8.5 -62.5q7 -22 31.5 -50.5t48.5 -41.5q34 -20 77.5 -22.5t80.5 13.5q13 6 18.5 12t10.5 21q8 28 22.5 53.5t32.5 44.5q13 14 17 22.5t4 22.5q0 31 -12 56.5t-39 52.5
q-36 36 -80 48.5t-90 -0.5v0zM1049 954q-28 -8 -40.5 -15t-34.5 -27q-21 -20 -35.5 -46.5t-18.5 -52.5q-2 -18 1.5 -24.5t25.5 -26.5q24 -22 46.5 -60t22.5 -57q0 -14 10.5 -22t35.5 -13q54 -11 99.5 8.5t74 57.5t35.5 88t-17 100q-26 53 -86.5 79.5t-118.5 10.5v0zM752 770
q-50 -14 -82.5 -48.5t-43.5 -77t0 -88t48 -82.5q28 -27 57 -39t71 -11q58 0 99.5 31.5t60.5 77.5t11 98t-49 93q-33 33 -81 45.5t-91 0.5v0zM357 586q-33 -7 -56 -19.5t-50 -37.5q-46 -41 -60.5 -89.5t-14.5 -157.5v-104l18 -6q48 -16 123 -30t107 -14h23v40q0 33 7.5 69
t20.5 61q21 43 60.5 80.5t78.5 51.5l26 9l-19 24q-18 24 -28.5 49t-14.5 52l-4 27l-92 1q-45 1 -77 -1t-48 -5v0zM1017 563q-6 -31 -15 -52t-27 -44q-8 -11 -13.5 -19t-4.5 -8t11.5 -5t25.5 -12q72 -35 112 -100t40 -150v-50l37 3q40 3 93.5 14.5t86.5 23.5l37 14v107
q0 106 -12 149t-53 87q-40 42 -89 57.5t-144 15.5h-79l-6 -31v0zM674 402q-33 -7 -61 -22t-53 -40q-25 -26 -41 -56.5t-23 -65.5q-2 -14 -4 -51.5t-2 -77.5v-96l29 -8q83 -24 150.5 -33.5t151.5 -9.5q78 0 133 8.5t111 29.5l37 14v110q0 68 -1.5 95t-7.5 47
q-20 62 -69.5 105t-113.5 53q-17 3 -50.5 4t-70 1t-69 -2t-46.5 -5v0z" />
    <glyph glyph-name="uniE628" unicode="&#xe628;" horiz-adv-x="975" 
d="M147 949q-36 -11 -74 -47t-50 -71q-17 -44 -19.5 -82t6.5 -91q10 -61 30.5 -117t59.5 -133q30 -60 66 -118t73.5 -109t74.5 -92.5t69 -67.5q77 -60 145 -75.5t130 13.5q57 26 89.5 70.5t24.5 84.5q-3 16 -53.5 66t-78.5 65q-26 13 -69 8t-77 -26l-37 -23l-35 34
q-30 29 -61 69t-59.5 84t-51.5 90.5t-39 89.5q-11 33 -11.5 40.5t8.5 12.5q36 22 55 41t31 45l18 39l-12 79q-5 32 -11.5 60t-10.5 34q-9 13 -36.5 25.5t-45.5 11.5q-7 0 -21 -3t-28 -7v0z" />
    <glyph glyph-name="uniE629" unicode="&#xe629;" 
d="M512 960q-106 0 -199 -40.5t-162.5 -110t-110 -162.5t-40.5 -199t40.5 -199t110 -162.5t162.5 -110t199 -40.5t199 40.5t162.5 110t110 162.5t40.5 199t-40.5 199t-110 162.5t-162.5 110t-199 40.5zM644 130q-23 -10 -42 -16.5t-33 -9.5q-13 -4 -29.5 -6.5t-36.5 -2.5
q-30 0 -51 6.5t-37 19.5q-17 14 -24 31t-7 40q0 7 0.5 16t3.5 19q0 10 3 20l6 20l40 137q3 10 4 19.5t5 15.5q3 10 3.5 17t0.5 14q0 13 -2.5 22.5t-6.5 12.5q-6 7 -16 8t-23 1q-7 0 -16 -0.5t-15 -3.5q-7 -4 -13.5 -5t-13.5 -4l9 44q13 7 31.5 13t34.5 9q17 7 33.5 10
t33.5 3q26 0 48.5 -6.5t39.5 -19.5q16 -13 23.5 -30.5t7.5 -40.5v-12v-19t-3 -21.5t-6 -17.5l-40 -137q-3 -7 -4 -17t-5 -23q-3 -10 -3.5 -18.5t-0.5 -12.5q0 -13 3.5 -22.5t9.5 -12.5q7 -3 17.5 -6t26.5 -3q7 0 16 0.5t15 4.5q10 3 16.5 4t10.5 4l-14 -44v0zM636 682
q-14 -13 -30.5 -20t-36.5 -7q-19 0 -36 7t-30 20t-19.5 27.5t-6.5 34.5q0 16 6.5 32t19.5 30q13 13 30 19.5t36 6.5q20 0 36.5 -6.5t30.5 -19.5q13 -14 19.5 -28t6.5 -34q0 -17 -6.5 -33t-19.5 -29z" />
    <glyph glyph-name="uniE62A" unicode="&#xe62a;" horiz-adv-x="1034" 
d="M502 956q-54 -3 -95 -22.5t-68 -54t-39.5 -84t-10.5 -112.5q3 -84 39.5 -147t101.5 -97q27 -13 39.5 -15.5t47.5 -3.5q35 0 47.5 3t39.5 17q36 18 64 47t47 67q18 37 24.5 69.5t5.5 77.5q-1 78 -23 132.5t-63 82.5q-28 20 -74 31.5t-83 8.5v0zM315 396q-9 -5 -36.5 -19
t-57.5 -30q-48 -25 -74.5 -43.5t-26.5 -27.5q0 -2 -13 -32.5t-42 -94.5q-51 -111 -57.5 -140.5t14.5 -50.5q7 -7 15.5 -12t13.5 -5q25 -1 173.5 -1.5t316.5 0t305.5 1t141.5 2.5q16 3 28.5 19.5t12.5 32.5q0 11 -19.5 59t-60.5 140q-6 12 -15 32t-15 35q-12 26 -19.5 34
t-30.5 22q-14 8 -37.5 20.5t-43.5 22.5q-19 10 -39 20.5t-29 15.5l-20 11l-40 -22q-39 -21 -70 -29.5t-69 -8.5q-45 -1 -86.5 11.5t-79.5 36.5l-18 12l-22 -11v0z" />
    <glyph glyph-name="uniE62B" unicode="&#xe62b;" horiz-adv-x="1702" 
d="M229 953q-26 -3 -47 -18.5t-32 -37.5q-7 -14 -8.5 -81.5t-1.5 -317.5q0 -309 4.5 -357t35.5 -75l21 -17h-202l4 -31q4 -28 9.5 -40t20.5 -25q5 -4 23.5 -7t97 -4t240 -1.5t453.5 -0.5q278 0 438 0.5t242.5 1.5t107 3.5t30.5 5.5q16 11 22.5 24t11.5 43l5 31l-102 1
q-54 0 -75 1.5t-14 4.5q5 3 14 12t16 19l16 25l2 381q1 276 -0.5 332t-10.5 74q-6 11 -17 23t-22 18l-25 15l-615 1h-241t-201.5 -0.5t-141 -1t-58.5 -1.5v0zM936 774q23 -6 26 -10.5t-4 -28.5q-4 -14 -2.5 -19.5t13.5 -13.5q6 -4 18 -13.5t21 -17.5l23 -19l27 15
q11 6 19.5 10t9.5 3q0 -1 7 -12.5t16 -26.5l23 -35l-16 -13q-6 -5 -13.5 -10.5t-11.5 -7.5q-6 -3 -6.5 -8.5t4.5 -18.5q3 -9 5 -23t2 -24q0 -19 4 -23.5t26 -10.5q13 -3 21.5 -6.5t8.5 -5.5q0 -1 -3 -12.5t-6 -26.5q-4 -14 -7 -26t-4 -14q0 -4 -11.5 -4t-29.5 5q-11 3 -16 1
t-10 -11q-4 -7 -12 -18.5t-16 -22.5l-20 -25l29 -52l-38 -24l-38 -24l-12 14q-6 7 -11 14.5t-7 11.5q-3 5 -9 5.5t-22 -3.5q-11 -3 -25 -5.5t-23 -2.5q-15 0 -19.5 -4.5t-10.5 -24.5q-6 -24 -13 -26t-53 9q-26 6 -29 10.5t3 27.5q4 12 3 19t-6 12q-5 4 -9 7t-6 3t-11 7
t-20 16q-20 17 -25.5 18.5t-17.5 -7.5q-7 -5 -14 -9.5t-11 -6.5t-12 6.5t-20 25.5q-9 15 -16 27.5t-7 14.5t7 7.5t17 10.5q15 8 18 13t0 16q-1 7 -3.5 22t-4.5 29q-3 24 -7 29.5t-24 9.5q-11 3 -19 5t-9 3q-2 1 8 42.5t14 45.5q1 1 10 0.5t20 -3.5q19 -5 24 -3.5t12 14.5
q4 7 12 19t16 21l18 22l-15 26q-6 11 -10 19.5t-3 8.5q1 1 11.5 7.5t24.5 14.5q14 9 25.5 15.5t14.5 6.5t8.5 -7t11.5 -17q10 -20 14.5 -21.5t27.5 5.5q10 3 23.5 5t21.5 3q15 0 20 4t10 25q7 24 16 26t54 -10v0zM1009 14l2 -25l-158 2l-158 2l-1 25v24l156 -1l157 -2z
M805 643q-45 -13 -74.5 -45t-40.5 -72t-1.5 -83t41.5 -77q35 -37 89.5 -47t101.5 12q46 21 71 60.5t25 89.5q0 43 -18 78t-47.5 57.5t-68 30.5t-78.5 -4v0z" />
    <glyph glyph-name="uniE62C" unicode="&#xe62c;" horiz-adv-x="1012" 
d="M439 954q-19 -4 -34 -16t-25 -30q-8 -14 -9.5 -26t-2.5 -67q-2 -65 2.5 -86.5t21.5 -41.5q24 -26 55 -29.5t240 -3.5q206 0 238 3t54 25q19 19 23 35.5t5 83.5l1 80l-11 23q-10 20 -27.5 33.5t-38.5 18.5q-11 2 -86 3t-162 1t-161 -1.5t-83 -4.5v0zM929 875q4 -6 5 -20
t1 -51q0 -42 -1 -53t-7 -17t-37.5 -7t-200.5 -1q-96 0 -165 1t-71 2q-8 6 -11 21.5t-3 57.5q0 34 1.5 47.5t5.5 19.5l6 8h471l6 -8v0zM53 651q-18 -9 -31 -24.5t-18 -34.5q-2 -7 -3 -47.5t0 -106.5l1 -138l12 -20q13 -20 32 -31.5t43 -13.5q30 -2 48.5 9t75.5 69
q67 65 79 83.5t12 51.5q0 23 -1.5 31.5t-9.5 18.5q-6 10 -29.5 35t-51 51.5t-51 47.5t-29.5 24q-17 7 -38.5 5.5t-40.5 -10.5zM168 524q38 -38 52 -54t14 -22t-14 -22t-51 -53q-73 -73 -84.5 -64t-11.5 139t11.5 139t83.5 -63v0zM425 592q-18 -9 -30 -21t-20 -30
q-5 -12 -6.5 -27.5t-1.5 -65.5q0 -53 1.5 -67t8.5 -28q8 -18 20 -30t30 -20q14 -6 49 -7t211 -1h242l21 9q18 9 33 25.5t20 33.5q5 15 5 85t-5 85q-5 17 -20 33.5t-33 25.5l-21 9h-484l-20 -9v0zM925 520l10 -8v-128l-10 -8q-8 -7 -39 -8t-199 -1h-228l-9 10q-8 7 -9.5 17
t-1.5 54t1.5 54t9.5 17l9 10h228q168 0 199 -1t39 -8zM425 235q-16 -8 -32.5 -27t-21.5 -35q-2 -9 -3 -32t0 -60q1 -55 2.5 -67.5t9.5 -26.5q11 -18 27.5 -30t36.5 -17q10 -2 83.5 -3t160 -1t160 1t83.5 3q21 5 38.5 18.5t27.5 33.5l11 23l-1 80q-1 67 -5 83.5t-23 35.5
q-22 22 -54 25t-238 3q-172 0 -211 -1t-51 -6v0zM927 162q6 -6 7 -17t1 -53q0 -37 -1 -51t-5 -20l-6 -8h-471l-6 8q-4 6 -5.5 19.5t-1.5 47.5q0 42 3 57.5t11 21.5q2 1 71 2t165 1q169 0 200.5 -1t37.5 -7v0z" />
    <glyph glyph-name="uniE62D" unicode="&#xe62d;" 
d="M650 956q-4 -1 -96.5 -92.5t-201.5 -200.5t-199.5 -201t-92.5 -96q-1 -3 -4.5 -22.5t-7.5 -43.5q-7 -47 -9 -59.5t-5 -36.5q-1 -9 -2 -17.5t-2 -10.5t-2 -9t-2 -15q-1 -7 -2.5 -19t-3.5 -21q-1 -9 -3 -20.5t-3 -19.5q-1 -7 -2.5 -19t-3.5 -21q-8 -49 -5.5 -65.5
t20.5 -24.5q10 -5 23 -4.5t50 6.5q9 2 21 3.5t19 2.5l16 2t11 2q4 1 12 2l16 2t15.5 2.5t10.5 1.5q2 1 10 2l16 2t28 4t41 6q20 4 39.5 6.5t26.5 3.5q6 1 17 3t20 3q15 3 54.5 40.5t257.5 255.5q236 236 269 273.5t22 57.5q-2 4 -51.5 55.5t-117.5 118.5
q-105 105 -136.5 134t-40.5 31h-12.5t-9.5 -2zM897 571l-31 -31l-262 262l31 31l31 31l131 -131l131 -131zM575 719l25 -25l-386 -386l-53 50l193 193q39 40 74.5 75t61.5 61.5t42 41.5l16 15q1 0 9 -7.5t18 -17.5zM680 614l22 -22l-192 -192q-40 -40 -75 -74.5t-61.5 -61
t-42 -41.5l-15.5 -15q-2 0 -17.5 14.5t-22.5 23.5q-3 4 26.5 36t159.5 162q40 40 75 74.5t61.5 61t42 41.5l15.5 15q1 0 8 -6.5t16 -15.5zM807 483q0 -1 -15.5 -16.5t-41.5 -42t-61 -61.5t-74 -75l-192 -191l-25 26l-26 27l386 386l25 -25q10 -10 17 -18.5t7 -9.5v0z
M236 172q45 -45 76.5 -77t30.5 -33l-5 -1t-12 -2t-19 -3t-23 -4q-11 -1 -23 -3t-19 -3t-15 -2.5t-14 -1.5q-9 -2 -18 5t-43 41q-32 32 -40 42t-6 17q0 5 3.5 26t6.5 46q4 25 7 43t4 18l32.5 -32t76.5 -76v0z" />
    <glyph glyph-name="uniE62E" unicode="&#xe62e;" horiz-adv-x="1097" 
d="M1065 957q-3 -1 -47.5 -17.5t-98 -37t-99.5 -38t-52 -20.5q-4 -1 -62 -23.5t-136 -52.5q-78 -29 -137.5 -52t-64.5 -25t-41.5 -16t-81.5 -31q-176 -67 -202.5 -80t-36.5 -38q-5 -11 -4.5 -28t6.5 -28q5 -9 27.5 -27t106.5 -79l109 -79l16 12q6 4 15 11t15 12t39.5 31
t74.5 58q41 33 92 73t82 64q30 24 59.5 47t39.5 31t33 26t45 35q42 33 81.5 64t72.5 57.5t57.5 46t36.5 29.5q22 18 23 17t-20 -22l-24.5 -24.5t-52 -51.5t-71 -70t-82.5 -81t-90 -88t-91 -89.5t-81.5 -80.5t-60.5 -60l-117 -114l28 -20l55 -40t95 -69q50 -37 90 -66t46 -32
q15 -9 38 -9t38 10q14 8 23.5 23.5t22.5 49.5q10 27 34 92.5t51 140t51.5 142t35.5 98.5q13 35 23 62t12 31q6 15 24 63t36 101t32 96t14 46q-1 10 -9.5 16t-17.5 4v0zM199 222q2 -7 4.5 -19t5.5 -27q1 -5 2 -11.5t2 -9.5q0 -5 4 -25.5t8 -45.5q5 -24 9 -45t4 -26
q7 -36 11.5 -46t18.5 -18q21 -13 40.5 -6.5t79.5 45.5q30 20 51 35t21 17q0 1 -37.5 28.5t-84 61.5t-87.5 63t-48 33q-4 2 -4.5 1t0.5 -5v0z" />
    <glyph glyph-name="uniE62F" unicode="&#xe62f;" horiz-adv-x="1028" 
d="M36 954q-5 -2 -12 -7t-10 -11l-10 -14v-472q0 -106 0.5 -193.5t1 -151t1 -99.5t1.5 -38q1 -5 6.5 -10.5t10.5 -9.5l14 -10h424q345 0 393 2.5t59 19.5q6 8 7.5 15.5t2.5 24.5v13l32 -1q29 0 44 3.5t20 12.5q2 4 3 21t2 42q0 39 -1.5 48.5t-7.5 15.5q-7 6 -15 7.5t-33 2.5
q-15 0 -27 0.5t-13 0.5q-2 0 -3 13t-1 30v44h41q28 0 35.5 1.5t14.5 8.5t8.5 16.5t1.5 49.5q0 39 -1.5 48.5t-8.5 17.5q-7 7 -14.5 8.5t-35.5 1.5h-41v43q0 18 1 30.5t3 13.5h13h27q40 1 48 10t9 57q1 42 -2.5 59t-12.5 22q-4 2 -18 3.5t-29 1.5h-39v88l36 -1q31 -1 44.5 4
t17.5 18q1 4 2 22t1 39q-1 50 -8.5 59t-49.5 10l-41 1l-3 20q-2 18 -7.5 28.5t-15.5 17.5q-7 4 -72.5 5.5t-359.5 1.5q-102 0 -181 -0.5t-134.5 -1t-85 -1t-32.5 -1.5v0zM515 735q62 -34 70 -113t-45 -129q-6 -5 -10 -9.5t-4 -5.5t17 -9.5t40 -18.5q71 -34 93 -45.5
t25 -19.5q2 -4 3.5 -27t1.5 -58q-1 -55 -2 -66.5t-8 -18.5l-10 -10h-445l-9 9q-7 7 -8.5 19t-1.5 70q0 43 1.5 63t3.5 24q2 3 28 16.5t61 28.5l59.5 28t25.5 13q1 1 -3.5 6.5t-12.5 12.5q-27 25 -37.5 59.5t-6 69.5t23 66t50.5 48q22 11 49 10.5t51 -13.5z" />
    <glyph glyph-name="uniE630" unicode="&#xe630;" horiz-adv-x="754" 
d="M193 952q-4 -5 -5.5 -18.5t-1.5 -47.5v-59h-81q-77 0 -89 -6t-12 -45q0 -16 2 -28t4 -16q4 -5 57 -6t301 -1h137.5h113.5h78h31q12 0 16.5 11t4.5 40q0 39 -12 45t-88 6h-82l1 59q0 40 -1 50t-8 16q-6 5 -36 6t-148 1q-120 0 -148.5 -1t-33.5 -6v0zM483 853v-22h-213v43
h107h106v-21v0zM74 695q-5 -1 -6.5 -58t-1.5 -315q0 -255 1.5 -314.5t6.5 -63.5q4 -3 97.5 -5t205 -2t205.5 2t98 5q5 4 6 63t0 316l-1 372l-302 1h-117.5h-97.5t-67 -0.5t-27 -0.5v0zM249 565v-76.5v-162v-163v-78.5q-1 -7 -7.5 -8t-35.5 -1l-42 -1v495h42q23 0 32.5 -1
t10.5 -4v0zM418 327q0 -100 -0.5 -172.5t-0.5 -74.5q0 -3 -34.5 -4t-45.5 1q-1 0 -2 72.5t-1 174.5v246h85l-1 -243v0zM590 323v-248l-40 1q-16 0 -28.5 0.5t-13.5 1.5t-1.5 65.5t-1 147t-1 160.5t0.5 107v12h85v-247v0z" />
    <glyph glyph-name="uniE631" unicode="&#xe631;" horiz-adv-x="912" 
d="M31 954q-16 -5 -22.5 -17.5t-6.5 -37.5q0 -36 14 -47.5t56 -11.5q21 0 26.5 -1t5.5 -6q2 -26 6 -58.5t8 -50.5q17 -73 47.5 -133.5t76.5 -109.5l26 -29l-20 -20q-8 -8 -17 -18.5t-14 -16.5q-4 -6 -8 -11t-5 -6q-3 -2 -18 -28t-24 -43q-23 -46 -38 -105t-18 -116
q-1 -12 -2 -21l-1 -9q-1 -1 -12 -2t-26 -1q-24 -1 -32 -3t-15 -8q-9 -9 -13 -22.5t-3 -33.5q1 -17 7 -28t16 -16q3 -2 25 -3t71.5 -1.5t130.5 -1t201 -0.5q334 0 388 2t63 17q5 9 6.5 32t-2.5 37q-5 16 -17.5 22t-43.5 7q-15 0 -25.5 0.5t-11.5 1.5l-1 12t-3 28q-1 16 -2 29
t-2 15t-2 7.5t-1 11.5q-5 34 -16 70t-28 71t-38 66.5t-45 57.5l-28 30l17 16q36 34 66 83t50 106q12 35 21 83.5t10 81.5v15h38q27 0 34 1.5t16 9.5t11.5 14.5t3.5 24.5q2 25 -3.5 40t-17.5 22q-3 2 -22.5 3t-67 1.5t-129.5 1t-210 0.5q-101 0 -179.5 -0.5t-133.5 -1
t-84.5 -1t-32.5 -1.5v0zM730 823q0 -7 -1.5 -17.5t-2.5 -18.5q-3 -23 -13.5 -61.5t-20.5 -61.5q-28 -64 -64 -103t-99 -74q-7 -3 -11 -8.5t-6 -14.5q-4 -16 2.5 -28t25.5 -23q40 -22 69 -48.5t53 -64.5q24 -37 41.5 -88.5t22.5 -97.5q1 -11 2 -24t2 -19q2 -9 1 -12t-6 -3
q-1 0 -23.5 -0.5t-59.5 -0.5h-86h-104h-266v25q0 11 1.5 29.5t4.5 34.5q9 48 26 90t41 76.5t55.5 62t69.5 47.5q15 7 19 25.5t-7 31.5q-3 4 -9.5 9t-13.5 8q-37 18 -70 50t-57.5 73.5t-40 91t-19.5 102.5l-3 29l549 -1l-2 -16v0zM324 580q0 -3 12.5 -14t25.5 -19
q21 -13 42 -18.5t46 -6.5q28 -1 47 3t43 16q14 7 33 21.5t19 18.5q0 1 -39.5 1.5t-94.5 0.5t-94.5 -0.5t-39.5 -2.5zM418 250q-52 -16 -90.5 -59t-41.5 -89q0 -5 24 -6t146 -1q70 0 124 0.5t60 0.5q9 0 10.5 2t-0.5 13q-8 45 -45.5 84.5t-86.5 54.5q-17 5 -50.5 5t-49.5 -5z
" />
    <glyph glyph-name="uniE632" unicode="&#xe632;" 
d="M59 951q-19 -8 -36 -28.5t-20 -39.5q-1 -4 -1.5 -41.5t-0.5 -99v-142v-169.5q2 -319 3.5 -377.5t11.5 -71.5q5 -7 14 -16t16 -14q13 -10 73.5 -11.5t392.5 -1.5t392.5 1.5t73.5 11.5q7 5 16 14t14 16q10 13 11.5 73.5t1.5 392.5t-1.5 392.5t-11.5 73.5q-5 7 -14 16
t-16 14q-13 10 -73 11.5t-386 2.5q-133 1 -219 0.5t-138 -1t-74.5 -2t-28.5 -4.5v0zM891 827l17 -17v-724l-17 -17l-17 -17h-724l-17 17l-17 17l-2 306q-2 248 2 292.5t29 58.5q8 4 46.5 6t118.5 2q123 1 154.5 6.5t41.5 26.5q14 32 20 41t17 14q9 5 47 6.5t126 0.5l158 -2
l17 -17v0zM659 643q-12 -15 -23 -28t-13 -17q-22 -27 -53.5 -66.5t-61 -76t-50.5 -63t-22 -28.5q-4 -5 -12 4.5t-22 35.5q-5 9 -16 29t-23 39l-26 45h-123l109 -145q45 -60 79 -103t37 -44q3 0 22.5 21.5t44.5 52.5q42 54 80.5 101.5t155.5 191.5q26 32 44.5 56t18.5 26
t-17 3.5t-41 1.5h-60l-28 -36v0z" />
    <glyph glyph-name="uniE633" unicode="&#xe633;" horiz-adv-x="1070" 
d="M92 956q-29 -9 -51 -29.5t-33 -48.5q-6 -16 -7 -61.5t-1 -269.5v-308l10 -25q10 -23 24 -38t37 -26l23 -11l157 -2q64 0 110.5 -1t47.5 -2t1.5 -8.5t1.5 -17.5q1 -21 7 -33.5t19 -16.5q5 -2 34.5 -3t66.5 0q72 0 88.5 3.5t24.5 18.5q3 4 4.5 14t1.5 19l1 25l159 2
q105 1 134.5 2.5t39.5 6.5q27 12 46 33t27 47q3 10 4 83t1 241q0 221 -1.5 267.5t-7.5 61.5q-8 21 -24 39t-36 29l-21 11l-439 1h-171t-142 -0.5t-97.5 -1t-38.5 -1.5v0zM967 871q5 -3 9.5 -8t6.5 -8q2 -5 3.5 -86t1.5 -177t-1.5 -177.5t-3.5 -88.5q-8 -19 -54 -21.5
t-392 -2.5h-181.5t-134 0.5t-83.5 1.5t-31 2q-3 1 -8 6t-8 9q-7 9 -8 44t0 220v180v79q1 9 11.5 19t21.5 13q3 0 38 0.5t93 1t134.5 0.5h161.5q283 0 350 -1t74 -6v0zM976 241q15 -13 8.5 -31.5t-26.5 -18.5q-10 0 -15.5 3t-10.5 12q-5 11 -3.5 18t9.5 15q10 9 18.5 9.5
t19.5 -7.5v0zM430 779q-11 -3 -19 -5.5t-9 -3.5q-2 -2 -22 -74t-19 -73t9.5 1t19.5 5q33 11 66 8.5t55 -18.5l8 -4t6 -2q1 0 5 9.5t8 23.5q4 13 10 34.5t10 38.5q10 35 7 42.5t-33 18.5q-22 8 -48.5 8t-53.5 -9v0zM591 738q-6 -21 -21 -76t-16 -61q0 -12 24.5 -24t53.5 -13
q21 0 49.5 6.5t35.5 14.5q3 3 23.5 70t20.5 74q0 2 -7 0.5t-17 -4.5q-18 -6 -44 -8t-43 1q-5 1 -15.5 5t-19.5 9q-12 6 -17.5 7t-6.5 -1v0zM400 606q-38 -8 -46 -18t-25 -71q-9 -30 -14.5 -51.5t-4.5 -21.5q1 -1 8.5 1t17.5 6q12 4 26 6t28 2q19 0 29.5 -2.5t28.5 -12.5
l28 -14l5 17q2 7 4.5 16.5t4.5 15.5t3.5 12t2.5 7q0 2 3.5 14t7.5 28q5 15 8 27t3 13t-5 5t-12 8q-23 14 -46.5 16.5t-54.5 -3.5v0zM540 555q-2 -4 -8.5 -26t-14.5 -48l-18 -63l13 -9q16 -10 37 -16t40 -5q20 1 47.5 8.5t30.5 13.5q2 2 23 71t21 72q0 1 -3.5 0t-7.5 -3
q-15 -5 -32 -7.5t-41 -2.5q-21 0 -31 2t-27 11l-25 13l-4 -11v0zM238 10q-3 -1 -9 -7t-12 -13q-7 -10 -9.5 -17.5t-1.5 -18.5v-18h659v19q0 18 -6 32.5t-16 19.5q-5 4 -67 5t-236 1h-114.5t-95.5 -0.5t-65.5 -1t-26.5 -1.5v0z" />
    <glyph glyph-name="uniE634" unicode="&#xe634;" horiz-adv-x="840" 
d="M309 954q-11 -6 -17.5 -15t-9.5 -21q-3 -21 -9 -25t-33 -7q-18 -1 -30.5 -10.5t-14.5 -22.5q-3 -12 2 -25t15 -20q9 -6 25 -7.5t90 -1.5q42 0 75.5 1t37.5 2q9 2 15.5 8t10.5 17q6 12 3 24.5t-12 22.5q-7 7 -13 9t-26 3t-26.5 7t-9.5 25q-2 12 -9.5 21t-18.5 15
q-12 6 -22 6t-23 -6zM36 853q-5 -2 -11.5 -8t-10.5 -13l-11 -17v-365q0 -87 0.5 -156t1 -116.5t1 -73.5t1.5 -28q4 -10 13.5 -19.5t18.5 -13.5q6 -2 67 -3.5t132 -1.5t129.5 1t59.5 3q0 2 -0.5 6.5t-2.5 9.5q-3 7 -5 16.5t-5 29.5q-1 4 -30.5 5t-138.5 2l-169 1v584h11h69.5
h143.5h151.5h93.5h43v-172q0 -122 1 -147t6 -23q3 1 12.5 2.5t20.5 1.5q11 1 19.5 2t10.5 2q2 0 3 58t1 169q-1 168 -2 198.5t-7 39.5q-14 19 -32 24.5t-73 6.5h-46l-3 -22q-3 -19 -13 -33.5t-26 -24.5q-10 -6 -29 -7t-99 -1t-99 1.5t-29 6.5q-17 10 -27.5 25.5t-11.5 33.5
l-2 21h-58q-26 0 -45 -1.5t-24 -3.5v0zM127 620q-6 -4 -7 -17t5 -18q2 -2 63 -3.5t134.5 -1.5t135.5 0.5t66 3.5q5 3 5.5 15t-4.5 18q-4 5 -34.5 6t-164.5 1q-92 0 -143.5 -1t-55.5 -3v0zM125 487q-2 -2 -3.5 -7t-1.5 -10t1.5 -10t3.5 -7q2 -3 46.5 -4t155.5 -1h197l4 9
q3 8 1.5 18.5t-6.5 13.5q-2 1 -60.5 2t-138.5 1q-110 0 -153 -1t-46 -4v0zM124 370q-4 -3 -4 -15.5t4 -17.5q1 -3 34 -4t129 -1q66 0 114.5 0.5t50.5 1.5q5 3 4 18.5t-7 18.5q-4 2 -54.5 3t-110 1t-109 -1.5t-51.5 -3.5zM598 308q-40 -10 -71 -35.5t-49 -62.5
q-35 -71 -10.5 -144.5t94.5 -107.5q26 -13 44 -17t46 -3q59 1 106.5 36t68.5 91q6 18 7 54t-4 57q-20 74 -89 113.5t-143 18.5v0zM769 205q3 -3 5 -7l3 -6q2 -6 -3 -18t-13 -20q-3 -4 -11 -12.5t-16 -17.5q-65 -74 -78 -87t-24 -13q-5 0 -18 8.5t-36 26.5q-26 21 -35.5 30.5
t-10.5 17.5q-2 8 -0.5 12.5t6.5 10.5q11 12 23.5 9.5t36.5 -21.5q11 -9 20 -15.5t10 -6.5t9.5 8.5t18.5 20.5q44 50 58.5 64.5t22.5 18.5q9 6 17.5 5t14.5 -8v0zM127 240q-6 -4 -6.5 -17.5t5.5 -18.5q3 -3 48.5 -4t99.5 -1t99.5 1t48.5 4q6 5 6 16.5t-6 17.5q-4 4 -29.5 5
t-117.5 1q-66 0 -105.5 -1t-42.5 -3v0z" />
    <glyph glyph-name="uniE635" unicode="&#xe635;" 
d="M729 817l-138 -142l-5 -29q-1 -12 -4.5 -23.5t-5.5 -14.5q-5 -7 1.5 -16t42.5 -47l51 -53l22 8q9 4 19.5 6.5t16.5 2.5q10 0 33.5 21.5t121.5 122.5l140 145l-78 81q-32 33 -55 57t-24 24l-40.5 -42t-97.5 -101zM182 932l-8 -2t-6 -2q-3 0 12 -17.5t43 -47.5
q25 -26 43 -45t18 -20t-4.5 -20t-11.5 -43l-16 -61l-59 -16l-60 -17l-62 62q-26 26 -45 43t-21 16q-1 -1 -2 -16.5t0 -35.5q0 -29 1.5 -44t7.5 -30q13 -35 36 -65.5t51 -50.5q33 -22 77.5 -31t83.5 0l27 5l261 -269q212 -220 249.5 -253t71.5 -33q20 0 32 4t29 17
q19 14 29.5 36t10.5 48q-1 32 -14 53t-69 78q-13 14 -40.5 42.5t-63 65t-76 78.5t-80.5 83l-196 201l2 48q2 27 0.5 43t-5.5 32q-15 59 -59 103t-102 58q-19 4 -45 5t-40 -2v0zM891 66q2 0 6 -3.5t8 -7.5q11 -12 11 -27.5t-11 -27.5q-10 -12 -27 -12t-28 12q-9 11 -10 26.5
t8 25.5q6 8 16.5 12.5t16.5 2.5q3 0 5.5 -0.5t4.5 -0.5v0zM273 230q-52 -54 -71.5 -71.5t-22.5 -14.5t-9 -0.5t-21 -16.5q-16 -12 -29.5 -30t-41.5 -64l-45 -73l23 -24l70 46q43 29 60.5 42.5t30.5 30.5q14 16 17 23t0 10q-3 4 10.5 19.5t56.5 61.5q30 31 56 58t33 34l17 18
l-20 21q-9 8 -16 14.5t-8 6.5t-27.5 -27t-62.5 -64v0z" />
    <glyph glyph-name="uniE636" unicode="&#xe636;" horiz-adv-x="1201" 
d="M680 948q-37 -10 -73 -39.5t-52 -61.5q-8 -18 -8 -22t6 -9q4 -3 8.5 -5t7.5 -2q14 -1 45 -28.5t46 -52.5q17 -30 24 -75t-3 -75q-3 -12 -1.5 -14.5t10.5 -5.5q20 -5 55.5 -2.5t58.5 11.5q61 23 93.5 73t35 106t-26 108.5t-87.5 80.5q-29 14 -69.5 17.5t-69.5 -4.5v0z
M767 874q4 -2 5.5 -24.5t1.5 -92.5q0 -74 -1.5 -94.5t-6.5 -26.5q-7 -7 -24 -6t-22 9q-1 2 -2.5 28t-1.5 60q0 51 -1 66.5t-6 15.5q-3 0 -6 -1.5t-4 -3.5q-5 -7 -12 -1t-11 20q-4 16 0.5 22.5t30.5 19.5q18 10 34.5 12.5t25.5 -3.5v0zM431 803q-41 -5 -81 -31.5t-60 -61.5
q-36 -60 -26 -128.5t61 -115.5q47 -43 107 -50t118 22q55 29 83 86.5t17 120.5q-9 50 -45.5 92.5t-84.5 57.5q-18 6 -44 8t-45 0v0zM494 725q2 -2 2.5 -37.5t0.5 -78t-1 -78.5t-2 -38q-5 -4 -23.5 -4.5t-23.5 4.5q-3 4 -4.5 24t-1.5 66v83l-11 -5q-11 -5 -18.5 -1t-10.5 18
t3 22t31 20q18 9 35.5 10.5t23.5 -5.5v0zM1067 395q-13 -5 -27.5 -10.5t-23.5 -9.5q-8 -3 -49.5 -21t-91.5 -40q-50 -21 -90.5 -38.5t-48.5 -20.5q-14 -6 -21.5 -14.5t-8.5 -15.5q0 -8 -15 -30.5t-30 -36.5q-19 -18 -43.5 -27.5t-55.5 -11.5q-28 -2 -58.5 3t-26.5 11
q1 3 4.5 3t7.5 -1q18 -5 67 15.5t67 41.5q22 24 30 48t0 39q-8 17 -32.5 22t-93.5 5q-87 -1 -133.5 -10t-100.5 -36q-24 -11 -74.5 -32.5t-97.5 -39.5q-58 -22 -86 -35t-29 -17t15 -32t40 -65q33 -51 46.5 -69.5t20.5 -18.5q4 0 26 4.5t49 11.5l64 16l72 -16
q30 -6 58.5 -11.5t38.5 -7.5q11 -1 21 -2.5t15 -2.5q20 -5 92.5 -4.5t95.5 5.5q26 5 51 16t38 22q4 4 46.5 36t97.5 74q239 181 271 208.5t32 52.5q0 35 -38.5 47t-90.5 -5v0z" />
    <glyph glyph-name="uniE637" unicode="&#xe637;" 
d="M227 678q-3 0 -16.5 -11.5t-30.5 -29.5q-17 -16 -29.5 -27.5t-13.5 -11.5q-1 1 -1.5 0.5t-0.5 -2.5q1 -1 -18 -20.5t-46 -46.5q-29 -28 -47.5 -49t-19.5 -25q-2 -3 -1.5 -8t1.5 -9t34.5 -38.5t73.5 -75t73.5 -73t35.5 -31.5q1 1 1.5 0.5t0.5 -1.5q0 -3 8 -3t15 4
q9 5 16 11.5t7 9.5q0 2 1 2.5t2 -0.5q2 -1 3 0t1 3t0.5 3.5t1.5 1.5t3.5 2.5t4.5 6.5q7 13 -2 26.5t-51 55.5q-22 22 -37 37.5t-15 16.5t64 1.5t155 0.5q45 0 93.5 0.5t93.5 0.5h83h61q47 1 79.5 0.5t32.5 -1.5t-15.5 -17.5t-37.5 -38.5l-54 -54v-14q1 -9 4.5 -14.5
t14.5 -16.5q14 -14 24.5 -21t13.5 -4q0 1 2 1.5t4 0.5q3 -1 31 25t80 79q44 43 76.5 76.5t33.5 36.5q1 2 2 5.5t0 5.5q0 2 -0.5 5t-0.5 6q0 2 -33 36.5t-73.5 75t-74.5 74t-37 33.5q-16 2 -22.5 -0.5t-23.5 -20.5q-25 -25 -21 -37.5t54 -63.5q22 -22 37.5 -38.5t15.5 -17.5
t-36.5 -1.5t-88.5 -0.5h-65t-84 -0.5t-92.5 -0.5h-90.5q-85 -1 -145 -0.5t-60 1.5q1 3 29 30.5t30 27.5q1 0 2 1t1 3q0 1 6 8t15 16q18 17 23 26t1 20q-3 9 -23 28.5t-24 17.5h-3.5t-1.5 1q-1 1 -3.5 1.5t-5.5 -0.5v0z" />
    <glyph glyph-name="uniE638" unicode="&#xe638;" 
d="M166 950q-7 -7 -8.5 -18t-1.5 -66t1 -66t9 -18q6 -6 12 -8t18 -2t18 2t12 8q7 7 8.5 18t1.5 66t-1 66t-9 18q-6 6 -12 8t-18 2t-18 -2t-12 -8zM606 950q-7 -7 -8.5 -18t-1.5 -66t1 -66t9 -18q6 -6 12 -8t18 -2t18 2t12 8q7 7 8.5 18t1.5 66t-1 66t-9 18q-6 6 -12 8t-18 2
t-18 -2t-12 -8zM38 862q-12 -5 -23 -18t-13 -25q0 -3 -0.5 -30.5t-1 -72t-0.5 -103t1 -124.5q1 -234 2 -276.5t7 -50.5q4 -5 9.5 -10.5t10.5 -9.5q8 -6 37.5 -7t183.5 -2l210 -1l-3 9q0 4 -1 15.5t-1 24.5v31l-356 2l-13 13l-13 13l-2 404h688v-148h18q7 0 17.5 -1t18.5 -1
l18 -3l-1 168q-1 122 -2 146.5t-7 32.5q-13 18 -25.5 23t-42.5 6l-38 2v-41q0 -34 -4.5 -49t-17.5 -28q-12 -11 -24.5 -15t-33.5 -4t-33.5 4t-24.5 15q-13 13 -17.5 28t-4.5 49v40h-280v-40q0 -34 -4.5 -49t-17.5 -28q-12 -11 -24.5 -15t-33.5 -4t-33.5 4t-24.5 15
q-13 13 -17.5 28t-4.5 49v40h-33q-14 0 -27 -2t-18 -4v0zM202 582q-5 -2 -12 -7t-12 -11q-8 -8 -10 -14.5t-2 -25.5t2 -25.5t12 -16.5q18 -19 41.5 -21t42.5 14q25 21 24 51.5t-28 50.5q-11 8 -28.5 9.5t-29.5 -4.5v0zM388 579q-14 -7 -25 -23.5t-11 -31.5t11 -31.5
t25 -23.5q7 -4 15.5 -6.5t12.5 -2.5t12.5 2.5t15.5 6.5q14 7 25 23.5t11 31.5t-11 31.5t-25 23.5q-7 4 -15.5 6.5t-12.5 2.5t-12.5 -2.5t-15.5 -6.5zM584 584q-25 -10 -35.5 -37t1.5 -51q16 -30 47 -34.5t55 20.5q10 10 12 16.5t2 25.5t-2 25.5t-10 14.5q-15 16 -33.5 21
t-36.5 -1zM724 426q-26 -6 -59 -22.5t-54 -35.5q-18 -16 -37 -43t-28 -49q-14 -37 -16.5 -75.5t6.5 -74.5q17 -65 63 -113t111 -67q13 -4 29 -6t39 -2q29 0 42 2t34 9q57 20 97 60t60 97q7 21 9 34t2 42q0 55 -17.5 97t-54.5 79q-45 45 -104.5 63t-121.5 5v0zM809 344
q49 -11 83.5 -47t43.5 -87q7 -37 -5.5 -76t-41.5 -66q-35 -35 -79 -43.5t-84 5t-70.5 46.5t-39.5 82q-12 61 24 115t98 69q19 5 35 5.5t36 -3.5v0zM752 252v-44h-88v-56h144v144h-56v-44zM202 390q-5 -2 -12 -7.5t-12 -10.5q-8 -8 -10 -14.5t-2 -25.5t2 -25.5t12 -16.5
q18 -19 41.5 -21t42.5 14q25 21 24 51.5t-28 50.5q-11 8 -28.5 9.5t-29.5 -4.5v0zM388 387q-14 -7 -25 -23.5t-11 -31.5t11 -31.5t25 -23.5q7 -4 15.5 -6.5t12.5 -2.5t12.5 2.5t15.5 6.5q14 7 25 23.5t11 31.5t-11 31.5t-25 23.5q-7 4 -15.5 6.5t-12.5 2.5t-12.5 -2.5
t-15.5 -6.5z" />
    <glyph glyph-name="uniE639" unicode="&#xe639;" horiz-adv-x="1033" 
d="M435 951q-53 -8 -116.5 -35t-109.5 -61q-33 -25 -62.5 -56t-54 -67t-43 -75.5t-30.5 -80.5q-11 -42 -13.5 -108t5.5 -111q7 -41 20.5 -80.5t33.5 -76t45 -69.5t54 -60q46 -42 104.5 -75t115.5 -47q36 -9 51.5 -8t25.5 13q19 23 7 43t-53 29q-31 8 -69.5 24.5t-64.5 32.5
q-26 17 -62 51.5t-53 59.5q-28 39 -46.5 83.5t-27 91t-6.5 94t14 93.5q7 27 26.5 68t36.5 67q38 55 90.5 94.5t114.5 61.5t129.5 25.5t133.5 -14.5q29 -8 72 -28t46 -27q1 -2 -3 -11t-11 -19q-13 -19 -14 -28.5t10 -9.5q15 0 81.5 7t71.5 9q3 1 6 4.5t4 7.5q2 6 -16.5 77
t-23.5 80q-5 8 -12.5 2.5t-20.5 -24.5q-7 -11 -13 -18.5t-7 -7.5t-6.5 3t-12.5 7q-35 23 -84 41t-95 26q-29 5 -82.5 5.5t-85.5 -3.5v0zM479 775q-17 -7 -19.5 -30t-2.5 -161v-172l143 -75q60 -31 107.5 -54.5t55.5 -26.5q13 -6 17.5 -5.5t13.5 6.5q10 7 12.5 20.5
t-2.5 23.5q-2 4 -42.5 26.5t-98.5 52.5l-137 70l-2 153q-1 110 -2.5 133t-7.5 29q-8 8 -17 10.5t-18 -0.5v0zM926 647q-11 -12 -12 -27t10 -38q7 -13 12 -19t14 -9q21 -7 37.5 5t15.5 34q-1 40 -27 58.5t-50 -4.5v0zM977 502q-17 -2 -26 -25t-4 -48q5 -22 23.5 -31t38.5 1
q10 6 14.5 18t4.5 33q0 27 -14 41t-37 11v0zM938 331q-4 -4 -9 -13.5t-8 -19.5q-5 -15 -5 -21.5t4 -16.5q8 -18 26.5 -23t34.5 8q11 8 19 31.5t5 36.5q-6 22 -28.5 28.5t-38.5 -10.5zM858 181q-16 -16 -20.5 -28t-1.5 -25q4 -14 13.5 -21.5t26.5 -7.5q13 0 18.5 3t16.5 16
q15 17 19 31t-1 28q-4 11 -14.5 17.5t-24.5 6.5q-7 0 -14.5 -4.5t-17.5 -15.5v0zM759 87q-15 -5 -29.5 -18t-16.5 -23q-4 -19 9 -36t32 -17q8 0 28.5 13.5t26.5 22.5q17 24 -2.5 46.5t-47.5 11.5zM622 26q-42 -5 -56.5 -27.5t8.5 -45.5q10 -9 15.5 -11t20.5 0q23 2 36 8
t19 17q6 14 5 23t-10 20t-16.5 14t-21.5 2v0z" />
    <glyph glyph-name="uniE63A" unicode="&#xe63a;" horiz-adv-x="1327" 
d="M947 951q-45 -11 -84.5 -35t-70 -58t-51 -75.5t-27.5 -87.5q-6 -48 2.5 -94.5t30.5 -87.5t56 -74.5t78 -55.5q71 -34 136 -34t134 34q38 19 69 47.5t53.5 64t35 76t12.5 82.5q0 72 -32 134t-85 104t-120 59.5t-137 0.5v0zM1096 905q69 -21 118.5 -79.5t60.5 -131.5
q11 -66 -10 -124.5t-63.5 -101t-101 -63t-124.5 -10.5q-66 11 -115.5 48.5t-77 90.5t-29 115t27.5 122q27 54 78.5 93t109.5 49q25 5 62 2.5t64 -10.5zM868 793q-3 -1 -7 -5.5t-6 -9.5q-4 -7 7.5 -22t60.5 -65q31 -31 56 -55t29 -26q7 -4 24 9.5t68 64.5q33 33 57 59t24 28
q0 7 -9 16.5t-15 9.5q-3 0 -24.5 -19.5t-49.5 -47.5l-68 -67l-61 62q-48 48 -62.5 59.5t-23.5 8.5v0zM506 678v-78l-97 -2q-83 -2 -112 -10.5t-67 -41.5q-17 -16 -45.5 -48t-57 -68t-52.5 -69t-32 -49q-21 -43 -29.5 -87.5t-5.5 -93.5q3 -55 8.5 -64t39.5 -9q22 0 29.5 -1.5
t7.5 -7.5q0 -10 13 -32.5t26 -34.5q22 -21 43 -29t52 -8q45 0 77 21.5t51 64.5l12 27h475l4 -20q4 -21 23 -44.5t43 -38.5q17 -10 29.5 -13t35.5 -3q47 0 82.5 24.5t50.5 67.5l10 27h119v151h41v114q0 47 -0.5 80t-1.5 33q-2 0 -13 -9t-26 -22q-61 -53 -135 -73t-152 -3
q-63 13 -115.5 49t-88 86t-51 110t-5.5 122q3 19 6 34.5t4 18.5q2 4 -17.5 5.5t-78.5 1.5h-100v-78v0zM493 470l-1 -89l-177 -2l-177 -1l20 25q30 39 71 82t60 56l27 18h179l-2 -89v0zM287 167q31 -21 39.5 -65t-12.5 -75q-29 -42 -75.5 -46.5t-81.5 30.5q-54 53 -18 117.5
t112 51.5q9 -2 19.5 -5.5t16.5 -7.5v0zM1016 172q22 -10 34 -21t21 -32q11 -23 10.5 -44t-11.5 -44q-17 -36 -49.5 -48.5t-64.5 -5.5t-55.5 32.5t-23.5 66.5q0 55 44.5 86t94.5 10v0zM185 138q-22 -18 -27 -43t8 -48q29 -48 80 -32.5t51 72.5q0 14 -4 22.5t-17 21.5
t-21.5 16.5t-26.5 3.5q-15 0 -24.5 -3t-18.5 -10v0zM941 135q-13 -8 -23 -26.5t-10 -34.5q0 -14 13 -34t27 -27q23 -11 48.5 -4t42.5 29q3 5 5.5 16t2.5 23q0 18 -3.5 26.5t-16.5 21.5t-21.5 16.5t-23.5 3.5q-11 0 -22.5 -3t-18.5 -7z" />
    <glyph glyph-name="uniE63B" unicode="&#xe63b;" horiz-adv-x="1913" 
d="M162 944q-6 -3 -13 -13t-11 -20q-8 -18 -7.5 -26.5t8.5 -25.5q5 -11 10.5 -18.5t8.5 -7.5t4.5 -74.5t1.5 -182.5v-257l-27 -10q-39 -12 -68 -38t-48 -64q-15 -31 -18.5 -46.5t-0.5 -43.5q7 -79 59 -128t130 -49q27 0 46 3.5t32 10.5q25 13 50.5 37t36.5 44l11 21h417
l11 -21q19 -37 60.5 -64t84.5 -33q51 -5 95 15.5t79 66.5l26 36h406l12 -21q10 -20 36 -44t50 -37q27 -14 78.5 -14t78.5 14q54 28 81 71.5t28 101.5q0 33 -4 49.5t-18 42.5q-26 47 -69 71.5t-89.5 26.5t-90.5 -19.5t-72 -66.5l-22 -33h-408l-11 21q-13 24 -48 53t-60 36
q-63 19 -128 -5.5t-94 -77.5l-15 -27h-414l-12 21q-17 30 -46 55t-57 32l-20 5v261q0 123 2 192t5 69q10 0 20 25.5t6 42.5q-6 31 -40.5 45.5t-62.5 -2.5v0zM272 801q-1 -4 -1.5 -53t0.5 -113q1 -113 3.5 -135.5t13.5 -23.5q6 -1 69 22t144 57q197 81 197 99.5t-197 86.5
q-82 29 -144 49t-68 20q-5 0 -10 -2.5t-7 -6.5z" />
    <glyph glyph-name="uniE63C" unicode="&#xe63c;" horiz-adv-x="1021" 
d="M424 950q-38 -7 -72 -18t-68 -27q-56 -28 -103.5 -68t-83 -89.5t-59.5 -107.5t-33 -122q-3 -21 -3 -71t3 -69q10 -69 37 -130.5t69 -116.5q16 -20 48 -50.5t55 -46.5q43 -31 94 -53t105 -33q36 -7 94 -7.5t94 6.5q48 9 97 28.5t87 44.5q44 28 80.5 64t65 78.5t48.5 90
t31 99.5q6 29 7.5 70.5t-1.5 74.5q-6 66 -29 127t-59.5 114.5t-86 96t-107.5 70.5q-40 19 -69 28.5t-70 16.5q-34 6 -86 6t-85 -6v0zM557 866q21 -10 34 -25t20 -37q6 -17 4.5 -41.5t-9.5 -40.5q-17 -34 -54 -49.5t-76 -3.5q-64 20 -72 88t49 105q20 13 51.5 14t52.5 -10v0z
M601 322q0 -58 -0.5 -109t-0.5 -89.5v-61v-23.5q0 -2 -20 -2.5t-70 -0.5h-91v281v109.5t0.5 90t0.5 61v22.5q1 1 27.5 1.5t63.5 0.5l90 -1v-279v0z" />
    <glyph glyph-name="uniE63D" unicode="&#xe63d;" horiz-adv-x="1528" 
d="M8 843q0 -66 2 -91.5t7 -25.5q12 -1 46.5 -1.5t72.5 -0.5h69t34 1q5 2 7 28.5t2 90.5v116h-240v-117v0zM432 843q0 -60 1.5 -88.5t6.5 -28.5q4 0 36 -0.5t70.5 -0.5t72 0.5t41.5 0.5q11 0 13 16t2 100l-1 114l-121 2l-121 2v-117v0zM858 842v-119l117 1q48 0 83.5 1
t37.5 3q2 3 3 64.5t0 148.5v19h-241v-118v0zM1287 958q-1 -1 -1.5 -35t-0.5 -81q-1 -57 0.5 -86.5t5.5 -29.5q5 0 37 -0.5t70 -0.5t71.5 0.5t40.5 0.5q12 0 14.5 15.5t0.5 100.5v114l-119 2q-49 1 -84 1t-35 -1v0zM9 449l2 -118h237v237l-240 -2l1 -117v0zM434 562
q-1 -2 -1.5 -36.5t-0.5 -81.5l1 -113h241v234l-118 1q-49 1 -84.5 0t-37.5 -4v0zM858 449v-118h116q48 0 83.5 1t37.5 3q3 3 4.5 69t0.5 128l-1 35h-241v-118v0zM1287 566q-1 0 -1.5 -34t-0.5 -82q-1 -73 1 -94t9 -22q5 -2 40 -2.5t81 -0.5h109l1 118l1 117l-120 1
q-49 1 -84.5 0.5t-35.5 -1.5v0zM8 56v-118h120l120 1v235h-120l-120 1v-119v0zM436 174q-1 0 -1.5 -34t-1.5 -81q-1 -58 1 -87t6 -31q3 -1 39 -2t82 0l113 1v233l-118 1h-84.5h-35.5v0zM862 170q-2 -1 -3 -35.5t-1 -81.5v-114l121 -1h120l2 39q1 15 1 50t-1 68l-2 80h-117
q-48 -1 -83.5 -2t-36.5 -3v0zM1287 174q-1 -1 -1.5 -37t-0.5 -79t0.5 -79t2.5 -37q1 0 36.5 -1t84.5 -1l116 -2v118l1 118h-120h-84h-35v0z" />
    <glyph glyph-name="uniE63E" unicode="&#xe63e;" horiz-adv-x="701" 
d="M340 914q-91 -24 -136.5 -26.5t-74.5 15.5q-93 59 -111 -5.5t-18 -462.5q0 -360 7.5 -429.5t46.5 -69.5q38 0 46 37.5t8 205.5v242h91q37 0 98 12.5t110 30.5q52 18 109.5 25.5t97.5 -1.5l89 -16l-16 475l-94 5q-39 2 -114 -9t-139 -29v0z" />
    <glyph glyph-name="uniE63F" unicode="&#xe63f;" horiz-adv-x="1369" 
d="M485 956l-24.5 -3.5t-36.5 -5.5q-41 -6 -98.5 -26t-96.5 -42q-56 -31 -99.5 -73t-73.5 -91t-44 -102.5t-10 -106.5q5 -72 34.5 -132.5t87.5 -118.5l47 -48l-25 -51q-11 -21 -26.5 -46.5t-26.5 -40.5q-11 -16 -18 -27.5t-7 -12.5q4 -3 78 4.5t107 13.5q36 9 71.5 20.5
t62.5 25.5q18 9 31 10t58 -3q52 -6 105.5 -2.5t105 15.5t100.5 32t92 48q85 55 133.5 130.5t59.5 157.5t-17 164.5t-97 150.5q-27 27 -59.5 50t-69 42t-76.5 33.5t-81 22.5q-35 8 -101 12t-86 0v0zM1203 532q0 -58 -2.5 -82t-11.5 -54q-15 -48 -37.5 -91t-53 -82
t-68.5 -73.5t-85 -66.5q-44 -30 -112.5 -58t-126.5 -41l-36 -7l42 -14q42 -14 104 -21t105 -3q19 1 50.5 6.5t56.5 12.5q44 10 57.5 11t34.5 -5q29 -9 86.5 -16t82.5 -5l26 2l-22 30q-9 13 -19.5 30.5t-16.5 29.5l-15 29l30 34q50 54 73.5 115t22 123.5t-28.5 123t-79 113.5
q-19 19 -34.5 33.5t-17.5 14.5t-3.5 -26.5t-1.5 -62.5v0z" />
    <glyph glyph-name="uniE640" unicode="&#xe640;" horiz-adv-x="1204" 
d="M376 880q-74 -33 -128.5 -57.5t-57.5 -26.5q-6 -4 -15.5 -13t-13.5 -16q-5 -8 -10 -18.5t-8 -18.5q-1 -7 -1.5 -26.5t-0.5 -129.5q0 -60 0.5 -103.5l0.5 -43.5l3 1t8 2q25 7 51.5 9t50.5 -1q63 -6 116 -39t88 -87q24 -36 36 -80t9 -87q-2 -24 -6.5 -43t-12.5 -40
q-2 -5 -3 -8.5t-1 -4.5q1 0 24.5 -10t52 -22t53 -22.5t27.5 -11.5q8 -3 16.5 -4t21.5 -1q19 1 45 11.5t271 115.5q62 26 106.5 45t46.5 20q17 9 32.5 28.5t21.5 41.5q2 7 2.5 57t1.5 230v191l-3 11q-1 5 -3 10.5t-3 8.5q-7 15 -19 29t-24 21q-3 1 -30 13.5t-58.5 26.5
t-57.5 25.5t-27 11.5t-7 -2.5t-21 -9.5q-6 -3 -44 -21t-82 -38.5t-81 -38t-40 -18.5q-5 -3 -24 -12l-38 -18q-5 -2 -33 -15t-62 -29l-84 -40v-78l-1 -78l-45 20q-18 8 -31 14t-14 6v78v78l37.5 17.5t87 41t99.5 47t75 35.5q12 5 58.5 27t57.5 27q5 3 22 11t35 16t30.5 14.5
l12.5 6.5l-14.5 6.5t-34.5 15.5l-49 22h-233l-179 -80v0zM1091 581q26 -30 29.5 -35.5t-0.5 -12.5q-2 -6 -7.5 -10t-17.5 -9l-13 -6v-88q0 -45 -0.5 -68t-1.5 -25q0 -2 -2 -4.5t-4 -5.5q-3 -3 -8 -5.5t-18 -8.5q-19 -7 -23.5 -8.5t-7.5 1.5l-3 3v88q0 36 -0.5 62l-0.5 26
l-4.5 -1.5t-9.5 -4.5l-10 -4t-6 -2q-2 0 -3.5 1t-2.5 2q-2 2 -2.5 3.5t0.5 3.5q0 3 21 48.5t37 77.5q4 9 9.5 13.5t12.5 4.5q3 0 7.5 -5t28.5 -31v0zM838 510q1 -1 10 -11.5t26 -30.5q2 -2 6 -7t8 -9t7 -8t3 -5q1 -4 -1 -8.5t-6 -8.5q-2 -3 -6 -5.5t-11 -5.5l-12 -5v-86v-67
t-1 -22q-2 -5 -8 -9.5t-21 -11.5q-18 -7 -22 -8t-7 1q-2 2 -2.5 4.5t-1.5 15.5q0 15 -0.5 62.5t-0.5 69.5v21l-14 -6q-5 -3 -9.5 -4.5t-5.5 -1.5l-1.5 0.5t-3.5 1.5q-4 3 -0.5 13t25.5 60q12 26 21 44.5t10 19.5q4 5 9.5 7t8.5 0v0zM1147 309q1 -1 1 -4v-9q0 -15 -16 -23
t-188 -81q-83 -35 -142.5 -59.5t-60.5 -24.5q-3 0 -3.5 2.5t-0.5 12.5v10t2 4q1 1 49 22t153 66q82 35 141.5 60t60.5 26q1 0 2.5 -0.5t1.5 -1.5v0zM206 387q-32 -4 -61 -15t-54 -30q-9 -6 -21.5 -18t-18.5 -20q-30 -37 -42.5 -82.5t-5.5 -92.5q11 -73 63 -126t126 -64
q10 -2 28 -2.5t28 0.5q27 3 53.5 12.5t48.5 23.5q26 18 46 40.5t34 50.5q8 18 13 35t7 36q2 11 1.5 29t-1.5 29q-6 42 -26.5 78.5t-52.5 63.5q-25 21 -56 34.5t-63 16.5q-7 1 -23.5 1h-22.5v0zM362 263q6 -3 10.5 -7t6.5 -10q3 -5 3 -14.5t-3 -14.5q-1 -3 -23.5 -29
t-49.5 -56.5t-50.5 -56.5t-26.5 -28q-7 -5 -17 -6.5t-18 2.5q-2 1 -17 13t-34 27q-26 21 -37 30.5t-13 12.5q-9 13 -4.5 28t18.5 22q6 3 15 3t15 -3q2 -1 12.5 -9t23.5 -18q12 -11 21.5 -18t10.5 -7l18 19.5t42 47.5q28 31 45 50t20 20q7 5 15.5 5t16.5 -3v0z" />
    <glyph glyph-name="uniE641" unicode="&#xe641;" horiz-adv-x="960" 
d="M219 893q-37 -28 -63 -47.5l-26 -19.5l26.5 -19.5t62.5 -47.5l90 -65v44v44h544v88l-544 1v43v31.5t-1 12.5l-26.5 -19t-62.5 -46v0zM848 682q-36 -3 -66 -17t-54 -38q-19 -18 -31.5 -40.5t-19.5 -49.5l-3 -11l-18 -1h-17l-5 -21q-1 -8 -2.5 -14.5t-1.5 -7.5l-1 -2h20
q13 0 16.5 -0.5t2.5 -1.5v-6v-13v-18l-15 -1h-14l-5 -21q-2 -9 -3 -15.5t-1 -7.5q-1 0 4 -0.5t17 -0.5h22l1 -4q12 -55 49 -95t89 -53q12 -3 22.5 -4.5t26.5 -1.5q28 -1 49.5 3t42.5 13l5 2v90l-6 -5q-11 -10 -26 -17t-31 -10q-9 -2 -22.5 -2.5t-20.5 0.5q-30 4 -51.5 22.5
t-30.5 47.5q-2 4 -3 7.5t-1 4.5v2l136 1l4 19q2 8 3.5 15t1.5 8v3h-151l-1 2v6.5v12.5v18h161l1 4q0 2 1.5 9t3.5 14l3 18h-164l1 5q3 11 8 20.5t10 16.5q16 22 39.5 32.5t52.5 9.5q19 -1 34.5 -6t26.5 -14q2 -2 3.5 -3l1.5 -1q1 0 3.5 12t5.5 28q5 24 7 32.5t1 8.5
t-3.5 1.5t-6.5 2.5q-8 3 -20 6.5t-22 4.5q-9 1 -29.5 1.5t-29.5 -0.5v0zM340 672q-1 -1 -1 -7t-1 -45v-32t-1 -20v-20v-30q-1 -16 -1 -31v-20q-1 -6 -1 -20.5v-29.5t-0.5 -29.5t-0.5 -19.5q0 -6 -0.5 -21.5t-0.5 -32.5q0 -35 -0.5 -43t-2.5 -8q-1 -1 -24.5 -1.5t-58.5 -0.5
q-49 0 -65.5 -0.5t-18.5 -1.5q-13 -4 -12.5 -15.5t13.5 -15.5q2 -1 22.5 -1h78.5q41 0 70 0.5t30 0.5l0.5 0.5t0.5 1.5q1 2 1.5 15t0.5 44q0 18 0.5 33t0.5 19t0.5 18.5t0.5 31.5v31.5t1 18.5v19.5v30.5q1 16 1 30v18q1 4 1 19.5v32.5q1 30 1 42.5t1 13.5h10h24
q19 0 26.5 0.5t9.5 1.5q6 2 7 9t-4 12l-3 3h-51q-23 0 -38 -0.5t-16 -0.5v0zM8 585q0 -1 -0.5 -2l-0.5 -1v-10v-22q-1 -12 -1 -23.5v-13.5q0 -3 -0.5 -13t-0.5 -21q0 -10 -0.5 -20.5t-0.5 -14.5t-0.5 -14t-0.5 -21q0 -10 -0.5 -20t-0.5 -13q0 -4 -0.5 -15t-0.5 -24v-31h289
v5q0 2 0.5 11t0.5 21q0 11 0.5 22t0.5 14q0 4 0.5 14t0.5 19q0 10 0.5 21t0.5 17q0 17 1 51t1 57q1 11 1 19v8q1 1 -8.5 1h-35.5q-19 0 -61.5 0.5t-83.5 0.5l-100 1v-3v0zM133 507q33 -1 45.5 -1.5t28.5 -1.5q13 -1 20.5 -1.5l7.5 -0.5q1 0 -1.5 -33.5t-3.5 -33.5
q0 -1 -40.5 1t-67.5 3q-14 1 -28.5 1.5t-17.5 0.5h-4v4q0 4 2.5 33.5t2.5 30.5t1.5 1h3.5t17 -1t34 -2v0zM117 474q0 -6 -0.5 -10.5t-0.5 -5.5q1 0 37 -1.5l36 -1.5q1 0 2 15.5l1 15.5l-5 0.5t-12 0.5t-14.5 0.5t-10.5 0.5q-4 0 -10 0.5t-10 0.5l-12 1l-1 -16v0zM452 333
q-17 -4 -30.5 -15t-19.5 -26q-14 -34 7.5 -63.5t58.5 -26.5q23 1 40.5 15.5t23.5 36.5q1 7 1 16t-1 15q-2 9 -6.5 16t-10.5 14q-5 5 -8 7t-9 4q-8 5 -15 6.5t-16 1.5q-4 0 -8.5 -0.5t-6.5 -0.5v0zM473 300q13 -3 20.5 -13.5t4.5 -22.5q-1 -9 -6 -15.5t-13 -9.5
q-4 -2 -6 -2.5t-9 -0.5q-6 0 -8 0.5l-6 1.5q-5 3 -9 7t-7 9l-1.5 6t-0.5 7t0.5 7.5t1.5 5.5q5 11 16.5 17t22.5 3v0zM768 164v-29v-15v-7h-543v-44v-44h543v-16v-19v-25t0.5 -20l0.5 -8l25 18t56 41t59 43.5t35 25.5l5 4l-88 65q-36 26 -62.5 45.5t-27.5 20.5l-3 2v-38v0z
" />
    <glyph glyph-name="uniE642" unicode="&#xe642;" horiz-adv-x="1354" 
d="M934 958q-2 0 -48 -16.5t-103 -37t-107.5 -39t-62.5 -23.5q-24 -9 -43 -30.5t-26 -48.5q-4 -14 -3 -34t6 -39q4 -17 16 -31.5t27 -22.5q5 -2 11 -4l9 -3q8 -2 19.5 -2t18.5 2q3 1 31 9t64 18q70 21 84 24t20 0q5 -3 7 -8.5t3 -16.5v-14l28 -14l27 -14v152l-3 -1
q-10 -3 -71.5 -21.5t-114.5 -34.5q-56 -16 -72.5 -20.5t-21.5 -4.5q-7 0 -12 2t-10 7q-4 4 -6 10.5t-4 18.5q-1 10 -1 14t1 10q3 14 11.5 26t20.5 17q5 3 54.5 21t108 39.5t107 38.5t51.5 18q12 1 24.5 -6t17.5 -19q1 -2 17 -47t38 -106q42 -118 51.5 -147t13.5 -58
q5 -25 5.5 -49.5t0.5 -137.5l-1 -143l-3 -6q-5 -9 -13 -15t-17 -8q-3 -1 -24.5 -1h-54.5h-72l-21 -27q-8 -11 -14.5 -19l-6.5 -8l28.5 -0.5t68.5 -0.5q80 0 95.5 1t28.5 6q22 9 37 26t21 40l3 10v139q1 63 0.5 105.5t-1.5 49.5q-1 26 -6.5 55t-11.5 51q-3 10 -21 60
t-38 106.5t-37.5 103.5t-18.5 50q-9 17 -23 28.5t-32 16.5q-8 3 -12.5 3.5t-14.5 1.5q-8 0 -13.5 -0.5t-9.5 -1.5v0zM189 742q-32 -40 -61.5 -77.5t-52.5 -67t-38.5 -49t-19.5 -23.5l-17 -23l3 -15q15 -71 53 -120.5t104 -82.5q34 -17 71.5 -29.5t120.5 -33.5
q87 -22 127.5 -35t73.5 -30q67 -34 106 -85t52 -123l2 -11l171 216q127 161 149 189.5t22 32.5q0 6 -3.5 21t-8.5 29q-10 32 -25 56.5t-37 47.5q-31 32 -76.5 56.5t-111.5 43.5l-19 6l-59 -18q-25 -7 -43 -12.5l-18 -5.5q-1 0 1 -1t6 -2q11 -2 21.5 -6t20.5 -9
q46 -24 62.5 -67.5t-1.5 -92.5q-5 -16 -16 -33.5t-24 -31.5q-35 -39 -93 -62.5t-124 -25.5q-47 -2 -87.5 4.5t-67.5 20.5q-63 34 -69 99.5t49 125.5q35 38 91.5 61.5t121.5 26.5l16 1l-6 4q-9 7 -17 19t-12 23q-2 7 -4.5 23t-2.5 25v9l-6 3q-3 1 -9 4l-12 6q-60 33 -96 81.5
t-50 116.5l-3 15l-154 -194v0zM1205 334v-219h9h26h49l64 -1v437l-4 1q-1 0 -23 0.5t-51 0.5h-70v-219v0zM569 549q-27 -4 -55.5 -17t-49.5 -31l-7 -5l-19 6l-20 6l-12 -8q-10 -8 -9 -9.5t22 -8.5l19 -6l-7 -9q-3 -4 -6 -7.5t-3 -4.5l-2 -2l-37 12l-12 -9q-4 -3 -7.5 -6
l-3.5 -3l6.5 -2t16.5 -5q9 -4 16 -6l7 -2l-1 -2.5t-3 -5.5q-7 -14 -9.5 -28.5t-0.5 -24.5q2 -8 5.5 -15.5t9.5 -12.5q18 -19 56.5 -23.5t73.5 7.5q22 7 42 19.5t34 25.5l5 6l-12 3q-14 5 -17 4.5t-11 -6.5q-14 -12 -28.5 -20t-29.5 -12q-19 -5 -41 -2t-35 14q-7 5 -10.5 12
t-3.5 17q0 4 0.5 8.5t1.5 7.5q2 7 4.5 12.5t3.5 5.5t16 -4t36 -9l50 -13l12 9q5 4 8 6.5t3 3.5q-1 0 -17 4t-38 10q-22 5 -38 9.5t-17 4.5q-2 1 -1 3t8 9q3 5 6 8t4 3t16 -3.5t35 -9.5q21 -5 36.5 -8.5t16.5 -3.5t5 2.5t8 6.5l12 8l-53 14q-22 5 -38 9.5t-17 4.5
q-2 1 10 9.5t24 14.5q16 8 27.5 10.5t28.5 2.5q16 0 24.5 -1.5t19.5 -6.5q15 -7 19.5 -20t-1.5 -29q-2 -3 -2.5 -5l-0.5 -2l4.5 -1.5t9.5 -2.5l10.5 -3.5t5.5 -1.5t5.5 9t6.5 16q2 9 1 19.5t-5 18.5q-5 13 -22 22t-41 13q-7 2 -24.5 2t-23.5 -1v0z" />
    <glyph glyph-name="uniE643" unicode="&#xe643;" horiz-adv-x="1352" 
d="M0 584v-376h977l13 18q9 14 20.5 26.5t20.5 19.5l7 6l-963 1v534h1165v-144v-115.5t1 -28.5q1 1 12 6t25 13l36 18v398h-1314v-376v0zM140 696v-39h517v79h-517v-40v0zM140 558v-39h940v78h-940v-39v0zM1251 469l-101 -51l-23 -71q-10 -29 -17 -50t-7 -22q1 -2 22.5 -15
t22.5 -12l15.5 22t36.5 53l52 74l-2 5q-4 9 -0.5 18.5t12.5 14.5q10 5 21 1.5t16 -13.5q4 -8 2.5 -16t-8.5 -14q-4 -3 -7 -4.5t-9 -2.5l-7 -1l-52 -75q-36 -51 -44 -63t-6 -13q7 -5 25 -16t19 -11q3 1 61.5 48t58.5 48t3 33t7 76t7 76l3 32l-29.5 -15t-71.5 -36v0zM1072 240
q-17 -12 -27.5 -20.5t-16.5 -15.5q-3 -2 -22.5 -29.5t-42 -60t-41 -59t-18.5 -27.5l21 -13.5t51 -32.5l71 -46l3 4q1 2 18.5 27t40.5 58q25 36 42 61t20 30q2 4 4.5 10.5t3.5 11.5q3 8 8.5 29.5t5.5 22.5q-1 1 -49.5 31.5t-49.5 30.5q-1 1 -7.5 -3t-14.5 -9v0z" />
    <glyph glyph-name="uniE900" unicode="&#xe900;" horiz-adv-x="1073" 
d="M1053 949q-1 -1 -9 -2.5t-19 -2.5q-25 -3 -44 -5.5t-35 -5.5q-7 -1 -16 -2.5t-16 -2.5q-34 -4 -47 -5.5t-19 -3.5q-2 -1 -12.5 -2.5t-22.5 -2.5t-44.5 -5.5t-65.5 -8.5q-33 -5 -63.5 -9t-39.5 -5q-9 -2 -19 -3.5t-15 -1.5q-5 -1 -16 -2.5t-21 -3.5q-10 -1 -17.5 -2.5
t-8.5 -2.5l-0.5 -55t-1 -124t-0.5 -131.5t1 -77.5q0 -6 42 -7.5t244 -1.5h284l-1 237q0 158 -1.5 198.5t-6.5 41.5h-6t-4 -1v0zM424 861q-1 -1 -11 -2.5t-23 -2.5q-23 -2 -37.5 -4t-41.5 -6l-20 -2.5t-22 -2.5q-9 -1 -19.5 -2.5t-15.5 -2.5t-17 -2.5t-24 -2.5
q-12 -2 -21.5 -3t-11.5 -2q-1 0 -11.5 -1.5t-24.5 -2.5t-26 -3t-15 -2q-3 -1 -14 -2.5t-23 -2.5q-12 -2 -23 -3.5t-14 -1.5q-6 -2 -7.5 -28t-1.5 -141l1 -165h428v195q0 80 -0.5 137.5l-0.5 57.5q-1 0 -2.5 -0.5t-1.5 -1.5v0zM1 236q0 -69 1 -118.5t2 -49.5t5 -0.5t8 -1.5
q4 0 15.5 -1.5t23.5 -3.5q12 -1 34.5 -4t41.5 -6q19 -2 40.5 -5t32.5 -5q25 -3 40 -5t32 -4q7 -1 24 -3t33 -4t35 -4.5t28 -3.5q11 -2 19 -3.5t10 -2.5q1 -1 2 56.5t1 139.5v198h-429l1 -169v0zM502 396v-61.5t-1 -136.5q0 -117 1.5 -154t5.5 -39q3 -2 24 -5.5t48 -6.5
q27 -4 49.5 -7t26.5 -4q4 0 14 -1l20 -2q10 -2 20.5 -3.5t16.5 -2.5q5 -1 15 -2.5t19 -2.5t19 -2t15 -2t17 -2.5t24 -2.5q12 -2 23.5 -3.5t15.5 -1.5q18 -3 92.5 -13t86.5 -12l18 -3l1 240v239h-285q-202 0 -244 -1.5t-42 -7.5v0z" />
    <glyph glyph-name="uniE901" unicode="&#xe901;" 
d="M292 944q-64 -9 -114 -23t-85.5 -33t-55.5 -44t-26 -54q-5 -28 39 -39t159 -11q46 0 112 2.5t91 5.5q94 11 126 15t46 7q4 1 12 2t15 2q23 3 70 15.5t64 20.5q24 10 32.5 20t5.5 24q-5 28 -54 50t-140 37q-21 3 -61.5 5t-85.5 2.5t-86.5 -0.5t-63.5 -4v0zM687 737
q-38 -11 -101 -25.5t-94 -18.5q-32 -4 -77.5 -6t-95 -2t-97.5 1.5t-83 5.5q-5 1 -18 2.5t-26 2.5t-25 2.5t-17 1.5q-14 2 -28 -3t-19 -14q-4 -6 -5 -21.5t0 -60.5q1 -49 2.5 -62.5t7.5 -19.5q10 -12 24 -16.5t44 -7.5q16 -1 30.5 -2t18.5 -2q22 -4 76 -5.5t114 -1.5t113 2
t72 5q5 1 14.5 2t17.5 2q28 3 76.5 13t81.5 20q57 17 69 35.5t12 89.5q1 53 -2 71.5t-12 23.5q-9 4 -21 2t-52 -14v0zM726 450q-25 -22 -46 -46.5t-33 -46.5q-13 -25 -3.5 -40t51.5 -36q23 -12 52 -22.5t31 -8.5q1 1 2 6t1 11q0 13 4 21.5t11 10.5q11 5 48.5 -15.5
t57.5 -42.5q24 -27 24 -58t-24 -59q-27 -33 -64.5 -27.5t-98.5 50.5q-48 37 -67.5 44.5t-34.5 -3.5q-9 -7 -15.5 -24t-4.5 -30q1 -5 4 -17.5t7 -25.5q9 -27 24.5 -45.5t39.5 -30.5q47 -22 92.5 -28t86.5 3.5t74 33t54 60.5q31 57 21.5 115.5t-57.5 106.5q-24 24 -54 41
t-71 30t-56.5 25.5t-22.5 37.5q-2 8 -5 14.5t-6 7.5q-2 1 -8.5 -2.5t-13.5 -9.5v0zM23 422q-15 -7 -19 -22t-4 -70q0 -49 1.5 -61t8.5 -22q8 -13 24 -19t50 -8q13 -2 29.5 -3.5t25.5 -2.5q25 -2 65 -3.5t82 -2t78.5 0t53.5 1.5q8 1 23 2.5t28 2.5t25 2t16 2q3 1 10 2t13 2
t13.5 2.5t11.5 1.5q3 1 11.5 2.5t16.5 2.5q17 2 29 12t12 21q0 5 -3 15t-8 21q-11 25 -23 58t-10 34q1 1 -3 6.5t-10 11.5q-12 12 -17 14t-25 0q-11 -2 -21.5 -3t-14.5 -2q-3 -1 -12 -2l-18 -2q-10 -1 -23 -2.5t-22 -2.5t-38 -2t-62 -1t-63.5 1t-44.5 2q-10 1 -26.5 2
t-31.5 2q-14 1 -28.5 2.5t-20.5 2.5q-35 3 -54 4t-25 -2v0zM13 137l-13 -13v-69q0 -79 13.5 -92t101.5 -22q66 -6 129 -9t117.5 -3t97 2.5t67.5 7.5q7 2 15.5 4t13.5 2q19 4 29 7.5t16 9.5l10 9l-8 16q-4 6 -12 28t-16 47q-20 58 -30.5 68.5t-50.5 7.5q-16 -1 -34 -2.5
t-28 -2.5q-21 -1 -92 -1t-96 1q-9 1 -31 2.5t-43 2.5q-22 1 -37.5 2.5t-16.5 1.5q-1 1 -14.5 2t-30.5 3l-44 3l-13 -13v0z" />
    <glyph glyph-name="uniE902" unicode="&#xe902;" 
d="M308 946q-2 -3 -3.5 -17t-1.5 -40q0 -37 1.5 -45.5t7.5 -11.5q5 -3 8 -2.5t7 4.5q5 4 6 14.5t1 43.5q0 30 -1.5 41.5t-5.5 13.5q-6 4 -10.5 3.5t-8.5 -4.5v0zM390 944q-2 -5 -2.5 -44t1.5 -60q0 -7 7 -9.5t14 1.5q5 3 6.5 12t1.5 45q0 37 -1.5 46t-6.5 12q-9 4 -13 3.5
t-7 -6.5v0zM467 943q-1 -3 -2.5 -19t-1.5 -36q1 -28 2 -39.5t5 -14.5q5 -5 8 -5.5t9 3.5q4 2 5.5 13.5t1.5 43.5q0 36 -1 45.5t-6 12.5q-8 4 -12 3.5t-8 -7.5v0zM553 947q-3 -2 -4.5 -13t-1.5 -39v-36.5t1 -19.5q2 -6 8 -8.5t14 1.5q5 3 6.5 12t1.5 45q0 44 -5 55.5t-20 2.5
zM636 946q-3 -5 -4 -47.5t1 -54.5q2 -10 8 -13t15 1q5 3 6.5 12t1.5 45q0 37 -1.5 46t-6.5 12q-8 4 -12.5 4t-7.5 -5v0zM721 945q-2 -3 -3 -17.5t0 -40.5q1 -33 2.5 -43.5t5.5 -13.5q4 -2 7 -1.5t7 4.5q7 7 7.5 58.5t-6.5 55.5q-6 4 -11 3.5t-9 -5.5zM264 788
q-24 -4 -42.5 -17.5t-30.5 -34.5l-9 -17v-274q0 -230 3 -261t26 -54q22 -21 60 -24t262 -2l269 1l20 12q9 6 17.5 14.5t14.5 18.5l12 20l1 273q1 193 0 235t-6 54q-8 16 -20 28t-30 20q-14 7 -50.5 8t-228.5 1q-107 0 -185.5 -0.5t-82.5 -0.5v0zM8 668q-6 -4 -6 -12.5
t6 -11.5q3 -1 19 -2t36 -1q28 -1 39 0.5t15 5.5q5 5 5.5 11t-4.5 9t-55 3.5t-55 -2.5v0zM911 665q-6 -5 -6 -9t6 -9q3 -4 15.5 -5t43.5 -1l52 1v28l-52 1q-31 0 -43.5 -1t-15.5 -5v0zM11 587q-6 -1 -8.5 -7.5t1.5 -14.5q3 -5 12 -6t45 -1q31 0 43 1t15 5t2 13t-5 10
q-7 1 -54 1t-51 -1v0zM910 581q-4 -4 -4.5 -7t2.5 -7q3 -5 13.5 -6t45.5 -1h55l1 13q1 5 0.5 9t-2.5 5q-1 0 -17 0.5t-37 0.5q-33 0 -43 -1t-14 -6v0zM9 500q-7 -3 -8.5 -8t3.5 -12q2 -4 13.5 -5t42.5 -2q22 0 39 1t19 3q5 4 4.5 12t-6.5 11q-7 3 -52 3.5t-55 -3.5v0z
M917 502q-7 -2 -9 -8.5t2 -13.5q4 -5 13 -6.5t46 -0.5l53 1v28l-49 1q-20 0 -36.5 -0.5t-19.5 -0.5zM11 419q-6 -1 -8.5 -7.5t1.5 -14.5q3 -5 12 -6t45 -1q26 0 40.5 1t16.5 4q6 5 4.5 12t-8.5 10q-7 2 -50 3t-53 -1v0zM917 419q-3 0 -5.5 -3t-3.5 -7q-3 -13 7 -16t54 -3h55
v14q0 6 -1.5 10t-3.5 5q-10 1 -54 1t-48 -1v0zM6 338q-6 -6 -6 -10t6 -9q4 -4 15.5 -5t40.5 -1q39 0 50 3t11 13q0 9 -10.5 11.5t-50.5 2.5q-29 0 -40.5 -1t-15.5 -4v0zM917 341q-6 -1 -9 -6.5t0 -11.5q2 -7 15 -9t52 -1l47 1l1 13q1 6 0.5 10t-2.5 4q-5 1 -52 1.5t-52 -1.5
v0zM12 257q-10 -2 -12 -8.5t5 -13.5q6 -6 57.5 -5.5t56.5 6.5q4 5 2 14t-8 9q-19 2 -56 1t-45 -3v0zM923 259q-10 -1 -14 -7t0 -13q3 -7 12 -8t48 -1h55v12q0 5 -1.5 9.5t-3.5 5.5q-3 2 -43.5 3t-52.5 -1v0zM310 45q-4 -3 -5.5 -12.5t-1.5 -43.5q0 -40 3 -51t14 -11
q8 0 10.5 10t3.5 49q0 28 -1 40t-5 17q-5 6 -7.5 6.5t-10.5 -4.5v0zM392 44q-3 -3 -4 -15.5t-1 -40.5q1 -46 2 -51.5t8 -7.5q13 -4 17 6.5t4 51.5q0 30 -1.5 41t-5.5 15q-6 6 -9.5 6.5t-9.5 -5.5v0zM469 43q-4 -4 -5 -15t-1 -38q0 -20 1 -36t3 -19q4 -8 12 -8t12 7q3 7 3 57
t-4 53q-4 4 -10 4t-11 -5zM553 43q-4 -4 -6 -46t1 -57q2 -8 9.5 -11t13.5 2q7 5 7 57.5t-5 55.5q-7 4 -12 4t-8 -5v0zM639 46q-3 -2 -4.5 -13t-2.5 -39q0 -40 3 -53.5t12 -13.5q10 0 13.5 12.5t3.5 50.5q0 28 -1.5 38.5t-5.5 14.5q-6 6 -9 6.5t-9 -3.5v0zM721 44
q-2 -2 -3 -17.5t-1 -40.5q0 -35 1 -45t5 -12q7 -2 15 0.5t8 6.5q2 24 0.5 64t-4.5 42q-5 5 -11 5.5t-10 -3.5v0z" />
    <glyph glyph-name="uniE903" unicode="&#xe903;" 
d="M418 943q-22 -12 -25 -61t-3 -388v-201t1 -128.5t2 -70t3 -25.5q10 -20 31 -25t92 -5q50 0 71 1.5t29 5.5q23 12 26.5 61t3.5 388q0 342 -3.5 389t-28.5 59q-8 4 -37.5 6t-63 2t-62 -2t-36.5 -6v0zM785 761q-25 -13 -28.5 -52.5t-3.5 -306.5q1 -223 2 -274.5t7 -60.5
q13 -20 30.5 -24t90.5 -4q63 0 78.5 1.5t26.5 9.5q7 4 13 11.5t7 14.5q1 3 2 30.5t1.5 73t0.5 105v125.5q0 225 -1.5 274.5t-7.5 58.5q-11 17 -32.5 21.5t-88.5 4.5q-51 1 -69 -0.5t-28 -7.5v0zM64 619q-10 -4 -16.5 -10.5t-12.5 -17.5q-3 -5 -4.5 -85.5t-1.5 -175.5
t1.5 -175t5.5 -86q2 -5 8 -11.5t13 -9.5q10 -6 27.5 -7.5t73.5 -1.5q51 0 71.5 1.5t28.5 5.5q23 12 26.5 46t3.5 240q0 166 -1.5 210t-6.5 53q-12 20 -31 24.5t-89 4.5q-35 0 -63 -1.5t-33 -3.5v0zM8 -28q-8 -9 -7.5 -18t9.5 -17q7 -8 72 -9t430 -1t430 1t72 9q9 9 9.5 18.5
t-8.5 16.5q-6 6 -84.5 7t-419.5 1q-355 0 -426 -1t-77 -7v0z" />
    <glyph glyph-name="uniE904" unicode="&#xe904;" horiz-adv-x="1182" 
d="M591 942q-3 -3 -5.5 -7t-2.5 -5q0 -2 -8.5 -24t-20.5 -52l-29 -71l-86 -3v-26q0 -11 0.5 -19t2.5 -9q1 -1 10 -1.5t21 -0.5h19h8q0 -1 -6 -16l-14 -35q-8 -22 -13 -38t-4 -19q2 -8 9.5 -11.5t15.5 -2.5q4 1 13 2l18 2q10 1 18 2.5t10 1.5q3 1 12 2t20 2t20 2t11 2
q3 1 11 2t17 2l18 2t14 2q4 1 12.5 2t16.5 2l16 2t12 1q3 1 18.5 3t33.5 4q49 6 55.5 16.5t-20.5 43.5q-6 8 -10 14t-3 8q1 1 15.5 1.5t32.5 0.5q28 0 37 -1t10 -5v-25t0.5 -64.5t0.5 -94.5t-1 -115v-293h-225q-93 0 -160 -1t-69 -2q-2 -3 -3 -44.5t2 -41.5q1 -1 78 -1h185
l261 -1v747h-52h-52l17 9q8 4 22.5 10t27.5 10q19 7 33 9t41 2q29 0 41 -1.5t30 -9.5q12 -4 26.5 -12t22.5 -15q9 -7 17.5 -13t12.5 -8q12 -7 21.5 1.5t4.5 22.5q-5 12 -21.5 33.5t-33.5 35.5q-19 18 -25.5 23t-22.5 14q-34 20 -73.5 30t-85.5 10.5t-97 -8.5t-107 -28
q-18 -6 -30.5 -9.5t-13.5 -3.5q-8 12 -27 35.5t-23 26.5q-6 5 -13 4t-14 -8v0zM7 944q-5 -1 -6 -78t-1 -431v-508h410v25v226.5v332t-0.5 300t-1.5 131.5t-62 1.5t-135 1t-137 0.5t-67 -1v0zM356 888q5 0 5 -41.5t-5 -41.5q-4 -1 -49.5 -1t-99 -0.5t-97.5 0t-45 0.5
q-2 1 -3 12t-1 32q0 17 0.5 29.5t1.5 12.5q16 0 63.5 -0.5t98.5 -0.5t90.5 -0.5t40.5 -0.5v0zM288 539v-36l-166 -1v73h166v-36zM249 305q26 -19 34.5 -46.5t-3.5 -54.5q-19 -41 -63 -47.5t-74 27.5q-20 23 -19 55.5t22 53.5q20 19 51 22.5t52 -10.5v0zM151 553
q-4 -1 -5.5 -4.5t-1.5 -11.5v-13l57 -1q23 0 41.5 0.5t19.5 0.5q4 2 4.5 15.5t-2.5 13.5q-6 2 -57.5 1.5t-55.5 -1.5v0zM178 290q-15 -7 -24 -22t-9 -32q0 -35 30.5 -52t61.5 2q27 15 28 48t-24 51q-12 8 -31 10t-32 -5v0zM440 -33v-16.5t1 -7.5q0 -1 20.5 -1.5t49.5 -0.5
h70l2 12q1 5 1 12v12l-2 13h-143l1 -23v0z" />
    <glyph glyph-name="uniE905" unicode="&#xe905;" horiz-adv-x="886" 
d="M440 883q-54 -31 -87 -51.5t-34 -23.5q-5 -7 2.5 -14.5t35.5 -23.5q44 -24 75.5 -41.5t42.5 -23.5q5 -4 19.5 -12t29.5 -16q27 -15 38.5 -18.5t15.5 4.5q1 2 2 12.5t1 22.5v31l30 -1q56 -2 98 -17t69 -42q16 -16 25.5 -33.5t15.5 -41.5q5 -20 12 -25.5t17 1.5q5 3 7 14.5
t2 34.5q-2 69 -48 126.5t-130 94.5q-22 10 -51 20.5t-35 10.5q-1 0 -3.5 1.5t-4.5 3.5q-3 2 -4 8.5t-1 25.5q0 24 -2 31t-12 8q-5 1 -29 -11.5t-97 -54.5v0zM172 646q-8 -3 -13 -9.5t-8 -15.5q-2 -5 -4 -8.5t-4 -3.5t-9.5 -1t-16.5 -2q-9 0 -17 -1t-10 -1q-2 -1 -9.5 -2
t-15.5 -2q-8 0 -15.5 -1t-9.5 -1t-7 -0.5t-9 -0.5q-8 -1 -8.5 -1.5t4.5 -1.5q3 -1 9.5 -2t12.5 -2q12 -1 22 -2.5t23 -3.5q5 0 12 -1t13 -2q6 0 13 -1t11 -1q4 -1 10 -2t10 -1q5 -1 18 -2.5t27 -3.5q13 -1 25 -2.5t16 -1.5q8 -1 7 -3t-10 -3h-10h-8q-3 -1 -11 -1.5t-16 -1.5
q-9 -1 -18.5 -2t-14.5 -2q-16 -1 -30 -2.5t-29 -2.5q-7 -1 -16 -1.5t-14 -1.5q-29 -3 -41 -4t-16 -1q-6 0 -5.5 -1.5t6.5 -1.5q2 0 10.5 -1.5t19.5 -2.5q10 -1 19.5 -2.5t11.5 -1.5q7 -1 39 -5.5t43 -5.5q5 -1 14 -2l18 -2q8 -2 17.5 -3t14.5 -2q24 -3 24 -4.5t-23 -3.5
q-11 -1 -21.5 -1.5t-14.5 -1.5q-4 0 -13.5 -1t-19.5 -1l-20 -2t-15 -1q-4 -1 -13.5 -1.5t-17.5 -1.5q-9 -1 -20 -1.5t-18 -1.5t-14.5 -1.5t-11.5 -0.5q-14 -2 -12.5 -3t22.5 -4q11 -2 21.5 -4t14.5 -3q5 -1 20.5 -3.5t31.5 -5.5q4 -1 9 -2t9 -1l9 -2v-33q0 -23 1 -27.5
t5 -4.5q3 -1 115 -1h246.5h246.5t116 1q4 0 5 2.5t1 12.5q0 16 -5.5 26t-20.5 24q-7 7 -14.5 14t-10.5 11q-4 3 -16.5 14.5t-25.5 24.5q-14 12 -28 25.5t-21 19.5q-18 17 -27.5 20.5t-43.5 3.5q-17 0 -29.5 0.5t-13.5 0.5t-1.5 4.5t-0.5 11.5q0 8 -1 14t-4 11
q-8 13 -34.5 15t-200.5 2q-98 0 -155.5 -1t-60.5 -2v0zM703 550q2 -1 10 -7t17 -15l18 -16t12 -11q4 -4 13 -11.5t18 -16.5q17 -14 21.5 -20t1.5 -8q-2 -1 -69 -1.5t-73 0.5q-2 0 -2 52.5t1 53.5q2 2 15 2t17 -2v0zM151 330q0 -29 1 -37t5 -14q6 -9 15.5 -11.5t33.5 -2.5
l27 1l5 14q11 34 45.5 51.5t70.5 8.5q15 -4 24 -8.5t20 -15.5q8 -8 18 -24.5t10 -23.5q0 -2 21 -2.5t75 -0.5q65 0 80.5 0.5t16.5 3.5q4 14 11 26t15 19q36 36 86 28t73 -53q3 -5 5 -10.5t2 -8.5t3.5 -4t20.5 -1q20 0 29 3t16 13q4 5 5 13t1 37v41h-736l1 -42v0zM311 318
q-13 -3 -21.5 -8.5t-15.5 -13.5q-18 -21 -17 -47t21 -46q4 -4 8 -7t5 -3t4.5 -14.5t3.5 -19.5q0 -1 -2.5 -2t-6.5 -2q-4 0 -9 -1t-8 -2q-43 -7 -87 -4t-72 16q-13 6 -30 18.5t-24 22.5q-5 5 -11 15t-11 18q-10 19 -17.5 23.5t-14.5 -3.5q-4 -3 -5 -7t0 -13
q8 -71 57.5 -122.5t133.5 -77.5q12 -4 28 -7.5t26 -5.5q11 -2 21 -3.5t12 -1.5q3 -1 11.5 -2t17.5 -1q9 -1 16.5 -2t8.5 -2q0 -1 3 -10.5t6 -21.5q8 -38 18.5 -37.5t51.5 38.5q6 6 31.5 29t42.5 38q5 5 10.5 10t7.5 6q1 2 10.5 10.5t21.5 18.5q31 28 36.5 36t-0.5 16
q-1 3 -24 10.5t-61 19.5q-34 10 -60.5 18.5t-29.5 9.5l-9 3l7 13q7 13 8 26t-3 26q-5 12 -10 19.5t-16 14.5q-14 10 -31 13.5t-32 -1.5v0zM351 280q11 -8 14 -19.5t-3 -23.5t-12.5 -14.5t-22.5 2.5q-8 3 -14.5 4.5t-8.5 1.5q-8 0 -10 14t5 24q7 13 23 16t29 -5v0zM702 320
q-19 -3 -35 -17t-22 -32q-2 -5 -2.5 -12t0.5 -14q5 -46 51.5 -59t77.5 22q14 16 16.5 34.5t-6.5 37.5q-10 22 -32 33t-48 7v0zM737 280q21 -15 13 -39t-35 -24q-15 0 -26.5 12t-9.5 25q1 3 1.5 5.5t0.5 3.5q0 3 7 10.5t12 9.5q6 3 18.5 2t18.5 -5v0z" />
    <glyph glyph-name="uniE906" unicode="&#xe906;" 
d="M643 945q-40 -7 -85.5 -26.5t-68.5 -39.5q-4 -4 -9 -8t-8 -7q-23 -19 -43.5 -53t-28.5 -65q-5 -21 -3.5 -52.5t7.5 -51.5q11 -37 37 -71t62 -59l20 -13l-6 -20q-6 -21 -18 -44t-25 -40q-6 -7 -10 -13l-4 -6q1 -2 38.5 5t51.5 11q24 7 50.5 20.5t40.5 25.5l17 15l38 -2
q54 -2 103.5 10t91 35.5t73 58t47.5 76.5q7 17 9 29t2 41q-1 28 -2.5 40t-8.5 29q-25 65 -81.5 108.5t-142.5 64.5q-20 5 -70 5.5t-74 -3.5v0zM584 744q19 -10 24.5 -30.5t-5.5 -38.5q-15 -24 -43 -23t-41 27q-9 18 -3 37.5t24 27.5q12 5 23 5t21 -5zM735 742
q17 -10 21.5 -30t-5.5 -37q-15 -25 -45 -23t-41 29q-14 33 13 56.5t57 4.5v0zM887 739q19 -14 18 -39.5t-21 -38.5q-12 -8 -23 -9t-25 5q-26 11 -26.5 43t26.5 45q11 5 26 3.5t25 -9.5v0zM101 626q-15 -4 -49 -35t-44 -49q-5 -9 -6 -36t3 -48q4 -23 14.5 -53t23.5 -57
q15 -30 22 -41.5t26 -40.5q26 -38 48 -65t57 -63q49 -50 101.5 -90t103 -68t97 -41.5t82.5 -10.5q22 2 34 9t37 32q27 27 37.5 47t7.5 39q-2 16 -13.5 33t-30.5 33q-56 46 -90.5 48.5t-74.5 -37.5q-12 -12 -18 -15.5t-15 -3.5q-23 0 -60.5 26t-93.5 81q-55 55 -85 97t-30 66
q0 9 3.5 15.5t17.5 20.5q21 22 29 38t6 33t-10 35.5t-23 38.5q-29 39 -55 54t-52 8v0zM110 553q6 -11 10.5 -19.5l4.5 -8.5q0 -1 -2 -2t-4 -1q-10 0 -26.5 -12.5t-21.5 -22.5q-5 -11 -6.5 -34.5t1.5 -37.5q4 -14 0 -9.5t-13 23.5q-18 40 -13.5 71.5t31.5 58.5q9 8 15 14t7 6
l5 -7.5t12 -18.5v0zM616 35q10 -5 17 -10t7 -6q0 -2 -6 -9t-16 -16q-29 -27 -60.5 -31.5t-68.5 12.5l-23 11h35q22 0 31 1.5t16 5.5q13 8 21 18.5t12 22.5q2 6 4.5 10t3.5 4q2 0 10 -4t17 -9v0z" />
    <glyph glyph-name="uniE907" unicode="&#xe907;" horiz-adv-x="1074" 
d="M0 439v-512l807 2v130q0 54 -1 92t-2 37q-1 0 -11.5 -9.5t-23.5 -23.5q-15 -14 -24 -25t-9 -14v-21.5v-40.5l-1 -55h-331q-235 0 -283.5 1t-48.5 5q0 1 -0.5 36.5t-0.5 95.5v139.5v168.5l-1 434h18h107h215.5h213.5h102h9v-161v-162l10 10q4 4 15 14t21 21l26 25v323
l-807 2v-512v0zM172 761q-12 -6 -17 -16.5t-1 -23.5q7 -23 30 -25t33 20q3 4 4.5 9t1.5 7q0 7 -7.5 17t-16.5 14q-11 4 -13 4t-14 -6v0zM273 759q-5 -4 -6.5 -10.5t-0.5 -25.5q1 -21 21.5 -24t172.5 -3q154 0 174 3t21 28q0 18 -3 25.5t-10 10.5q-3 1 -57.5 2t-127.5 1
q-124 0 -151.5 -1t-32.5 -6v0zM780 505q-71 -69 -120 -119.5t-48 -51.5l19 -19t41 -42l41.5 -41.5t18.5 -17.5t10 8.5t20 19.5q12 12 62 61.5t108 108.5l143 141l-61 61q-24 25 -42.5 42.5t-19.5 17.5t-51.5 -49.5t-120.5 -119.5v0zM281 620q-9 -3 -12.5 -10.5t-3.5 -21.5
q0 -19 3 -26t13 -9q4 -1 59 -1.5t120 -0.5t120 0.5t60 1.5q9 2 12 10t3 26q0 10 -2 15.5t-6 9.5q-5 6 -29.5 6.5t-154.5 1.5q-72 0 -126 -0.5t-56 -1.5v0zM170 617q-12 -5 -16.5 -21.5t4.5 -28.5q12 -17 31 -16t28 20q11 23 -5.5 39.5t-41.5 6.5v0zM572 294q-2 -2 -12 -24.5
t-23 -51.5t-25 -56.5t-17 -37.5q-11 -24 -14 -31.5t0 -7.5q2 0 35.5 14.5t73 32t72 32t33.5 15.5q0 1 -18 20t-40 41.5t-41 41.5t-20 19l-1.5 -2t-2.5 -5v0z" />
    <glyph glyph-name="uniE908" unicode="&#xe908;" horiz-adv-x="694" 
d="M290 946q-41 -7 -78.5 -23t-70 -39.5t-59.5 -54.5t-46 -68q-7 -12 -16 -37.5t-11 -36.5q-1 -4 -2.5 -11t-2.5 -14q-4 -18 -2.5 -55t6.5 -56q5 -18 15 -49t15 -42q2 -4 7 -15t10 -23q16 -38 45 -93t65 -117t76 -125.5t78 -119.5l28 -40l41 61q27 40 67.5 103.5t48.5 78.5
q2 2 12 19.5t22 39.5q21 36 43 78t41.5 82t33.5 72.5t18 48.5q1 4 4 14.5t6 21.5q9 30 8.5 72.5t-9.5 76.5q-17 60 -53 110.5t-88 84.5q-30 21 -63 34t-76 22q-13 3 -54 3t-59 -3v0zM382 786q7 -2 13 -3.5t9 -1.5q12 -3 35 -17.5t36 -28.5q32 -31 43.5 -71t5 -79t-31 -73
t-64.5 -54q-42 -20 -84.5 -19.5t-83.5 22.5q-38 20 -61 54t-29 72.5t5.5 78t42.5 70.5q16 16 39 29t44 18q17 5 41 5.5t40 -2.5v0z" />
    <glyph glyph-name="uniE909" unicode="&#xe909;" 
d="M167 943q-9 -12 -12 -23.5t-4 -40.5q-1 -33 1.5 -42t15.5 -22q16 -15 36 -17t36 11q10 7 13 16.5t5 34.5q3 43 -2 63t-21 28q-21 11 -38 8.5t-30 -16.5zM485 953q-18 -11 -22.5 -24.5t-3.5 -54.5q1 -36 3.5 -47t12.5 -18q13 -11 36.5 -11.5t33.5 9.5q13 13 16.5 27
t2.5 50q-1 33 -3.5 42.5t-14.5 19.5q-13 11 -30 13t-31 -6v0zM781 945q-11 -10 -13.5 -20t-2.5 -45q0 -46 9 -61.5t37 -19.5q15 -2 22.5 0.5t18.5 11.5q13 10 15.5 19.5t3.5 45.5t-1 45.5t-15 21.5q-16 17 -36.5 17.5t-37.5 -15.5v0zM307 900q-1 -2 -2 -14.5t-1 -29.5
q-1 -25 -4.5 -37.5t-13.5 -24.5q-18 -24 -35 -33t-47 -8q-45 0 -70 27t-27 78q0 15 -1 25.5l-1 10.5q-1 0 -6 -1.5t-10 -4.5q-20 -7 -42 -29.5t-33 -45.5l-13 -29v-359q0 -304 5 -357t39 -86q36 -35 90.5 -40.5t375.5 -5.5q312 0 369.5 4.5t91.5 32.5q9 7 19.5 20t16.5 23
l13 25v753l-14 27q-10 20 -40 46.5t-42 26.5q-4 0 -6 -8.5t-2 -26.5q0 -50 -29 -79.5t-76 -27.5q-27 2 -48 14.5t-33 35.5q-12 19 -13 26t-1 40v36l-53 -1l-51 -1l-2 -40q-2 -45 -19.5 -71t-52.5 -35q-34 -9 -63 1.5t-48 37.5q-8 12 -11 25t-4 39l-1 44h-52q-22 0 -37.5 -1
t-15.5 -2v0zM923 620q7 -4 13 -12t8 -15q2 -6 3 -84.5t1 -181.5v-251l-14 -22q-22 -32 -69.5 -37t-352.5 -5q-307 0 -354 5t-66 39q-10 17 -12 54t-2 227v257l40 38h395q280 0 339 -2t71 -10v0zM346 534q-5 -1 -16.5 -5.5t-22.5 -9.5t-26.5 -12t-26.5 -11q-17 -8 -21 -12.5
t-2 -15.5q5 -29 9 -42.5t6 -13.5t13.5 5t26.5 12q15 8 26.5 12t12.5 4q2 -1 2.5 -49.5t0.5 -115.5q0 -79 2 -121t4 -43h33.5h40.5l20 1v208q0 85 -1.5 146t-3.5 62q-12 1 -40.5 1.5t-36.5 -0.5v0zM547 532q-2 -2 -5.5 -15t-5.5 -30q-2 -18 -4.5 -36.5t-3.5 -26.5
q-1 -9 -3 -25t-4 -29q-1 -14 -3 -26.5t-4 -16.5q-1 -6 8 -8t45 -2q66 -1 96 -17.5t30 -51.5q-1 -38 -42.5 -54.5t-99.5 -0.5q-14 3 -25 5.5t-13 2.5q-4 0 -11.5 -27.5t-7.5 -38.5q0 -13 64 -21.5t106 -0.5q54 9 92.5 47.5t41.5 85.5q3 62 -38.5 101t-116.5 43
q-28 1 -32.5 3.5t-3.5 15.5q3 36 12.5 40.5t79.5 4.5h84l-1 39q-1 16 -2.5 27.5t-2.5 12.5q-6 1 -42 1.5t-77 0t-75 -1t-36 -1.5v0z" />
    <glyph glyph-name="uniEA36" unicode="&#xea36;" 
d="M512 -32l480 480h-288v512h-384v-512h-288z" />
  </font>
</defs>
</svg>
